<svg width="192" height="104" viewBox="0 0 192 104" fill="none" xmlns="http://www.w3.org/2000/svg">
<path fill-rule="evenodd" clip-rule="evenodd" d="M25 52.146C25 35.497 38.496 22 55.145 22C71.794 22 85.29 35.497 85.29 52.146C85.29 68.794 71.794 82.291 55.145 82.291C38.496 82.291 25 68.794 25 52.146ZM56.916 41.906C56.916 46.583 60.707 50.375 65.385 50.375C70.062 50.375 73.854 46.583 73.854 41.906C73.854 37.228 70.062 33.437 65.385 33.437C60.707 33.437 56.916 37.228 56.916 41.906Z" fill="#C5010A"/>
<path d="M97.7818 46.5426C96.6438 46.5426 95.6668 46.2986 94.8518 45.8096C94.0358 45.3216 93.4078 44.6396 92.9678 43.7646C92.5278 42.8906 92.3078 41.8786 92.3078 40.7296C92.3078 39.5816 92.5278 38.5666 92.9678 37.6866C93.4078 36.8066 94.0358 36.1196 94.8518 35.6256C95.6668 35.1326 96.6438 34.8856 97.7818 34.8856C99.1348 34.8856 100.243 35.2206 101.106 35.8916C101.972 36.5626 102.511 37.5046 102.726 38.7176H100.456C100.315 38.1056 100.019 37.6246 99.5608 37.2766C99.1048 36.9276 98.5008 36.7526 97.7498 36.7526C96.7088 36.7526 95.8928 37.1066 95.3028 37.8156C94.7118 38.5236 94.4168 39.4956 94.4168 40.7296C94.4168 41.9646 94.7118 42.9336 95.3028 43.6366C95.8928 44.3396 96.7088 44.6906 97.7498 44.6906C98.5008 44.6906 99.1048 44.5276 99.5608 44.1996C100.019 43.8726 100.315 43.4186 100.456 42.8386H102.726C102.511 43.9986 101.972 44.9056 101.106 45.5596C100.243 46.2146 99.1348 46.5426 97.7818 46.5426Z" fill="#C5010A"/>
<path fill-rule="evenodd" clip-rule="evenodd" d="M108.329 46.5425C107.555 46.5425 106.861 46.3655 106.244 46.0115C105.625 45.6565 105.137 45.1655 104.778 44.5375C104.418 43.9095 104.239 43.1825 104.239 42.3555C104.239 41.5295 104.421 40.8025 104.786 40.1745C105.151 39.5465 105.642 39.0555 106.259 38.7015C106.876 38.3465 107.572 38.1695 108.344 38.1695C109.107 38.1695 109.796 38.3465 110.414 38.7015C111.031 39.0555 111.519 39.5465 111.878 40.1745C112.238 40.8025 112.418 41.5295 112.418 42.3555C112.418 43.1825 112.238 43.9095 111.878 44.5375C111.519 45.1655 111.028 45.6565 110.406 46.0115C109.783 46.3655 109.09 46.5425 108.329 46.5425ZM108.344 39.9565C107.797 39.9565 107.328 40.1585 106.936 40.5605C106.543 40.9635 106.348 41.5615 106.348 42.3555C106.348 43.1505 106.543 43.7485 106.936 44.1515C107.328 44.5535 107.791 44.7545 108.329 44.7545C108.865 44.7545 109.332 44.5535 109.729 44.1515C110.126 43.7485 110.325 43.1505 110.325 42.3555C110.325 41.5615 110.126 40.9635 109.729 40.5605C109.332 40.1585 108.871 39.9565 108.344 39.9565Z" fill="#C5010A"/>
<path d="M124.139 38.1699C123.559 38.1699 123.026 38.2979 122.537 38.5559C122.048 38.8139 121.66 39.1629 121.369 39.6029C120.855 38.6479 119.98 38.1699 118.745 38.1699C118.187 38.1699 117.696 38.2849 117.272 38.5159C116.848 38.7469 116.507 39.0549 116.249 39.4419L116.073 38.3629H114.253V46.3489H116.314V42.2269C116.314 41.4979 116.483 40.9289 116.821 40.5209C117.16 40.1129 117.602 39.9089 118.15 39.9089C118.707 39.9089 119.12 40.0909 119.389 40.4559C119.658 40.8209 119.791 41.3469 119.791 42.0339V46.3489H121.853V42.2269C121.853 41.4979 122.022 40.9289 122.36 40.5209C122.698 40.1129 123.146 39.9089 123.704 39.9089C124.251 39.9089 124.657 40.0909 124.92 40.4559C125.183 40.8209 125.315 41.3469 125.315 42.0339V46.3489H127.375V41.8409C127.375 40.6389 127.096 39.7259 126.538 39.1039C125.98 38.4819 125.18 38.1699 124.139 38.1699Z" fill="#C5010A"/>
<path fill-rule="evenodd" clip-rule="evenodd" d="M136.086 38.7171C136.676 39.0821 137.143 39.5811 137.487 40.2141C137.83 40.8481 138.002 41.5671 138.002 42.3721C138.002 43.1771 137.83 43.8931 137.487 44.5211C137.143 45.1491 136.676 45.6431 136.086 46.0031C135.495 46.3621 134.825 46.5421 134.074 46.5421C133.472 46.5421 132.947 46.4301 132.495 46.2041C132.045 45.9791 131.68 45.6621 131.401 45.2541V49.8911H129.34V38.3631H131.175L131.401 39.5061C131.659 39.1521 131.999 38.8411 132.423 38.5721C132.847 38.3041 133.398 38.1701 134.074 38.1701C134.825 38.1701 135.495 38.3521 136.086 38.7171ZM133.639 44.7391C134.293 44.7391 134.835 44.5191 135.265 44.0791C135.695 43.6391 135.91 43.0701 135.91 42.3721C135.91 41.6741 135.695 41.1001 135.265 40.6491C134.835 40.1991 134.293 39.9731 133.639 39.9731C132.973 39.9731 132.428 40.1961 132.004 40.6411C131.58 41.0871 131.369 41.6581 131.369 42.3561C131.369 43.0541 131.58 43.6251 132.004 44.0711C132.428 44.5161 132.973 44.7391 133.639 44.7391Z" fill="#C5010A"/>
<path fill-rule="evenodd" clip-rule="evenodd" d="M143.075 41.6315C141.915 41.6315 141.045 41.8625 140.466 42.3235C139.886 42.7855 139.596 43.3865 139.596 44.1265C139.596 44.5675 139.704 44.9695 139.918 45.3345C140.133 45.6995 140.46 45.9925 140.901 46.2125C141.34 46.4325 141.905 46.5425 142.591 46.5425C143.256 46.5425 143.801 46.4025 144.226 46.1235C144.65 45.8445 144.98 45.4905 145.216 45.0605L145.409 46.3495H147.164V41.4385C147.164 40.3975 146.836 39.5925 146.182 39.0225C145.527 38.4545 144.63 38.1695 143.493 38.1695C142.828 38.1695 142.226 38.2855 141.69 38.5165C141.153 38.7475 140.715 39.0775 140.377 39.5065C140.039 39.9355 139.843 40.4395 139.789 41.0195H141.802C141.877 40.6335 142.071 40.3405 142.382 40.1425C142.693 39.9435 143.058 39.8445 143.477 39.8445C143.938 39.8445 144.325 39.9735 144.636 40.2305C144.948 40.4885 145.103 40.8905 145.103 41.4385V41.6315H143.075ZM144.435 44.3525C144.107 44.7385 143.649 44.9325 143.058 44.9325C142.671 44.9325 142.361 44.8465 142.124 44.6745C141.888 44.5025 141.77 44.2615 141.77 43.9505C141.77 43.6605 141.888 43.4155 142.124 43.2175C142.361 43.0195 142.752 42.9195 143.3 42.9195H145.055C144.969 43.4885 144.762 43.9665 144.435 44.3525Z" fill="#C5010A"/>
<path d="M156.954 41.8411V46.3491H154.892V42.0341C154.892 41.3471 154.753 40.8211 154.475 40.4561C154.195 40.0911 153.76 39.9091 153.17 39.9091C152.591 39.9091 152.115 40.1131 151.745 40.5201C151.375 40.9291 151.189 41.4971 151.189 42.2271V46.3491H149.129V38.3631H150.948L151.109 39.7151C151.355 39.2431 151.713 38.8681 152.18 38.5881C152.646 38.3091 153.196 38.1701 153.83 38.1701C154.817 38.1701 155.585 38.4811 156.133 39.1031C156.68 39.7261 156.954 40.6391 156.954 41.8411Z" fill="#C5010A"/>
<path d="M161.494 45.8179L159.642 49.8919H161.832L166.904 38.3629H164.714L162.38 43.9829L160.141 38.3629H157.903L161.011 45.8179H161.494Z" fill="#C5010A"/>
<path d="M92.0178 54.3994H100.665V56.0574H97.3628V65.6704H95.3028V56.0574H92.0178V54.3994Z" fill="#C5010A"/>
<path fill-rule="evenodd" clip-rule="evenodd" d="M106.67 58.0067C106.069 57.6627 105.376 57.4917 104.593 57.4917C103.755 57.4917 103.029 57.6707 102.412 58.0307C101.793 58.3897 101.311 58.8917 100.962 59.5357C100.613 60.1807 100.439 60.9147 100.439 61.7417C100.439 62.5577 100.616 63.2767 100.97 63.8997C101.325 64.5227 101.813 65.0047 102.435 65.3487C103.058 65.6927 103.772 65.8647 104.577 65.8647C105.221 65.8647 105.797 65.7447 106.308 65.5087C106.818 65.2727 107.246 64.9487 107.596 64.5357C107.945 64.1217 108.194 63.6627 108.344 63.1587H106.251C106.112 63.4597 105.9 63.7037 105.616 63.8917C105.33 64.0787 104.979 64.1727 104.561 64.1727C104.002 64.1727 103.528 63.9947 103.136 63.6417C102.744 63.2877 102.527 62.7997 102.484 62.1767H108.554C108.564 62.0357 108.573 61.9037 108.578 61.7747C108.583 61.6457 108.586 61.5227 108.586 61.4037C108.586 60.6727 108.416 60.0107 108.078 59.4147C107.741 58.8197 107.271 58.3507 106.67 58.0067ZM102.516 60.8877C102.623 60.3097 102.87 59.8757 103.256 59.5927C103.643 59.3077 104.088 59.1647 104.593 59.1647C105.119 59.1647 105.559 59.3217 105.913 59.6317C106.267 59.9447 106.46 60.3627 106.493 60.8877H102.516Z" fill="#C5010A"/>
<path d="M113.255 60.5186L115.268 57.6846H117.49L114.576 61.6766L117.49 65.6706H115.268L113.255 62.8366L111.227 65.6706H109.021L111.919 61.6766L109.021 57.6846H111.227L113.255 60.5186Z" fill="#C5010A"/>
<path d="M121.66 55.542H119.841L119.599 57.685H118.23V59.407H119.599V62.886C119.599 63.927 119.851 64.651 120.355 65.058C120.86 65.466 121.531 65.671 122.368 65.671H123.769V63.915H122.771C122.363 63.915 122.076 63.843 121.91 63.698C121.743 63.554 121.66 63.288 121.66 62.901V59.407H123.817V57.685H121.66V55.542Z" fill="#C5010A"/>
<path d="M129.468 54.3994H131.53V64.0594H136.521V65.6704H129.468V54.3994Z" fill="#C5010A"/>
<path fill-rule="evenodd" clip-rule="evenodd" d="M143.856 58.0227C143.238 57.6687 142.549 57.4917 141.786 57.4917C141.014 57.4917 140.318 57.6687 139.701 58.0227C139.084 58.3757 138.593 58.8677 138.228 59.4947C137.863 60.1237 137.681 60.8507 137.681 61.6767C137.681 62.5047 137.86 63.2317 138.22 63.8587C138.579 64.4877 139.067 64.9777 139.686 65.3327C140.303 65.6867 140.997 65.8647 141.771 65.8647C142.532 65.8647 143.225 65.6867 143.848 65.3327C144.47 64.9777 144.961 64.4877 145.32 63.8587C145.68 63.2317 145.86 62.5047 145.86 61.6767C145.86 60.8507 145.68 60.1237 145.32 59.4947C144.961 58.8677 144.473 58.3757 143.856 58.0227ZM143.171 63.4717C142.774 63.8757 142.307 64.0767 141.771 64.0767C141.234 64.0767 140.77 63.8757 140.378 63.4717C139.985 63.0697 139.79 62.4717 139.79 61.6767C139.79 60.8837 139.985 60.2837 140.378 59.8817C140.77 59.4797 141.239 59.2787 141.786 59.2787C142.313 59.2787 142.774 59.4797 143.171 59.8817C143.568 60.2837 143.767 60.8837 143.767 61.6767C143.767 62.4717 143.568 63.0697 143.171 63.4717Z" fill="#C5010A"/>
<path fill-rule="evenodd" clip-rule="evenodd" d="M148.822 57.8781C149.305 57.6201 149.89 57.4911 150.577 57.4911C151.028 57.4911 151.446 57.5561 151.833 57.6841H154.86V58.9401L153.491 59.0361C153.706 59.4441 153.813 59.8951 153.813 60.3901C153.813 60.9271 153.684 61.4151 153.427 61.8541C153.17 62.2941 152.797 62.6431 152.307 62.9011C151.819 63.1591 151.242 63.2881 150.577 63.2881C150.19 63.2881 149.831 63.2451 149.498 63.1591L148.902 63.7551C149.085 63.8511 149.332 63.9311 149.643 63.9951C149.954 64.0601 150.459 64.1241 151.157 64.1881C152.22 64.2861 152.992 64.5381 153.475 64.9461C153.958 65.3541 154.2 65.9171 154.2 66.6361C154.2 67.1081 154.071 67.5581 153.813 67.9811C153.555 68.4051 153.158 68.7491 152.622 69.0111C152.085 69.2741 151.398 69.4051 150.561 69.4051C149.423 69.4051 148.506 69.1941 147.807 68.7701C147.11 68.3471 146.762 67.7101 146.762 66.8621C146.762 66.1431 147.11 65.5201 147.807 64.9951C147.593 64.8971 147.408 64.7961 147.252 64.6881C147.096 64.5811 146.96 64.4681 146.842 64.3511V63.9791L148.242 62.4991C147.62 61.9501 147.308 61.2491 147.308 60.3901C147.308 59.8521 147.44 59.3641 147.703 58.9251C147.966 58.4831 148.339 58.1361 148.822 57.8781ZM150.577 61.7101C150.996 61.7101 151.342 61.5971 151.616 61.3721C151.889 61.1451 152.026 60.8231 152.026 60.4051C152.026 59.9871 151.889 59.6651 151.616 59.4381C151.342 59.2141 150.996 59.1011 150.577 59.1011C150.137 59.1011 149.783 59.2141 149.514 59.4381C149.246 59.6651 149.112 59.9871 149.112 60.4051C149.112 60.8231 149.246 61.1451 149.514 61.3721C149.783 61.5971 150.137 61.7101 150.577 61.7101ZM150.738 65.6061C150.298 65.5731 149.89 65.5261 149.514 65.4621C149.203 65.6341 148.98 65.8211 148.846 66.0241C148.712 66.2271 148.645 66.4381 148.645 66.6531C148.645 67.0501 148.83 67.3471 149.2 67.5461C149.571 67.7451 150.024 67.8451 150.561 67.8451C151.076 67.8451 151.495 67.7391 151.817 67.5301C152.138 67.3211 152.3 67.0381 152.3 66.6841C152.3 66.3951 152.195 66.1531 151.986 65.9601C151.776 65.7671 151.36 65.6491 150.738 65.6061Z" fill="#C5010A"/>
<path fill-rule="evenodd" clip-rule="evenodd" d="M161.953 58.0227C161.335 57.6687 160.646 57.4917 159.883 57.4917C159.111 57.4917 158.415 57.6687 157.798 58.0227C157.181 58.3757 156.69 58.8677 156.325 59.4947C155.96 60.1237 155.778 60.8507 155.778 61.6767C155.778 62.5047 155.957 63.2317 156.317 63.8587C156.676 64.4877 157.164 64.9777 157.783 65.3327C158.4 65.6867 159.094 65.8647 159.868 65.8647C160.629 65.8647 161.322 65.6867 161.945 65.3327C162.567 64.9777 163.058 64.4877 163.417 63.8587C163.777 63.2317 163.957 62.5047 163.957 61.6767C163.957 60.8507 163.777 60.1237 163.417 59.4947C163.058 58.8677 162.57 58.3757 161.953 58.0227ZM161.268 63.4717C160.871 63.8757 160.404 64.0767 159.868 64.0767C159.331 64.0767 158.867 63.8757 158.475 63.4717C158.082 63.0697 157.887 62.4717 157.887 61.6767C157.887 60.8837 158.082 60.2837 158.475 59.8817C158.867 59.4797 159.336 59.2787 159.883 59.2787C160.41 59.2787 160.871 59.4797 161.268 59.8817C161.665 60.2837 161.864 60.8837 161.864 61.6767C161.864 62.4717 161.665 63.0697 161.268 63.4717Z" fill="#C5010A"/>
</svg>
