<svg width="192" height="104" viewBox="0 0 192 104" fill="none" xmlns="http://www.w3.org/2000/svg">
<path d="M65.4816 35.398C66.2166 35.663 66.8856 36.049 67.4886 36.555C68.0666 37.085 68.5366 37.748 68.8986 38.543C69.2596 39.339 69.4406 40.255 69.4406 41.291V54.885C69.4406 55.97 69.2596 56.898 68.8986 57.669C68.5366 58.441 68.0666 59.079 67.4886 59.585C66.8856 60.116 66.2166 60.514 65.4816 60.779C64.7466 61.043 64.0056 61.176 63.2586 61.176C62.5106 61.176 61.7696 61.043 61.0346 60.779C60.2996 60.514 59.6426 60.116 59.0646 59.585C58.4616 59.079 57.9796 58.441 57.6186 57.669C57.2566 56.898 57.0756 55.97 57.0756 54.885V41.291C57.0756 40.255 57.2566 39.339 57.6186 38.543C57.9796 37.748 58.4616 37.085 59.0646 36.555C59.6426 36.049 60.2996 35.663 61.0346 35.398C61.7696 35.133 62.5106 35 63.2586 35C64.0056 35 64.7466 35.133 65.4816 35.398Z" fill="#C5010A"/>
<path d="M53.931 55.2103V53.6193H50.243V54.8853C50.243 55.3923 50.171 55.8143 50.026 56.1503C49.882 56.4883 49.701 56.7533 49.484 56.9463C49.243 57.1393 48.983 57.2773 48.706 57.3613C48.429 57.4463 48.17 57.4883 47.929 57.4883C47.085 57.4883 46.501 57.2353 46.176 56.7293C45.85 56.2233 45.687 55.5973 45.687 54.8493V41.6893C45.687 40.8213 45.838 40.1043 46.139 39.5373C46.441 38.9723 47.049 38.6883 47.965 38.6883C48.664 38.6883 49.218 38.9533 49.628 39.4833C50.038 40.0143 50.243 40.6403 50.243 41.3633V42.5933H53.931V41.1473C53.931 40.2553 53.78 39.4293 53.479 38.6703C53.177 37.9103 52.762 37.2543 52.232 36.6993C51.147 35.5663 49.737 35.0003 48.001 35.0003C47.109 35.0003 46.296 35.1503 45.561 35.4523C44.826 35.7543 44.193 36.1693 43.663 36.6993C43.133 37.2303 42.723 37.8563 42.433 38.5793C42.144 39.3033 42 40.0863 42 40.9303V55.1023C42 56.2833 42.186 57.2533 42.56 58.0133C42.933 58.7723 43.41 59.3933 43.988 59.8743C44.567 60.3563 45.218 60.6943 45.941 60.8873C46.664 61.0793 47.374 61.1763 48.074 61.1763C48.893 61.1763 49.659 61.0143 50.369 60.6883C51.08 60.3623 51.701 59.9233 52.232 59.3683C52.762 58.8143 53.177 58.1823 53.479 57.4703C53.78 56.7603 53.931 56.0063 53.931 55.2103Z" fill="#C5010A"/>
<path d="M103.824 37.0249C104.451 37.6999 104.885 38.4899 105.125 39.3929C105.367 40.2969 105.486 41.5209 105.486 43.0629C105.486 44.2199 105.42 45.1959 105.289 45.9919C105.156 46.7869 104.873 47.5349 104.439 48.2329C103.934 49.0769 103.258 49.7339 102.414 50.2039C101.57 50.6729 100.461 50.9089 99.0883 50.9089H97.2083V60.9589H93.5203V35.2169H99.0513C100.064 35.2169 100.955 35.3499 101.727 35.6149C102.498 35.8799 103.197 36.3509 103.824 37.0249Z" fill="#C5010A"/>
<path d="M81.4075 48.848H81.3355L76.5985 35.217H73.0555V60.959H76.7435V45.304H76.8155L80.4325 56.368H82.2765L85.9275 45.304H85.9995V60.959H89.6865V35.217H86.1085L81.4075 48.848Z" fill="#C5010A"/>
<path fill-rule="evenodd" clip-rule="evenodd" d="M49.647 65.553C50.031 65.553 50.367 65.637 50.654 65.807C50.943 65.977 51.167 66.211 51.327 66.513C51.488 66.814 51.568 67.162 51.568 67.556C51.568 67.952 51.488 68.299 51.327 68.601C51.167 68.901 50.943 69.136 50.654 69.305C50.367 69.476 50.031 69.561 49.647 69.561C49.264 69.561 48.927 69.476 48.639 69.305C48.351 69.136 48.126 68.901 47.964 68.601C47.802 68.299 47.721 67.952 47.721 67.556C47.721 67.162 47.802 66.814 47.964 66.513C48.126 66.211 48.351 65.977 48.639 65.807C48.927 65.637 49.264 65.553 49.647 65.553ZM50.342 68.858C50.539 68.74 50.693 68.571 50.804 68.348C50.915 68.126 50.97 67.863 50.97 67.556C50.97 67.25 50.915 66.986 50.804 66.765C50.693 66.543 50.539 66.374 50.342 66.256C50.145 66.138 49.913 66.078 49.647 66.078C49.382 66.078 49.149 66.138 48.949 66.256C48.75 66.374 48.596 66.543 48.487 66.765C48.379 66.986 48.325 67.25 48.325 67.556C48.325 67.863 48.379 68.126 48.487 68.348C48.596 68.571 48.75 68.74 48.949 68.858C49.149 68.975 49.382 69.035 49.647 69.035C49.913 69.035 50.145 68.975 50.342 68.858Z" fill="#C5010A"/>
<path fill-rule="evenodd" clip-rule="evenodd" d="M71.7622 65.553C72.1462 65.553 72.4822 65.637 72.7692 65.807C73.0582 65.977 73.2822 66.211 73.4422 66.513C73.6032 66.814 73.6842 67.162 73.6842 67.556C73.6842 67.952 73.6032 68.299 73.4422 68.601C73.2822 68.901 73.0582 69.136 72.7692 69.305C72.4822 69.476 72.1462 69.561 71.7622 69.561C71.3792 69.561 71.0422 69.476 70.7552 69.305C70.4662 69.136 70.2412 68.901 70.0792 68.601C69.9172 68.299 69.8362 67.952 69.8362 67.556C69.8362 67.162 69.9172 66.814 70.0792 66.513C70.2412 66.211 70.4662 65.977 70.7552 65.807C71.0422 65.637 71.3792 65.553 71.7622 65.553ZM72.4572 68.858C72.6542 68.74 72.8082 68.571 72.9192 68.348C73.0302 68.126 73.0862 67.863 73.0862 67.556C73.0862 67.25 73.0302 66.986 72.9192 66.765C72.8082 66.543 72.6542 66.374 72.4572 66.256C72.2602 66.138 72.0282 66.078 71.7622 66.078C71.4972 66.078 71.2642 66.138 71.0642 66.256C70.8662 66.374 70.7122 66.543 70.6022 66.765C70.4942 66.986 70.4402 67.25 70.4402 67.556C70.4402 67.863 70.4942 68.126 70.6022 68.348C70.7122 68.571 70.8662 68.74 71.0642 68.858C71.2642 68.975 71.4972 69.035 71.7622 69.035C72.0282 69.035 72.2602 68.975 72.4572 68.858Z" fill="#C5010A"/>
<path d="M112.036 67.8441H113.088C113.055 68.2061 112.94 68.4951 112.748 68.7131C112.554 68.9311 112.265 69.0401 111.881 69.0401C111.501 69.0401 111.197 68.9111 110.968 68.6521C110.739 68.3941 110.625 68.0341 110.625 67.5731C110.625 67.1121 110.74 66.7501 110.974 66.4881C111.206 66.2261 111.525 66.0951 111.931 66.0951C112.204 66.0951 112.428 66.1541 112.6 66.2731C112.774 66.3911 112.89 66.5531 112.949 66.7601H113.613C113.524 66.3821 113.333 66.0881 113.038 65.8731C112.742 65.6591 112.373 65.5531 111.931 65.5531C111.539 65.5531 111.201 65.6391 110.915 65.8091C110.629 65.9821 110.409 66.2191 110.254 66.5211C110.098 66.8231 110.021 67.1731 110.021 67.5671C110.021 67.9671 110.097 68.3151 110.248 68.6151C110.399 68.9121 110.611 69.1461 110.885 69.3111C111.158 69.4781 111.476 69.5611 111.842 69.5611C112.155 69.5611 112.411 69.5051 112.606 69.3941C112.802 69.2831 112.964 69.1261 113.094 68.9241L113.143 69.4941H113.68V67.3911H112.036V67.8441Z" fill="#C5010A"/>
<path d="M124.432 68.5365L122.489 65.6195H121.902V69.4945H122.489V66.5765L124.432 69.4945H125.019V65.6195H124.432V68.5365Z" fill="#C5010A"/>
<path d="M119.477 69.4947H120.064V65.6197H119.477V69.4947Z" fill="#C5010A"/>
<path d="M129.32 69.4945H126.856V65.6195H129.32V66.0955H127.443V67.3025H129.154V67.7665H127.443V69.0175H129.32V69.4945Z" fill="#C5010A"/>
<path d="M135.981 67.2796H134.104V65.6196H133.517V69.4946H134.104V67.7606H135.981V69.4946H136.568V65.6196H135.981V67.2796Z" fill="#C5010A"/>
<path d="M140.868 69.4945H138.404V65.6195H140.868V66.0955H138.991V67.3025H140.702V67.7665H138.991V69.0175H140.868V69.4945Z" fill="#C5010A"/>
<path fill-rule="evenodd" clip-rule="evenodd" d="M145.101 67.4296C145.229 67.2336 145.292 67.0156 145.292 66.7766C145.292 66.5606 145.243 66.3676 145.147 66.1916C145.052 66.0156 144.904 65.8776 144.708 65.7736C144.51 65.6706 144.258 65.6196 143.952 65.6196H142.617V69.4946H143.204V67.9326H143.897L144.649 69.4946H145.331L144.505 67.8496C144.774 67.7656 144.973 67.6256 145.101 67.4296ZM143.918 67.4896H143.204V66.1116H143.913C144.187 66.1116 144.383 66.1736 144.505 66.2976C144.627 66.4216 144.689 66.5866 144.689 66.7936C144.689 66.9996 144.626 67.1676 144.503 67.2966C144.379 67.4256 144.185 67.4896 143.918 67.4896Z" fill="#C5010A"/>
<path d="M149.498 69.4945H147.035V65.6195H149.498V66.0955H147.621V67.3025H149.332V67.7665H147.621V69.0175H149.498V69.4945Z" fill="#C5010A"/>
<path d="M115.447 65.6195H116.034V69.0295H117.795V69.4945H115.447V65.6195Z" fill="#C5010A"/>
<path d="M77.3934 68.1986L76.0814 65.6196H75.3884V69.4946H75.9754V66.6376L77.1654 68.9406H77.6194L78.8044 66.6326V69.4946H79.3914V65.6196H78.7004L77.3934 68.1986Z" fill="#C5010A"/>
<path fill-rule="evenodd" clip-rule="evenodd" d="M82.5866 65.6198C82.8886 65.6198 83.1396 65.6688 83.3396 65.7708C83.5376 65.8738 83.6866 66.0098 83.7846 66.1868C83.8826 66.3618 83.9316 66.5598 83.9316 66.7818C83.9316 66.9918 83.8846 67.1838 83.7906 67.3608C83.6956 67.5358 83.5496 67.6748 83.3506 67.7778C83.1506 67.8798 82.8956 67.9328 82.5866 67.9328H81.8166V69.4948H81.2296V65.6198H82.5866ZM82.5586 67.4518C82.8356 67.4518 83.0346 67.3908 83.1536 67.2718C83.2726 67.1508 83.3336 66.9888 83.3336 66.7818C83.3336 66.5668 83.2726 66.4008 83.1536 66.2808C83.0346 66.1608 82.8356 66.1008 82.5586 66.1008H81.8166V67.4518H82.5586Z" fill="#C5010A"/>
<path fill-rule="evenodd" clip-rule="evenodd" d="M86.2942 65.6194L84.8672 69.4944H85.4872L85.8182 68.5484H87.4022L87.7352 69.4944H88.3552L86.9372 65.6194H86.2942ZM85.9852 68.0814L86.6102 66.3164L87.2362 68.0814H85.9852Z" fill="#C5010A"/>
<path d="M90.5338 65.6195L92.4778 68.5365V65.6195H93.0648V69.4945H92.4778L90.5338 66.5765V69.4945H89.9478V65.6195H90.5338Z" fill="#C5010A"/>
<path d="M96.1819 67.4896L95.2689 65.6196H94.6049L95.8899 68.0646V69.4946H96.4759V68.0646L97.7479 65.6196H97.0909L96.1819 67.4896Z" fill="#C5010A"/>
<path d="M102.642 66.0951H101.496V65.6191H104.37V66.0951H103.229V69.4941H102.642V66.0951Z" fill="#C5010A"/>
<path fill-rule="evenodd" clip-rule="evenodd" d="M106.727 65.6194L105.299 69.4944H105.919L106.251 68.5484H107.834L108.167 69.4944H108.787L107.369 65.6194H106.727ZM106.417 68.0814L107.043 66.3164L107.669 68.0814H106.417Z" fill="#C5010A"/>
<path fill-rule="evenodd" clip-rule="evenodd" d="M60.6965 66.7766C60.6965 67.0156 60.6335 67.2336 60.5055 67.4296C60.3775 67.6256 60.1795 67.7656 59.9105 67.8496L60.7355 69.4946H60.0545L59.3015 67.9326H58.6085V69.4946H58.0215V65.6196H59.3565C59.6635 65.6196 59.9145 65.6706 60.1125 65.7736C60.3095 65.8776 60.4565 66.0156 60.5525 66.1916C60.6485 66.3676 60.6965 66.5606 60.6965 66.7766ZM58.6085 67.4896H59.3235C59.5895 67.4896 59.7835 67.4256 59.9075 67.2966C60.0315 67.1676 60.0935 66.9996 60.0935 66.7936C60.0935 66.5866 60.0325 66.4216 59.9105 66.2976C59.7885 66.1736 59.5915 66.1116 59.3175 66.1116H58.6085V67.4896Z" fill="#C5010A"/>
<path d="M66.6082 66.0785C66.8932 66.0785 67.1202 66.1445 67.2892 66.2785C67.4592 66.4105 67.5692 66.5895 67.6222 66.8145H68.2742C68.1982 66.4155 68.0152 66.1055 67.7262 65.8845C67.4392 65.6635 67.0682 65.5535 66.6132 65.5535C66.2312 65.5535 65.8992 65.6375 65.6202 65.8075C65.3412 65.9765 65.1272 66.2115 64.9752 66.5135C64.8242 66.8135 64.7492 67.1635 64.7492 67.5615C64.7492 67.9575 64.8242 68.3055 64.9752 68.6055C65.1272 68.9055 65.3412 69.1405 65.6202 69.3075C65.8992 69.4755 66.2312 69.5605 66.6132 69.5605C67.0682 69.5605 67.4392 69.4515 67.7262 69.2335C68.0152 69.0165 68.1982 68.7165 68.2742 68.3315H67.6222C67.5692 68.5495 67.4592 68.7215 67.2892 68.8465C67.1202 68.9725 66.8932 69.0345 66.6082 69.0345C66.2212 69.0345 65.9142 68.9025 65.6902 68.6415C65.4652 68.3805 65.3532 68.0195 65.3532 67.5615C65.3532 67.1005 65.4652 66.7375 65.6902 66.4745C65.9142 66.2105 66.2212 66.0785 66.6082 66.0785Z" fill="#C5010A"/>
<path d="M55.6302 68.0443C55.6302 68.3833 55.5492 68.6323 55.3872 68.7903C55.2252 68.9503 55.0072 69.0293 54.7342 69.0293C54.4562 69.0293 54.2372 68.9503 54.0752 68.7903C53.9132 68.6323 53.8312 68.3833 53.8312 68.0443V65.6193H53.2442V68.0383C53.2442 68.3863 53.3112 68.6713 53.4412 68.8963C53.5712 69.1213 53.7492 69.2883 53.9722 69.3973C54.1952 69.5063 54.4452 69.5613 54.7232 69.5613C54.9962 69.5613 55.2462 69.5063 55.4722 69.3973C55.6992 69.2883 55.8802 69.1213 56.0162 68.8963C56.1512 68.6713 56.2172 68.3863 56.2172 68.0383V65.6193H55.6302V68.0443Z" fill="#C5010A"/>
<path d="M111.346 35.2171L105.596 60.9591H109.283L110.369 55.4281H115.395L116.479 60.9591H120.166L114.418 35.2171H111.346Z" fill="#C5010A"/>
<path d="M131.375 35.2171H135.063V60.9591H131.592L125.952 45.4851H125.879V60.9591H122.192V35.2171H125.735L131.303 50.7281H131.375V35.2171Z" fill="#C5010A"/>
<path d="M147.03 35.2171L144.065 45.4481H143.993L141.028 35.2171H137.124L142.184 50.0761V60.9591H145.872V50.0761L150.934 35.2171H147.03Z" fill="#C5010A"/>
<path d="M44.1 65.6196L45.013 67.4896L45.922 65.6196H46.579L45.307 68.0646V69.4946H44.721V68.0646L43.436 65.6196H44.1Z" fill="#C5010A"/>
</svg>
