<svg width="192" height="104" viewBox="0 0 192 104" fill="none" xmlns="http://www.w3.org/2000/svg">
<path d="M85.165 22V38.657L68.508 22V65.443H128.608L85.165 22Z" fill="#C5010A"/>
<path d="M73.1483 75.4815C73.7083 75.4815 74.1583 75.6125 74.4983 75.8725C74.8383 76.1315 75.0603 76.4905 75.1643 76.9455H76.8563C76.6963 76.0425 76.2943 75.3395 75.6503 74.8395C75.0063 74.3395 74.1803 74.0895 73.1723 74.0895C72.3243 74.0895 71.5963 74.2735 70.9883 74.6415C70.3803 75.0095 69.9123 75.5215 69.5843 76.1775C69.2563 76.8345 69.0923 77.5895 69.0923 78.4455C69.0923 79.3015 69.2563 80.0555 69.5843 80.7085C69.9123 81.3605 70.3803 81.8685 70.9883 82.2315C71.5963 82.5955 72.3243 82.7775 73.1723 82.7775C74.1803 82.7775 75.0063 82.5345 75.6503 82.0455C76.2943 81.5575 76.6963 80.8815 76.8563 80.0175H75.1643C75.0603 80.4505 74.8383 80.7885 74.4983 81.0325C74.1583 81.2765 73.7083 81.3975 73.1483 81.3975C72.3723 81.3975 71.7643 81.1355 71.3243 80.6115C70.8843 80.0875 70.6643 79.3665 70.6643 78.4455C70.6643 77.5265 70.8843 76.8015 71.3243 76.2735C71.7643 75.7465 72.3723 75.4815 73.1483 75.4815Z" fill="#C5010A"/>
<path fill-rule="evenodd" clip-rule="evenodd" d="M86.6242 74.6415C85.9922 74.2735 85.2602 74.0895 84.4282 74.0895C83.5882 74.0895 82.8542 74.2735 82.2262 74.6415C81.5982 75.0095 81.1062 75.5195 80.7502 76.1715C80.3942 76.8245 80.2162 77.5785 80.2162 78.4335C80.2162 79.2905 80.3942 80.0435 80.7502 80.6955C81.1062 81.3475 81.5982 81.8585 82.2262 82.2255C82.8542 82.5935 83.5882 82.7775 84.4282 82.7775C85.2602 82.7775 85.9922 82.5935 86.6242 82.2255C87.2562 81.8585 87.7482 81.3475 88.1002 80.6955C88.4522 80.0435 88.6282 79.2905 88.6282 78.4335C88.6282 77.5785 88.4522 76.8245 88.1002 76.1715C87.7482 75.5195 87.2562 75.0095 86.6242 74.6415ZM86.3422 80.6055C85.8662 81.1335 85.2282 81.3975 84.4282 81.3975C83.6282 81.3975 82.9882 81.1335 82.5082 80.6055C82.0282 80.0785 81.7882 79.3535 81.7882 78.4335C81.7882 77.5135 82.0282 76.7905 82.5082 76.2615C82.9882 75.7335 83.6282 75.4695 84.4282 75.4695C85.2282 75.4695 85.8662 75.7335 86.3422 76.2615C86.8182 76.7905 87.0562 77.5135 87.0562 78.4335C87.0562 79.3535 86.8182 80.0785 86.3422 80.6055Z" fill="#C5010A"/>
<path d="M94.0876 74.2335L96.7646 79.5615L99.4036 74.2335H101.228V82.6335H99.6916V76.8375L97.3526 81.4335H96.1406L93.7996 76.8375V82.6335H92.2646V74.2335H94.0876Z" fill="#C5010A"/>
<path fill-rule="evenodd" clip-rule="evenodd" d="M109.915 74.5693C109.476 74.3453 108.919 74.2333 108.248 74.2333H105.14V82.6343H106.675V79.3823H108.248C108.936 79.3823 109.499 79.2633 109.94 79.0273C110.379 78.7923 110.704 78.4793 110.912 78.0923C111.12 77.7043 111.224 77.2783 111.224 76.8133C111.224 76.3263 111.116 75.8853 110.9 75.4943C110.684 75.1013 110.356 74.7943 109.915 74.5693ZM109.31 77.7803C109.074 78.0153 108.688 78.1343 108.152 78.1343H106.675V75.4813H108.152C108.688 75.4813 109.074 75.5993 109.31 75.8363C109.545 76.0723 109.664 76.3973 109.664 76.8133C109.664 77.2213 109.545 77.5443 109.31 77.7803Z" fill="#C5010A"/>
<path fill-rule="evenodd" clip-rule="evenodd" d="M113.264 82.6343L116.335 74.2333H118.064L121.136 82.6343H119.503L118.831 80.6893H115.556L114.872 82.6343H113.264ZM117.188 75.9983L115.976 79.4903H118.412L117.188 75.9983Z" fill="#C5010A"/>
<path d="M129.979 80.1494L126.031 74.2334H124.496V82.6334H126.031V76.7294L129.979 82.6334H131.515V74.2334H129.979V80.1494Z" fill="#C5010A"/>
<path d="M138.379 78.1094L140.228 74.2334H141.944L139.136 79.6454V82.6334H137.6V79.6454L134.78 74.2334H136.52L138.379 78.1094Z" fill="#C5010A"/>
<path fill-rule="evenodd" clip-rule="evenodd" d="M53 82.6346L56.073 74.2336H57.801L60.873 82.6346H59.241L58.569 80.6896H55.293L54.609 82.6346H53ZM58.148 79.4906L56.924 75.9986L55.712 79.4906H58.148Z" fill="#C5010A"/>
</svg>
