<svg width="192" height="104" viewBox="0 0 192 104" fill="none" xmlns="http://www.w3.org/2000/svg">
<path fill-rule="evenodd" clip-rule="evenodd" d="M82.203 32L70.879 51.612L82.203 71.223H104.847L116.171 51.612L104.847 32H82.203ZM83.235 51.612L88.381 42.7H98.669L103.815 51.612L98.669 60.523H88.381L83.235 51.612Z" fill="#C5010A"/>
<path d="M33 43.4408V45.6438H35.708V59.7828H38.05V45.6438H40.759V43.4408H33Z" fill="#C5010A"/>
<path d="M49 59.7833H42.021V43.4403H49V45.6433H44.363V50.4413H48.402V52.6443H44.363V57.4423H49V59.7833Z" fill="#C5010A"/>
<path d="M58.3647 43.4406H55.8847L54.0947 48.2836L52.3277 43.4406H49.8487L52.9017 51.2216L49.5947 59.7836H52.0757L54.0947 54.2746L56.1377 59.7836H58.6167L55.2417 51.2216L58.3647 43.4406Z" fill="#C5010A"/>
<path d="M61.439 45.6437H58.73V43.4407H66.49V45.6437H63.781V59.7837H61.439V45.6437Z" fill="#C5010A"/>
<path d="M123.941 43.4406H121.599V59.7836H128.578V57.4426H123.941V43.4406Z" fill="#C5010A"/>
<path d="M145.529 43.5552C145.995 43.7242 146.419 43.9682 146.802 44.2892C147.169 44.6262 147.468 45.0472 147.697 45.5522C147.927 46.0572 148.042 46.6392 148.042 47.2962V48.1232H145.7V47.2962C145.7 46.7302 145.544 46.3132 145.23 46.0452C144.915 45.7772 144.544 45.6432 144.116 45.6432C143.689 45.6432 143.318 45.7772 143.003 46.0452C142.689 46.3132 142.532 46.7302 142.532 47.2962V55.9272C142.532 56.4932 142.689 56.9102 143.003 57.1782C143.318 57.4462 143.689 57.5802 144.116 57.5802C144.544 57.5802 144.915 57.4462 145.23 57.1782C145.544 56.9102 145.7 56.4932 145.7 55.9272V52.8522H143.841V50.7852H148.042V55.9272C148.042 56.6152 147.927 57.2052 147.697 57.6942C147.468 58.1852 147.169 58.5902 146.802 58.9112C146.419 59.2482 145.995 59.5002 145.529 59.6682C145.062 59.8372 144.591 59.9212 144.116 59.9212C143.642 59.9212 143.171 59.8372 142.704 59.6682C142.238 59.5002 141.822 59.2482 141.454 58.9112C141.072 58.5902 140.765 58.1852 140.536 57.6942C140.306 57.2052 140.191 56.6152 140.191 55.9272V47.2962C140.191 46.6392 140.306 46.0572 140.536 45.5522C140.765 45.0472 141.072 44.6262 141.454 44.2892C141.822 43.9682 142.238 43.7242 142.704 43.5552C143.171 43.3872 143.642 43.3032 144.116 43.3032C144.591 43.3032 145.062 43.3872 145.529 43.5552Z" fill="#C5010A"/>
<path fill-rule="evenodd" clip-rule="evenodd" d="M136.795 44.2889C136.412 43.9679 135.988 43.7239 135.521 43.5549C135.054 43.3869 134.584 43.3029 134.109 43.3029C133.634 43.3029 133.164 43.3869 132.697 43.5549C132.23 43.7239 131.814 43.9679 131.447 44.2889C131.064 44.6259 130.757 45.0469 130.529 45.5519C130.298 46.0569 130.183 46.6389 130.183 47.2959V55.9269C130.183 56.6149 130.298 57.2049 130.529 57.6949C130.757 58.1849 131.064 58.5899 131.447 58.9109C131.814 59.2479 132.23 59.4999 132.697 59.6679C133.164 59.8369 133.634 59.9209 134.109 59.9209C134.584 59.9209 135.054 59.8369 135.521 59.6679C135.988 59.4999 136.412 59.2479 136.795 58.9109C137.162 58.5899 137.461 58.1849 137.689 57.6949C137.92 57.2049 138.035 56.6149 138.035 55.9269V47.2959C138.035 46.6389 137.92 46.0569 137.689 45.5519C137.461 45.0469 137.162 44.6259 136.795 44.2889ZM135.693 55.9269C135.693 56.4929 135.537 56.9099 135.222 57.1779C134.908 57.4469 134.537 57.5799 134.109 57.5799C133.681 57.5799 133.31 57.4469 132.996 57.1779C132.681 56.9099 132.525 56.4929 132.525 55.9269V47.2959C132.525 46.7309 132.681 46.3139 132.996 46.0449C133.31 45.7779 133.681 45.6439 134.109 45.6439C134.537 45.6439 134.908 45.7779 135.222 46.0449C135.537 46.3139 135.693 46.7309 135.693 47.2959V55.9269Z" fill="#C5010A"/>
<path fill-rule="evenodd" clip-rule="evenodd" d="M156.811 44.2889C157.177 44.6259 157.477 45.0469 157.704 45.5519C157.936 46.0569 158.05 46.6389 158.05 47.2959V55.9269C158.05 56.6149 157.936 57.2049 157.704 57.6949C157.477 58.1849 157.177 58.5899 156.811 58.9109C156.427 59.2479 156.004 59.4999 155.536 59.6679C155.07 59.8369 154.6 59.9209 154.125 59.9209C153.649 59.9209 153.18 59.8369 152.713 59.6679C152.245 59.4999 151.829 59.2479 151.463 58.9109C151.079 58.5899 150.772 58.1849 150.545 57.6949C150.313 57.2049 150.199 56.6149 150.199 55.9269V47.2959C150.199 46.6389 150.313 46.0569 150.545 45.5519C150.772 45.0469 151.079 44.6259 151.463 44.2889C151.829 43.9679 152.245 43.7239 152.713 43.5549C153.18 43.3869 153.649 43.3029 154.125 43.3029C154.6 43.3029 155.07 43.3869 155.536 43.5549C156.004 43.7239 156.427 43.9679 156.811 44.2889ZM155.238 57.1779C155.552 56.9099 155.709 56.4929 155.709 55.9269V47.2959C155.709 46.7309 155.552 46.3139 155.238 46.0449C154.924 45.7779 154.552 45.6439 154.125 45.6439C153.697 45.6439 153.326 45.7779 153.012 46.0449C152.697 46.3139 152.541 46.7309 152.541 47.2959V55.9269C152.541 56.4929 152.697 56.9099 153.012 57.1779C153.326 57.4469 153.697 57.5799 154.125 57.5799C154.552 57.5799 154.924 57.4469 155.238 57.1779Z" fill="#C5010A"/>
</svg>
