<svg width="192" height="104" viewBox="0 0 192 104" fill="none" xmlns="http://www.w3.org/2000/svg">
<path d="M50.891 20L29 41.892L37.484 50.374L50.892 36.967L64.299 50.374L72.783 41.892L50.891 20Z" fill="#C5010A"/>
<path d="M29.0003 63.1001L50.8913 84.9921L72.7823 63.1001L50.8913 41.2091L29.0003 63.1001Z" fill="#C5010A"/>
<path fill-rule="evenodd" clip-rule="evenodd" d="M103.309 58.5068C104.022 57.9998 104.525 57.3068 104.818 56.4268C105.112 55.5478 105.26 54.5288 105.26 53.3718V45.3608C105.26 44.1888 105.107 43.1698 104.807 42.3058C104.507 41.4418 103.994 40.7728 103.273 40.2968C102.553 39.8208 101.574 39.5838 100.338 39.5838C99.0855 39.5838 98.0985 39.8208 97.3785 40.2968C96.6565 40.7728 96.1415 41.4418 95.8325 42.3058C95.5235 43.1698 95.3695 44.1888 95.3695 45.3608V53.3488C95.3695 54.5058 95.5145 55.5318 95.8085 56.4268C96.1015 57.3218 96.6085 58.0198 97.3305 58.5198C98.0515 59.0188 99.0535 59.2678 100.338 59.2678C101.605 59.2678 102.596 59.0148 103.309 58.5068ZM97.4495 55.8798C97.2825 55.2708 97.1995 54.5608 97.1995 53.7528V45.0278C97.1995 44.2198 97.2825 43.5148 97.4495 42.9118C97.6155 42.3108 97.9255 41.8468 98.3765 41.5218C98.8285 41.1968 99.4815 41.0338 100.338 41.0338C101.178 41.0338 101.82 41.1968 102.262 41.5218C102.706 41.8468 103.012 42.3108 103.178 42.9118C103.346 43.5148 103.428 44.2198 103.428 45.0278V53.7528C103.428 54.5608 103.346 55.2708 103.178 55.8798C103.012 56.4898 102.706 56.9658 102.262 57.3068C101.82 57.6478 101.178 57.8168 100.338 57.8168C99.4815 57.8168 98.8285 57.6478 98.3765 57.3068C97.9255 56.9658 97.6155 56.4898 97.4495 55.8798Z" fill="#C5010A"/>
<path d="M89.33 39.5839C90.488 39.5839 91.395 39.8059 92.052 40.2499C92.71 40.6929 93.182 41.3229 93.467 42.1399C93.752 42.9559 93.895 43.9269 93.895 45.0519V46.2169H92.183V45.0999C92.183 44.2599 92.115 43.5379 91.981 42.9359C91.846 42.3339 91.573 41.8659 91.161 41.5329C90.748 41.1999 90.147 41.0339 89.354 41.0339C88.483 41.0339 87.828 41.2129 87.393 41.5689C86.956 41.9259 86.663 42.4289 86.513 43.0789C86.363 43.7289 86.287 44.4809 86.287 45.3369V53.5389C86.287 54.4889 86.378 55.2819 86.561 55.9159C86.742 56.5499 87.056 57.0249 87.5 57.3429C87.944 57.6589 88.562 57.8169 89.354 57.8169C90.162 57.8169 90.769 57.6439 91.173 57.2949C91.577 56.9459 91.846 56.4589 91.981 55.8329C92.115 55.2069 92.183 54.4739 92.183 53.6339V52.3739H93.895V53.5149C93.895 54.6409 93.764 55.6349 93.502 56.4979C93.241 57.3619 92.781 58.0399 92.123 58.5309C91.466 59.0219 90.534 59.2679 89.33 59.2679C88.031 59.2679 87.029 58.9989 86.323 58.4599C85.617 57.9209 85.13 57.1959 84.861 56.2839C84.591 55.3729 84.457 54.3629 84.457 53.2529V45.5989C84.457 44.4099 84.595 43.3639 84.873 42.4609C85.15 41.5569 85.646 40.8529 86.359 40.3449C87.072 39.8379 88.062 39.5839 89.33 39.5839Z" fill="#C5010A"/>
<path d="M143.244 65.3612H144.978V65.0262H143.657V64.1452H144.861V63.8182H143.657V62.9682H144.978V62.6332H143.244V65.3612Z" fill="#C5010A"/>
<path d="M140.17 62.6334L141.538 64.6874V62.6334H141.951V65.3614H141.538L140.17 63.3074V65.3614H139.757V62.6334H140.17Z" fill="#C5010A"/>
<path d="M138.463 65.3617H138.05V62.6337H138.463V65.3617Z" fill="#C5010A"/>
<path d="M148.346 63.8026H149.667V62.6336H150.08V65.3616H149.667V64.1416H148.346V65.3616H147.933V62.6336H148.346V63.8026Z" fill="#C5010A"/>
<path d="M151.373 65.3612H153.107V65.0262H151.786V64.1452H152.99V63.8182H151.786V62.9682H153.107V62.6332H151.373V65.3612Z" fill="#C5010A"/>
<path fill-rule="evenodd" clip-rule="evenodd" d="M156.222 63.4481C156.222 63.6171 156.177 63.7701 156.087 63.9081C155.997 64.0461 155.858 64.1441 155.668 64.2041L156.249 65.3611H155.77L155.239 64.2621H154.752V65.3611H154.339V62.6341H155.278C155.494 62.6341 155.671 62.6701 155.811 62.7421C155.949 62.8151 156.053 62.9131 156.12 63.0371C156.188 63.1601 156.222 63.2971 156.222 63.4481ZM154.752 63.9501H155.255C155.442 63.9501 155.579 63.9051 155.666 63.8141C155.753 63.7231 155.797 63.6051 155.797 63.4601C155.797 63.3141 155.754 63.1981 155.668 63.1111C155.582 63.0231 155.443 62.9801 155.251 62.9801H154.752V63.9501Z" fill="#C5010A"/>
<path d="M157.449 65.3612H159.182V65.0262H157.861V64.1452H159.065V63.8182H157.861V62.9682H159.182V62.6332H157.449V65.3612Z" fill="#C5010A"/>
<path d="M112.652 59.0306L109.014 43.7206L108.634 59.0306H107.136L107.612 39.7746H109.418L113.222 56.4866L117.097 39.7746H118.904L119.379 59.0306H117.881L117.501 43.6966L113.817 59.0306H112.652Z" fill="#C5010A"/>
<path fill-rule="evenodd" clip-rule="evenodd" d="M128.924 49.2362C129.597 48.7762 130.081 48.1622 130.375 47.3932C130.668 46.6252 130.814 45.7892 130.814 44.8852C130.814 43.8552 130.675 42.9602 130.398 42.1992C130.121 41.4382 129.649 40.8432 128.984 40.4162C128.318 39.9882 127.407 39.7742 126.25 39.7742H121.637V59.0302H123.445V49.9252H126.273C127.367 49.9252 128.251 49.6952 128.924 49.2362ZM123.445 48.5702V41.1292H125.774C126.631 41.1292 127.292 41.2362 127.759 41.4502C128.226 41.6642 128.555 42.0452 128.746 42.5912C128.936 43.1372 129.031 43.9032 129.031 44.8852C129.031 45.8042 128.921 46.5342 128.699 47.0722C128.476 47.6112 128.124 47.9962 127.64 48.2252C127.157 48.4552 126.527 48.5702 125.751 48.5702H123.445Z" fill="#C5010A"/>
<path fill-rule="evenodd" clip-rule="evenodd" d="M136.117 39.7744L140.206 59.0304H138.422L137.471 53.8714H132.883L131.909 59.0304H130.149L134.214 39.7744H136.117ZM135.189 42.1744L133.145 52.5634H137.234L135.189 42.1744Z" fill="#C5010A"/>
<path d="M149.025 54.7274L142.891 39.7744H141.584V59.0304H143.153V43.9114L149.31 59.0304H150.594V39.7744H149.025V54.7274Z" fill="#C5010A"/>
<path d="M157.82 59.0302H156.061V52.6342L151.71 39.7742H153.469L156.94 50.4712L160.269 39.7742H162.051L157.82 52.6342V59.0302Z" fill="#C5010A"/>
<path d="M85.634 63.9501L84.991 62.6341H84.524L85.428 64.3551V65.3611H85.841V64.3551L86.737 62.6341H86.274L85.634 63.9501Z" fill="#C5010A"/>
<path fill-rule="evenodd" clip-rule="evenodd" d="M88.8962 62.5866C89.1662 62.5866 89.4022 62.6466 89.6052 62.7656C89.8082 62.8856 89.9662 63.0506 90.0782 63.2626C90.1912 63.4746 90.2482 63.7196 90.2482 63.9966C90.2482 64.2756 90.1912 64.5206 90.0782 64.7326C89.9662 64.9436 89.8082 65.1096 89.6052 65.2286C89.4022 65.3486 89.1662 65.4086 88.8962 65.4086C88.6262 65.4086 88.3892 65.3486 88.1872 65.2286C87.9832 65.1096 87.8252 64.9436 87.7112 64.7326C87.5972 64.5206 87.5402 64.2756 87.5402 63.9966C87.5402 63.7196 87.5972 63.4746 87.7112 63.2626C87.8252 63.0506 87.9832 62.8856 88.1872 62.7656C88.3892 62.6466 88.6262 62.5866 88.8962 62.5866ZM89.3852 64.9126C89.5232 64.8296 89.6322 64.7106 89.7102 64.5546C89.7882 64.3986 89.8272 64.2126 89.8272 63.9966C89.8272 63.7826 89.7882 63.5956 89.7102 63.4406C89.6322 63.2836 89.5232 63.1646 89.3852 63.0816C89.2462 62.9986 89.0832 62.9566 88.8962 62.9566C88.7092 62.9566 88.5452 62.9986 88.4042 63.0816C88.2652 63.1646 88.1562 63.2836 88.0792 63.4406C88.0032 63.5956 87.9652 63.7826 87.9652 63.9966C87.9652 64.2126 88.0032 64.3986 88.0792 64.5546C88.1562 64.7106 88.2652 64.8296 88.4042 64.9126C88.5452 64.9956 88.7092 65.0376 88.8962 65.0376C89.0832 65.0376 89.2462 64.9956 89.3852 64.9126Z" fill="#C5010A"/>
<path d="M93.1077 64.3407C93.1077 64.5787 93.0507 64.7547 92.9367 64.8657C92.8227 64.9787 92.6697 65.0337 92.4767 65.0337C92.2817 65.0337 92.1277 64.9787 92.0127 64.8657C91.8987 64.7547 91.8407 64.5787 91.8407 64.3407V62.6337H91.4277V64.3367C91.4277 64.5807 91.4747 64.7817 91.5667 64.9407C91.6587 65.0987 91.7837 65.2167 91.9407 65.2927C92.0977 65.3697 92.2737 65.4077 92.4687 65.4077C92.6617 65.4077 92.8367 65.3697 92.9967 65.2927C93.1567 65.2167 93.2837 65.0987 93.3787 64.9407C93.4737 64.7817 93.5207 64.5807 93.5207 64.3367V62.6337H93.1077V64.3407Z" fill="#C5010A"/>
<path fill-rule="evenodd" clip-rule="evenodd" d="M96.6743 63.4481C96.6743 63.6171 96.6293 63.7701 96.5393 63.9081C96.4493 64.0461 96.3103 64.1441 96.1203 64.2041L96.7013 65.3611H96.2223L95.6913 64.2621H95.2043V65.3611H94.7913V62.6341H95.7303C95.9463 62.6341 96.1233 62.6701 96.2633 62.7421C96.4013 62.8151 96.5053 62.9131 96.5723 63.0371C96.6403 63.1601 96.6743 63.2971 96.6743 63.4481ZM95.2043 63.9501H95.7073C95.8943 63.9501 96.0313 63.9051 96.1183 63.8141C96.2053 63.7231 96.2493 63.6051 96.2493 63.4601C96.2493 63.3141 96.2063 63.1981 96.1203 63.1111C96.0343 63.0231 95.8953 62.9801 95.7033 62.9801H95.2043V63.9501Z" fill="#C5010A"/>
<path d="M100.835 62.9569C101.035 62.9569 101.195 63.0039 101.314 63.0979C101.434 63.1899 101.512 63.3159 101.549 63.4759H102.008C101.954 63.1939 101.825 62.9769 101.622 62.8199C101.42 62.6649 101.159 62.5869 100.839 62.5869C100.569 62.5869 100.336 62.6459 100.14 62.7659C99.9432 62.8859 99.7922 63.0509 99.6862 63.2629C99.5792 63.4749 99.5262 63.7209 99.5262 64.0009C99.5262 64.2789 99.5792 64.5239 99.6862 64.7359C99.7922 64.9469 99.9432 65.1119 100.14 65.2299C100.336 65.3489 100.569 65.4079 100.839 65.4079C101.159 65.4079 101.42 65.3309 101.622 65.1779C101.825 65.0249 101.954 64.8129 102.008 64.5429H101.549C101.512 64.6959 101.434 64.8169 101.314 64.9049C101.195 64.9939 101.035 65.0379 100.835 65.0379C100.563 65.0379 100.347 64.9449 100.189 64.7609C100.03 64.5769 99.9512 64.3229 99.9512 64.0009C99.9512 63.6769 100.03 63.4209 100.189 63.2349C100.347 63.0499 100.563 62.9569 100.835 62.9569Z" fill="#C5010A"/>
<path fill-rule="evenodd" clip-rule="evenodd" d="M104.464 62.5866C104.734 62.5866 104.97 62.6466 105.173 62.7656C105.376 62.8856 105.534 63.0506 105.646 63.2626C105.759 63.4746 105.816 63.7196 105.816 63.9966C105.816 64.2756 105.759 64.5206 105.646 64.7326C105.534 64.9436 105.376 65.1096 105.173 65.2286C104.97 65.3486 104.734 65.4086 104.464 65.4086C104.194 65.4086 103.957 65.3486 103.755 65.2286C103.551 65.1096 103.393 64.9436 103.279 64.7326C103.165 64.5206 103.108 64.2756 103.108 63.9966C103.108 63.7196 103.165 63.4746 103.279 63.2626C103.393 63.0506 103.551 62.8856 103.755 62.7656C103.957 62.6466 104.194 62.5866 104.464 62.5866ZM104.953 64.9126C105.091 64.8296 105.2 64.7106 105.278 64.5546C105.356 64.3986 105.395 64.2126 105.395 63.9966C105.395 63.7826 105.356 63.5956 105.278 63.4406C105.2 63.2836 105.091 63.1646 104.953 63.0816C104.814 62.9986 104.651 62.9566 104.464 62.9566C104.277 62.9566 104.113 62.9986 103.972 63.0816C103.833 63.1646 103.724 63.2836 103.647 63.4406C103.571 63.5956 103.533 63.7826 103.533 63.9966C103.533 64.2126 103.571 64.3986 103.647 64.5546C103.724 64.7106 103.833 64.8296 103.972 64.9126C104.113 64.9956 104.277 65.0376 104.464 65.0376C104.651 65.0376 104.814 64.9956 104.953 64.9126Z" fill="#C5010A"/>
<path d="M108.427 64.4491L107.503 62.6341H107.016V65.3611H107.429V63.3501L108.267 64.9711H108.586L109.42 63.3461V65.3611H109.833V62.6341H109.347L108.427 64.4491Z" fill="#C5010A"/>
<path fill-rule="evenodd" clip-rule="evenodd" d="M112.083 62.6338C112.295 62.6338 112.472 62.6688 112.613 62.7398C112.753 62.8128 112.857 62.9088 112.926 63.0328C112.995 63.1558 113.03 63.2958 113.03 63.4518C113.03 63.5998 112.997 63.7348 112.93 63.8588C112.864 63.9828 112.76 64.0808 112.621 64.1528C112.48 64.2258 112.3 64.2628 112.083 64.2628H111.541V65.3608H111.128V62.6338H112.083ZM112.063 63.9238C112.258 63.9238 112.398 63.8808 112.482 63.7968C112.566 63.7118 112.609 63.5978 112.609 63.4518C112.609 63.3008 112.566 63.1838 112.482 63.0998C112.398 63.0148 112.258 62.9728 112.063 62.9728H111.541V63.9238H112.063Z" fill="#C5010A"/>
<path fill-rule="evenodd" clip-rule="evenodd" d="M114.693 62.6341L113.688 65.3611H114.124L114.358 64.6951H115.472L115.706 65.3611H116.143L115.145 62.6341H114.693ZM114.475 64.3671L114.915 63.1251L115.356 64.3671H114.475Z" fill="#C5010A"/>
<path d="M117.677 62.6334L119.045 64.6874V62.6334H119.458V65.3614H119.045L117.677 63.3074V65.3614H117.264V62.6334H117.677Z" fill="#C5010A"/>
<path d="M121.653 63.9501L121.01 62.6341H120.543L121.447 64.3551V65.3611H121.86V64.3551L122.756 62.6341H122.293L121.653 63.9501Z" fill="#C5010A"/>
<path d="M126.201 62.9686H125.394V62.6336H127.416V62.9686H126.614V65.3616H126.201V62.9686Z" fill="#C5010A"/>
<path fill-rule="evenodd" clip-rule="evenodd" d="M129.076 62.6341L128.071 65.3611H128.507L128.741 64.6951H129.855L130.089 65.3611H130.526L129.528 62.6341H129.076ZM128.858 64.3671L129.298 63.1251L129.739 64.3671H128.858Z" fill="#C5010A"/>
<path d="M133.553 64.2001H132.813V63.8811H133.97V65.3611H133.592L133.557 64.9601C133.466 65.1021 133.352 65.2131 133.214 65.2911C133.077 65.3691 132.897 65.4081 132.676 65.4081C132.419 65.4081 132.195 65.3491 132.002 65.2321C131.81 65.1161 131.661 64.9521 131.554 64.7421C131.448 64.5311 131.395 64.2861 131.395 64.0051C131.395 63.7271 131.449 63.4811 131.558 63.2681C131.667 63.0551 131.823 62.8881 132.024 62.7671C132.225 62.6471 132.463 62.5871 132.739 62.5871C133.05 62.5871 133.31 62.6621 133.518 62.8121C133.726 62.9641 133.861 63.1711 133.923 63.4361H133.456C133.415 63.2911 133.333 63.1771 133.21 63.0941C133.088 63.0101 132.931 62.9691 132.739 62.9691C132.454 62.9691 132.229 63.0601 132.065 63.2451C131.901 63.4291 131.82 63.6841 131.82 64.0091C131.82 64.3341 131.9 64.5871 132.061 64.7681C132.222 64.9511 132.436 65.0421 132.704 65.0421C132.974 65.0421 133.177 64.9651 133.314 64.8111C133.45 64.6581 133.53 64.4551 133.553 64.2001Z" fill="#C5010A"/>
<path d="M135.626 62.6337H135.213V65.3617H136.865V65.0337H135.626V62.6337Z" fill="#C5010A"/>
</svg>
