<svg width="40" height="40" viewBox="0 0 40 40" fill="none" xmlns="http://www.w3.org/2000/svg">
<rect width="40" height="40" rx="20" fill="#FA3C45"/>
<path d="M17 16H14.275C15.1247 14.777 16.343 13.8574 17.7522 13.3755C19.1613 12.8937 20.6875 12.8746 22.1082 13.3212C23.529 13.7678 24.7698 14.6566 25.6498 15.8581C26.5298 17.0596 27.0028 18.5107 27 20H29C29.0009 18.1385 28.4245 16.3225 27.3503 14.8022C26.2761 13.282 24.7569 12.1322 23.002 11.5113C21.2471 10.8904 19.3428 10.8289 17.5515 11.3353C15.7602 11.8417 14.17 12.8912 13 14.339V12H11V18H17V16Z" fill="white"/>
<path d="M23 24H25.725C24.8753 25.223 23.657 26.1426 22.2478 26.6245C20.8387 27.1063 19.3125 27.1254 17.8918 26.6788C16.471 26.2322 15.2302 25.3434 14.3502 24.1419C13.4702 22.9404 12.9972 21.4892 13 20H11C10.9991 21.8615 11.5755 23.6775 12.6497 25.1978C13.724 26.718 15.2431 27.8678 16.998 28.4887C18.7529 29.1096 20.6572 29.1711 22.4485 28.6647C24.2398 28.1583 25.83 27.1088 27 25.661V28H29V22H23V24Z" fill="white"/>
</svg>
