<?xml version="1.0" standalone="no"?>
<!DOCTYPE svg PUBLIC "-//W3C//DTD SVG 1.1//EN" "http://www.w3.org/Graphics/SVG/1.1/DTD/svg11.dtd" >
<svg>
<metadata>
Created by FontForge 20090914 at Tue Sep 14 21:33:57 2021
 By www-data
Copyright 2016 The Mulish Project Authors (https://github.com/googlefonts/mulish)
</metadata>
<defs>
<font id="Mulish-Regular" horiz-adv-x="600" >
  <font-face 
    font-family="Mulish"
    font-weight="400"
    font-stretch="normal"
    units-per-em="1000"
    panose-1="0 0 0 0 0 0 0 0 0 0"
    ascent="800"
    descent="-200"
    x-height="502"
    cap-height="705"
    bbox="-252 -270 1292 1043"
    underline-thickness="28"
    underline-position="-66"
    unicode-range="U+000D-U+FB02"
  />
<missing-glyph horiz-adv-x="500" 
d="M50 -216v952h400v-952h-400zM100 -166h300v852h-300v-852z" />
    <glyph glyph-name="fi" unicode="fi" horiz-adv-x="574" 
d="M105 0v439.002h-98v63h120l-22 -21v84c0 56.667 14.167 100 42.5 130s68.833 45 121.5 45c12.667 0 26.167 -1.16699 40.5 -3.5s26.5 -5.5 36.5 -9.5v-67c-8 3.33301 -17.833 6.16602 -29.5 8.49902s-23.5 3.5 -35.5 3.5c-31.333 0 -55 -9.33301 -71 -28
s-24 -47.334 -24 -86.001v-73l-13 17h322v-502h-81v439h-228v-439h-81zM405 616.002v91h100v-91h-100z" />
    <glyph glyph-name="fl" unicode="fl" horiz-adv-x="576" 
d="M105 0l0.00292969 439.001h-98v63h120l-22 -21v84c0 56.667 14.333 100 43 130s69.667 45 123 45c13.333 0 27.166 -1.16699 41.499 -3.5s26.166 -5.5 35.499 -9.5v-67c-8 3.33301 -17.833 6.16602 -29.5 8.49902s-23.5 3.5 -35.5 3.5
c-20.667 0 -38.334 -4.16699 -53.001 -12.5s-25.667 -20.833 -33 -37.5s-11 -38 -11 -64v-73l-13 17h153v-63h-140v-439h-81zM417.003 0.000976562v736h81v-736h-81z" />
    <glyph glyph-name=".notdef" horiz-adv-x="500" 
d="M50 -216v952h400v-952h-400zM100 -166h300v852h-300v-852z" />
    <glyph glyph-name="uni0000" horiz-adv-x="0" 
 />
    <glyph glyph-name="uni0000" horiz-adv-x="0" 
 />
    <glyph glyph-name="CR" unicode="&#xd;" horiz-adv-x="261" 
 />
    <glyph glyph-name="space" unicode=" " horiz-adv-x="261" 
 />
    <glyph glyph-name="exclam" unicode="!" horiz-adv-x="228" 
d="M89 184l-25 521h100l-25 -521h-50zM63 0v102h102v-102h-102z" />
    <glyph glyph-name="quotedbl" unicode="&#x22;" horiz-adv-x="392" 
d="M84 428l-21 277h95l-19 -277h-55zM255 428l-21 277h95l-19 -277h-55z" />
    <glyph glyph-name="numbersign" unicode="#" 
d="M86 0l37 182h-93v59h103l48 231h-130v59h141l35 174h64l-35 -174h158l35 174h64l-35 -174h92v-59h-104l-47 -231h131v-59h-142l-37 -182h-65l37 182h-157l-35 -182h-65zM198 241h157l47 231h-158z" />
    <glyph glyph-name="dollar" unicode="$" 
d="M276 -115l0.00292969 127.001l18 -17c-32 0.666992 -63 4 -93 10s-58 15.167 -84 27.5s-49.667 27.833 -71 46.5l30 66c32 -26 65.667 -45.333 101 -58s76.666 -19 123.999 -19c57.333 0 100 11.167 128 33.5s42 51.166 42 86.499c0 28.667 -10.167 51.5 -30.5 68.5
s-53.833 30.5 -100.5 40.5l-100 21c-40.667 9.33301 -74.334 22 -101.001 38s-46.334 36.333 -59.001 61s-19 53.667 -19 87c0 38.667 9.5 73.167 28.5 103.5s45.5 54.333 79.5 72s73.667 27.5 119 29.5l-12 -14v125h68v-125l-13 14c35.333 -1.33301 71.333 -9 108 -23
s67.667 -35 93 -63l-28 -64c-26.667 27.333 -56.334 47.166 -89.001 59.499s-69 18.5 -109 18.5c-50.667 0 -91 -12 -121 -36s-45 -55.667 -45 -95c0 -30.667 9.5 -55.334 28.5 -74.001s49.833 -32.334 92.5 -41.001l100 -22c64.667 -13.333 112.667 -34.166 144 -62.499
s47 -66.5 47 -114.5c0 -38 -9.66699 -71.167 -29 -99.5s-45.666 -50.666 -78.999 -66.999s-72 -26.166 -116 -29.499l16 17v-128h-68z" />
    <glyph glyph-name="percent" unicode="%" horiz-adv-x="937" 
d="M296 0h-73l419 705h73zM225 282c-54 0 -96.499 19.167 -127.499 57.5s-46.5 91.166 -46.5 158.499c0 68 15.667 120.833 47 158.5s73.666 56.5 126.999 56.5c54 0 96.5 -18.833 127.5 -56.5s46.5 -90.5 46.5 -158.5c0 -67.333 -15.5 -120.166 -46.5 -158.499
s-73.5 -57.5 -127.5 -57.5zM225.001 340c32.667 0 58.167 13.167 76.5 39.5s27.5 65.833 27.5 118.5c0 53.333 -9.16699 93 -27.5 119s-43.833 39 -76.5 39c-32 0 -57.167 -13 -75.5 -39s-27.5 -65.667 -27.5 -119s9.16699 -93 27.5 -119s43.5 -39 75.5 -39zM713.001 -9
c-54.667 0 -97.5 19 -128.5 57s-46.5 91.333 -46.5 160c0 68 15.667 120.667 47 158s74 56 128 56s96.5 -18.833 127.5 -56.5s46.5 -90.167 46.5 -157.5c0 -68 -15.5 -121.167 -46.5 -159.5s-73.5 -57.5 -127.5 -57.5zM713.001 49c32 0 57.167 13.168 75.5 39.501
s27.5 66.166 27.5 119.499c0 52.667 -9.16699 92 -27.5 118s-43.5 39 -75.5 39c-32.667 0 -58 -13 -76 -39s-27 -65.333 -27 -118c0 -54 9 -94 27 -120s43.333 -39 76 -39z" />
    <glyph glyph-name="ampersand" unicode="&#x26;" horiz-adv-x="671" 
d="M652 -9c-30.667 14 -59.333 31.1699 -86 51.5029s-49.334 40.166 -68.001 59.499l20 -1c-28.667 -34.667 -63.334 -61.667 -104.001 -81s-85 -29 -133 -29s-89.167 7.5 -123.5 22.5s-60.666 35.833 -78.999 62.5s-27.5 57.667 -27.5 93c0 46 13.333 85 40 117
s64.667 64 114 96l33 21l-12 -15c-31.333 33.333 -54.166 63.166 -68.499 89.499s-21.5 53.5 -21.5 81.5c0 30.667 7.33301 57.667 22 81s35.167 41.5 61.5 54.5s57.5 19.5 93.5 19.5c30.667 0 57.834 -5.83301 81.501 -17.5s42.5 -28.167 56.5 -49.5s21 -46.666 21 -75.999
c0 -24 -4.83301 -46.5 -14.5 -67.5s-25.834 -41.667 -48.501 -62s-53.334 -42.5 -92.001 -66.5l2 19l194 -210h-18c17.333 27.333 30.833 61.166 40.5 101.499s15.167 82.833 16.5 127.5h71c-1.33301 -55.333 -9 -106.833 -23 -154.5s-32.667 -89.834 -56 -126.501l-2 24
c17.333 -18.667 38.333 -37.5 63 -56.5s51.334 -35.167 80.001 -48.5zM284.001 57.0029c40 0 75.501 8.00195 106.501 24.002s58.167 39.333 81.5 70l-2 -23l-217 232l31 -1l-31 -19c-28 -18.667 -51 -36.334 -69 -53.001s-31.333 -34 -40 -52s-13 -38.333 -13 -61
c0 -36.667 13.167 -65.334 39.5 -86.001s64.166 -31 113.499 -31zM313.002 653.005c-30 0 -54.334 -8.49902 -73.001 -25.499s-28 -39.5 -28 -67.5c0 -14.667 2.5 -28.334 7.5 -41.001s13.5 -26.5 25.5 -41.5s28 -33.833 48 -56.5l-22 -3c46 28 79.5 53.167 100.5 75.5
s31.5 46.833 31.5 73.5c0 26 -8.16699 46.833 -24.5 62.5s-38.166 23.5 -65.499 23.5z" />
    <glyph glyph-name="quotesingle" unicode="'" horiz-adv-x="221" 
d="M84 428l-21 277h95l-19 -277h-55z" />
    <glyph glyph-name="parenleft" unicode="(" horiz-adv-x="318" 
d="M223 -180c-27.333 50 -50 98.8301 -68 146.497s-31.167 95.834 -39.5 144.501s-12.5 99.334 -12.5 152.001s4.16699 103.334 12.5 152.001s21.5 96.834 39.5 144.501s40.667 96.167 68 145.5h68c-34 -74.667 -59.833 -148.5 -77.5 -221.5s-26.5 -146.5 -26.5 -220.5
c0 -73.333 8.83301 -146.833 26.5 -220.5s43.5 -147.834 77.5 -222.501h-68z" />
    <glyph glyph-name="parenright" unicode=")" horiz-adv-x="318" 
d="M94 -180l-67 0.000976562c34 74.667 59.833 148.667 77.5 222s26.5 146.666 26.5 219.999c0 74 -8.83301 147.667 -26.5 221s-43.5 147.333 -77.5 222h67c28.667 -49.333 51.834 -97.833 69.501 -145.5s30.667 -96 39 -145s12.5 -99.833 12.5 -152.5
c0 -52 -4.16699 -102.5 -12.5 -151.5s-21.333 -97.333 -39 -145s-40.834 -96.167 -69.501 -145.5z" />
    <glyph glyph-name="asterisk" unicode="*" horiz-adv-x="454" 
d="M137 364l-50 36l98 127l-154 45l20 59l150 -54l-6 159h63l-5 -160l151 55l19 -59l-153 -45l98 -127l-51 -36l-89 133z" />
    <glyph glyph-name="plus" unicode="+" 
d="M268 38v218h-215v62h215v213h64v-213h215v-62h-215v-218h-64z" />
    <glyph glyph-name="comma" unicode="," horiz-adv-x="228" 
d="M105 -114l-37.999 28.999c18 18.667 29.833 36.167 35.5 52.5s8.5 32.833 8.5 49.5l18 -17h-66v102h102v-72c0 -18 -1.83301 -35.167 -5.5 -51.5s-9.83398 -32.166 -18.501 -47.499s-20.667 -30.333 -36 -45z" />
    <glyph glyph-name="hyphen" unicode="-" horiz-adv-x="428" 
d="M72 241v67h285v-67h-285z" />
    <glyph glyph-name="period" unicode="." horiz-adv-x="228" 
d="M63 0v102h102v-102h-102z" />
    <glyph glyph-name="slash" unicode="/" horiz-adv-x="286" 
d="M47 -55h-70l262 803h70z" />
    <glyph glyph-name="zero" unicode="0" 
d="M300 -9c-80 0 -141.333 30.999 -184 92.999s-64 151.667 -64 269c0 118 21.333 207.667 64 269s104 92 184 92c80.667 0 142.167 -30.667 184.5 -92s63.5 -150.666 63.5 -267.999c0 -118 -21.333 -208 -64 -270s-104 -93 -184 -93zM300 62.999
c56 0 97.6689 23.668 125.002 71.001s41 120.666 41 219.999c0 66.667 -6 121.167 -18 163.5s-30.333 73.833 -55 94.5s-55.667 31 -93 31c-55.333 0 -96.833 -23.333 -124.5 -70s-41.5 -119.667 -41.5 -219c0 -66 6.16699 -120.5 18.5 -163.5s30.666 -75 54.999 -96
s55.166 -31.5 92.499 -31.5z" />
    <glyph glyph-name="one" unicode="1" 
d="M127 0v71h166v563h44l-194 -121v83l173 109h60v-634h156v-71h-405z" />
    <glyph glyph-name="two" unicode="2" 
d="M86 0v62l250 261c32.667 34 57.167 66.5 73.5 97.5s24.5 63.167 24.5 96.5c0 40.667 -12.667 71.5 -38 92.5s-62 31.5 -110 31.5c-37.333 0 -71.833 -6.5 -103.5 -19.5s-62.167 -33.5 -91.5 -61.5l-30 65c26.667 26.667 60.667 48.167 102 64.5s85 24.5 131 24.5
c48 0 88.5 -7.33301 121.5 -22s58.167 -36.167 75.5 -64.5s26 -62.833 26 -103.5c0 -44.667 -10.833 -87.167 -32.5 -127.5s-53.167 -81.833 -94.5 -124.5l-221 -224v23h378v-71h-461z" />
    <glyph glyph-name="three" unicode="3" 
d="M296 -9c-47.333 0 -92.666 7.33398 -135.999 22.001s-79.666 35.667 -108.999 63l31 64c32.667 -26.667 66.334 -46 101.001 -58s72 -18 112 -18c52.667 0 92.667 11.167 120 33.5s41 55.166 41 98.499c0 41.333 -14 72.833 -42 94.5s-69 32.5 -123 32.5h-106v69h99
c46.667 0 83.667 12 111 36s41 56.667 41 98c0 37.333 -12.5 65.833 -37.5 85.5s-60.833 29.5 -107.5 29.5c-38.667 0 -74.167 -6.5 -106.5 -19.5s-62.5 -33.5 -90.5 -61.5l-31 65c27.333 28 61.666 49.833 102.999 65.5s84.666 23.5 129.999 23.5
c69.333 0 123.666 -16 162.999 -48s59 -76.333 59 -133c0 -43.333 -12.333 -80.5 -37 -111.5s-58 -52.167 -100 -63.5v11c50 -8 88.667 -27.833 116 -59.5s41 -71.5 41 -119.5c0 -61.333 -21.5 -109.833 -64.5 -145.5s-102.167 -53.5 -177.5 -53.5z" />
    <glyph glyph-name="four" unicode="4" 
d="M386 0v153h-336v60l349 492h68v-485h108v-67h-108v-153h-81zM386 220v387h22l-290 -408v21h268z" />
    <glyph glyph-name="five" unicode="5" 
d="M313 -9c-30.667 0 -60.668 3.33301 -90.001 10s-56.833 16.334 -82.5 29.001s-48.167 28 -67.5 46l31 64c32.667 -26 66 -45.167 100 -57.5s70.333 -18.5 109 -18.5c50.667 0 90.334 13.667 119.001 41s43 63.333 43 108c0 46 -13.667 83.667 -41 113s-65.333 44 -114 44
c-34.667 0 -65.667 -6.83301 -93 -20.5s-51 -34.834 -71 -63.501h-60v419h418v-70h-338v-281h-22c18 28 42.833 49.5 74.5 64.5s67.5 22.5 107.5 22.5c45.333 0 84.5 -9.33301 117.5 -28s58.5 -44.667 76.5 -78s27 -72.333 27 -117s-9.83301 -84.167 -29.5 -118.5
s-47.667 -61 -84 -80s-79.833 -28.5 -130.5 -28.5z" />
    <glyph glyph-name="six" unicode="6" 
d="M323 -9c-56.667 0 -104.999 13.5029 -144.999 40.5029s-70.333 66.167 -91 117.5s-31 113.333 -31 186c0 81.333 11.667 150.166 35 206.499s56.666 99.166 99.999 128.499s95.666 44 156.999 44c36.667 0 73.667 -7.5 111 -22.5s68 -35.833 92 -62.5l-30 -64
c-25.333 26 -53 45.167 -83 57.5s-60.333 18.5 -91 18.5c-68 0 -120.167 -24.167 -156.5 -72.5s-54.5 -120.833 -54.5 -217.5v-93h-9c4.66699 38 16.167 70.833 34.5 98.5s42.5 48.834 72.5 63.501s63.333 22 100 22c42.667 0 80.334 -9.33301 113.001 -28
s58.334 -44.834 77.001 -78.501s28 -72.167 28 -115.5c0 -44 -9.66699 -83.333 -29 -118s-46.333 -61.834 -81 -81.501s-74.334 -29.5 -119.001 -29.5zM317.001 61.0029c30.667 0 57.834 6.5 81.501 19.5s42 31.333 55 55s19.5 50.834 19.5 81.501s-6.5 57.667 -19.5 81
s-31.333 41.666 -55 54.999s-50.834 20 -81.501 20s-57.667 -6.66699 -81 -20s-41.5 -31.666 -54.5 -54.999s-19.5 -50.333 -19.5 -81s6.5 -57.834 19.5 -81.501s31.167 -42 54.5 -55s50.333 -19.5 81 -19.5z" />
    <glyph glyph-name="seven" unicode="7" 
d="M113 0l347 670v-36h-394v71h469v-62l-331 -643h-91z" />
    <glyph glyph-name="eight" unicode="8" 
d="M300 -9c-80.667 0 -142.999 17.166 -186.999 51.499s-66 82.5 -66 144.5c0 48.667 15 89.167 45 121.5s69.667 51.833 119 58.5v-15c-44.667 9.33301 -80.334 29.833 -107.001 61.5s-40 69.167 -40 112.5c0 59.333 21 105.5 63 138.5s99.667 49.5 173 49.5
c49.333 0 91.666 -7.5 126.999 -22.5s62.5 -36.333 81.5 -64s28.5 -61.5 28.5 -101.5c0 -43.333 -12.5 -81 -37.5 -113s-59.833 -52 -104.5 -60v14c32.667 -4 60.834 -14.167 84.501 -30.5s42 -37.166 55 -62.499s19.5 -54.333 19.5 -87c0 -62 -22 -110.167 -66 -144.5
s-106.667 -51.5 -188 -51.5zM300.001 58.999c58.667 0 102.5 11 131.5 33s43.5 55.333 43.5 100c0 44 -14.5 76.833 -43.5 98.5s-72.833 32.5 -131.5 32.5s-102.5 -10.833 -131.5 -32.5s-43.5 -54.5 -43.5 -98.5c0 -44.667 14.667 -78 44 -100s73 -33 131 -33z
M300.001 390.999c50.667 0 89.5 11.333 116.5 34s40.5 54 40.5 94s-13.5 71.167 -40.5 93.5s-65.833 33.5 -116.5 33.5s-89.5 -11.167 -116.5 -33.5s-40.5 -53.5 -40.5 -93.5s13.5 -71.333 40.5 -94s65.833 -34 116.5 -34z" />
    <glyph glyph-name="nine" unicode="9" 
d="M253 -9c-36.667 0 -73.667 7.83398 -111 23.501s-68.333 36.167 -93 61.5l31 65c25.333 -26 53 -45.333 83 -58s60.333 -19 91 -19c67.333 0 119.166 24.167 155.499 72.5s54.5 120.833 54.5 217.5v93h10c-4 -37.333 -15.5 -70 -34.5 -98s-43.333 -49.333 -73 -64
s-62.834 -22 -99.501 -22c-42.667 0 -80.5 9.33301 -113.5 28s-58.833 45 -77.5 79s-28 72.333 -28 115c0 44.667 9.83301 84.167 29.5 118.5s46.667 61.333 81 81s73.833 29.5 118.5 29.5c57.333 0 106 -13.5 146 -40.5s70.333 -66.167 91 -117.5s31 -113.333 31 -186
c0 -80.667 -11.667 -149.334 -35 -206.001s-56.666 -99.667 -99.999 -129s-95.666 -44 -156.999 -44zM284 332.001c30.667 0 57.667 6.66699 81 20s41.5 31.666 54.5 54.999s19.5 50.333 19.5 81c0 31.333 -6.5 58.666 -19.5 81.999s-31.167 41.666 -54.5 54.999
s-50.333 20 -81 20s-57.834 -6.66699 -81.501 -20s-42 -31.666 -55 -54.999s-19.5 -50.666 -19.5 -81.999c0 -30.667 6.5 -57.667 19.5 -81s31.333 -41.666 55 -54.999s50.834 -20 81.501 -20z" />
    <glyph glyph-name="colon" unicode=":" horiz-adv-x="228" 
d="M63 400v102h102v-102h-102zM63 0v102h102v-102h-102z" />
    <glyph glyph-name="semicolon" unicode=";" horiz-adv-x="228" 
d="M105 -114l-37.999 29.001c18 18.667 29.833 36.167 35.5 52.5s8.5 32.833 8.5 49.5l26 -17h-74v102h102v-72c0 -26.667 -4.33301 -51.834 -13 -75.501s-24.334 -46.5 -47.001 -68.5zM63.001 400.001v102h102v-102h-102z" />
    <glyph glyph-name="less" unicode="&#x3c;" 
d="M547 34l-494 221v64l494 221v-69l-461 -204v40l461 -203v-70z" />
    <glyph glyph-name="equal" unicode="=" 
d="M53 356v62h494v-62h-494zM53 157v61h494v-61h-494z" />
    <glyph glyph-name="greater" unicode="&#x3e;" 
d="M54 34v70l460 203v-40l-460 204v69l493 -221v-64z" />
    <glyph glyph-name="question" unicode="?" horiz-adv-x="448" 
d="M172 184l0.000976562 29.0029c0 22.667 2.83301 44.167 8.5 64.5s15 41.166 28 62.499s30.5 44.333 52.5 69c17.333 19.333 31.333 36.833 42 52.5s18.167 30.667 22.5 45s6.5 29.166 6.5 44.499c0 28.667 -10.333 51.167 -31 67.5s-49.334 24.5 -86.001 24.5
c-26 0 -51 -3.5 -75 -10.5s-47 -16.5 -69 -28.5v75c22 11.333 46.167 20 72.5 26s52.833 9 79.5 9c38 0 71.333 -6.16699 100 -18.5s51.167 -30 67.5 -53s24.5 -51.167 24.5 -84.5c0 -21.333 -3.33301 -41.833 -10 -61.5s-17 -39.334 -31 -59.001s-32 -41.167 -54 -64.5
c-32.667 -33.333 -55.667 -62.5 -69 -87.5s-21.333 -50.5 -24 -76.5l-3 -25h-52zM146.001 0.00292969v102h103v-102h-103z" />
    <glyph glyph-name="at" unicode="@" horiz-adv-x="969" 
d="M496 -163c-65.333 0 -124.663 10.1709 -177.996 30.5039s-99 49.5 -137 87.5s-67.333 83.833 -88 137.5s-31 113.5 -31 179.5s10.667 126 32 180s52 100.5 92 139.5s87.333 69.167 142 90.5s115 32 181 32c59.333 0 113.5 -8.83301 162.5 -26.5
s91.167 -42.834 126.5 -75.501s62.5 -71.667 81.5 -117s28.5 -96 28.5 -152c0 -57.333 -8.33301 -107.333 -25 -150s-39.667 -75.667 -69 -99s-64 -35 -104 -35s-70.333 11.5 -91 34.5s-29.334 54.167 -26.001 93.5l18 -5c-17.333 -40 -41.5 -70.5 -72.5 -91.5
s-64.167 -31.5 -99.5 -31.5c-52.667 0 -93.5 16.167 -122.5 48.5s-43.5 76.833 -43.5 133.5c0 49.333 9.5 93.166 28.5 131.499s45.167 68.333 78.5 90s71.333 32.5 114 32.5c38 0 68.833 -9 92.5 -27s39.167 -43.333 46.5 -76h-12l17 94h66l-46 -259
c-1.33301 -8.66699 -2.5 -17 -3.5 -25s-1.5 -15.333 -1.5 -22c0 -22 5.16699 -38.667 15.5 -50s25.833 -17 46.5 -17c26.667 0 50 9.66699 70 29s35.667 46.166 47 80.499s17 74.5 17 120.5c0 48 -8 91.333 -24 130s-39 71.667 -69 99s-65.833 48.333 -107.5 63
s-88.167 22 -139.5 22c-58 0 -110.5 -9.16699 -157.5 -27.5s-87.333 -44.333 -121 -78s-59.5 -74.167 -77.5 -121.5s-27 -100 -27 -158c0 -78.667 15 -146.334 45 -203.001s72.833 -100.167 128.5 -130.5s121.167 -45.5 196.5 -45.5c55.333 0 105.666 8.5 150.999 25.5
s82.666 41.167 111.999 72.5l33 -49c-32.667 -34 -74.834 -60 -126.501 -78s-108.167 -27 -169.5 -27zM448.003 117.004c30.667 0 58 8.83301 82 26.5s42.833 42.167 56.5 73.5s20.5 67 20.5 107c0 38 -8.33301 66.333 -25 85s-43 28 -79 28
c-30.667 0 -58.167 -8.33301 -82.5 -25s-43.5 -39.667 -57.5 -69s-21 -63.333 -21 -102c0 -40 9.16699 -70.667 27.5 -92s44.5 -32 78.5 -32z" />
    <glyph glyph-name="A" unicode="A" horiz-adv-x="735" 
d="M18 0l311 705h72l316 -705h-86l-88 201l37 -21h-431l40 21l-86 -201h-85zM364 610l-162 -380l-24 18h372l-18 -18l-166 380h-2z" />
    <glyph glyph-name="B" unicode="B" horiz-adv-x="680" 
d="M88 0l-0.000976562 704.999h282c74.667 0 132.334 -16 173.001 -48s61 -77.333 61 -136c0 -44 -13.167 -80.667 -39.5 -110s-62.833 -48.666 -109.5 -57.999v14c52 -6 92.833 -23.833 122.5 -53.5s44.5 -69.5 44.5 -119.5c0 -62.667 -20.833 -110.667 -62.5 -144
s-100.5 -50 -176.5 -50h-295zM168.999 66.999h205.999c50.667 0 90.834 9.83301 120.501 29.5s44.5 52.5 44.5 98.5c0 31.333 -6.66699 56.5 -20 75.5s-32.333 32.667 -57 41s-54 12.5 -88 12.5h-206v-257zM168.998 389.999h189c54.667 0 95.667 10.667 123 32s41 52 41 92
c0 41.333 -13.667 72.5 -41 93.5s-68.333 31.5 -123 31.5h-189v-249z" />
    <glyph glyph-name="C" unicode="C" horiz-adv-x="684" 
d="M395 -9c-70.667 0 -130.667 14.666 -180 43.999s-87.166 71 -113.499 125s-39.5 118.333 -39.5 193s13.167 138.834 39.5 192.501s64.166 95.167 113.499 124.5s109.333 44 180 44c50 0 94.667 -7.66699 134 -23s73.666 -37.666 102.999 -66.999l-31 -66
c-32 28 -63.667 48.5 -95 61.5s-68 19.5 -110 19.5c-80.667 0 -142 -25 -184 -75s-63 -120.333 -63 -211c0 -60.667 9.33301 -112.5 28 -155.5s46.5 -75.667 83.5 -98s82.167 -33.5 135.5 -33.5c42 0 78.667 6.5 110 19.5s63 33.833 95 62.5l31 -67
c-29.333 -28.667 -63.666 -50.834 -102.999 -66.501s-84 -23.5 -134 -23.5z" />
    <glyph glyph-name="D" unicode="D" horiz-adv-x="747" 
d="M88 0v705h234c78 0 144 -13.5 198 -40.5s95 -66.667 123 -119s42 -116.5 42 -192.5c0 -75.333 -14 -139.333 -42 -192s-69 -92.667 -123 -120s-120 -41 -198 -41h-234zM171 71l145 -0.000976562c96 0 167.333 23.5 214 70.5s70 117.5 70 211.5
c0 94.667 -23.333 165.334 -70 212.001s-118 70 -214 70h-145v-564z" />
    <glyph glyph-name="E" unicode="E" horiz-adv-x="588" 
d="M88 0v705h450v-68h-369v-245h347v-69h-347v-254h369v-69h-450z" />
    <glyph glyph-name="F" unicode="F" horiz-adv-x="562" 
d="M88 0v705h440v-68h-357v-247h335v-68h-335v-322h-83z" />
    <glyph glyph-name="G" unicode="G" horiz-adv-x="731" 
d="M412 -9c-77.333 0 -142.001 14.334 -194.001 43.001s-91 70 -117 124s-39 118.667 -39 194c0 74.667 13.667 139 41 193s66.666 95.667 117.999 125s113.333 44 186 44c51.333 0 95.833 -7.5 133.5 -22.5s71.5 -37.167 101.5 -66.5l-31 -65
c-22 19.333 -43.167 34.666 -63.5 45.999s-41.5 19.833 -63.5 25.5s-47.667 8.5 -77 8.5c-83.333 0 -147.166 -25.167 -191.499 -75.5s-66.5 -121.5 -66.5 -213.5c0 -92.667 21.5 -163.667 64.5 -213s109.833 -74 200.5 -74c33.333 0 65.166 3.16699 95.499 9.5
s59.833 15.5 88.5 27.5l-18 -45v248h-180v65h251v-327c-18.667 -10 -41.167 -18.833 -67.5 -26.5s-54.166 -13.667 -83.499 -18s-58.666 -6.5 -87.999 -6.5z" />
    <glyph glyph-name="H" unicode="H" horiz-adv-x="766" 
d="M88 0v705h83v-312h425v312h82v-705h-82v322h-425v-322h-83z" />
    <glyph glyph-name="I" unicode="I" horiz-adv-x="259" 
d="M88 0v705h83v-705h-83z" />
    <glyph glyph-name="J" unicode="J" horiz-adv-x="329" 
d="M79 -186c-10.667 0 -22.832 0.500977 -36.499 1.50098s-27.5 3.16699 -41.5 6.5v69c12.667 -2.66699 24.5 -4.83398 35.5 -6.50098s20.833 -2.5 29.5 -2.5c30.667 0 53.667 9.5 69 28.5s23 49.167 23 90.5v704h83v-705c0 -40 -5.83301 -74 -17.5 -102
s-29.334 -49 -53.001 -63s-54.167 -21 -91.5 -21z" />
    <glyph glyph-name="K" unicode="K" horiz-adv-x="634" 
d="M88 0v705h83v-320h2l338 320h106l-389 -364l1 42l416 -383h-109l-363 332h-2v-332h-83z" />
    <glyph glyph-name="L" unicode="L" horiz-adv-x="545" 
d="M88 0v705h83v-633h356v-72h-439z" />
    <glyph glyph-name="M" unicode="M" horiz-adv-x="858" 
d="M89 0v705h72l283 -639h-29l283 639h72v-705h-76v598h30l-267 -598h-55l-268 598h30v-598h-75z" />
    <glyph glyph-name="N" unicode="N" horiz-adv-x="747" 
d="M88 0v705h65l452 -600h-23v600h77v-705h-64l-452 600h22v-600h-77z" />
    <glyph glyph-name="O" unicode="O" horiz-adv-x="772" 
d="M62 353c0 74.667 12.833 138.833 38.5 192.5s62.667 95.167 111 124.5s106.5 44 174.5 44c66 0 123.333 -14.667 172 -44s86.167 -70.833 112.5 -124.5s39.5 -117.5 39.5 -191.5c0 -74.667 -13.333 -139 -40 -193s-64.167 -95.833 -112.5 -125.5
s-105.5 -44.5 -171.5 -44.5c-68 0 -126 14.833 -174 44.5s-85 71.5 -111 125.5s-39 118 -39 192zM149 352.999c0 -60.667 9 -112.502 27 -155.502s44.667 -76 80 -99s78.666 -34.5 129.999 -34.5c74.667 0 132.834 25.5 174.501 76.5s62.5 121.833 62.5 212.5
c0 61.333 -9.33301 113.333 -28 156s-45.667 75.334 -81 98.001s-78 34 -128 34c-78 0 -137 -25.167 -177 -75.5s-60 -121.166 -60 -212.499z" />
    <glyph glyph-name="P" unicode="P" horiz-adv-x="651" 
d="M88 0l0.000976562 704.998h287c74 0 131 -17.833 171 -53.5s60 -85.167 60 -148.5c0 -41.333 -9 -77.166 -27 -107.499s-44.333 -53.666 -79 -69.999s-76.334 -24.5 -125.001 -24.5h-204v-301h-83zM171.001 369.998h196c51.333 0 90.166 11.667 116.499 35
s39.5 56 39.5 98c0 42.667 -13.167 75.667 -39.5 99s-65.166 35 -116.499 35h-196v-267z" />
    <glyph glyph-name="Q" unicode="Q" horiz-adv-x="772" 
d="M576 -191c-19.333 12.667 -39.333 28.999 -60 48.999s-40.167 42.333 -58.5 67s-34.166 49.334 -47.499 74.001l73 27c17.333 -34.667 39.666 -66.167 66.999 -94.5s55 -52.833 83 -73.5zM62 352.999c0 74.667 12.833 138.833 38.5 192.5s62.667 95.167 111 124.5
s106.5 44 174.5 44c66 0 123.333 -14.667 172 -44s86.167 -70.833 112.5 -124.5s39.5 -117.5 39.5 -191.5c0 -74.667 -13.333 -139 -40 -193s-64.167 -95.833 -112.5 -125.5s-105.5 -44.5 -171.5 -44.5c-68 0 -126 14.833 -174 44.5s-85 71.5 -111 125.5s-39 118 -39 192z
M149 352.998c0 -60.667 9 -112.502 27 -155.502s44.667 -76 80 -99s78.666 -34.5 129.999 -34.5c74.667 0 132.834 25.5 174.501 76.5s62.5 121.833 62.5 212.5c0 61.333 -9.33301 113.333 -28 156s-45.667 75.334 -81 98.001s-78 34 -128 34c-78 0 -137 -25.167 -177 -75.5
s-60 -121.166 -60 -212.499z" />
    <glyph glyph-name="R" unicode="R" horiz-adv-x="692" 
d="M88 0l-0.000976562 704.999h288c74 0 131.333 -17.5 172 -52.5s61 -83.833 61 -146.5c0 -41.333 -9.16699 -76.5 -27.5 -105.5s-44 -51.167 -77 -66.5s-71.5 -23 -115.5 -23l18 13h20c27.333 0 51.833 -6.66699 73.5 -20s38.834 -35.666 51.501 -66.999l100 -237h-91
l-96 233c-11.333 30 -28.333 49.5 -51 58.5s-51 13.5 -85 13.5h-158v-305h-83zM170.999 369.999h193c53.333 0 93.833 11.5 121.5 34.5s41.5 56.167 41.5 99.5s-13.833 76.333 -41.5 99s-68.167 34 -121.5 34h-193v-267z" />
    <glyph glyph-name="S" unicode="S" horiz-adv-x="623" 
d="M318 -9c-56.667 0 -107.332 7.33496 -151.999 22.002s-83.667 35.667 -117 63l30 66c23.333 -17.333 46.833 -31.833 70.5 -43.5s49.167 -20.334 76.5 -26.001s58 -8.5 92 -8.5c59.333 0 103.333 11 132 33s43 51.333 43 88c0 31.333 -10 55.333 -30 72s-55 30 -105 40
l-105 21c-64.667 13.333 -112.834 35 -144.501 65s-47.5 70.667 -47.5 122c0 42 10.833 78.667 32.5 110s52.167 55.666 91.5 72.999s85 26 137 26c50 0 95.667 -7.5 137 -22.5s76.666 -36.833 105.999 -65.5l-29 -64c-31.333 28 -64.166 48.167 -98.499 60.5
s-73.166 18.5 -116.499 18.5c-54.667 0 -97.834 -11.833 -129.501 -35.5s-47.5 -55.834 -47.5 -96.501c0 -32.667 10 -58.167 30 -76.5s53 -32.166 99 -41.499l106 -21c68 -14 118 -35 150 -63s48 -67.333 48 -118c0 -38.667 -10.5 -73 -31.5 -103
s-50.833 -53.333 -89.5 -70s-84.667 -25 -138 -25z" />
    <glyph glyph-name="T" unicode="T" horiz-adv-x="604" 
d="M259 0v635h-249v70h580v-70h-248v-635h-83z" />
    <glyph glyph-name="U" unicode="U" horiz-adv-x="730" 
d="M366 -9c-63.333 0 -116 10.833 -158 32.5s-73.167 54 -93.5 97s-30.5 95.833 -30.5 158.5v426h82v-422c0 -72.667 16 -127.334 48 -164.001s82.667 -55 152 -55c65.333 0 115 18.333 149 55s51 91.334 51 164.001v422h82v-426c0 -62.667 -10.667 -115.5 -32 -158.5
s-53 -75.333 -95 -97s-93.667 -32.5 -155 -32.5z" />
    <glyph glyph-name="V" unicode="V" horiz-adv-x="698" 
d="M310 0l-307 705h89l273 -639h-31l275 639h86l-309 -705h-76z" />
    <glyph glyph-name="W" unicode="W" horiz-adv-x="1112" 
d="M280 0l-246 705h87l215 -635h-35l226 635h66l214 -635h-32l221 635h82l-248 -705h-74l-208 611h21l-217 -611h-72z" />
    <glyph glyph-name="X" unicode="X" horiz-adv-x="652" 
d="M9 0l281 376v-31l-268 360h98l220 -301h-26l218 301h99l-269 -360v31l281 -376h-98l-235 319h32l-235 -319h-98z" />
    <glyph glyph-name="Y" unicode="Y" horiz-adv-x="607" 
d="M262 0v329l18 -56l-292 432h96l232 -351h-21l231 351h92l-291 -432l18 56v-329h-83z" />
    <glyph glyph-name="Z" unicode="Z" horiz-adv-x="596" 
d="M43 0v61l427 605v-32h-427v71h506v-61l-428 -604v31h439v-71h-517z" />
    <glyph glyph-name="bracketleft" unicode="[" horiz-adv-x="317" 
d="M106 -180v885h203v-64h-123v-757h123v-64h-203z" />
    <glyph glyph-name="backslash" unicode="\" horiz-adv-x="286" 
d="M239 -55l-262 803h70l262 -803h-70z" />
    <glyph glyph-name="bracketright" unicode="]" horiz-adv-x="317" 
d="M9 -180v64h121v757h-121v64h201v-885h-201z" />
    <glyph glyph-name="asciicircum" unicode="^" 
d="M46 142l222 486h63l223 -486h-67l-208 453h40l-206 -453h-67z" />
    <glyph glyph-name="underscore" unicode="_" horiz-adv-x="505" 
d="M8 -53v53h489v-53h-489z" />
    <glyph glyph-name="grave" unicode="`" horiz-adv-x="500" 
d="M221 551l-132 202h87l103 -202h-58z" />
    <glyph glyph-name="a" unicode="a" 
d="M270 -9c-44.667 0 -83.667 10.499 -117 31.499s-59.166 50.833 -77.499 89.5s-27.5 85 -27.5 139c0 54.667 9.16699 101.334 27.5 140.001s44.166 68.334 77.499 89.001s72.333 31 117 31c45.333 0 84.5 -11.5 117.5 -34.5s54.833 -54.167 65.5 -93.5h-12l11 119h78
c-2 -19.333 -3.83301 -38.833 -5.5 -58.5s-2.5 -38.834 -2.5 -57.501v-386h-81v118h11c-10.667 -39.333 -32.667 -70.333 -66 -93s-72 -34 -116 -34zM286 56.999c48 0 86 16.5 114 49.5s42 81.167 42 144.5c0 64 -14 112.5 -42 145.5s-66 49.5 -114 49.5
c-47.333 0 -85.166 -16.5 -113.499 -49.5s-42.5 -81.5 -42.5 -145.5c0 -63.333 14.167 -111.5 42.5 -144.5s66.166 -49.5 113.499 -49.5z" />
    <glyph glyph-name="b" unicode="b" 
d="M331 -9c-45.333 0 -84.333 11.499 -117 34.499s-54.667 54.5 -66 94.5h11v-120h-80v736h81v-351h-12c11.333 38.667 33.333 69.334 66 92.001s71.667 34 117 34s84.5 -10.5 117.5 -31.5s58.667 -50.833 77 -89.5s27.5 -85 27.5 -139s-9.33301 -100.333 -28 -139
s-44.5 -68.5 -77.5 -89.5s-71.833 -31.5 -116.5 -31.5zM314 56.999c47.333 0 85.333 16.333 114 49s43 81 43 145s-14.333 112.5 -43 145.5s-66.667 49.5 -114 49.5s-85.166 -16.5 -113.499 -49.5s-42.5 -81.5 -42.5 -145.5c0 -63.333 14.167 -111.5 42.5 -144.5
s66.166 -49.5 113.499 -49.5z" />
    <glyph glyph-name="c" unicode="c" horiz-adv-x="495" 
d="M290 -9c-49.333 0 -92.165 10.6689 -128.498 32.002s-64.333 51.666 -84 90.999s-29.5 86 -29.5 140c0 54.667 10 101.167 30 139.5s48.167 67.5 84.5 87.5s78.833 30 127.5 30c32 0 63.167 -5.66699 93.5 -17s55.5 -27.333 75.5 -48l-29 -58
c-20 19.333 -41.833 33.666 -65.5 42.999s-46.834 14 -69.501 14c-52 0 -92.333 -16.333 -121 -49s-43 -80.334 -43 -143.001c0 -62 14.333 -110 43 -144s69 -51 121 -51c22 0 44.833 4.33301 68.5 13s45.834 23 66.501 43l29 -57
c-20.667 -21.333 -46.334 -37.666 -77.001 -48.999s-61.334 -17 -92.001 -17z" />
    <glyph glyph-name="d" unicode="d" 
d="M269 -9c-44 0 -82.668 10.499 -116.001 31.499s-59.166 50.833 -77.499 89.5s-27.5 85 -27.5 139c0 54.667 9.16699 101.334 27.5 140.001s44.166 68.334 77.499 89.001s72 31 116 31c45.333 0 84.5 -11.333 117.5 -34s55.167 -53.334 66.5 -92.001h-12v351h81v-736h-80
v120h11c-10.667 -40 -32.667 -71.5 -66 -94.5s-72.666 -34.5 -117.999 -34.5zM285.999 56.999c47.333 0 85.333 16.5 114 49.5s43 81.167 43 144.5c0 64 -14.333 112.5 -43 145.5s-66.667 49.5 -114 49.5s-85.166 -16.5 -113.499 -49.5s-42.5 -81.5 -42.5 -145.5
c0 -63.333 14.167 -111.5 42.5 -144.5s66.166 -49.5 113.499 -49.5z" />
    <glyph glyph-name="e" unicode="e" horiz-adv-x="544" 
d="M302 -9c-52 0 -97 10.168 -135 30.501s-67.333 50 -88 89s-31 85.5 -31 139.5c0 52.667 10 98.5 30 137.5s48 69.333 84 91s77.333 32.5 124 32.5c46 0 84.667 -9.66699 116 -29s55.333 -46.833 72 -82.5s25 -77.834 25 -126.501v-30h-389v51h336l-17 -13
c0 53.333 -12 95 -36 125s-59.667 45 -107 45c-34 0 -62.833 -8 -86.5 -24s-41.667 -38.333 -54 -67s-18.5 -63 -18.5 -103v-9c0 -62.667 15.5 -110.167 46.5 -142.5s74.5 -48.5 130.5 -48.5c30 0 58.167 4.5 84.5 13.5s51.5 23.833 75.5 44.5l28 -57
c-22 -21.333 -49.833 -37.833 -83.5 -49.5s-69.167 -17.5 -106.5 -17.5z" />
    <glyph glyph-name="f" unicode="f" horiz-adv-x="338" 
d="M105 0l0.00292969 439.001h-98v63h120l-22 -21v84c0 56.667 14.333 100 43 130s69.667 45 123 45c13.333 0 27.166 -1.16699 41.499 -3.5s26.166 -5.5 35.499 -9.5v-67c-8 3.33301 -17.833 6.16602 -29.5 8.49902s-23.5 3.5 -35.5 3.5
c-20.667 0 -38.334 -4.16699 -53.001 -12.5s-25.667 -20.833 -33 -37.5s-11 -38 -11 -64v-73l-13 17h153v-63h-140v-439h-81z" />
    <glyph glyph-name="g" unicode="g" horiz-adv-x="603" 
d="M300 -223c-43.333 0 -83.332 5.33594 -119.999 16.0029s-69.667 27 -99 49l24 61c20.667 -14.667 41 -26.334 61 -35.001s40.667 -15.167 62 -19.5s44 -6.5 68 -6.5c49.333 0 86.666 13 111.999 39s38 63 38 111v147h10c-10.667 -39.333 -32.667 -70.5 -66 -93.5
s-72.333 -34.5 -117 -34.5c-46 0 -85.833 10.167 -119.5 30.5s-59.667 49.333 -78 87s-27.5 82.167 -27.5 133.5c0 50.667 9.16699 94.667 27.5 132s44.333 66.166 78 86.499s73.5 30.5 119.5 30.5c45.333 0 84.5 -11.333 117.5 -34s54.833 -54 65.5 -94l-10 10l9 109h79
c-2.66699 -19.333 -4.66699 -38.833 -6 -58.5s-2 -38.834 -2 -57.501v-383c0 -74.667 -19.167 -131 -57.5 -169s-94.5 -57 -168.5 -57zM288.001 77.0029c48.667 0 87 16.167 115 48.5s42 77.833 42 136.5s-14 104 -42 136s-66.333 48 -115 48c-48 0 -86.333 -16 -115 -48
s-43 -77.333 -43 -136s14.333 -104.167 43 -136.5s67 -48.5 115 -48.5z" />
    <glyph glyph-name="h" unicode="h" horiz-adv-x="586" 
d="M79 0l0.000976562 736.001h81v-345h-13c14 39.333 37.5 69.166 70.5 89.499s71.167 30.5 114.5 30.5c60 0 104.667 -16.167 134 -48.5s44 -81.166 44 -146.499v-316h-81v311c0 46.667 -9.16699 80.667 -27.5 102s-47.833 32 -88.5 32
c-46.667 0 -83.834 -14.333 -111.501 -43s-41.5 -66.334 -41.5 -113.001v-289h-81z" />
    <glyph glyph-name="i" unicode="i" horiz-adv-x="238" 
d="M79 0v502h81v-502h-81zM69 616v91h100v-91h-100z" />
    <glyph glyph-name="j" unicode="j" horiz-adv-x="238" 
d="M13 -220c-9.33301 0 -21 1.16699 -35 3.5s-25.667 5.16602 -35 8.49902v68c8 -2.66699 17.333 -5.16699 28 -7.5s20.667 -3.5 30 -3.5c28 0 48.833 8.83301 62.5 26.5s20.5 46.5 20.5 86.5v540h81v-548c0 -57.333 -12.5 -100.666 -37.5 -129.999s-63.167 -44 -114.5 -44z
M75 616v91h99v-91h-99z" />
    <glyph glyph-name="k" unicode="k" horiz-adv-x="515" 
d="M79 0v736h81v-457h2l233 223h102l-275 -262l2 41l299 -281h-105l-256 236h-2v-236h-81z" />
    <glyph glyph-name="l" unicode="l" horiz-adv-x="238" 
d="M79 0v736h81v-736h-81z" />
    <glyph glyph-name="m" unicode="m" horiz-adv-x="878" 
d="M79 0l0.00292969 385.999c0 18.667 -0.833008 37.834 -2.5 57.501s-3.5 39.167 -5.5 58.5h78l10 -110h-12c13.333 38 34.5 67.333 63.5 88s64.167 31 105.5 31c42 0 76.167 -10 102.5 -30s44.166 -51 53.499 -93h-15c12.667 38 35 68 67 90s69.333 33 112 33
c55.333 0 97 -15.833 125 -47.5s42 -81.5 42 -149.5v-314h-81v309c0 47.333 -8.33301 81.833 -25 103.5s-43.334 32.5 -80.001 32.5c-42 0 -75.167 -14.5 -99.5 -43.5s-36.5 -67.833 -36.5 -116.5v-285h-81v309c0 47.333 -8.33301 81.833 -25 103.5
s-43.334 32.5 -80.001 32.5c-42 0 -75 -14.5 -99 -43.5s-36 -67.833 -36 -116.5v-285h-81z" />
    <glyph glyph-name="n" unicode="n" horiz-adv-x="586" 
d="M79 0l0.000976562 385.999c0 18.667 -0.833008 37.834 -2.5 57.501s-3.5 39.167 -5.5 58.5h78l10 -110h-12c14.667 38.667 38.167 68.167 70.5 88.5s69.833 30.5 112.5 30.5c59.333 0 104.166 -15.833 134.499 -47.5s45.5 -81.5 45.5 -149.5v-314h-81v309
c0 47.333 -9.5 81.833 -28.5 103.5s-48.5 32.5 -88.5 32.5c-46.667 0 -83.667 -14.333 -111 -43s-41 -67 -41 -115v-287h-81z" />
    <glyph glyph-name="o" unicode="o" horiz-adv-x="571" 
d="M285 -9c-48 0 -89.833 10.5 -125.5 31.5s-63.167 51 -82.5 90s-29 85.167 -29 138.5c0 54 9.66699 100.333 29 139s46.833 68.5 82.5 89.5s77.5 31.5 125.5 31.5c48.667 0 90.834 -10.5 126.501 -31.5s63.334 -50.833 83.001 -89.5s29.5 -85 29.5 -139
c0 -53.333 -9.83301 -99.5 -29.5 -138.5s-47.334 -69 -83.001 -90s-77.834 -31.5 -126.501 -31.5zM285 57c48 0 86 16.5 114 49.5s42 81.167 42 144.5c0 64 -14 112.5 -42 145.5s-66 49.5 -114 49.5c-47.333 0 -85 -16.5 -113 -49.5s-42 -81.5 -42 -145.5
c0 -63.333 14 -111.5 42 -144.5s65.667 -49.5 113 -49.5z" />
    <glyph glyph-name="p" unicode="p" 
d="M79 -216l-0.000976562 602.001c0 18.667 -0.833008 37.834 -2.5 57.501s-3.5 39.167 -5.5 58.5h78l11 -119h-12c10.667 39.333 32.334 70.5 65.001 93.5s71.667 34.5 117 34.5s84.5 -10.333 117.5 -31s58.833 -50.334 77.5 -89.001s28 -85.334 28 -140.001
c0 -54 -9.16699 -100.333 -27.5 -139s-44.166 -68.5 -77.499 -89.5s-72.666 -31.5 -117.999 -31.5c-44.667 0 -83.334 11.333 -116.001 34s-54.334 53.667 -65.001 93h11v-334h-81zM313.999 57.001c48 0 86.167 16.5 114.5 49.5s42.5 81.167 42.5 144.5
c0 64 -14.167 112.5 -42.5 145.5s-66.5 49.5 -114.5 49.5c-47.333 0 -85.166 -16.5 -113.499 -49.5s-42.5 -81.5 -42.5 -145.5c0 -63.333 14.167 -111.5 42.5 -144.5s66.166 -49.5 113.499 -49.5z" />
    <glyph glyph-name="q" unicode="q" 
d="M441 -216v333.999h11c-10.667 -39.333 -32.667 -70.333 -66 -93s-72 -34 -116 -34c-44.667 0 -83.667 10.5 -117 31.5s-59.166 50.833 -77.499 89.5s-27.5 85 -27.5 139c0 54.667 9.16699 101.334 27.5 140.001s44.166 68.334 77.499 89.001s72.333 31 117 31
c45.333 0 84.5 -11.5 117.5 -34.5s54.833 -54.167 65.5 -93.5h-12l11 119h78c-2 -19.333 -3.83301 -38.833 -5.5 -58.5s-2.5 -38.834 -2.5 -57.501v-602h-81zM286 56.999c48 0 86 16.5 114 49.5s42 81.167 42 144.5c0 64 -14 112.5 -42 145.5s-66 49.5 -114 49.5
c-47.333 0 -85.166 -16.5 -113.499 -49.5s-42.5 -81.5 -42.5 -145.5c0 -63.333 14.167 -111.5 42.5 -144.5s66.166 -49.5 113.499 -49.5z" />
    <glyph glyph-name="r" unicode="r" horiz-adv-x="363" 
d="M77 0l-0.00390625 381.001c0 20 -0.5 40.333 -1.5 61s-2.5 40.667 -4.5 60h78l10 -122l-14 -1c6.66699 30 18.334 54.667 35.001 74s36.334 33.833 59.001 43.5s46.334 14.5 71.001 14.5c10 0 18.833 -0.333008 26.5 -1s14.834 -2.33398 21.501 -5.00098l-1 -72
c-10 3.33301 -19.167 5.5 -27.5 6.5s-17.833 1.5 -28.5 1.5c-29.333 0 -54.833 -7 -76.5 -21s-38 -32 -49 -54s-16.5 -45.333 -16.5 -70v-296h-82z" />
    <glyph glyph-name="s" unicode="s" horiz-adv-x="496" 
d="M246 -9c-40 0 -77.3281 5.5 -111.995 16.5s-63.334 26.5 -86.001 46.5l28 57c24.667 -19.333 51.5 -33.666 80.5 -42.999s59.167 -14 90.5 -14c40 0 70.167 7.16699 90.5 21.5s30.5 34.166 30.5 59.499c0 19.333 -6.5 34.833 -19.5 46.5s-34.167 20.834 -63.5 27.501
l-93 19c-42.667 9.33301 -74.667 25.166 -96 47.499s-32 50.833 -32 85.5c0 29.333 7.66699 55.166 23 77.499s37.666 40 66.999 53s63.666 19.5 102.999 19.5c36.667 0 70.5 -5.5 101.5 -16.5s56.833 -26.833 77.5 -47.5l-29 -56c-20 19.333 -42.833 33.833 -68.5 43.5
s-52.167 14.5 -79.5 14.5c-39.333 0 -68.833 -7.83301 -88.5 -23.5s-29.5 -36.167 -29.5 -61.5c0 -19.333 6.16699 -35.166 18.5 -47.499s31.5 -21.5 57.5 -27.5l93 -19c45.333 -10 79.166 -25.5 101.499 -46.5s33.5 -49.167 33.5 -84.5c0 -30 -8.33301 -56.167 -25 -78.5
s-39.834 -39.5 -69.501 -51.5s-64.5 -18 -104.5 -18z" />
    <glyph glyph-name="t" unicode="t" horiz-adv-x="350" 
d="M257 -9c-49.333 0 -87 14.1689 -113 42.502s-39 71.166 -39 128.499v277h-98v63h98v137l81 23v-160h144v-63h-144v-268c0 -40 6.83301 -68.5 20.5 -85.5s34.167 -25.5 61.5 -25.5c12.667 0 24 1.16699 34 3.5s19 5.16602 27 8.49902v-68
c-9.33301 -4 -20.5 -7.16699 -33.5 -9.5s-25.833 -3.5 -38.5 -3.5z" />
    <glyph glyph-name="u" unicode="u" horiz-adv-x="577" 
d="M256 -9c-59.333 0 -104.167 16.333 -134.5 49s-45.5 82.667 -45.5 150v312h81v-310c0 -46 9.33301 -79.833 28 -101.5s47.667 -32.5 87 -32.5c44 0 79.333 14.5 106 43.5s40 67.167 40 114.5v286h81v-502h-79v113h13c-14 -38.667 -36.5 -68.667 -67.5 -90
s-67.5 -32 -109.5 -32z" />
    <glyph glyph-name="v" unicode="v" horiz-adv-x="531" 
d="M227 0l-215 502h88l180 -442h-27l182 442h84l-215 -502h-77z" />
    <glyph glyph-name="w" unicode="w" horiz-adv-x="869" 
d="M213 0l-186 502h86l155 -442h-26l160 442h70l157 -442h-25l156 442h82l-187 -502h-78l-162 449h40l-163 -449h-79z" />
    <glyph glyph-name="x" unicode="x" horiz-adv-x="535" 
d="M11 0l225 279v-40l-213 263h98l161 -205h-29l160 205h97l-210 -262v37l223 -277h-99l-172 219h30l-174 -219h-97z" />
    <glyph glyph-name="y" unicode="y" horiz-adv-x="531" 
d="M59 -227l-19 67.001c31.333 7.33301 57.5 15.833 78.5 25.5s38.5 22.5 52.5 38.5s26 36 36 60l26 59l-2 -34l-219 513h88l181 -441h-26l179 441h85l-232 -544c-13.333 -32 -28 -58.833 -44 -80.5s-33.167 -39.334 -51.5 -53.001s-38.5 -24.5 -60.5 -32.5
s-46 -14.333 -72 -19z" />
    <glyph glyph-name="z" unicode="z" horiz-adv-x="519" 
d="M50 0v54l338 406l1 -21h-339v63h414v-54l-342 -408l-1 23h354v-63h-425z" />
    <glyph glyph-name="braceleft" unicode="{" horiz-adv-x="355" 
d="M249 -180c-22 0 -40.5 4 -55.5 12s-26.333 19.667 -34 35s-11.5 34 -11.5 56v226c0 28 -5.5 48 -16.5 60s-29.833 19 -56.5 21l-29 2v62l29 2c26 1.33301 44.667 8 56 20s17 32 17 60v226c0 34 8.66699 59.667 26 77s42.333 26 75 26h98v-64h-74
c-15.333 0 -26.666 -3.83301 -33.999 -11.5s-11 -19.167 -11 -34.5v-227c0 -20 -4.16699 -38.333 -12.5 -55s-19.5 -29.5 -33.5 -38.5s-30 -13.5 -48 -13.5v4c18 0 34 -4.66699 48 -14s25.167 -22 33.5 -38s12.5 -34.333 12.5 -55v-228c0 -15.333 3.66699 -26.833 11 -34.5
s18.666 -11.5 33.999 -11.5h74v-64h-98z" />
    <glyph glyph-name="bar" unicode="|" horiz-adv-x="264" 
d="M92 -186v897h81v-897h-81z" />
    <glyph glyph-name="braceright" unicode="}" horiz-adv-x="355" 
d="M8 -180v63.998h74c15.333 0 26.666 3.83301 33.999 11.5s11 19.167 11 34.5v227c0 20.667 4.16699 39.167 12.5 55.5s19.5 29 33.5 38s29.667 13.5 47 13.5v-4c-17.333 0 -33 4.66699 -47 14s-25.167 22.333 -33.5 39s-12.5 35 -12.5 55v227
c0 15.333 -3.66699 26.833 -11 34.5s-18.666 11.5 -33.999 11.5h-74v64h98c22 0 40.5 -3.83301 55.5 -11.5s26.333 -19.167 34 -34.5s11.5 -34.333 11.5 -57v-226c0 -27.333 5.5 -47.166 16.5 -59.499s29.833 -19.166 56.5 -20.499l29 -2v-63l-29 -2
c-26 -1.33301 -44.667 -8 -56 -20s-17 -32 -17 -60v-226c0 -33.333 -8.66699 -58.833 -26 -76.5s-42.333 -26.5 -75 -26.5h-98z" />
    <glyph glyph-name="asciitilde" unicode="~" 
d="M417 217c-17.333 0 -35.832 3.16699 -55.499 9.5s-43.834 17.166 -72.501 32.499c-27.333 15.333 -48.166 25.5 -62.499 30.5s-27.166 7.5 -38.499 7.5c-18.667 0 -34.834 -5.16699 -48.501 -15.5s-25.5 -26.833 -35.5 -49.5l-51 27c13.333 32 31.166 56.5 53.499 73.5
s47.833 25.5 76.5 25.5c17.333 0 35.5 -3.16699 54.5 -9.5s42.833 -16.833 71.5 -31.5c26 -13.333 46.5 -23.333 61.5 -30s28.833 -10 41.5 -10c19.333 0 35.833 5.33301 49.5 16s25.167 27.334 34.5 50.001l51 -28c-13.333 -32 -31 -56.333 -53 -73s-47.667 -25 -77 -25z
" />
    <glyph glyph-name="uni00A0" unicode="&#xa0;" horiz-adv-x="261" 
 />
    <glyph glyph-name="exclamdown" unicode="&#xa1;" horiz-adv-x="228" 
d="M64 -180l25 499h50l25 -499h-100zM63 400v102h102v-102h-102z" />
    <glyph glyph-name="cent" unicode="&#xa2;" 
d="M282 -115l-0.00195312 131l16 -22c-40.667 4.66699 -76.667 18 -108 40s-55.666 51 -72.999 87s-26 77 -26 123c0 44 8.5 83.667 25.5 119s41 64.333 72 87s67.5 36 109.5 40l-16 -26v142h68v-139l-17 25c32 0 63.667 -5.5 95 -16.5s56 -26.5 74 -46.5l-27 -58
c-18.667 18 -40.167 31.667 -64.5 41s-49.5 14 -75.5 14c-49.333 0 -88.5 -16.667 -117.5 -50s-43.5 -77.333 -43.5 -132c0 -36.667 6.5 -68.667 19.5 -96s31.5 -48.666 55.5 -63.999s52.333 -23 85 -23c26 0 51.333 4.66699 76 14s46.334 22.666 65.001 39.999l27 -57
c-19.333 -20 -44.5 -35.833 -75.5 -47.5s-62.833 -17.5 -95.5 -17.5l19 20v-128h-68z" />
    <glyph glyph-name="sterling" unicode="&#xa3;" 
d="M46 0l0.000976562 58c32 12.667 57 28.167 75 46.5s27 41.833 27 70.5v151h-102v55h102v129c0 43.333 8.16699 80.166 24.5 110.499s40.833 53.5 73.5 69.5s73.667 24 123 24c39.333 0 76.333 -6.83301 111 -20.5s64.667 -33.167 90 -58.5l-33 -63
c-22.667 24.667 -47.834 42.834 -75.501 54.501s-58.834 17.5 -93.501 17.5c-46 0 -80.333 -11 -103 -33s-34 -54.667 -34 -98v-132h185v-55h-185v-127c0 -36.667 -7.66699 -65.667 -23 -87s-35.666 -37.333 -60.999 -48v6h416v-70h-517z" />
    <glyph glyph-name="currency" unicode="&#xa4;" 
d="M78 -26l-43.001 44l74 75c-15.333 21.333 -27.5 45 -36.5 71s-13.5 53 -13.5 81c0 28.667 4.33301 56 13 82s21 49.333 37 70l-74 76l43 43l74 -76c20 16.667 42.667 29.667 68 39s52 14 80 14s54.333 -4.5 79 -13.5s47.334 -21.5 68.001 -37.5l72 75l44 -45l-73 -74
c16 -21.333 28.5 -45 37.5 -71s13.5 -53.333 13.5 -82s-4.5 -56 -13.5 -82s-21.833 -49.667 -38.5 -71l74 -74l-43 -43l-73 74c-20 -16 -42.5 -28.667 -67.5 -38s-51.5 -14 -79.5 -14s-54.667 4.66699 -80 14s-48.333 22 -69 38zM299.999 67
c30.667 0 58.6689 8.00098 84.002 24.001s45.333 37.5 60 64.5s22 56.833 22 89.5s-7.33301 62.5 -22 89.5s-34.667 48.667 -60 65s-53.333 24.166 -84 23.499c-30.667 0 -58.834 -8 -84.501 -24s-46 -37.5 -61 -64.5s-22.5 -56.833 -22.5 -89.5s7.5 -62.5 22.5 -89.5
s35.167 -48.5 60.5 -64.5s53.666 -24 84.999 -24z" />
    <glyph glyph-name="yen" unicode="&#xa5;" 
d="M259 0v178h-187v54h187v99h-187v54h161v-11l-238 331h92l224 -315h-21l223 315h92l-237 -331v11h160v-54h-187v-99h187v-54h-187v-178h-82z" />
    <glyph glyph-name="brokenbar" unicode="&#xa6;" horiz-adv-x="264" 
d="M92 372v339h81v-339h-81zM92 -186v339h81v-339h-81z" />
    <glyph glyph-name="section" unicode="&#xa7;" horiz-adv-x="542" 
d="M247 -189c-43.333 0 -82.8311 5.6709 -118.498 17.0039s-64.834 27 -87.501 47l28 58c14 -12 30.833 -22.5 50.5 -31.5s40.667 -16 63 -21s44.833 -7.5 67.5 -7.5c41.333 0 74.666 9.66699 99.999 29s38 47 38 83c0 25.333 -6.83301 47.166 -20.5 65.499
s-38.167 35.5 -73.5 51.5l-113 51c-36.667 17.333 -65.667 34.5 -87 51.5s-36.5 35.5 -45.5 55.5s-13.5 42 -13.5 66c0 28 7 54.667 21 80s32.667 46.333 56 63l-7 -24c-8 10 -14.667 22.167 -20 36.5s-8 31.833 -8 52.5c0 38 9.33301 70.167 28 96.5
s44.334 46.666 77.001 60.999s70 21.5 112 21.5c40.667 0 78 -5.33301 112 -16s62 -26 84 -46l-28 -57c-21.333 18 -47.333 32 -78 42s-61.334 15 -92.001 15c-40 0 -72.5 -9.66699 -97.5 -29s-37.5 -47 -37.5 -83c0 -24.667 7 -46.167 21 -64.5s38.333 -35.5 73 -51.5
l113 -52c36.667 -16.667 65.667 -33.667 87 -51s36.5 -35.833 45.5 -55.5s13.5 -41.834 13.5 -66.501c0 -27.333 -7 -53.833 -21 -79.5s-32.667 -46.5 -56 -62.5l7 23c8 -9.33301 14.667 -21.333 20 -36s8 -32.334 8 -53.001c0 -37.333 -9.33301 -69.333 -28 -96
s-44.5 -47.167 -77.5 -61.5s-71.5 -21.5 -115.5 -21.5zM110.002 338.004c0 -24 7.66602 -45.5 22.999 -64.5s44.333 -38.167 87 -57.5l96 -44c25.333 -12 46.5 -24 63.5 -36s30.167 -24.333 39.5 -37l-24 -1c13.333 11.333 23.5 24.666 30.5 39.999s10.5 31.666 10.5 48.999
c0 24 -8 45.5 -24 64.5s-44.667 37.833 -86 56.5l-97 45c-24.667 12 -45.667 24.167 -63 36.5s-30.666 24.5 -39.999 36.5l24 1c-12.667 -11.333 -22.5 -24.666 -29.5 -39.999s-10.5 -31.666 -10.5 -48.999z" />
    <glyph glyph-name="dieresis" unicode="&#xa8;" horiz-adv-x="500" 
d="M294 609v86h86v-86h-86zM120 609v86h86v-86h-86z" />
    <glyph glyph-name="copyright" unicode="&#xa9;" horiz-adv-x="815" 
d="M408 -9c-50.667 0 -98 9.16699 -142 27.5s-82.5 44 -115.5 77s-58.667 71.5 -77 115.5s-27.5 91.333 -27.5 142c0 51.333 9.16699 98.833 27.5 142.5s44 81.834 77 114.501s71.333 58.167 115 76.5s91.167 27.5 142.5 27.5s98.833 -9.16699 142.5 -27.5
s81.834 -43.833 114.501 -76.5s58.167 -70.834 76.5 -114.501s27.5 -91.167 27.5 -142.5c0 -50.667 -9.16699 -98 -27.5 -142s-43.833 -82.5 -76.5 -115.5s-70.834 -58.667 -114.501 -77s-91.167 -27.5 -142.5 -27.5zM421 137c-64.667 0 -115.5 20 -152.5 60
s-55.5 93 -55.5 159c0 65.333 18.5 117 55.5 155s87.833 57 152.5 57c26.667 0 53 -4.66699 79 -14s47.333 -22.333 64 -39l-24 -52c-17.333 16 -36 27.667 -56 35s-40 11 -60 11c-43.333 0 -77.333 -13.5 -102 -40.5s-37 -64.833 -37 -113.5s12.333 -87.167 37 -115.5
s58.667 -42.5 102 -42.5c20 0 40 3.66699 60 11s38.667 19 56 35l24 -53c-16.667 -16 -38.167 -28.833 -64.5 -38.5s-52.5 -14.5 -78.5 -14.5zM408 35c44.667 0 86.167 8 124.5 24s71.666 38.5 99.999 67.5s50.5 62.667 66.5 101s24 80.166 24 125.499
s-8 87.166 -24 125.499s-38.167 71.833 -66.5 100.5s-61.666 51 -99.999 67s-79.833 24 -124.5 24c-45.333 0 -87.166 -8 -125.499 -24s-71.666 -38.333 -99.999 -67s-50.5 -62.167 -66.5 -100.5s-24 -80.166 -24 -125.499s8 -87.166 24 -125.499s38.167 -72 66.5 -101
s61.666 -51.5 99.999 -67.5s80.166 -24 125.499 -24z" />
    <glyph glyph-name="ordfeminine" unicode="&#xaa;" horiz-adv-x="326" 
d="M133 411c-20.667 0 -39.3301 4 -55.9971 12s-29.667 18.833 -39 32.5s-14 28.834 -14 45.501c0 20.667 6.33301 37.167 19 49.5s30.667 21.5 54 27.5s50.666 9 81.999 9h60v-36h-58c-34 0 -59.167 -4 -75.5 -12s-24.5 -20.333 -24.5 -37
c0 -13.333 5.16699 -24.833 15.5 -34.5s26.5 -14.5 48.5 -14.5c25.333 0 46 8.16699 62 24.5s24 39.166 24 68.499v57c0 22 -6 38.5 -18 49.5s-30 16.5 -54 16.5c-18 0 -36.333 -2.33301 -55 -7s-35.667 -12 -51 -22l-16 42c16.667 10.667 36.167 18.667 58.5 24
s44.166 8 65.499 8c42 0 73.5 -9.33301 94.5 -28s31.5 -47 31.5 -85v-185h-54v54h-2c-11.333 -20.667 -24.833 -35.667 -40.5 -45s-34.834 -14 -57.501 -14z" />
    <glyph glyph-name="guillemotleft" unicode="&#xab;" horiz-adv-x="445" 
d="M154 88l-127 180l127 180h71l-118 -180l118 -180h-71zM337 88l-127 180l127 180h71l-118 -180l118 -180h-71z" />
    <glyph glyph-name="logicalnot" unicode="&#xac;" 
d="M483 148v210h-430v62h494v-272h-64z" />
    <glyph glyph-name="uni00AD" unicode="&#xad;" horiz-adv-x="428" 
d="M72 241v67h285v-67h-285z" />
    <glyph glyph-name="registered" unicode="&#xae;" horiz-adv-x="815" 
d="M408 -9c-50.667 0 -98 9.16699 -142 27.5s-82.5 44 -115.5 77s-58.667 71.5 -77 115.5s-27.5 91.333 -27.5 142c0 51.333 9.16699 98.833 27.5 142.5s44 81.834 77 114.501s71.333 58.167 115 76.5s91.167 27.5 142.5 27.5s98.833 -9.16699 142.5 -27.5
s81.834 -43.833 114.501 -76.5s58.167 -70.834 76.5 -114.501s27.5 -91.167 27.5 -142.5c0 -50.667 -9.16699 -98 -27.5 -142s-43.833 -82.5 -76.5 -115.5s-70.834 -58.667 -114.501 -77s-91.167 -27.5 -142.5 -27.5zM408 35c44.667 0 86.167 8 124.5 24
s71.666 38.5 99.999 67.5s50.5 62.667 66.5 101s24 80.166 24 125.499s-8 87.166 -24 125.499s-38.167 71.833 -66.5 100.5s-61.666 51 -99.999 67s-79.833 24 -124.5 24c-45.333 0 -87.166 -8 -125.499 -24s-71.666 -38.333 -99.999 -67s-50.5 -62.167 -66.5 -100.5
s-24 -80.166 -24 -125.499s8 -87.166 24 -125.499s38.167 -72 66.5 -101s61.666 -51.5 99.999 -67.5s80.166 -24 125.499 -24zM264 142l-0.000976562 421.999h171c45.333 0 80.166 -10.833 104.499 -32.5s36.5 -51.5 36.5 -89.5c0 -38.667 -12.167 -68.167 -36.5 -88.5
s-58.5 -30.5 -102.5 -30.5l12 10c20.667 0 37.834 -4.5 51.501 -13.5s24.5 -25.5 32.5 -49.5l48 -128h-69l-48 130c-6 16.667 -15.167 27.834 -27.5 33.501s-27.166 8.5 -44.499 8.5h-75l13 10v-182h-66zM329.999 367.999h97.001c28 0 49 5.66699 63 17s21 29.333 21 54
s-6.83301 42.667 -20.5 54s-34.834 17 -63.501 17h-97v-142z" />
    <glyph glyph-name="macron" unicode="&#xaf;" horiz-adv-x="500" 
d="M102 625v55h296v-55h-296z" />
    <glyph glyph-name="degree" unicode="&#xb0;" horiz-adv-x="371" 
d="M186 418c-28.667 0 -54.167 6.66699 -76.5 20s-40 31 -53 53s-19.5 47 -19.5 75s6.5 53.167 19.5 75.5s30.667 40 53 53s47.833 19.5 76.5 19.5c28 0 53 -6.33301 75 -19s39.5 -30.167 52.5 -52.5s19.5 -47.833 19.5 -76.5c0 -28 -6.5 -53.167 -19.5 -75.5
s-30.5 -40 -52.5 -53s-47 -19.5 -75 -19.5zM186 473c26.667 0 48.167 8.83301 64.5 26.5s24.5 39.834 24.5 66.501c0 27.333 -8.16699 49.666 -24.5 66.999s-37.833 26 -64.5 26c-26 0 -47.5 -8.66699 -64.5 -26s-25.5 -39.666 -25.5 -66.999
c0 -26.667 8.5 -48.834 25.5 -66.501s38.5 -26.5 64.5 -26.5z" />
    <glyph glyph-name="plusminus" unicode="&#xb1;" 
d="M268 127v170h-215v62h215v170h64v-170h215v-62h-215v-170h-64zM53 0v62h494v-62h-494z" />
    <glyph glyph-name="uni00B2" unicode="&#xb2;" horiz-adv-x="380" 
d="M52 282l-0.000976562 50.001l144 146c18.667 20.667 32.334 39.167 41.001 55.5s13 33.5 13 51.5c0 20.667 -6.16699 36.667 -18.5 48s-30.833 17 -55.5 17c-19.333 0 -39.333 -3.83301 -60 -11.5s-39 -18.5 -55 -32.5l-22 52c18 15.333 39.833 27.666 65.5 36.999
s53.5 14 83.5 14c42 0 75 -10.5 99 -31.5s36 -49.5 36 -85.5c0 -22.667 -5.5 -45 -16.5 -67s-28.5 -45 -52.5 -69l-124 -125v10h212v-59h-290z" />
    <glyph glyph-name="uni00B3" unicode="&#xb3;" horiz-adv-x="380" 
d="M186 278c-31.333 0 -60.335 4.33398 -87.002 13.001s-49 21 -67 37l21 50c16.667 -13.333 36.167 -23.833 58.5 -31.5s45.833 -11.5 70.5 -11.5c25.333 0 46 5.5 62 16.5s24 28.5 24 52.5c0 22.667 -8.16699 39.167 -24.5 49.5s-38.166 15.5 -65.499 15.5h-78v54h67
c28 0 49.833 5.66699 65.5 17s23.5 28.333 23.5 51c0 19.333 -6.83301 34.5 -20.5 45.5s-33.167 16.5 -58.5 16.5c-20.667 0 -41.834 -4 -63.501 -12s-40.167 -19.333 -55.5 -34l-23 52c18 15.333 40.167 27.5 66.5 36.5s54.5 13.5 84.5 13.5
c42.667 0 76.334 -9.83301 101.001 -29.5s37 -46.167 37 -79.5c0 -28 -8.33301 -50.833 -25 -68.5s-36.667 -29.834 -60 -36.501v8c28.667 -4 52 -15 70 -33s27 -42 27 -72c0 -38 -14.167 -67.5 -42.5 -88.5s-64.166 -31.5 -107.499 -31.5z" />
    <glyph glyph-name="acute" unicode="&#xb4;" horiz-adv-x="500" 
d="M221 551l103 202h87l-132 -202h-58z" />
    <glyph glyph-name="uni00B5" unicode="&#xb5;" horiz-adv-x="570" 
d="M74 -208v709.999h81v-314c0 -44.667 9.16699 -77.167 27.5 -97.5s46.833 -30.5 85.5 -30.5c43.333 0 78.5 13.833 105.5 41.5s40.5 64.834 40.5 111.501v289h81v-502h-79v112h8c-11.333 -38.667 -31 -68.5 -59 -89.5s-60.333 -31.5 -97 -31.5
c-30 0 -56.333 5.33301 -79 16s-40 30.667 -52 60h11l7 -275h-81z" />
    <glyph glyph-name="paragraph" unicode="&#xb6;" horiz-adv-x="599" 
d="M249 -180l0.000976562 489.997c-41.333 0 -77.333 8.5 -108 25.5s-54.334 40.333 -71.001 70s-25 63.834 -25 102.501s8.33301 72.834 25 102.501s40.5 52.834 71.5 69.501s67.5 25 109.5 25h260v-885h-65v823h-132v-823h-65z" />
    <glyph glyph-name="periodcentered" unicode="&#xb7;" horiz-adv-x="231" 
d="M64 223v102h103v-102h-103z" />
    <glyph glyph-name="cedilla" unicode="&#xb8;" horiz-adv-x="500" 
d="M253 -192c-17.333 0 -33.833 1.66699 -49.5 5s-29.167 8 -40.5 14l14 44c12 -5.33301 23.5 -9.33301 34.5 -12s23.833 -4 38.5 -4c18 0 32.333 3.16699 43 9.5s16 15.5 16 27.5c0 8.66699 -3 15.5 -9 20.5s-15.667 7.5 -29 7.5c-7.33301 0 -14.5 -0.5 -21.5 -1.5
s-15.5 -3.5 -25.5 -7.5l-17 16l15 93h51l-13 -75l-24 6c7.33301 2 15 3.66699 23 5s15.333 2 22 2c24 0 44 -6 60 -18s24 -28.667 24 -50c0 -24.667 -10.333 -44.5 -31 -59.5s-47.667 -22.5 -81 -22.5z" />
    <glyph glyph-name="uni00B9" unicode="&#xb9;" horiz-adv-x="380" 
d="M82 282v59h97v305h31l-120 -72v68l105 63h52v-364h86v-59h-251z" />
    <glyph glyph-name="ordmasculine" unicode="&#xba;" horiz-adv-x="341" 
d="M171 411c-28.667 0 -53.834 6.33301 -75.501 19s-39 30.334 -52 53.001s-19.5 49.334 -19.5 80.001s6.5 57.334 19.5 80.001s30.333 40.167 52 52.5s46.834 18.5 75.501 18.5c28 0 53 -6.16699 75 -18.5s39.333 -29.833 52 -52.5s19 -49.334 19 -80.001
s-6.33301 -57.334 -19 -80.001s-30 -40.334 -52 -53.001s-47 -19 -75 -19zM171 457c27.333 0 48.833 9.16797 64.5 27.501s23.5 44.5 23.5 78.5s-7.83301 60 -23.5 78s-37.167 27 -64.5 27s-49 -8.83301 -65 -26.5s-24 -43.834 -24 -78.501s8 -61 24 -79s37.667 -27 65 -27z
" />
    <glyph glyph-name="guillemotright" unicode="&#xbb;" horiz-adv-x="445" 
d="M108 88h-71l118 180l-118 180h71l128 -180zM291 88h-71l118 180l-118 180h71l128 -180z" />
    <glyph glyph-name="onequarter" unicode="&#xbc;" horiz-adv-x="896" 
d="M82 282v59h97v305h31l-120 -72v68l105 63h52v-364h86v-59h-251zM294 -9h-72l429 723h72zM750 0v85h-201v50l208 288h57v-283h64v-55h-64v-85h-64zM751 140v208h10l-161 -223v15h151z" />
    <glyph glyph-name="onehalf" unicode="&#xbd;" horiz-adv-x="940" 
d="M82 282v59h97v305h31l-120 -72v68l105 63h52v-364h86v-59h-251zM294 -9h-72l429 723h72zM612 0l-0.000976562 50.001l144 146c18.667 20.667 32.334 39.167 41.001 55.5s13 33.5 13 51.5c0 20.667 -6.16699 36.667 -18.5 48s-30.833 17 -55.5 17
c-19.333 0 -39.333 -3.83301 -60 -11.5s-39 -18.5 -55 -32.5l-22 52c18 15.333 39.833 27.666 65.5 36.999s53.5 14 83.5 14c42 0 75 -10.5 99 -31.5s36 -49.5 36 -85.5c0 -22.667 -5.5 -45 -16.5 -67s-28.5 -45 -52.5 -69l-124 -125v10h212v-59h-290z" />
    <glyph glyph-name="threequarters" unicode="&#xbe;" horiz-adv-x="896" 
d="M186 278c-31.333 0 -60.335 4.33398 -87.002 13.001s-49 21 -67 37l21 50c16.667 -13.333 36.167 -23.833 58.5 -31.5s45.833 -11.5 70.5 -11.5c25.333 0 46 5.5 62 16.5s24 28.5 24 52.5c0 22.667 -8.16699 39.167 -24.5 49.5s-38.166 15.5 -65.499 15.5h-78v54h67
c28 0 49.833 5.66699 65.5 17s23.5 28.333 23.5 51c0 19.333 -6.83301 34.5 -20.5 45.5s-33.167 16.5 -58.5 16.5c-20.667 0 -41.834 -4 -63.501 -12s-40.167 -19.333 -55.5 -34l-23 52c18 15.333 40.167 27.5 66.5 36.5s54.5 13.5 84.5 13.5
c42.667 0 76.334 -9.83301 101.001 -29.5s37 -46.167 37 -79.5c0 -28 -8.33301 -50.833 -25 -68.5s-36.667 -29.834 -60 -36.501v8c28.667 -4 52 -15 70 -33s27 -42 27 -72c0 -38 -14.167 -67.5 -42.5 -88.5s-64.166 -31.5 -107.499 -31.5zM293.998 -8.99902h-72l429 723h72
zM749.998 0.000976562v85h-201v50l208 288h57v-283h64v-55h-64v-85h-64zM750.998 140.001v208h10l-161 -223v15h151z" />
    <glyph glyph-name="questiondown" unicode="&#xbf;" horiz-adv-x="448" 
d="M225 -209c-38 0 -71.502 6.33008 -100.502 18.9971s-51.667 30.834 -68 54.501s-24.5 51.5 -24.5 83.5c0 22 3 42.333 9 61s16 37.834 30 57.501s32.667 41.5 56 65.5c33.333 34 56.5 63.333 69.5 88s21.167 50.334 24.5 77.001l3 21h52v-26
c0 -22 -2.83301 -43.333 -8.5 -64s-15 -41.5 -28 -62.5s-30.833 -43.833 -53.5 -68.5c-17.333 -19.333 -31.166 -36.833 -41.499 -52.5s-17.833 -30.667 -22.5 -45s-7 -29.5 -7 -45.5c0 -28.667 10.5 -51.167 31.5 -67.5s49.833 -24.5 86.5 -24.5c26 0 51 3.5 75 10.5
s46.667 16.5 68 28.5v-75c-21.333 -10.667 -45.166 -19.167 -71.499 -25.5s-52.833 -9.5 -79.5 -9.5zM300.998 501.997v-103h-102v103h102z" />
    <glyph glyph-name="Agrave" unicode="&#xc0;" horiz-adv-x="735" 
d="M18 0l311 705h72l316 -705h-86l-88 201l37 -21h-431l40 21l-86 -201h-85zM364 610l-162 -380l-24 18h372l-18 -18l-166 380h-2zM335 765l-147 172h91l118 -172h-62z" />
    <glyph glyph-name="Aacute" unicode="&#xc1;" horiz-adv-x="735" 
d="M18 0l311 705h72l316 -705h-86l-88 201l37 -21h-431l40 21l-86 -201h-85zM364 610l-162 -380l-24 18h372l-18 -18l-166 380h-2zM335 765l118 172h91l-147 -172h-62z" />
    <glyph glyph-name="Acircumflex" unicode="&#xc2;" horiz-adv-x="735" 
d="M18 0l311 705h72l316 -705h-86l-88 201l37 -21h-431l40 21l-86 -201h-85zM364 610l-162 -380l-24 18h372l-18 -18l-166 380h-2zM205 765l123 172h76l123 -172h-61l-100 119l-100 -119h-61z" />
    <glyph glyph-name="Atilde" unicode="&#xc3;" horiz-adv-x="735" 
d="M18 0l311 705h72l316 -705h-86l-88 201l37 -21h-431l40 21l-86 -201h-85zM364 610l-162 -380l-24 18h372l-18 -18l-166 380h-2zM203 783l-46.0029 3c4 42.667 16.833 75.5 38.5 98.5s48.834 34.5 81.501 34.5c15.333 0 30.833 -3.16699 46.5 -9.5
s34.5 -16.833 56.5 -31.5c20.667 -12.667 36.334 -21.667 47.001 -27s21 -8 31 -8c20 0 35.667 6.83301 47 20.5s19.333 33.167 24 58.5l46 -3c-4 -42.667 -16.667 -75.5 -38 -98.5s-48.333 -34.5 -81 -34.5c-15.333 0 -31 3.33301 -47 10s-36 17.667 -60 33
c-18 12 -32.667 20.5 -44 25.5s-21.666 7.5 -30.999 7.5c-20 0 -35.667 -6.83301 -47 -20.5s-19.333 -33.167 -24 -58.5z" />
    <glyph glyph-name="Adieresis" unicode="&#xc4;" horiz-adv-x="735" 
d="M18 0l311 705h72l316 -705h-86l-88 201l37 -21h-431l40 21l-86 -201h-85zM364 610l-162 -380l-24 18h372l-18 -18l-166 380h-2zM410 806v86h86v-86h-86zM236 806v86h86v-86h-86z" />
    <glyph glyph-name="Aring" unicode="&#xc5;" horiz-adv-x="735" 
d="M18 0l311 705h72l316 -705h-86l-88 201l37 -21h-431l40 21l-86 -201h-85zM364 610l-162 -380l-24 18h372l-18 -18l-166 380h-2zM366 758c-22 0 -42 5.16699 -60 15.5s-32.333 24.333 -43 42s-16 37.167 -16 58.5c0 22 5.33301 41.5 16 58.5s25 30.667 43 41
s38 15.5 60 15.5c22.667 0 42.834 -5.16699 60.501 -15.5s31.834 -24 42.501 -41s16 -36.5 16 -58.5c0 -21.333 -5.33301 -40.833 -16 -58.5s-24.834 -31.667 -42.501 -42s-37.834 -15.5 -60.501 -15.5zM366 801c21.333 0 38.666 7 51.999 21s20 31.333 20 52
c0 20 -6.66699 37 -20 51s-30.666 21 -51.999 21c-20.667 0 -37.834 -7 -51.501 -21s-20.5 -31 -20.5 -51c0 -20.667 6.83301 -38 20.5 -52s30.834 -21 51.501 -21z" />
    <glyph glyph-name="AE" unicode="&#xc6;" horiz-adv-x="1006" 
d="M-2 0l431 705h527v-68h-399l21 22l26 -289l-17 22h347v-69h-340l13 10l27 -288l-12 24h334v-69h-396l-18 196l26 -16h-384l28 22l-122 -202h-92zM471 636l-243 -407l-10 20h331l-9 -22l-37 409h-32z" />
    <glyph glyph-name="Ccedilla" unicode="&#xc7;" horiz-adv-x="684" 
d="M395 -9c-70.667 0 -130.667 14.666 -180 43.999s-87.166 71 -113.499 125s-39.5 118.333 -39.5 193s13.167 138.834 39.5 192.501s64.166 95.167 113.499 124.5s109.333 44 180 44c50 0 94.667 -7.66699 134 -23s73.666 -37.666 102.999 -66.999l-31 -66
c-32 28 -63.667 48.5 -95 61.5s-68 19.5 -110 19.5c-80.667 0 -142 -25 -184 -75s-63 -120.333 -63 -211c0 -60.667 9.33301 -112.5 28 -155.5s46.5 -75.667 83.5 -98s82.167 -33.5 135.5 -33.5c42 0 78.667 6.5 110 19.5s63 33.833 95 62.5l31 -67
c-29.333 -28.667 -63.666 -50.834 -102.999 -66.501s-84 -23.5 -134 -23.5zM394 -192.001c-17.333 0 -33.833 1.66699 -49.5 5s-29.167 8 -40.5 14l14 44c12 -5.33301 23.5 -9.33301 34.5 -12s23.833 -4 38.5 -4c18 0 32.333 3.16699 43 9.5s16 15.5 16 27.5
c0 8.66699 -3 15.5 -9 20.5s-15.667 7.5 -29 7.5c-7.33301 0 -14.5 -0.5 -21.5 -1.5s-15.5 -3.5 -25.5 -7.5l-17 16l15 93h51l-13 -75l-24 6c7.33301 2 15 3.66699 23 5s15.333 2 22 2c24 0 44 -6 60 -18s24 -28.667 24 -50c0 -24.667 -10.333 -44.5 -31 -59.5
s-47.667 -22.5 -81 -22.5z" />
    <glyph glyph-name="Egrave" unicode="&#xc8;" horiz-adv-x="588" 
d="M88 0v705h450v-68h-369v-245h347v-69h-347v-254h369v-69h-450zM297 765l-147 172h91l118 -172h-62z" />
    <glyph glyph-name="Eacute" unicode="&#xc9;" horiz-adv-x="588" 
d="M88 0v705h450v-68h-369v-245h347v-69h-347v-254h369v-69h-450zM297 765l118 172h91l-147 -172h-62z" />
    <glyph glyph-name="Ecircumflex" unicode="&#xca;" horiz-adv-x="588" 
d="M88 0v705h450v-68h-369v-245h347v-69h-347v-254h369v-69h-450zM167 765l123 172h76l123 -172h-61l-100 119l-100 -119h-61z" />
    <glyph glyph-name="Edieresis" unicode="&#xcb;" horiz-adv-x="588" 
d="M88 0v705h450v-68h-369v-245h347v-69h-347v-254h369v-69h-450zM372 806v86h86v-86h-86zM198 806v86h86v-86h-86z" />
    <glyph glyph-name="Igrave" unicode="&#xcc;" horiz-adv-x="259" 
d="M88 0v705h83v-705h-83zM98 765l-147 172h91l118 -172h-62z" />
    <glyph glyph-name="Iacute" unicode="&#xcd;" horiz-adv-x="259" 
d="M88 0v705h83v-705h-83zM98 765l118 172h91l-147 -172h-62z" />
    <glyph glyph-name="Icircumflex" unicode="&#xce;" horiz-adv-x="259" 
d="M88 0v705h83v-705h-83zM-32 765l123 172h76l123 -172h-61l-100 119l-100 -119h-61z" />
    <glyph glyph-name="Idieresis" unicode="&#xcf;" horiz-adv-x="259" 
d="M88 0v705h83v-705h-83zM173 806v86h86v-86h-86zM-1 806v86h86v-86h-86z" />
    <glyph glyph-name="Eth" unicode="&#xd0;" horiz-adv-x="747" 
d="M88 0v705h234c78 0 144 -13.5 198 -40.5s95 -66.667 123 -119s42 -116.5 42 -192.5c0 -75.333 -14 -139.333 -42 -192s-69 -92.667 -123 -120s-120 -41 -198 -41h-234zM171 71l145 -0.000976562c96 0 167.333 23.5 214 70.5s70 117.5 70 211.5
c0 94.667 -23.333 165.334 -70 212.001s-118 70 -214 70h-145v-564zM2 325.999v64h367v-64h-367z" />
    <glyph glyph-name="Ntilde" unicode="&#xd1;" horiz-adv-x="747" 
d="M88 0v705h65l452 -600h-23v600h77v-705h-64l-452 600h22v-600h-77zM212 783l-46.0029 3c4 42.667 16.833 75.5 38.5 98.5s48.834 34.5 81.501 34.5c15.333 0 30.833 -3.16699 46.5 -9.5s34.5 -16.833 56.5 -31.5c20.667 -12.667 36.334 -21.667 47.001 -27s21 -8 31 -8
c20 0 35.667 6.83301 47 20.5s19.333 33.167 24 58.5l46 -3c-4 -42.667 -16.667 -75.5 -38 -98.5s-48.333 -34.5 -81 -34.5c-15.333 0 -31 3.33301 -47 10s-36 17.667 -60 33c-18 12 -32.667 20.5 -44 25.5s-21.666 7.5 -30.999 7.5c-20 0 -35.667 -6.83301 -47 -20.5
s-19.333 -33.167 -24 -58.5z" />
    <glyph glyph-name="Ograve" unicode="&#xd2;" horiz-adv-x="772" 
d="M62 353c0 74.667 12.833 138.833 38.5 192.5s62.667 95.167 111 124.5s106.5 44 174.5 44c66 0 123.333 -14.667 172 -44s86.167 -70.833 112.5 -124.5s39.5 -117.5 39.5 -191.5c0 -74.667 -13.333 -139 -40 -193s-64.167 -95.833 -112.5 -125.5
s-105.5 -44.5 -171.5 -44.5c-68 0 -126 14.833 -174 44.5s-85 71.5 -111 125.5s-39 118 -39 192zM149 352.999c0 -60.667 9 -112.502 27 -155.502s44.667 -76 80 -99s78.666 -34.5 129.999 -34.5c74.667 0 132.834 25.5 174.501 76.5s62.5 121.833 62.5 212.5
c0 61.333 -9.33301 113.333 -28 156s-45.667 75.334 -81 98.001s-78 34 -128 34c-78 0 -137 -25.167 -177 -75.5s-60 -121.166 -60 -212.499zM355 764.997l-147 172h91l118 -172h-62z" />
    <glyph glyph-name="Oacute" unicode="&#xd3;" horiz-adv-x="772" 
d="M62 353c0 74.667 12.833 138.833 38.5 192.5s62.667 95.167 111 124.5s106.5 44 174.5 44c66 0 123.333 -14.667 172 -44s86.167 -70.833 112.5 -124.5s39.5 -117.5 39.5 -191.5c0 -74.667 -13.333 -139 -40 -193s-64.167 -95.833 -112.5 -125.5
s-105.5 -44.5 -171.5 -44.5c-68 0 -126 14.833 -174 44.5s-85 71.5 -111 125.5s-39 118 -39 192zM149 352.999c0 -60.667 9 -112.502 27 -155.502s44.667 -76 80 -99s78.666 -34.5 129.999 -34.5c74.667 0 132.834 25.5 174.501 76.5s62.5 121.833 62.5 212.5
c0 61.333 -9.33301 113.333 -28 156s-45.667 75.334 -81 98.001s-78 34 -128 34c-78 0 -137 -25.167 -177 -75.5s-60 -121.166 -60 -212.499zM355 764.997l118 172h91l-147 -172h-62z" />
    <glyph glyph-name="Ocircumflex" unicode="&#xd4;" horiz-adv-x="772" 
d="M62 353c0 74.667 12.833 138.833 38.5 192.5s62.667 95.167 111 124.5s106.5 44 174.5 44c66 0 123.333 -14.667 172 -44s86.167 -70.833 112.5 -124.5s39.5 -117.5 39.5 -191.5c0 -74.667 -13.333 -139 -40 -193s-64.167 -95.833 -112.5 -125.5
s-105.5 -44.5 -171.5 -44.5c-68 0 -126 14.833 -174 44.5s-85 71.5 -111 125.5s-39 118 -39 192zM149 352.999c0 -60.667 9 -112.502 27 -155.502s44.667 -76 80 -99s78.666 -34.5 129.999 -34.5c74.667 0 132.834 25.5 174.501 76.5s62.5 121.833 62.5 212.5
c0 61.333 -9.33301 113.333 -28 156s-45.667 75.334 -81 98.001s-78 34 -128 34c-78 0 -137 -25.167 -177 -75.5s-60 -121.166 -60 -212.499zM225 764.997l123 172h76l123 -172h-61l-100 119l-100 -119h-61z" />
    <glyph glyph-name="Otilde" unicode="&#xd5;" horiz-adv-x="772" 
d="M62 353c0 74.667 12.833 138.833 38.5 192.5s62.667 95.167 111 124.5s106.5 44 174.5 44c66 0 123.333 -14.667 172 -44s86.167 -70.833 112.5 -124.5s39.5 -117.5 39.5 -191.5c0 -74.667 -13.333 -139 -40 -193s-64.167 -95.833 -112.5 -125.5
s-105.5 -44.5 -171.5 -44.5c-68 0 -126 14.833 -174 44.5s-85 71.5 -111 125.5s-39 118 -39 192zM149 352.999c0 -60.667 9 -112.502 27 -155.502s44.667 -76 80 -99s78.666 -34.5 129.999 -34.5c74.667 0 132.834 25.5 174.501 76.5s62.5 121.833 62.5 212.5
c0 61.333 -9.33301 113.333 -28 156s-45.667 75.334 -81 98.001s-78 34 -128 34c-78 0 -137 -25.167 -177 -75.5s-60 -121.166 -60 -212.499zM223 782.997l-46.0029 3c4 42.667 16.833 75.5 38.5 98.5s48.834 34.5 81.501 34.5c15.333 0 30.833 -3.16699 46.5 -9.5
s34.5 -16.833 56.5 -31.5c20.667 -12.667 36.334 -21.667 47.001 -27s21 -8 31 -8c20 0 35.667 6.83301 47 20.5s19.333 33.167 24 58.5l46 -3c-4 -42.667 -16.667 -75.5 -38 -98.5s-48.333 -34.5 -81 -34.5c-15.333 0 -31 3.33301 -47 10s-36 17.667 -60 33
c-18 12 -32.667 20.5 -44 25.5s-21.666 7.5 -30.999 7.5c-20 0 -35.667 -6.83301 -47 -20.5s-19.333 -33.167 -24 -58.5z" />
    <glyph glyph-name="Odieresis" unicode="&#xd6;" horiz-adv-x="772" 
d="M62 353c0 74.667 12.833 138.833 38.5 192.5s62.667 95.167 111 124.5s106.5 44 174.5 44c66 0 123.333 -14.667 172 -44s86.167 -70.833 112.5 -124.5s39.5 -117.5 39.5 -191.5c0 -74.667 -13.333 -139 -40 -193s-64.167 -95.833 -112.5 -125.5
s-105.5 -44.5 -171.5 -44.5c-68 0 -126 14.833 -174 44.5s-85 71.5 -111 125.5s-39 118 -39 192zM149 352.999c0 -60.667 9 -112.502 27 -155.502s44.667 -76 80 -99s78.666 -34.5 129.999 -34.5c74.667 0 132.834 25.5 174.501 76.5s62.5 121.833 62.5 212.5
c0 61.333 -9.33301 113.333 -28 156s-45.667 75.334 -81 98.001s-78 34 -128 34c-78 0 -137 -25.167 -177 -75.5s-60 -121.166 -60 -212.499zM430 805.997v86h86v-86h-86zM256 805.997v86h86v-86h-86z" />
    <glyph glyph-name="multiply" unicode="&#xd7;" 
d="M109 50l-44 43l191 192l-191 191l44 43l191 -190l191 190l44 -43l-191 -191l191 -192l-44 -43l-191 190z" />
    <glyph glyph-name="Oslash" unicode="&#xd8;" horiz-adv-x="772" 
d="M62 353c0 74.667 12.833 138.833 38.5 192.5s62.667 95.167 111 124.5s106.5 44 174.5 44c66 0 123.333 -14.667 172 -44s86.167 -70.833 112.5 -124.5s39.5 -117.5 39.5 -191.5c0 -74.667 -13.333 -139 -40 -193s-64.167 -95.833 -112.5 -125.5
s-105.5 -44.5 -171.5 -44.5c-68 0 -126 14.833 -174 44.5s-85 71.5 -111 125.5s-39 118 -39 192zM149 352.999c0 -60.667 9 -112.502 27 -155.502s44.667 -76 80 -99s78.666 -34.5 129.999 -34.5c74.667 0 132.834 25.5 174.501 76.5s62.5 121.833 62.5 212.5
c0 61.333 -9.33301 113.333 -28 156s-45.667 75.334 -81 98.001s-78 34 -128 34c-78 0 -137 -25.167 -177 -75.5s-60 -121.166 -60 -212.499zM247 45.9971l-54 -93l-56 33l54 93l26 37l296 507l17 37l54 92l56 -33l-54 -93l-26 -36l-296 -508z" />
    <glyph glyph-name="Ugrave" unicode="&#xd9;" horiz-adv-x="730" 
d="M366 -9c-63.333 0 -116 10.833 -158 32.5s-73.167 54 -93.5 97s-30.5 95.833 -30.5 158.5v426h82v-422c0 -72.667 16 -127.334 48 -164.001s82.667 -55 152 -55c65.333 0 115 18.333 149 55s51 91.334 51 164.001v422h82v-426c0 -62.667 -10.667 -115.5 -32 -158.5
s-53 -75.333 -95 -97s-93.667 -32.5 -155 -32.5zM335 765l-147 172h91l118 -172h-62z" />
    <glyph glyph-name="Uacute" unicode="&#xda;" horiz-adv-x="730" 
d="M366 -9c-63.333 0 -116 10.833 -158 32.5s-73.167 54 -93.5 97s-30.5 95.833 -30.5 158.5v426h82v-422c0 -72.667 16 -127.334 48 -164.001s82.667 -55 152 -55c65.333 0 115 18.333 149 55s51 91.334 51 164.001v422h82v-426c0 -62.667 -10.667 -115.5 -32 -158.5
s-53 -75.333 -95 -97s-93.667 -32.5 -155 -32.5zM335 765l118 172h91l-147 -172h-62z" />
    <glyph glyph-name="Ucircumflex" unicode="&#xdb;" horiz-adv-x="730" 
d="M366 -9c-63.333 0 -116 10.833 -158 32.5s-73.167 54 -93.5 97s-30.5 95.833 -30.5 158.5v426h82v-422c0 -72.667 16 -127.334 48 -164.001s82.667 -55 152 -55c65.333 0 115 18.333 149 55s51 91.334 51 164.001v422h82v-426c0 -62.667 -10.667 -115.5 -32 -158.5
s-53 -75.333 -95 -97s-93.667 -32.5 -155 -32.5zM205 765l123 172h76l123 -172h-61l-100 119l-100 -119h-61z" />
    <glyph glyph-name="Udieresis" unicode="&#xdc;" horiz-adv-x="730" 
d="M366 -9c-63.333 0 -116 10.833 -158 32.5s-73.167 54 -93.5 97s-30.5 95.833 -30.5 158.5v426h82v-422c0 -72.667 16 -127.334 48 -164.001s82.667 -55 152 -55c65.333 0 115 18.333 149 55s51 91.334 51 164.001v422h82v-426c0 -62.667 -10.667 -115.5 -32 -158.5
s-53 -75.333 -95 -97s-93.667 -32.5 -155 -32.5zM410 806v86h86v-86h-86zM236 806v86h86v-86h-86z" />
    <glyph glyph-name="Yacute" unicode="&#xdd;" horiz-adv-x="607" 
d="M262 0v329l18 -56l-292 432h96l232 -351h-21l231 351h92l-291 -432l18 56v-329h-83zM273 765l118 172h91l-147 -172h-62z" />
    <glyph glyph-name="Thorn" unicode="&#xde;" horiz-adv-x="652" 
d="M88 0v705h83v-135h202c73.333 0 130.5 -17.833 171.5 -53.5s61.5 -85.167 61.5 -148.5c0 -42 -9.16699 -78 -27.5 -108s-44.833 -53.167 -79.5 -69.5s-76.667 -24.5 -126 -24.5h-202v-166h-83zM171 235h196c51.333 0 90.166 11.667 116.499 35s39.5 56 39.5 98
c0 42.667 -13.167 75.667 -39.5 99s-65.166 35 -116.499 35h-196v-267z" />
    <glyph glyph-name="germandbls" unicode="&#xdf;" horiz-adv-x="634" 
d="M79 0l0.000976562 492.993c0 80.667 19.833 142.334 59.5 185.001s99.167 64 178.5 64c41.333 0 76.833 -6.66699 106.5 -20s52.5 -32.666 68.5 -57.999s24 -55.666 24 -90.999c0 -29.333 -5.33301 -56.666 -16 -81.999s-28.667 -48.666 -54 -69.999
s-59.666 -40.666 -102.999 -57.999v16c61.333 -16.667 111.166 -35.5 149.499 -56.5s66.166 -45 83.499 -72s26 -57.5 26 -91.5c0 -34.667 -8 -64.5 -24 -89.5s-38.667 -44.333 -68 -58s-64 -20.5 -104 -20.5c-26 0 -49.833 2.5 -71.5 7.5s-41.667 12 -60 21
s-35.166 20.167 -50.499 33.5l26 57c25.333 -18.667 50.333 -32.667 75 -42s51.667 -14 81 -14c37.333 0 66.166 8.83301 86.499 26.5s30.5 42.834 30.5 75.501c0 24 -7 46.167 -21 66.5s-38.833 39.666 -74.5 57.999s-86.167 35.833 -151.5 52.5v65
c42 15.333 75 31.833 99 49.5s40.833 36.834 50.5 57.501s14.5 43 14.5 67c0 32 -10.667 57.667 -32 77s-51.333 29 -90 29c-54.667 0 -94.667 -14.667 -120 -44s-38 -73.333 -38 -132v-502h-81z" />
    <glyph glyph-name="agrave" unicode="&#xe0;" 
d="M270 -9c-44.667 0 -83.667 10.499 -117 31.499s-59.166 50.833 -77.499 89.5s-27.5 85 -27.5 139c0 54.667 9.16699 101.334 27.5 140.001s44.166 68.334 77.499 89.001s72.333 31 117 31c45.333 0 84.5 -11.5 117.5 -34.5s54.833 -54.167 65.5 -93.5h-12l11 119h78
c-2 -19.333 -3.83301 -38.833 -5.5 -58.5s-2.5 -38.834 -2.5 -57.501v-386h-81v118h11c-10.667 -39.333 -32.667 -70.333 -66 -93s-72 -34 -116 -34zM286 56.999c48 0 86 16.5 114 49.5s42 81.167 42 144.5c0 64 -14 112.5 -42 145.5s-66 49.5 -114 49.5
c-47.333 0 -85.166 -16.5 -113.499 -49.5s-42.5 -81.5 -42.5 -145.5c0 -63.333 14.167 -111.5 42.5 -144.5s66.166 -49.5 113.499 -49.5zM265 550.999l-132 202h87l103 -202h-58z" />
    <glyph glyph-name="aacute" unicode="&#xe1;" 
d="M270 -9c-44.667 0 -83.667 10.499 -117 31.499s-59.166 50.833 -77.499 89.5s-27.5 85 -27.5 139c0 54.667 9.16699 101.334 27.5 140.001s44.166 68.334 77.499 89.001s72.333 31 117 31c45.333 0 84.5 -11.5 117.5 -34.5s54.833 -54.167 65.5 -93.5h-12l11 119h78
c-2 -19.333 -3.83301 -38.833 -5.5 -58.5s-2.5 -38.834 -2.5 -57.501v-386h-81v118h11c-10.667 -39.333 -32.667 -70.333 -66 -93s-72 -34 -116 -34zM286 56.999c48 0 86 16.5 114 49.5s42 81.167 42 144.5c0 64 -14 112.5 -42 145.5s-66 49.5 -114 49.5
c-47.333 0 -85.166 -16.5 -113.499 -49.5s-42.5 -81.5 -42.5 -145.5c0 -63.333 14.167 -111.5 42.5 -144.5s66.166 -49.5 113.499 -49.5zM265 550.999l103 202h87l-132 -202h-58z" />
    <glyph glyph-name="acircumflex" unicode="&#xe2;" 
d="M270 -9c-44.667 0 -83.667 10.499 -117 31.499s-59.166 50.833 -77.499 89.5s-27.5 85 -27.5 139c0 54.667 9.16699 101.334 27.5 140.001s44.166 68.334 77.499 89.001s72.333 31 117 31c45.333 0 84.5 -11.5 117.5 -34.5s54.833 -54.167 65.5 -93.5h-12l11 119h78
c-2 -19.333 -3.83301 -38.833 -5.5 -58.5s-2.5 -38.834 -2.5 -57.501v-386h-81v118h11c-10.667 -39.333 -32.667 -70.333 -66 -93s-72 -34 -116 -34zM286 56.999c48 0 86 16.5 114 49.5s42 81.167 42 144.5c0 64 -14 112.5 -42 145.5s-66 49.5 -114 49.5
c-47.333 0 -85.166 -16.5 -113.499 -49.5s-42.5 -81.5 -42.5 -145.5c0 -63.333 14.167 -111.5 42.5 -144.5s66.166 -49.5 113.499 -49.5zM146 550.999l109 202h78l109 -202h-56l-92 148l-92 -148h-56z" />
    <glyph glyph-name="atilde" unicode="&#xe3;" 
d="M270 -9c-44.667 0 -83.667 10.499 -117 31.499s-59.166 50.833 -77.499 89.5s-27.5 85 -27.5 139c0 54.667 9.16699 101.334 27.5 140.001s44.166 68.334 77.499 89.001s72.333 31 117 31c45.333 0 84.5 -11.5 117.5 -34.5s54.833 -54.167 65.5 -93.5h-12l11 119h78
c-2 -19.333 -3.83301 -38.833 -5.5 -58.5s-2.5 -38.834 -2.5 -57.501v-386h-81v118h11c-10.667 -39.333 -32.667 -70.333 -66 -93s-72 -34 -116 -34zM286 56.999c48 0 86 16.5 114 49.5s42 81.167 42 144.5c0 64 -14 112.5 -42 145.5s-66 49.5 -114 49.5
c-47.333 0 -85.166 -16.5 -113.499 -49.5s-42.5 -81.5 -42.5 -145.5c0 -63.333 14.167 -111.5 42.5 -144.5s66.166 -49.5 113.499 -49.5zM160 589.999l-45.999 2.99902c3.33301 42.667 14.666 75.5 33.999 98.5s43.666 34.5 72.999 34.5c14.667 0 28.167 -3.33301 40.5 -10
s26.5 -17 42.5 -31c14.667 -13.333 26.5 -22.5 35.5 -27.5s17.833 -7.5 26.5 -7.5c34 0 54.667 26.333 62 79l46 -3c-3.33301 -42.667 -14.5 -75.5 -33.5 -98.5s-43.167 -34.5 -72.5 -34.5c-14 0 -27.333 3.33301 -40 10s-27.334 17.334 -44.001 32.001
c-14 12.667 -25.5 21.5 -34.5 26.5s-18.167 7.5 -27.5 7.5c-17.333 0 -31.166 -6.83301 -41.499 -20.5s-17.166 -33.167 -20.499 -58.5z" />
    <glyph glyph-name="adieresis" unicode="&#xe4;" 
d="M270 -9c-44.667 0 -83.667 10.499 -117 31.499s-59.166 50.833 -77.499 89.5s-27.5 85 -27.5 139c0 54.667 9.16699 101.334 27.5 140.001s44.166 68.334 77.499 89.001s72.333 31 117 31c45.333 0 84.5 -11.5 117.5 -34.5s54.833 -54.167 65.5 -93.5h-12l11 119h78
c-2 -19.333 -3.83301 -38.833 -5.5 -58.5s-2.5 -38.834 -2.5 -57.501v-386h-81v118h11c-10.667 -39.333 -32.667 -70.333 -66 -93s-72 -34 -116 -34zM286 56.999c48 0 86 16.5 114 49.5s42 81.167 42 144.5c0 64 -14 112.5 -42 145.5s-66 49.5 -114 49.5
c-47.333 0 -85.166 -16.5 -113.499 -49.5s-42.5 -81.5 -42.5 -145.5c0 -63.333 14.167 -111.5 42.5 -144.5s66.166 -49.5 113.499 -49.5zM338 608.999v86h86v-86h-86zM164 608.999v86h86v-86h-86z" />
    <glyph glyph-name="aring" unicode="&#xe5;" 
d="M270 -9c-44.667 0 -83.667 10.499 -117 31.499s-59.166 50.833 -77.499 89.5s-27.5 85 -27.5 139c0 54.667 9.16699 101.334 27.5 140.001s44.166 68.334 77.499 89.001s72.333 31 117 31c45.333 0 84.5 -11.5 117.5 -34.5s54.833 -54.167 65.5 -93.5h-12l11 119h78
c-2 -19.333 -3.83301 -38.833 -5.5 -58.5s-2.5 -38.834 -2.5 -57.501v-386h-81v118h11c-10.667 -39.333 -32.667 -70.333 -66 -93s-72 -34 -116 -34zM286 56.999c48 0 86 16.5 114 49.5s42 81.167 42 144.5c0 64 -14 112.5 -42 145.5s-66 49.5 -114 49.5
c-47.333 0 -85.166 -16.5 -113.499 -49.5s-42.5 -81.5 -42.5 -145.5c0 -63.333 14.167 -111.5 42.5 -144.5s66.166 -49.5 113.499 -49.5zM294 546.999c-22 0 -42 5 -60 15s-32.333 23.833 -43 41.5s-16 37.167 -16 58.5c0 22 5.33301 41.667 16 59s25 31.166 43 41.499
s38 15.5 60 15.5c22.667 0 42.834 -5.16699 60.501 -15.5s31.834 -24.166 42.501 -41.499s16 -37 16 -59c0 -21.333 -5.33301 -40.833 -16 -58.5s-24.834 -31.5 -42.501 -41.5s-37.834 -15 -60.501 -15zM294 589.999c21.333 0 38.666 6.99902 51.999 20.999s20 31 20 51
c0 20.667 -6.66699 37.834 -20 51.501s-30.666 20.5 -51.999 20.5c-20.667 0 -37.834 -6.83301 -51.501 -20.5s-20.5 -30.5 -20.5 -50.5c0 -20.667 6.83301 -38 20.5 -52s30.834 -21 51.501 -21z" />
    <glyph glyph-name="ae" unicode="&#xe6;" horiz-adv-x="882" 
d="M240 -9c-35.333 0 -66.6699 6.83105 -94.0029 20.498s-48.666 32.167 -63.999 55.5s-23 49.333 -23 78c0 38.667 9 69.167 27 91.5s48.167 38.166 90.5 47.499s100.5 14 174.5 14h51v-51h-50c-56 0 -99.667 -3 -131 -9s-53.333 -16 -66 -30s-19 -33.667 -19 -59
c0 -28.667 10.167 -52 30.5 -70s48.166 -27 83.499 -27c28 0 52.667 6.5 74 19.5s38.166 31 50.499 54s18.5 49.833 18.5 80.5v120c0 42.667 -9.5 73.334 -28.5 92.001s-48.167 28 -87.5 28c-30.667 0 -59.5 -4 -86.5 -12s-54.5 -21.333 -82.5 -40l-28 60
c17.333 12 36.833 22.167 58.5 30.5s44.334 14.833 68.001 19.5s47.5 7 71.5 7c51.333 0 91.5 -10.5 120.5 -31.5s48.167 -52.167 57.5 -93.5h-25c20 40.667 46.5 71.667 79.5 93s72.167 32 117.5 32c43.333 0 80.5 -9.5 111.5 -28.5s55 -46.167 72 -81.5
s25.5 -77.666 25.5 -126.999v-27h-377v51h323l-17 -15c0 52.667 -12 93.834 -36 123.501s-58.667 44.5 -104 44.5c-31.333 0 -58.666 -7 -81.999 -21s-41.166 -34.5 -53.499 -61.5s-18.5 -60.5 -18.5 -100.5v-8c0 -64.667 14.5 -114.667 43.5 -150s71.5 -53 127.5 -53
c28.667 0 56.167 4.66699 82.5 14s51.5 24 75.5 44l29 -57c-22.667 -21.333 -51 -37.833 -85 -49.5s-68.667 -17.5 -104 -17.5c-59.333 0 -108.166 13.5 -146.499 40.5s-64.833 65.833 -79.5 116.5h21c-10 -48.667 -32.333 -87 -67 -115s-77.667 -42 -129 -42z" />
    <glyph glyph-name="ccedilla" unicode="&#xe7;" horiz-adv-x="495" 
d="M290 -9c-49.333 0 -92.165 10.6689 -128.498 32.002s-64.333 51.666 -84 90.999s-29.5 86 -29.5 140c0 54.667 10 101.167 30 139.5s48.167 67.5 84.5 87.5s78.833 30 127.5 30c32 0 63.167 -5.66699 93.5 -17s55.5 -27.333 75.5 -48l-29 -58
c-20 19.333 -41.833 33.666 -65.5 42.999s-46.834 14 -69.501 14c-52 0 -92.333 -16.333 -121 -49s-43 -80.334 -43 -143.001c0 -62 14.333 -110 43 -144s69 -51 121 -51c22 0 44.833 4.33301 68.5 13s45.834 23 66.501 43l29 -57
c-20.667 -21.333 -46.334 -37.666 -77.001 -48.999s-61.334 -17 -92.001 -17zM290.001 -191.998c-17.333 0 -33.833 1.66699 -49.5 5s-29.167 8 -40.5 14l14 44c12 -5.33301 23.5 -9.33301 34.5 -12s23.833 -4 38.5 -4c18 0 32.333 3.16699 43 9.5s16 15.5 16 27.5
c0 8.66699 -3 15.5 -9 20.5s-15.667 7.5 -29 7.5c-7.33301 0 -14.5 -0.5 -21.5 -1.5s-15.5 -3.5 -25.5 -7.5l-17 16l15 93h51l-13 -75l-24 6c7.33301 2 15 3.66699 23 5s15.333 2 22 2c24 0 44 -6 60 -18s24 -28.667 24 -50c0 -24.667 -10.333 -44.5 -31 -59.5
s-47.667 -22.5 -81 -22.5z" />
    <glyph glyph-name="egrave" unicode="&#xe8;" horiz-adv-x="544" 
d="M302 -9c-52 0 -97 10.168 -135 30.501s-67.333 50 -88 89s-31 85.5 -31 139.5c0 52.667 10 98.5 30 137.5s48 69.333 84 91s77.333 32.5 124 32.5c46 0 84.667 -9.66699 116 -29s55.333 -46.833 72 -82.5s25 -77.834 25 -126.501v-30h-389v51h336l-17 -13
c0 53.333 -12 95 -36 125s-59.667 45 -107 45c-34 0 -62.833 -8 -86.5 -24s-41.667 -38.333 -54 -67s-18.5 -63 -18.5 -103v-9c0 -62.667 15.5 -110.167 46.5 -142.5s74.5 -48.5 130.5 -48.5c30 0 58.167 4.5 84.5 13.5s51.5 23.833 75.5 44.5l28 -57
c-22 -21.333 -49.833 -37.833 -83.5 -49.5s-69.167 -17.5 -106.5 -17.5zM257 551.001l-132 202h87l103 -202h-58z" />
    <glyph glyph-name="eacute" unicode="&#xe9;" horiz-adv-x="544" 
d="M302 -9c-52 0 -97 10.168 -135 30.501s-67.333 50 -88 89s-31 85.5 -31 139.5c0 52.667 10 98.5 30 137.5s48 69.333 84 91s77.333 32.5 124 32.5c46 0 84.667 -9.66699 116 -29s55.333 -46.833 72 -82.5s25 -77.834 25 -126.501v-30h-389v51h336l-17 -13
c0 53.333 -12 95 -36 125s-59.667 45 -107 45c-34 0 -62.833 -8 -86.5 -24s-41.667 -38.333 -54 -67s-18.5 -63 -18.5 -103v-9c0 -62.667 15.5 -110.167 46.5 -142.5s74.5 -48.5 130.5 -48.5c30 0 58.167 4.5 84.5 13.5s51.5 23.833 75.5 44.5l28 -57
c-22 -21.333 -49.833 -37.833 -83.5 -49.5s-69.167 -17.5 -106.5 -17.5zM257 551.001l103 202h87l-132 -202h-58z" />
    <glyph glyph-name="ecircumflex" unicode="&#xea;" horiz-adv-x="544" 
d="M302 -9c-52 0 -97 10.168 -135 30.501s-67.333 50 -88 89s-31 85.5 -31 139.5c0 52.667 10 98.5 30 137.5s48 69.333 84 91s77.333 32.5 124 32.5c46 0 84.667 -9.66699 116 -29s55.333 -46.833 72 -82.5s25 -77.834 25 -126.501v-30h-389v51h336l-17 -13
c0 53.333 -12 95 -36 125s-59.667 45 -107 45c-34 0 -62.833 -8 -86.5 -24s-41.667 -38.333 -54 -67s-18.5 -63 -18.5 -103v-9c0 -62.667 15.5 -110.167 46.5 -142.5s74.5 -48.5 130.5 -48.5c30 0 58.167 4.5 84.5 13.5s51.5 23.833 75.5 44.5l28 -57
c-22 -21.333 -49.833 -37.833 -83.5 -49.5s-69.167 -17.5 -106.5 -17.5zM138 551.001l109 202h78l109 -202h-56l-92 148l-92 -148h-56z" />
    <glyph glyph-name="edieresis" unicode="&#xeb;" horiz-adv-x="544" 
d="M302 -9c-52 0 -97 10.168 -135 30.501s-67.333 50 -88 89s-31 85.5 -31 139.5c0 52.667 10 98.5 30 137.5s48 69.333 84 91s77.333 32.5 124 32.5c46 0 84.667 -9.66699 116 -29s55.333 -46.833 72 -82.5s25 -77.834 25 -126.501v-30h-389v51h336l-17 -13
c0 53.333 -12 95 -36 125s-59.667 45 -107 45c-34 0 -62.833 -8 -86.5 -24s-41.667 -38.333 -54 -67s-18.5 -63 -18.5 -103v-9c0 -62.667 15.5 -110.167 46.5 -142.5s74.5 -48.5 130.5 -48.5c30 0 58.167 4.5 84.5 13.5s51.5 23.833 75.5 44.5l28 -57
c-22 -21.333 -49.833 -37.833 -83.5 -49.5s-69.167 -17.5 -106.5 -17.5zM330 609.001v86h86v-86h-86zM156 609.001v86h86v-86h-86z" />
    <glyph glyph-name="igrave" unicode="&#xec;" horiz-adv-x="238" 
d="M79 0v502h81v-502h-81zM90 551l-132 202h87l103 -202h-58z" />
    <glyph glyph-name="iacute" unicode="&#xed;" horiz-adv-x="238" 
d="M79 0v502h81v-502h-81zM90 551l103 202h87l-132 -202h-58z" />
    <glyph glyph-name="icircumflex" unicode="&#xee;" horiz-adv-x="238" 
d="M79 0v502h81v-502h-81zM-29 551l109 202h78l109 -202h-56l-92 148l-92 -148h-56z" />
    <glyph glyph-name="idieresis" unicode="&#xef;" horiz-adv-x="238" 
d="M79 0v502h81v-502h-81zM163 609v86h86v-86h-86zM-11 609v86h86v-86h-86z" />
    <glyph glyph-name="eth" unicode="&#xf0;" horiz-adv-x="576" 
d="M285 -9c-47.333 0 -88.833 9.83398 -124.5 29.501s-63.334 47 -83.001 82s-29.5 76.167 -29.5 123.5c0 46.667 9.66699 87.5 29 122.5s46.666 62.167 81.999 81.5s76 29 122 29c50.667 0 92.167 -12.667 124.5 -38s55.166 -64 68.499 -116h-23
c0.666992 58.667 -10.666 114.167 -33.999 166.5s-58 97.166 -104 134.499l20 -3l-197 -83l-19 45l172 72l-2 -13c-20 14 -42 26.5 -66 37.5s-49.667 19.833 -77 26.5l17 55c39.333 -8.66699 75.333 -20.5 108 -35.5s62.334 -32.167 89.001 -51.5l-19 3l117 49l19 -44
l-98 -42l3 16c34 -29.333 61.833 -63 83.5 -101s37.834 -78.5 48.501 -121.5s16 -88.167 16 -135.5c0 -62 -9.33301 -114.5 -28 -157.5s-46 -75.667 -82 -98s-80.333 -33.5 -133 -33.5zM286 57.001c48.667 0 86.999 15.002 114.999 45.002s42 71 42 123
s-13.833 93 -41.5 123s-66.167 45 -115.5 45c-48 0 -86 -14.833 -114 -44.5s-42 -70.834 -42 -123.501s13.833 -93.834 41.5 -123.501s65.834 -44.5 114.501 -44.5z" />
    <glyph glyph-name="ntilde" unicode="&#xf1;" horiz-adv-x="586" 
d="M79 0l0.000976562 385.999c0 18.667 -0.833008 37.834 -2.5 57.501s-3.5 39.167 -5.5 58.5h78l10 -110h-12c14.667 38.667 38.167 68.167 70.5 88.5s69.833 30.5 112.5 30.5c59.333 0 104.166 -15.833 134.499 -47.5s45.5 -81.5 45.5 -149.5v-314h-81v309
c0 47.333 -9.5 81.833 -28.5 103.5s-48.5 32.5 -88.5 32.5c-46.667 0 -83.667 -14.333 -111 -43s-41 -67 -41 -115v-287h-81zM158.001 589.999l-45.999 2.99902c3.33301 42.667 14.666 75.5 33.999 98.5s43.666 34.5 72.999 34.5c14.667 0 28.167 -3.33301 40.5 -10
s26.5 -17 42.5 -31c14.667 -13.333 26.5 -22.5 35.5 -27.5s17.833 -7.5 26.5 -7.5c34 0 54.667 26.333 62 79l46 -3c-3.33301 -42.667 -14.5 -75.5 -33.5 -98.5s-43.167 -34.5 -72.5 -34.5c-14 0 -27.333 3.33301 -40 10s-27.334 17.334 -44.001 32.001
c-14 12.667 -25.5 21.5 -34.5 26.5s-18.167 7.5 -27.5 7.5c-17.333 0 -31.166 -6.83301 -41.499 -20.5s-17.166 -33.167 -20.499 -58.5z" />
    <glyph glyph-name="ograve" unicode="&#xf2;" horiz-adv-x="571" 
d="M285 -9c-48 0 -89.833 10.5 -125.5 31.5s-63.167 51 -82.5 90s-29 85.167 -29 138.5c0 54 9.66699 100.333 29 139s46.833 68.5 82.5 89.5s77.5 31.5 125.5 31.5c48.667 0 90.834 -10.5 126.501 -31.5s63.334 -50.833 83.001 -89.5s29.5 -85 29.5 -139
c0 -53.333 -9.83301 -99.5 -29.5 -138.5s-47.334 -69 -83.001 -90s-77.834 -31.5 -126.501 -31.5zM285 57c48 0 86 16.5 114 49.5s42 81.167 42 144.5c0 64 -14 112.5 -42 145.5s-66 49.5 -114 49.5c-47.333 0 -85 -16.5 -113 -49.5s-42 -81.5 -42 -145.5
c0 -63.333 14 -111.5 42 -144.5s65.667 -49.5 113 -49.5zM257 551l-132 202h87l103 -202h-58z" />
    <glyph glyph-name="oacute" unicode="&#xf3;" horiz-adv-x="571" 
d="M285 -9c-48 0 -89.833 10.5 -125.5 31.5s-63.167 51 -82.5 90s-29 85.167 -29 138.5c0 54 9.66699 100.333 29 139s46.833 68.5 82.5 89.5s77.5 31.5 125.5 31.5c48.667 0 90.834 -10.5 126.501 -31.5s63.334 -50.833 83.001 -89.5s29.5 -85 29.5 -139
c0 -53.333 -9.83301 -99.5 -29.5 -138.5s-47.334 -69 -83.001 -90s-77.834 -31.5 -126.501 -31.5zM285 57c48 0 86 16.5 114 49.5s42 81.167 42 144.5c0 64 -14 112.5 -42 145.5s-66 49.5 -114 49.5c-47.333 0 -85 -16.5 -113 -49.5s-42 -81.5 -42 -145.5
c0 -63.333 14 -111.5 42 -144.5s65.667 -49.5 113 -49.5zM257 551l103 202h87l-132 -202h-58z" />
    <glyph glyph-name="ocircumflex" unicode="&#xf4;" horiz-adv-x="571" 
d="M285 -9c-48 0 -89.833 10.5 -125.5 31.5s-63.167 51 -82.5 90s-29 85.167 -29 138.5c0 54 9.66699 100.333 29 139s46.833 68.5 82.5 89.5s77.5 31.5 125.5 31.5c48.667 0 90.834 -10.5 126.501 -31.5s63.334 -50.833 83.001 -89.5s29.5 -85 29.5 -139
c0 -53.333 -9.83301 -99.5 -29.5 -138.5s-47.334 -69 -83.001 -90s-77.834 -31.5 -126.501 -31.5zM285 57c48 0 86 16.5 114 49.5s42 81.167 42 144.5c0 64 -14 112.5 -42 145.5s-66 49.5 -114 49.5c-47.333 0 -85 -16.5 -113 -49.5s-42 -81.5 -42 -145.5
c0 -63.333 14 -111.5 42 -144.5s65.667 -49.5 113 -49.5zM138 551l109 202h78l109 -202h-56l-92 148l-92 -148h-56z" />
    <glyph glyph-name="otilde" unicode="&#xf5;" horiz-adv-x="571" 
d="M285 -9c-48 0 -89.833 10.5 -125.5 31.5s-63.167 51 -82.5 90s-29 85.167 -29 138.5c0 54 9.66699 100.333 29 139s46.833 68.5 82.5 89.5s77.5 31.5 125.5 31.5c48.667 0 90.834 -10.5 126.501 -31.5s63.334 -50.833 83.001 -89.5s29.5 -85 29.5 -139
c0 -53.333 -9.83301 -99.5 -29.5 -138.5s-47.334 -69 -83.001 -90s-77.834 -31.5 -126.501 -31.5zM285 57c48 0 86 16.5 114 49.5s42 81.167 42 144.5c0 64 -14 112.5 -42 145.5s-66 49.5 -114 49.5c-47.333 0 -85 -16.5 -113 -49.5s-42 -81.5 -42 -145.5
c0 -63.333 14 -111.5 42 -144.5s65.667 -49.5 113 -49.5zM152 590l-45.999 2.99902c3.33301 42.667 14.666 75.5 33.999 98.5s43.666 34.5 72.999 34.5c14.667 0 28.167 -3.33301 40.5 -10s26.5 -17 42.5 -31c14.667 -13.333 26.5 -22.5 35.5 -27.5s17.833 -7.5 26.5 -7.5
c34 0 54.667 26.333 62 79l46 -3c-3.33301 -42.667 -14.5 -75.5 -33.5 -98.5s-43.167 -34.5 -72.5 -34.5c-14 0 -27.333 3.33301 -40 10s-27.334 17.334 -44.001 32.001c-14 12.667 -25.5 21.5 -34.5 26.5s-18.167 7.5 -27.5 7.5c-17.333 0 -31.166 -6.83301 -41.499 -20.5
s-17.166 -33.167 -20.499 -58.5z" />
    <glyph glyph-name="odieresis" unicode="&#xf6;" horiz-adv-x="571" 
d="M285 -9c-48 0 -89.833 10.5 -125.5 31.5s-63.167 51 -82.5 90s-29 85.167 -29 138.5c0 54 9.66699 100.333 29 139s46.833 68.5 82.5 89.5s77.5 31.5 125.5 31.5c48.667 0 90.834 -10.5 126.501 -31.5s63.334 -50.833 83.001 -89.5s29.5 -85 29.5 -139
c0 -53.333 -9.83301 -99.5 -29.5 -138.5s-47.334 -69 -83.001 -90s-77.834 -31.5 -126.501 -31.5zM285 57c48 0 86 16.5 114 49.5s42 81.167 42 144.5c0 64 -14 112.5 -42 145.5s-66 49.5 -114 49.5c-47.333 0 -85 -16.5 -113 -49.5s-42 -81.5 -42 -145.5
c0 -63.333 14 -111.5 42 -144.5s65.667 -49.5 113 -49.5zM330 609v86h86v-86h-86zM156 609v86h86v-86h-86z" />
    <glyph glyph-name="divide" unicode="&#xf7;" 
d="M53 256v62h494v-62h-494zM252 45v86h86v-86h-86zM252 443v86h86v-86h-86z" />
    <glyph glyph-name="oslash" unicode="&#xf8;" horiz-adv-x="571" 
d="M285 -9c-48 0 -89.833 10.5 -125.5 31.5s-63.167 51 -82.5 90s-29 85.167 -29 138.5c0 54 9.66699 100.333 29 139s46.833 68.5 82.5 89.5s77.5 31.5 125.5 31.5c48.667 0 90.834 -10.5 126.501 -31.5s63.334 -50.833 83.001 -89.5s29.5 -85 29.5 -139
c0 -53.333 -9.83301 -99.5 -29.5 -138.5s-47.334 -69 -83.001 -90s-77.834 -31.5 -126.501 -31.5zM285 57c50 0 89.333 16.833 118 50.5s43 81.5 43 143.5c0 62.667 -14.333 110.834 -43 144.501s-68 50.5 -118 50.5s-89.167 -16.833 -117.5 -50.5
s-42.5 -81.834 -42.5 -144.501c0 -62 14.167 -109.833 42.5 -143.5s67.5 -50.5 117.5 -50.5zM147 -39l-43 27l322 554l44 -27z" />
    <glyph glyph-name="ugrave" unicode="&#xf9;" horiz-adv-x="577" 
d="M256 -9c-59.333 0 -104.167 16.333 -134.5 49s-45.5 82.667 -45.5 150v312h81v-310c0 -46 9.33301 -79.833 28 -101.5s47.667 -32.5 87 -32.5c44 0 79.333 14.5 106 43.5s40 67.167 40 114.5v286h81v-502h-79v113h13c-14 -38.667 -36.5 -68.667 -67.5 -90
s-67.5 -32 -109.5 -32zM259.999 552l-132 202h87l103 -202h-58z" />
    <glyph glyph-name="uacute" unicode="&#xfa;" horiz-adv-x="577" 
d="M256 -9c-59.333 0 -104.167 16.333 -134.5 49s-45.5 82.667 -45.5 150v312h81v-310c0 -46 9.33301 -79.833 28 -101.5s47.667 -32.5 87 -32.5c44 0 79.333 14.5 106 43.5s40 67.167 40 114.5v286h81v-502h-79v113h13c-14 -38.667 -36.5 -68.667 -67.5 -90
s-67.5 -32 -109.5 -32zM259.999 552l103 202h87l-132 -202h-58z" />
    <glyph glyph-name="ucircumflex" unicode="&#xfb;" horiz-adv-x="577" 
d="M256 -9c-59.333 0 -104.167 16.333 -134.5 49s-45.5 82.667 -45.5 150v312h81v-310c0 -46 9.33301 -79.833 28 -101.5s47.667 -32.5 87 -32.5c44 0 79.333 14.5 106 43.5s40 67.167 40 114.5v286h81v-502h-79v113h13c-14 -38.667 -36.5 -68.667 -67.5 -90
s-67.5 -32 -109.5 -32zM140.999 552l109 202h78l109 -202h-56l-92 148l-92 -148h-56z" />
    <glyph glyph-name="udieresis" unicode="&#xfc;" horiz-adv-x="577" 
d="M256 -9c-59.333 0 -104.167 16.333 -134.5 49s-45.5 82.667 -45.5 150v312h81v-310c0 -46 9.33301 -79.833 28 -101.5s47.667 -32.5 87 -32.5c44 0 79.333 14.5 106 43.5s40 67.167 40 114.5v286h81v-502h-79v113h13c-14 -38.667 -36.5 -68.667 -67.5 -90
s-67.5 -32 -109.5 -32zM332.999 610v86h86v-86h-86zM158.999 610v86h86v-86h-86z" />
    <glyph glyph-name="yacute" unicode="&#xfd;" horiz-adv-x="531" 
d="M59 -227l-19 67.001c31.333 7.33301 57.5 15.833 78.5 25.5s38.5 22.5 52.5 38.5s26 36 36 60l26 59l-2 -34l-219 513h88l181 -441h-26l179 441h85l-232 -544c-13.333 -32 -28 -58.833 -44 -80.5s-33.167 -39.334 -51.5 -53.001s-38.5 -24.5 -60.5 -32.5
s-46 -14.333 -72 -19zM236 551.001l103 202h87l-132 -202h-58z" />
    <glyph glyph-name="thorn" unicode="&#xfe;" 
d="M79 -216l0.000976562 952.002h81v-353h-12c10.667 39.333 32.5 70.5 65.5 93.5s72.167 34.5 117.5 34.5s84.5 -10.333 117.5 -31s58.667 -50.334 77 -89.001s27.5 -85.334 27.5 -140.001c0 -54 -9.16699 -100.333 -27.5 -139s-44 -68.5 -77 -89.5
s-72.167 -31.5 -117.5 -31.5s-84.333 11.333 -117 34s-54.334 53.667 -65.001 93h11v-334h-81zM315.001 57.002c47.333 0 85.166 16.5 113.499 49.5s42.5 81.167 42.5 144.5c0 64 -14.167 112.5 -42.5 145.5s-66.166 49.5 -113.499 49.5s-85.333 -16.5 -114 -49.5
s-43 -81.5 -43 -145.5c0 -63.333 14.333 -111.5 43 -144.5s66.667 -49.5 114 -49.5z" />
    <glyph glyph-name="ydieresis" unicode="&#xff;" horiz-adv-x="531" 
d="M59 -227l-19 67.001c31.333 7.33301 57.5 15.833 78.5 25.5s38.5 22.5 52.5 38.5s26 36 36 60l26 59l-2 -34l-219 513h88l181 -441h-26l179 441h85l-232 -544c-13.333 -32 -28 -58.833 -44 -80.5s-33.167 -39.334 -51.5 -53.001s-38.5 -24.5 -60.5 -32.5
s-46 -14.333 -72 -19zM309 609.001v86h86v-86h-86zM135 609.001v86h86v-86h-86z" />
    <glyph glyph-name="Amacron" unicode="&#x100;" horiz-adv-x="735" 
d="M18 0l311 705h72l316 -705h-86l-88 201l37 -21h-431l40 21l-86 -201h-85zM364 610l-162 -380l-24 18h372l-18 -18l-166 380h-2zM203 814v55h326v-55h-326z" />
    <glyph glyph-name="amacron" unicode="&#x101;" 
d="M270 -9c-44.667 0 -83.667 10.499 -117 31.499s-59.166 50.833 -77.499 89.5s-27.5 85 -27.5 139c0 54.667 9.16699 101.334 27.5 140.001s44.166 68.334 77.499 89.001s72.333 31 117 31c45.333 0 84.5 -11.5 117.5 -34.5s54.833 -54.167 65.5 -93.5h-12l11 119h78
c-2 -19.333 -3.83301 -38.833 -5.5 -58.5s-2.5 -38.834 -2.5 -57.501v-386h-81v118h11c-10.667 -39.333 -32.667 -70.333 -66 -93s-72 -34 -116 -34zM286 56.999c48 0 86 16.5 114 49.5s42 81.167 42 144.5c0 64 -14 112.5 -42 145.5s-66 49.5 -114 49.5
c-47.333 0 -85.166 -16.5 -113.499 -49.5s-42.5 -81.5 -42.5 -145.5c0 -63.333 14.167 -111.5 42.5 -144.5s66.166 -49.5 113.499 -49.5zM146 624.999v55h296v-55h-296z" />
    <glyph glyph-name="Abreve" unicode="&#x102;" horiz-adv-x="735" 
d="M18 0l311 705h72l316 -705h-86l-88 201l37 -21h-431l40 21l-86 -201h-85zM364 610l-162 -380l-24 18h372l-18 -18l-166 380h-2zM366 760c-31.333 0 -59.167 6.83301 -83.5 20.5s-44 33 -59 58s-23.833 54.833 -26.5 89.5l51 7c3.33301 -38 15.333 -67.667 36 -89
s48 -32 82 -32s61.5 10.667 82.5 32s32.833 51 35.5 89l51 -7c-4 -52 -21.333 -93 -52 -123s-69.667 -45 -117 -45z" />
    <glyph glyph-name="abreve" unicode="&#x103;" 
d="M270 -9c-44.667 0 -83.667 10.499 -117 31.499s-59.166 50.833 -77.499 89.5s-27.5 85 -27.5 139c0 54.667 9.16699 101.334 27.5 140.001s44.166 68.334 77.499 89.001s72.333 31 117 31c45.333 0 84.5 -11.5 117.5 -34.5s54.833 -54.167 65.5 -93.5h-12l11 119h78
c-2 -19.333 -3.83301 -38.833 -5.5 -58.5s-2.5 -38.834 -2.5 -57.501v-386h-81v118h11c-10.667 -39.333 -32.667 -70.333 -66 -93s-72 -34 -116 -34zM286 56.999c48 0 86 16.5 114 49.5s42 81.167 42 144.5c0 64 -14 112.5 -42 145.5s-66 49.5 -114 49.5
c-47.333 0 -85.166 -16.5 -113.499 -49.5s-42.5 -81.5 -42.5 -145.5c0 -63.333 14.167 -111.5 42.5 -144.5s66.166 -49.5 113.499 -49.5zM294 548.999c-30 0 -56.3359 7.66699 -79.0029 23s-40.334 37.166 -53.001 65.499s-20 62.166 -22 101.499l51 5
c2.66699 -44.667 12.834 -79.167 30.501 -103.5s41.834 -36.5 72.501 -36.5s54.834 12.167 72.501 36.5s27.834 58.833 30.501 103.5l51 -5c-1.33301 -39.333 -8.5 -73.166 -21.5 -101.499s-30.833 -50.166 -53.5 -65.499s-49 -23 -79 -23z" />
    <glyph glyph-name="Aogonek" unicode="&#x104;" horiz-adv-x="735" 
d="M18 0l311 705h72l316 -705h-86l-88 201l37 -21h-431l40 21l-86 -201h-85zM364 610l-162 -380l-24 18h372l-18 -18l-166 380h-2zM678 -192c-32 0 -57.667 8.66504 -77 25.998s-29 41 -29 71c0 26.667 8.66699 51.834 26 75.501s40.666 42.167 69.999 55.5l29 -36
c-10.667 -4 -21.167 -10.167 -31.5 -18.5s-18.833 -18.166 -25.5 -29.499s-10 -24 -10 -38c0 -18.667 5.66699 -32.667 17 -42s25 -14 41 -14c9.33301 0 18.333 1 27 3s17.667 5 27 9l14 -45c-9.33301 -5.33301 -20.666 -9.5 -33.999 -12.5s-28 -4.5 -44 -4.5z" />
    <glyph glyph-name="aogonek" unicode="&#x105;" 
d="M270 -9c-44.667 0 -83.667 10.499 -117 31.499s-59.166 50.833 -77.499 89.5s-27.5 85 -27.5 139c0 54.667 9.16699 101.334 27.5 140.001s44.166 68.334 77.499 89.001s72.333 31 117 31c45.333 0 84.5 -11.5 117.5 -34.5s54.833 -54.167 65.5 -93.5h-12l11 119h78
c-2 -19.333 -3.83301 -38.833 -5.5 -58.5s-2.5 -38.834 -2.5 -57.501v-386h-81v118h11c-10.667 -39.333 -32.667 -70.333 -66 -93s-72 -34 -116 -34zM286 56.999c48 0 86 16.5 114 49.5s42 81.167 42 144.5c0 64 -14 112.5 -42 145.5s-66 49.5 -114 49.5
c-47.333 0 -85.166 -16.5 -113.499 -49.5s-42.5 -81.5 -42.5 -145.5c0 -63.333 14.167 -111.5 42.5 -144.5s66.166 -49.5 113.499 -49.5zM493 -192.001c-32 0 -57.667 8.66504 -77 25.998s-29 41 -29 71c0 26.667 8.66699 51.834 26 75.501s40.666 42.167 69.999 55.5
l29 -36c-10.667 -4 -21.167 -10.167 -31.5 -18.5s-18.833 -18.166 -25.5 -29.499s-10 -24 -10 -38c0 -18.667 5.66699 -32.667 17 -42s25 -14 41 -14c9.33301 0 18.333 1 27 3s17.667 5 27 9l14 -45c-9.33301 -5.33301 -20.666 -9.5 -33.999 -12.5s-28 -4.5 -44 -4.5z" />
    <glyph glyph-name="Cacute" unicode="&#x106;" horiz-adv-x="684" 
d="M395 -9c-70.667 0 -130.667 14.666 -180 43.999s-87.166 71 -113.499 125s-39.5 118.333 -39.5 193s13.167 138.834 39.5 192.501s64.166 95.167 113.499 124.5s109.333 44 180 44c50 0 94.667 -7.66699 134 -23s73.666 -37.666 102.999 -66.999l-31 -66
c-32 28 -63.667 48.5 -95 61.5s-68 19.5 -110 19.5c-80.667 0 -142 -25 -184 -75s-63 -120.333 -63 -211c0 -60.667 9.33301 -112.5 28 -155.5s46.5 -75.667 83.5 -98s82.167 -33.5 135.5 -33.5c42 0 78.667 6.5 110 19.5s63 33.833 95 62.5l31 -67
c-29.333 -28.667 -63.666 -50.834 -102.999 -66.501s-84 -23.5 -134 -23.5zM361 764.999l118 172h91l-147 -172h-62z" />
    <glyph glyph-name="cacute" unicode="&#x107;" horiz-adv-x="495" 
d="M290 -9c-49.333 0 -92.165 10.6689 -128.498 32.002s-64.333 51.666 -84 90.999s-29.5 86 -29.5 140c0 54.667 10 101.167 30 139.5s48.167 67.5 84.5 87.5s78.833 30 127.5 30c32 0 63.167 -5.66699 93.5 -17s55.5 -27.333 75.5 -48l-29 -58
c-20 19.333 -41.833 33.666 -65.5 42.999s-46.834 14 -69.501 14c-52 0 -92.333 -16.333 -121 -49s-43 -80.334 -43 -143.001c0 -62 14.333 -110 43 -144s69 -51 121 -51c22 0 44.833 4.33301 68.5 13s45.834 23 66.501 43l29 -57
c-20.667 -21.333 -46.334 -37.666 -77.001 -48.999s-61.334 -17 -92.001 -17zM258.001 551.002l103 202h87l-132 -202h-58z" />
    <glyph glyph-name="Ccircumflex" unicode="&#x108;" horiz-adv-x="684" 
d="M395 -9c-70.667 0 -130.667 14.666 -180 43.999s-87.166 71 -113.499 125s-39.5 118.333 -39.5 193s13.167 138.834 39.5 192.501s64.166 95.167 113.499 124.5s109.333 44 180 44c50 0 94.667 -7.66699 134 -23s73.666 -37.666 102.999 -66.999l-31 -66
c-32 28 -63.667 48.5 -95 61.5s-68 19.5 -110 19.5c-80.667 0 -142 -25 -184 -75s-63 -120.333 -63 -211c0 -60.667 9.33301 -112.5 28 -155.5s46.5 -75.667 83.5 -98s82.167 -33.5 135.5 -33.5c42 0 78.667 6.5 110 19.5s63 33.833 95 62.5l31 -67
c-29.333 -28.667 -63.666 -50.834 -102.999 -66.501s-84 -23.5 -134 -23.5zM231 764.999l123 172h76l123 -172h-61l-100 119l-100 -119h-61z" />
    <glyph glyph-name="ccircumflex" unicode="&#x109;" horiz-adv-x="495" 
d="M290 -9c-49.333 0 -92.165 10.6689 -128.498 32.002s-64.333 51.666 -84 90.999s-29.5 86 -29.5 140c0 54.667 10 101.167 30 139.5s48.167 67.5 84.5 87.5s78.833 30 127.5 30c32 0 63.167 -5.66699 93.5 -17s55.5 -27.333 75.5 -48l-29 -58
c-20 19.333 -41.833 33.666 -65.5 42.999s-46.834 14 -69.501 14c-52 0 -92.333 -16.333 -121 -49s-43 -80.334 -43 -143.001c0 -62 14.333 -110 43 -144s69 -51 121 -51c22 0 44.833 4.33301 68.5 13s45.834 23 66.501 43l29 -57
c-20.667 -21.333 -46.334 -37.666 -77.001 -48.999s-61.334 -17 -92.001 -17zM139.001 551.002l109 202h78l109 -202h-56l-92 148l-92 -148h-56z" />
    <glyph glyph-name="Cdotaccent" unicode="&#x10a;" horiz-adv-x="684" 
d="M395 -9c-70.667 0 -130.667 14.666 -180 43.999s-87.166 71 -113.499 125s-39.5 118.333 -39.5 193s13.167 138.834 39.5 192.501s64.166 95.167 113.499 124.5s109.333 44 180 44c50 0 94.667 -7.66699 134 -23s73.666 -37.666 102.999 -66.999l-31 -66
c-32 28 -63.667 48.5 -95 61.5s-68 19.5 -110 19.5c-80.667 0 -142 -25 -184 -75s-63 -120.333 -63 -211c0 -60.667 9.33301 -112.5 28 -155.5s46.5 -75.667 83.5 -98s82.167 -33.5 135.5 -33.5c42 0 78.667 6.5 110 19.5s63 33.833 95 62.5l31 -67
c-29.333 -28.667 -63.666 -50.834 -102.999 -66.501s-84 -23.5 -134 -23.5zM347 806.999v88h90v-88h-90z" />
    <glyph glyph-name="cdotaccent" unicode="&#x10b;" horiz-adv-x="495" 
d="M290 -9c-49.333 0 -92.165 10.6689 -128.498 32.002s-64.333 51.666 -84 90.999s-29.5 86 -29.5 140c0 54.667 10 101.167 30 139.5s48.167 67.5 84.5 87.5s78.833 30 127.5 30c32 0 63.167 -5.66699 93.5 -17s55.5 -27.333 75.5 -48l-29 -58
c-20 19.333 -41.833 33.666 -65.5 42.999s-46.834 14 -69.501 14c-52 0 -92.333 -16.333 -121 -49s-43 -80.334 -43 -143.001c0 -62 14.333 -110 43 -144s69 -51 121 -51c22 0 44.833 4.33301 68.5 13s45.834 23 66.501 43l29 -57
c-20.667 -21.333 -46.334 -37.666 -77.001 -48.999s-61.334 -17 -92.001 -17zM241.001 609.002v88h92v-88h-92z" />
    <glyph glyph-name="Ccaron" unicode="&#x10c;" horiz-adv-x="684" 
d="M395 -9c-70.667 0 -130.667 14.666 -180 43.999s-87.166 71 -113.499 125s-39.5 118.333 -39.5 193s13.167 138.834 39.5 192.501s64.166 95.167 113.499 124.5s109.333 44 180 44c50 0 94.667 -7.66699 134 -23s73.666 -37.666 102.999 -66.999l-31 -66
c-32 28 -63.667 48.5 -95 61.5s-68 19.5 -110 19.5c-80.667 0 -142 -25 -184 -75s-63 -120.333 -63 -211c0 -60.667 9.33301 -112.5 28 -155.5s46.5 -75.667 83.5 -98s82.167 -33.5 135.5 -33.5c42 0 78.667 6.5 110 19.5s63 33.833 95 62.5l31 -67
c-29.333 -28.667 -63.666 -50.834 -102.999 -66.501s-84 -23.5 -134 -23.5zM354 764.999l-123 172h61l100 -119l100 119h61l-123 -172h-76z" />
    <glyph glyph-name="ccaron" unicode="&#x10d;" horiz-adv-x="495" 
d="M290 -9c-49.333 0 -92.165 10.6689 -128.498 32.002s-64.333 51.666 -84 90.999s-29.5 86 -29.5 140c0 54.667 10 101.167 30 139.5s48.167 67.5 84.5 87.5s78.833 30 127.5 30c32 0 63.167 -5.66699 93.5 -17s55.5 -27.333 75.5 -48l-29 -58
c-20 19.333 -41.833 33.666 -65.5 42.999s-46.834 14 -69.501 14c-52 0 -92.333 -16.333 -121 -49s-43 -80.334 -43 -143.001c0 -62 14.333 -110 43 -144s69 -51 121 -51c22 0 44.833 4.33301 68.5 13s45.834 23 66.501 43l29 -57
c-20.667 -21.333 -46.334 -37.666 -77.001 -48.999s-61.334 -17 -92.001 -17zM248.001 551.002l-109 202h56l92 -148l92 148h56l-109 -202h-78z" />
    <glyph glyph-name="Dcaron" unicode="&#x10e;" horiz-adv-x="747" 
d="M88 0v705h234c78 0 144 -13.5 198 -40.5s95 -66.667 123 -119s42 -116.5 42 -192.5c0 -75.333 -14 -139.333 -42 -192s-69 -92.667 -123 -120s-120 -41 -198 -41h-234zM171 71l145 -0.000976562c96 0 167.333 23.5 214 70.5s70 117.5 70 211.5
c0 94.667 -23.333 165.334 -70 212.001s-118 70 -214 70h-145v-564zM342 764.999l-123 172h61l100 -119l100 119h61l-123 -172h-76z" />
    <glyph glyph-name="dcaron" unicode="&#x10f;" 
d="M269 -9c-44 0 -82.668 10.499 -116.001 31.499s-59.166 50.833 -77.499 89.5s-27.5 85 -27.5 139c0 54.667 9.16699 101.334 27.5 140.001s44.166 68.334 77.499 89.001s72 31 116 31c45.333 0 84.5 -11.333 117.5 -34s55.167 -53.334 66.5 -92.001h-12v351h81v-736h-80
v120h11c-10.667 -40 -32.667 -71.5 -66 -94.5s-72.666 -34.5 -117.999 -34.5zM285.999 56.999c47.333 0 85.333 16.5 114 49.5s43 81.167 43 144.5c0 64 -14.333 112.5 -43 145.5s-66.667 49.5 -114 49.5s-85.166 -16.5 -113.499 -49.5s-42.5 -81.5 -42.5 -145.5
c0 -63.333 14.167 -111.5 42.5 -144.5s66.166 -49.5 113.499 -49.5zM570.999 545.999v190h65l-23 -190h-42z" />
    <glyph glyph-name="Dcroat" unicode="&#x110;" horiz-adv-x="747" 
d="M88 0v705h234c78 0 144 -13.5 198 -40.5s95 -66.667 123 -119s42 -116.5 42 -192.5c0 -75.333 -14 -139.333 -42 -192s-69 -92.667 -123 -120s-120 -41 -198 -41h-234zM171 71l145 -0.000976562c96 0 167.333 23.5 214 70.5s70 117.5 70 211.5
c0 94.667 -23.333 165.334 -70 212.001s-118 70 -214 70h-145v-564zM2 325.999v64h367v-64h-367z" />
    <glyph glyph-name="dcroat" unicode="&#x111;" 
d="M269 -9c-44 0 -82.667 10.335 -116 31.002s-59.166 50.167 -77.499 88.5s-27.5 84.166 -27.5 137.499s9.16699 99 27.5 137s44.166 67.333 77.499 88s72 31 116 31c44.667 0 83.5 -11.333 116.5 -34s54.833 -53.334 65.5 -92.001h-11v204h-193v61h193v93h81v-93h95v-61
h-95v-582h-80v119h11c-11.333 -39.333 -33.333 -70.5 -66 -93.5s-71.667 -34.5 -117 -34.5zM286 57.002c46.667 0 84.334 16.167 113.001 48.5s43 79.833 43 142.5c0 62 -14.333 109.167 -43 141.5s-66.334 48.5 -113.001 48.5c-47.333 0 -85.166 -16.167 -113.499 -48.5
s-42.5 -79.5 -42.5 -141.5c0 -62.667 14.167 -110.167 42.5 -142.5s66.166 -48.5 113.499 -48.5z" />
    <glyph glyph-name="Emacron" unicode="&#x112;" horiz-adv-x="588" 
d="M88 0v705h450v-68h-369v-245h347v-69h-347v-254h369v-69h-450zM165 814v55h326v-55h-326z" />
    <glyph glyph-name="emacron" unicode="&#x113;" horiz-adv-x="544" 
d="M302 -9c-52 0 -97 10.168 -135 30.501s-67.333 50 -88 89s-31 85.5 -31 139.5c0 52.667 10 98.5 30 137.5s48 69.333 84 91s77.333 32.5 124 32.5c46 0 84.667 -9.66699 116 -29s55.333 -46.833 72 -82.5s25 -77.834 25 -126.501v-30h-389v51h336l-17 -13
c0 53.333 -12 95 -36 125s-59.667 45 -107 45c-34 0 -62.833 -8 -86.5 -24s-41.667 -38.333 -54 -67s-18.5 -63 -18.5 -103v-9c0 -62.667 15.5 -110.167 46.5 -142.5s74.5 -48.5 130.5 -48.5c30 0 58.167 4.5 84.5 13.5s51.5 23.833 75.5 44.5l28 -57
c-22 -21.333 -49.833 -37.833 -83.5 -49.5s-69.167 -17.5 -106.5 -17.5zM138 625.001v55h296v-55h-296z" />
    <glyph glyph-name="Ebreve" unicode="&#x114;" horiz-adv-x="588" 
d="M88 0v705h450v-68h-369v-245h347v-69h-347v-254h369v-69h-450zM328 760c-31.333 0 -59.167 6.83301 -83.5 20.5s-44 33 -59 58s-23.833 54.833 -26.5 89.5l51 7c3.33301 -38 15.333 -67.667 36 -89s48 -32 82 -32s61.5 10.667 82.5 32s32.833 51 35.5 89l51 -7
c-4 -52 -21.333 -93 -52 -123s-69.667 -45 -117 -45z" />
    <glyph glyph-name="ebreve" unicode="&#x115;" horiz-adv-x="544" 
d="M302 -9c-52 0 -97 10.168 -135 30.501s-67.333 50 -88 89s-31 85.5 -31 139.5c0 52.667 10 98.5 30 137.5s48 69.333 84 91s77.333 32.5 124 32.5c46 0 84.667 -9.66699 116 -29s55.333 -46.833 72 -82.5s25 -77.834 25 -126.501v-30h-389v51h336l-17 -13
c0 53.333 -12 95 -36 125s-59.667 45 -107 45c-34 0 -62.833 -8 -86.5 -24s-41.667 -38.333 -54 -67s-18.5 -63 -18.5 -103v-9c0 -62.667 15.5 -110.167 46.5 -142.5s74.5 -48.5 130.5 -48.5c30 0 58.167 4.5 84.5 13.5s51.5 23.833 75.5 44.5l28 -57
c-22 -21.333 -49.833 -37.833 -83.5 -49.5s-69.167 -17.5 -106.5 -17.5zM286 549.001c-30 0 -56.3359 7.66699 -79.0029 23s-40.334 37.166 -53.001 65.499s-20 62.166 -22 101.499l51 5c2.66699 -44.667 12.834 -79.167 30.501 -103.5s41.834 -36.5 72.501 -36.5
s54.834 12.167 72.501 36.5s27.834 58.833 30.501 103.5l51 -5c-1.33301 -39.333 -8.5 -73.166 -21.5 -101.499s-30.833 -50.166 -53.5 -65.499s-49 -23 -79 -23z" />
    <glyph glyph-name="Edotaccent" unicode="&#x116;" horiz-adv-x="588" 
d="M88 0v705h450v-68h-369v-245h347v-69h-347v-254h369v-69h-450zM283 807v88h90v-88h-90z" />
    <glyph glyph-name="edotaccent" unicode="&#x117;" horiz-adv-x="544" 
d="M302 -9c-52 0 -97 10.168 -135 30.501s-67.333 50 -88 89s-31 85.5 -31 139.5c0 52.667 10 98.5 30 137.5s48 69.333 84 91s77.333 32.5 124 32.5c46 0 84.667 -9.66699 116 -29s55.333 -46.833 72 -82.5s25 -77.834 25 -126.501v-30h-389v51h336l-17 -13
c0 53.333 -12 95 -36 125s-59.667 45 -107 45c-34 0 -62.833 -8 -86.5 -24s-41.667 -38.333 -54 -67s-18.5 -63 -18.5 -103v-9c0 -62.667 15.5 -110.167 46.5 -142.5s74.5 -48.5 130.5 -48.5c30 0 58.167 4.5 84.5 13.5s51.5 23.833 75.5 44.5l28 -57
c-22 -21.333 -49.833 -37.833 -83.5 -49.5s-69.167 -17.5 -106.5 -17.5zM240 609.001v88h92v-88h-92z" />
    <glyph glyph-name="Eogonek" unicode="&#x118;" horiz-adv-x="588" 
d="M88 0v705h450v-68h-369v-245h347v-69h-347v-254h369v-69h-450zM486 -192c-32 0 -57.667 8.66504 -77 25.998s-29 41 -29 71c0 26.667 8.66699 51.834 26 75.501s40.666 42.167 69.999 55.5l29 -36c-10.667 -4 -21.167 -10.167 -31.5 -18.5s-18.833 -18.166 -25.5 -29.499
s-10 -24 -10 -38c0 -18.667 5.66699 -32.667 17 -42s25 -14 41 -14c9.33301 0 18.333 1 27 3s17.667 5 27 9l14 -45c-9.33301 -5.33301 -20.666 -9.5 -33.999 -12.5s-28 -4.5 -44 -4.5z" />
    <glyph glyph-name="eogonek" unicode="&#x119;" horiz-adv-x="544" 
d="M302 -9c-52 0 -97 10.168 -135 30.501s-67.333 50 -88 89s-31 85.5 -31 139.5c0 52.667 10 98.5 30 137.5s48 69.333 84 91s77.333 32.5 124 32.5c46 0 84.667 -9.66699 116 -29s55.333 -46.833 72 -82.5s25 -77.834 25 -126.501v-30h-389v51h336l-17 -13
c0 53.333 -12 95 -36 125s-59.667 45 -107 45c-34 0 -62.833 -8 -86.5 -24s-41.667 -38.333 -54 -67s-18.5 -63 -18.5 -103v-9c0 -62.667 15.5 -110.167 46.5 -142.5s74.5 -48.5 130.5 -48.5c30 0 58.167 4.5 84.5 13.5s51.5 23.833 75.5 44.5l28 -57
c-22 -21.333 -49.833 -37.833 -83.5 -49.5s-69.167 -17.5 -106.5 -17.5zM350 -191.999c-32 0 -57.667 8.66504 -77 25.998s-29 41 -29 71c0 26.667 8.66699 51.834 26 75.501s40.666 42.167 69.999 55.5l29 -36c-10.667 -4 -21.167 -10.167 -31.5 -18.5
s-18.833 -18.166 -25.5 -29.499s-10 -24 -10 -38c0 -18.667 5.66699 -32.667 17 -42s25 -14 41 -14c9.33301 0 18.333 1 27 3s17.667 5 27 9l14 -45c-9.33301 -5.33301 -20.666 -9.5 -33.999 -12.5s-28 -4.5 -44 -4.5z" />
    <glyph glyph-name="Ecaron" unicode="&#x11a;" horiz-adv-x="588" 
d="M88 0v705h450v-68h-369v-245h347v-69h-347v-254h369v-69h-450zM290 765l-123 172h61l100 -119l100 119h61l-123 -172h-76z" />
    <glyph glyph-name="ecaron" unicode="&#x11b;" horiz-adv-x="544" 
d="M302 -9c-52 0 -97 10.168 -135 30.501s-67.333 50 -88 89s-31 85.5 -31 139.5c0 52.667 10 98.5 30 137.5s48 69.333 84 91s77.333 32.5 124 32.5c46 0 84.667 -9.66699 116 -29s55.333 -46.833 72 -82.5s25 -77.834 25 -126.501v-30h-389v51h336l-17 -13
c0 53.333 -12 95 -36 125s-59.667 45 -107 45c-34 0 -62.833 -8 -86.5 -24s-41.667 -38.333 -54 -67s-18.5 -63 -18.5 -103v-9c0 -62.667 15.5 -110.167 46.5 -142.5s74.5 -48.5 130.5 -48.5c30 0 58.167 4.5 84.5 13.5s51.5 23.833 75.5 44.5l28 -57
c-22 -21.333 -49.833 -37.833 -83.5 -49.5s-69.167 -17.5 -106.5 -17.5zM247 551.001l-109 202h56l92 -148l92 148h56l-109 -202h-78z" />
    <glyph glyph-name="Gcircumflex" unicode="&#x11c;" horiz-adv-x="731" 
d="M412 -9c-77.333 0 -142.001 14.334 -194.001 43.001s-91 70 -117 124s-39 118.667 -39 194c0 74.667 13.667 139 41 193s66.666 95.667 117.999 125s113.333 44 186 44c51.333 0 95.833 -7.5 133.5 -22.5s71.5 -37.167 101.5 -66.5l-31 -65
c-22 19.333 -43.167 34.666 -63.5 45.999s-41.5 19.833 -63.5 25.5s-47.667 8.5 -77 8.5c-83.333 0 -147.166 -25.167 -191.499 -75.5s-66.5 -121.5 -66.5 -213.5c0 -92.667 21.5 -163.667 64.5 -213s109.833 -74 200.5 -74c33.333 0 65.166 3.16699 95.499 9.5
s59.833 15.5 88.5 27.5l-18 -45v248h-180v65h251v-327c-18.667 -10 -41.167 -18.833 -67.5 -26.5s-54.166 -13.667 -83.499 -18s-58.666 -6.5 -87.999 -6.5zM238.999 765.001l123 172h76l123 -172h-61l-100 119l-100 -119h-61z" />
    <glyph glyph-name="gcircumflex" unicode="&#x11d;" horiz-adv-x="603" 
d="M300 -223c-43.333 0 -83.332 5.33594 -119.999 16.0029s-69.667 27 -99 49l24 61c20.667 -14.667 41 -26.334 61 -35.001s40.667 -15.167 62 -19.5s44 -6.5 68 -6.5c49.333 0 86.666 13 111.999 39s38 63 38 111v147h10c-10.667 -39.333 -32.667 -70.5 -66 -93.5
s-72.333 -34.5 -117 -34.5c-46 0 -85.833 10.167 -119.5 30.5s-59.667 49.333 -78 87s-27.5 82.167 -27.5 133.5c0 50.667 9.16699 94.667 27.5 132s44.333 66.166 78 86.499s73.5 30.5 119.5 30.5c45.333 0 84.5 -11.333 117.5 -34s54.833 -54 65.5 -94l-10 10l9 109h79
c-2.66699 -19.333 -4.66699 -38.833 -6 -58.5s-2 -38.834 -2 -57.501v-383c0 -74.667 -19.167 -131 -57.5 -169s-94.5 -57 -168.5 -57zM288.001 77.0029c48.667 0 87 16.167 115 48.5s42 77.833 42 136.5s-14 104 -42 136s-66.333 48 -115 48c-48 0 -86.333 -16 -115 -48
s-43 -77.333 -43 -136s14.333 -104.167 43 -136.5s67 -48.5 115 -48.5zM157.001 551.003l109 202h78l109 -202h-56l-92 148l-92 -148h-56z" />
    <glyph glyph-name="Gbreve" unicode="&#x11e;" horiz-adv-x="731" 
d="M412 -9c-77.333 0 -142.001 14.334 -194.001 43.001s-91 70 -117 124s-39 118.667 -39 194c0 74.667 13.667 139 41 193s66.666 95.667 117.999 125s113.333 44 186 44c51.333 0 95.833 -7.5 133.5 -22.5s71.5 -37.167 101.5 -66.5l-31 -65
c-22 19.333 -43.167 34.666 -63.5 45.999s-41.5 19.833 -63.5 25.5s-47.667 8.5 -77 8.5c-83.333 0 -147.166 -25.167 -191.499 -75.5s-66.5 -121.5 -66.5 -213.5c0 -92.667 21.5 -163.667 64.5 -213s109.833 -74 200.5 -74c33.333 0 65.166 3.16699 95.499 9.5
s59.833 15.5 88.5 27.5l-18 -45v248h-180v65h251v-327c-18.667 -10 -41.167 -18.833 -67.5 -26.5s-54.166 -13.667 -83.499 -18s-58.666 -6.5 -87.999 -6.5zM399.999 760.001c-31.333 0 -59.167 6.83301 -83.5 20.5s-44 33 -59 58s-23.833 54.833 -26.5 89.5l51 7
c3.33301 -38 15.333 -67.667 36 -89s48 -32 82 -32s61.5 10.667 82.5 32s32.833 51 35.5 89l51 -7c-4 -52 -21.333 -93 -52 -123s-69.667 -45 -117 -45z" />
    <glyph glyph-name="gbreve" unicode="&#x11f;" horiz-adv-x="603" 
d="M300 -223c-43.333 0 -83.332 5.33594 -119.999 16.0029s-69.667 27 -99 49l24 61c20.667 -14.667 41 -26.334 61 -35.001s40.667 -15.167 62 -19.5s44 -6.5 68 -6.5c49.333 0 86.666 13 111.999 39s38 63 38 111v147h10c-10.667 -39.333 -32.667 -70.5 -66 -93.5
s-72.333 -34.5 -117 -34.5c-46 0 -85.833 10.167 -119.5 30.5s-59.667 49.333 -78 87s-27.5 82.167 -27.5 133.5c0 50.667 9.16699 94.667 27.5 132s44.333 66.166 78 86.499s73.5 30.5 119.5 30.5c45.333 0 84.5 -11.333 117.5 -34s54.833 -54 65.5 -94l-10 10l9 109h79
c-2.66699 -19.333 -4.66699 -38.833 -6 -58.5s-2 -38.834 -2 -57.501v-383c0 -74.667 -19.167 -131 -57.5 -169s-94.5 -57 -168.5 -57zM288.001 77.0029c48.667 0 87 16.167 115 48.5s42 77.833 42 136.5s-14 104 -42 136s-66.333 48 -115 48c-48 0 -86.333 -16 -115 -48
s-43 -77.333 -43 -136s14.333 -104.167 43 -136.5s67 -48.5 115 -48.5zM305.001 549.003c-30 0 -56.3359 7.66699 -79.0029 23s-40.334 37.166 -53.001 65.499s-20 62.166 -22 101.499l51 5c2.66699 -44.667 12.834 -79.167 30.501 -103.5s41.834 -36.5 72.501 -36.5
s54.834 12.167 72.501 36.5s27.834 58.833 30.501 103.5l51 -5c-1.33301 -39.333 -8.5 -73.166 -21.5 -101.499s-30.833 -50.166 -53.5 -65.499s-49 -23 -79 -23z" />
    <glyph glyph-name="Gdotaccent" unicode="&#x120;" horiz-adv-x="731" 
d="M412 -9c-77.333 0 -142.001 14.334 -194.001 43.001s-91 70 -117 124s-39 118.667 -39 194c0 74.667 13.667 139 41 193s66.666 95.667 117.999 125s113.333 44 186 44c51.333 0 95.833 -7.5 133.5 -22.5s71.5 -37.167 101.5 -66.5l-31 -65
c-22 19.333 -43.167 34.666 -63.5 45.999s-41.5 19.833 -63.5 25.5s-47.667 8.5 -77 8.5c-83.333 0 -147.166 -25.167 -191.499 -75.5s-66.5 -121.5 -66.5 -213.5c0 -92.667 21.5 -163.667 64.5 -213s109.833 -74 200.5 -74c33.333 0 65.166 3.16699 95.499 9.5
s59.833 15.5 88.5 27.5l-18 -45v248h-180v65h251v-327c-18.667 -10 -41.167 -18.833 -67.5 -26.5s-54.166 -13.667 -83.499 -18s-58.666 -6.5 -87.999 -6.5zM354.999 807.001v88h90v-88h-90z" />
    <glyph glyph-name="gdotaccent" unicode="&#x121;" horiz-adv-x="603" 
d="M300 -223c-43.333 0 -83.332 5.33594 -119.999 16.0029s-69.667 27 -99 49l24 61c20.667 -14.667 41 -26.334 61 -35.001s40.667 -15.167 62 -19.5s44 -6.5 68 -6.5c49.333 0 86.666 13 111.999 39s38 63 38 111v147h10c-10.667 -39.333 -32.667 -70.5 -66 -93.5
s-72.333 -34.5 -117 -34.5c-46 0 -85.833 10.167 -119.5 30.5s-59.667 49.333 -78 87s-27.5 82.167 -27.5 133.5c0 50.667 9.16699 94.667 27.5 132s44.333 66.166 78 86.499s73.5 30.5 119.5 30.5c45.333 0 84.5 -11.333 117.5 -34s54.833 -54 65.5 -94l-10 10l9 109h79
c-2.66699 -19.333 -4.66699 -38.833 -6 -58.5s-2 -38.834 -2 -57.501v-383c0 -74.667 -19.167 -131 -57.5 -169s-94.5 -57 -168.5 -57zM288.001 77.0029c48.667 0 87 16.167 115 48.5s42 77.833 42 136.5s-14 104 -42 136s-66.333 48 -115 48c-48 0 -86.333 -16 -115 -48
s-43 -77.333 -43 -136s14.333 -104.167 43 -136.5s67 -48.5 115 -48.5zM259.001 609.003v88h92v-88h-92z" />
    <glyph glyph-name="uni0122" unicode="&#x122;" horiz-adv-x="731" 
d="M412 -9c-77.333 0 -142.001 14.334 -194.001 43.001s-91 70 -117 124s-39 118.667 -39 194c0 74.667 13.667 139 41 193s66.666 95.667 117.999 125s113.333 44 186 44c51.333 0 95.833 -7.5 133.5 -22.5s71.5 -37.167 101.5 -66.5l-31 -65
c-22 19.333 -43.167 34.666 -63.5 45.999s-41.5 19.833 -63.5 25.5s-47.667 8.5 -77 8.5c-83.333 0 -147.166 -25.167 -191.499 -75.5s-66.5 -121.5 -66.5 -213.5c0 -92.667 21.5 -163.667 64.5 -213s109.833 -74 200.5 -74c33.333 0 65.166 3.16699 95.499 9.5
s59.833 15.5 88.5 27.5l-18 -45v248h-180v65h251v-327c-18.667 -10 -41.167 -18.833 -67.5 -26.5s-54.166 -13.667 -83.499 -18s-58.666 -6.5 -87.999 -6.5zM409.999 -267.999l-36 26.001c15.333 16 25.5 31 30.5 45s7.5 29 7.5 45l21 -10h-70v82h99v-60
c0 -24.667 -4.16699 -47.834 -12.5 -69.501s-21.5 -41.167 -39.5 -58.5z" />
    <glyph glyph-name="uni0123" unicode="&#x123;" horiz-adv-x="603" 
d="M300 -223c-43.333 0 -83.332 5.33594 -119.999 16.0029s-69.667 27 -99 49l24 61c20.667 -14.667 41 -26.334 61 -35.001s40.667 -15.167 62 -19.5s44 -6.5 68 -6.5c49.333 0 86.666 13 111.999 39s38 63 38 111v147h10c-10.667 -39.333 -32.667 -70.5 -66 -93.5
s-72.333 -34.5 -117 -34.5c-46 0 -85.833 10.167 -119.5 30.5s-59.667 49.333 -78 87s-27.5 82.167 -27.5 133.5c0 50.667 9.16699 94.667 27.5 132s44.333 66.166 78 86.499s73.5 30.5 119.5 30.5c45.333 0 84.5 -11.333 117.5 -34s54.833 -54 65.5 -94l-10 10l9 109h79
c-2.66699 -19.333 -4.66699 -38.833 -6 -58.5s-2 -38.834 -2 -57.501v-383c0 -74.667 -19.167 -131 -57.5 -169s-94.5 -57 -168.5 -57zM288.001 77.0029c48.667 0 87 16.167 115 48.5s42 77.833 42 136.5s-14 104 -42 136s-66.333 48 -115 48c-48 0 -86.333 -16 -115 -48
s-43 -77.333 -43 -136s14.333 -104.167 43 -136.5s67 -48.5 115 -48.5zM255.001 567.003v60.002c0 25.333 4.33301 48.666 13 69.999s22 40.666 40 57.999l35 -25c-14.667 -16.667 -24.667 -32 -30 -46s-8 -29 -8 -45l-21 11h70v-83h-99z" />
    <glyph glyph-name="Hcircumflex" unicode="&#x124;" horiz-adv-x="766" 
d="M88 0v705h83v-312h425v312h82v-705h-82v322h-425v-322h-83zM223 765l123 172h76l123 -172h-61l-100 119l-100 -119h-61z" />
    <glyph glyph-name="hcircumflex" unicode="&#x125;" horiz-adv-x="586" 
d="M79 0l0.000976562 736.001h81v-345h-13c14 39.333 37.5 69.166 70.5 89.499s71.167 30.5 114.5 30.5c60 0 104.667 -16.167 134 -48.5s44 -81.166 44 -146.499v-316h-81v311c0 46.667 -9.16699 80.667 -27.5 102s-47.833 32 -88.5 32
c-46.667 0 -83.834 -14.333 -111.501 -43s-41.5 -66.334 -41.5 -113.001v-289h-81zM136.001 773.001l123 172h76l123 -172h-61l-100 119l-100 -119h-61z" />
    <glyph glyph-name="Hbar" unicode="&#x126;" horiz-adv-x="792" 
d="M102 0v519h-93v65h93v121h83v-121h423v121h83v-121h93v-65h-93v-519h-83v316h-423v-316h-83zM185 388h423v131h-423v-131z" />
    <glyph glyph-name="hbar" unicode="&#x127;" horiz-adv-x="586" 
d="M79 0l0.000976562 581.999h-96v61h96v93h81v-93h199v-61h-199v-195h-13c14 38.667 37.5 68.167 70.5 88.5s71.167 30.5 114.5 30.5c59.333 0 103.833 -16.167 133.5 -48.5s44.5 -81.166 44.5 -146.499v-311h-81v306c0 46.667 -9.33301 80.5 -28 101.5s-48 31.5 -88 31.5
c-46.667 0 -83.834 -14 -111.501 -42s-41.5 -65.667 -41.5 -113v-284h-81z" />
    <glyph glyph-name="Itilde" unicode="&#x128;" horiz-adv-x="259" 
d="M88 0v705h83v-705h-83zM-34 783l-46.0029 3c4 42.667 16.833 75.5 38.5 98.5s48.834 34.5 81.501 34.5c15.333 0 30.833 -3.16699 46.5 -9.5s34.5 -16.833 56.5 -31.5c20.667 -12.667 36.334 -21.667 47.001 -27s21 -8 31 -8c20 0 35.667 6.83301 47 20.5
s19.333 33.167 24 58.5l46 -3c-4 -42.667 -16.667 -75.5 -38 -98.5s-48.333 -34.5 -81 -34.5c-15.333 0 -31 3.33301 -47 10s-36 17.667 -60 33c-18 12 -32.667 20.5 -44 25.5s-21.666 7.5 -30.999 7.5c-20 0 -35.667 -6.83301 -47 -20.5s-19.333 -33.167 -24 -58.5z" />
    <glyph glyph-name="itilde" unicode="&#x129;" horiz-adv-x="238" 
d="M79 0v502h81v-502h-81zM-15 590l-45.999 2.99902c3.33301 42.667 14.666 75.5 33.999 98.5s43.666 34.5 72.999 34.5c14.667 0 28.167 -3.33301 40.5 -10s26.5 -17 42.5 -31c14.667 -13.333 26.5 -22.5 35.5 -27.5s17.833 -7.5 26.5 -7.5c34 0 54.667 26.333 62 79l46 -3
c-3.33301 -42.667 -14.5 -75.5 -33.5 -98.5s-43.167 -34.5 -72.5 -34.5c-14 0 -27.333 3.33301 -40 10s-27.334 17.334 -44.001 32.001c-14 12.667 -25.5 21.5 -34.5 26.5s-18.167 7.5 -27.5 7.5c-17.333 0 -31.166 -6.83301 -41.499 -20.5s-17.166 -33.167 -20.499 -58.5z
" />
    <glyph glyph-name="Imacron" unicode="&#x12a;" horiz-adv-x="259" 
d="M88 0v705h83v-705h-83zM-34 814v55h326v-55h-326z" />
    <glyph glyph-name="imacron" unicode="&#x12b;" horiz-adv-x="238" 
d="M79 0v502h81v-502h-81zM-29 625v55h296v-55h-296z" />
    <glyph glyph-name="Ibreve" unicode="&#x12c;" horiz-adv-x="259" 
d="M88 0v705h83v-705h-83zM129 760c-31.333 0 -59.167 6.83301 -83.5 20.5s-44 33 -59 58s-23.833 54.833 -26.5 89.5l51 7c3.33301 -38 15.333 -67.667 36 -89s48 -32 82 -32s61.5 10.667 82.5 32s32.833 51 35.5 89l51 -7c-4 -52 -21.333 -93 -52 -123
s-69.667 -45 -117 -45z" />
    <glyph glyph-name="ibreve" unicode="&#x12d;" horiz-adv-x="238" 
d="M79 0v502h81v-502h-81zM119 549c-30 0 -56.3359 7.66699 -79.0029 23s-40.334 37.166 -53.001 65.499s-20 62.166 -22 101.499l51 5c2.66699 -44.667 12.834 -79.167 30.501 -103.5s41.834 -36.5 72.501 -36.5s54.834 12.167 72.501 36.5s27.834 58.833 30.501 103.5
l51 -5c-1.33301 -39.333 -8.5 -73.166 -21.5 -101.499s-30.833 -50.166 -53.5 -65.499s-49 -23 -79 -23z" />
    <glyph glyph-name="Iogonek" unicode="&#x12e;" horiz-adv-x="259" 
d="M88 0v705h83v-705h-83zM139 -192c-32 0 -57.667 8.66504 -77 25.998s-29 41 -29 71c0 26.667 8.66699 51.834 26 75.501s40.666 42.167 69.999 55.5l29 -36c-10.667 -4 -21.167 -10.167 -31.5 -18.5s-18.833 -18.166 -25.5 -29.499s-10 -24 -10 -38
c0 -18.667 5.66699 -32.667 17 -42s25 -14 41 -14c9.33301 0 18.333 1 27 3s17.667 5 27 9l14 -45c-9.33301 -5.33301 -20.666 -9.5 -33.999 -12.5s-28 -4.5 -44 -4.5z" />
    <glyph glyph-name="iogonek" unicode="&#x12f;" horiz-adv-x="238" 
d="M79 0v502h81v-502h-81zM69 607v91h100v-91h-100zM129 -192c-32 0 -57.667 8.66504 -77 25.998s-29 41 -29 71c0 26.667 8.66699 51.834 26 75.501s40.666 42.167 69.999 55.5l29 -36c-10.667 -4 -21.167 -10.167 -31.5 -18.5s-18.833 -18.166 -25.5 -29.499
s-10 -24 -10 -38c0 -18.667 5.66699 -32.667 17 -42s25 -14 41 -14c9.33301 0 18.333 1 27 3s17.667 5 27 9l14 -45c-9.33301 -5.33301 -20.666 -9.5 -33.999 -12.5s-28 -4.5 -44 -4.5z" />
    <glyph glyph-name="Idotaccent" unicode="&#x130;" horiz-adv-x="259" 
d="M88 0v705h83v-705h-83zM84 807v88h90v-88h-90z" />
    <glyph glyph-name="dotlessi" unicode="&#x131;" horiz-adv-x="238" 
d="M79 0v502h81v-502h-81z" />
    <glyph glyph-name="IJ" unicode="&#x132;" horiz-adv-x="588" 
d="M88 0v705h83v-705h-83zM338 -186c-10.667 0 -22.832 0.500977 -36.499 1.50098s-27.5 3.16699 -41.5 6.5v69c12.667 -2.66699 24.5 -4.83398 35.5 -6.50098s20.833 -2.5 29.5 -2.5c30.667 0 53.667 9.5 69 28.5s23 49.167 23 90.5v704h83v-705
c0 -40 -5.83301 -74 -17.5 -102s-29.334 -49 -53.001 -63s-54.167 -21 -91.5 -21z" />
    <glyph glyph-name="Jcircumflex" unicode="&#x134;" horiz-adv-x="329" 
d="M79 -186c-10.667 0 -22.832 0.500977 -36.499 1.50098s-27.5 3.16699 -41.5 6.5v69c12.667 -2.66699 24.5 -4.83398 35.5 -6.50098s20.833 -2.5 29.5 -2.5c30.667 0 53.667 9.5 69 28.5s23 49.167 23 90.5v704h83v-705c0 -40 -5.83301 -74 -17.5 -102
s-29.334 -49 -53.001 -63s-54.167 -21 -91.5 -21zM39.002 765.001l123 172h76l123 -172h-61l-100 119l-100 -119h-61z" />
    <glyph glyph-name="jcircumflex" unicode="&#x135;" horiz-adv-x="238" 
d="M14 -220c-10 0 -21.834 1.16699 -35.501 3.5s-25.167 5.16602 -34.5 8.49902v68c8 -2.66699 17.333 -5.16699 28 -7.5s20.334 -3.5 29.001 -3.5c28 0 49 8.83301 63 26.5s21 46.5 21 86.5v540h81v-548c0 -57.333 -12.667 -100.666 -38 -129.999s-63.333 -44 -114 -44z
M-23.001 551l109 202h78l109 -202h-56l-92 148l-92 -148h-56z" />
    <glyph glyph-name="uni0136" unicode="&#x136;" horiz-adv-x="634" 
d="M88 0v705h83v-320h2l338 320h106l-389 -364l1 42l416 -383h-109l-363 332h-2v-332h-83zM320 -268l-36 26.001c15.333 16 25.5 31 30.5 45s7.5 29 7.5 45l21 -10h-70v82h99v-60c0 -24.667 -4.16699 -47.834 -12.5 -69.501s-21.5 -41.167 -39.5 -58.5z" />
    <glyph glyph-name="uni0137" unicode="&#x137;" horiz-adv-x="515" 
d="M79 0v736h81v-457h2l233 223h102l-275 -262l2 41l299 -281h-105l-256 236h-2v-236h-81zM254 -268l-36 26.001c15.333 16 25.5 31 30.5 45s7.5 29 7.5 45l21 -10h-70v82h99v-60c0 -24.667 -4.16699 -47.834 -12.5 -69.501s-21.5 -41.167 -39.5 -58.5z" />
    <glyph glyph-name="kgreenlandic" unicode="&#x138;" horiz-adv-x="515" 
d="M79 0v502h81v-223h2l233 223h102l-275 -262l2 41l299 -281h-105l-256 236h-2v-236h-81z" />
    <glyph glyph-name="Lacute" unicode="&#x139;" horiz-adv-x="545" 
d="M88 0v705h83v-633h356v-72h-439zM98 765l118 172h91l-147 -172h-62z" />
    <glyph glyph-name="lacute" unicode="&#x13a;" horiz-adv-x="238" 
d="M79 0v736h81v-736h-81zM88 773l118 172h91l-147 -172h-62z" />
    <glyph glyph-name="uni013B" unicode="&#x13b;" horiz-adv-x="545" 
d="M88 0v705h83v-633h356v-72h-439zM305 -268l-36 26.001c15.333 16 25.5 31 30.5 45s7.5 29 7.5 45l21 -10h-70v82h99v-60c0 -24.667 -4.16699 -47.834 -12.5 -69.501s-21.5 -41.167 -39.5 -58.5z" />
    <glyph glyph-name="uni013C" unicode="&#x13c;" horiz-adv-x="238" 
d="M79 0v736h81v-736h-81zM116 -268l-36 26.001c15.333 16 25.5 31 30.5 45s7.5 29 7.5 45l21 -10h-70v82h99v-60c0 -24.667 -4.16699 -47.834 -12.5 -69.501s-21.5 -41.167 -39.5 -58.5z" />
    <glyph glyph-name="Lcaron" unicode="&#x13d;" horiz-adv-x="545" 
d="M88 0v705h83v-633h356v-72h-439zM282 480v225h72l-21 -225h-51z" />
    <glyph glyph-name="lcaron" unicode="&#x13e;" horiz-adv-x="238" 
d="M79 0v736h81v-736h-81zM207 546v190h65l-23 -190h-42z" />
    <glyph glyph-name="Ldot" unicode="&#x13f;" horiz-adv-x="545" 
d="M88 0v705h83v-633h356v-72h-439zM355 342v94h102v-94h-102z" />
    <glyph glyph-name="ldot" unicode="&#x140;" horiz-adv-x="238" 
d="M79 0v736h81v-736h-81zM214 308v94h102v-94h-102z" />
    <glyph glyph-name="Lslash" unicode="&#x141;" horiz-adv-x="545" 
d="M88 0v705h83v-633h356v-72h-439zM12 254l-33 58l360 207l33 -58z" />
    <glyph glyph-name="lslash" unicode="&#x142;" horiz-adv-x="238" 
d="M79 0v736h81v-736h-81zM4 257l-33 57l263 154l33 -57z" />
    <glyph glyph-name="Nacute" unicode="&#x143;" horiz-adv-x="747" 
d="M88 0v705h65l452 -600h-23v600h77v-705h-64l-452 600h22v-600h-77zM344 765l118 172h91l-147 -172h-62z" />
    <glyph glyph-name="nacute" unicode="&#x144;" horiz-adv-x="586" 
d="M79 0l0.000976562 385.999c0 18.667 -0.833008 37.834 -2.5 57.501s-3.5 39.167 -5.5 58.5h78l10 -110h-12c14.667 38.667 38.167 68.167 70.5 88.5s69.833 30.5 112.5 30.5c59.333 0 104.166 -15.833 134.499 -47.5s45.5 -81.5 45.5 -149.5v-314h-81v309
c0 47.333 -9.5 81.833 -28.5 103.5s-48.5 32.5 -88.5 32.5c-46.667 0 -83.667 -14.333 -111 -43s-41 -67 -41 -115v-287h-81zM263.001 550.999l103 202h87l-132 -202h-58z" />
    <glyph glyph-name="uni0145" unicode="&#x145;" horiz-adv-x="747" 
d="M88 0v705h65l452 -600h-23v600h77v-705h-64l-452 600h22v-600h-77zM372 -268l-36 26.001c15.333 16 25.5 31 30.5 45s7.5 29 7.5 45l21 -10h-70v82h99v-60c0 -24.667 -4.16699 -47.834 -12.5 -69.501s-21.5 -41.167 -39.5 -58.5z" />
    <glyph glyph-name="uni0146" unicode="&#x146;" horiz-adv-x="586" 
d="M79 0l0.000976562 385.999c0 18.667 -0.833008 37.834 -2.5 57.501s-3.5 39.167 -5.5 58.5h78l10 -110h-12c14.667 38.667 38.167 68.167 70.5 88.5s69.833 30.5 112.5 30.5c59.333 0 104.166 -15.833 134.499 -47.5s45.5 -81.5 45.5 -149.5v-314h-81v309
c0 47.333 -9.5 81.833 -28.5 103.5s-48.5 32.5 -88.5 32.5c-46.667 0 -83.667 -14.333 -111 -43s-41 -67 -41 -115v-287h-81zM289.001 -268.001l-36 26.001c15.333 16 25.5 31 30.5 45s7.5 29 7.5 45l21 -10h-70v82h99v-60c0 -24.667 -4.16699 -47.834 -12.5 -69.501
s-21.5 -41.167 -39.5 -58.5z" />
    <glyph glyph-name="Ncaron" unicode="&#x147;" horiz-adv-x="747" 
d="M88 0v705h65l452 -600h-23v600h77v-705h-64l-452 600h22v-600h-77zM337 765l-123 172h61l100 -119l100 119h61l-123 -172h-76z" />
    <glyph glyph-name="ncaron" unicode="&#x148;" horiz-adv-x="586" 
d="M79 0l0.000976562 385.999c0 18.667 -0.833008 37.834 -2.5 57.501s-3.5 39.167 -5.5 58.5h78l10 -110h-12c14.667 38.667 38.167 68.167 70.5 88.5s69.833 30.5 112.5 30.5c59.333 0 104.166 -15.833 134.499 -47.5s45.5 -81.5 45.5 -149.5v-314h-81v309
c0 47.333 -9.5 81.833 -28.5 103.5s-48.5 32.5 -88.5 32.5c-46.667 0 -83.667 -14.333 -111 -43s-41 -67 -41 -115v-287h-81zM253.001 550.999l-109 202h56l92 -148l92 148h56l-109 -202h-78z" />
    <glyph glyph-name="napostrophe" unicode="&#x149;" horiz-adv-x="675" 
d="M119 571l-36 25.998c14.667 14.667 24.167 28.834 28.5 42.501s6.5 26.834 6.5 39.501l23 -10h-70v86h98v-60c0 -24 -3.5 -46.167 -10.5 -66.5s-20.167 -39.5 -39.5 -57.5zM168 -0.00195312l0.000976562 385.999c0 18.667 -0.833008 37.834 -2.5 57.501
s-3.5 39.167 -5.5 58.5h78l10 -110h-12c14.667 38.667 38.167 68.167 70.5 88.5s69.833 30.5 112.5 30.5c59.333 0 104.166 -15.833 134.499 -47.5s45.5 -81.5 45.5 -149.5v-314h-81v309c0 47.333 -9.5 81.833 -28.5 103.5s-48.5 32.5 -88.5 32.5
c-46.667 0 -83.667 -14.333 -111 -43s-41 -67 -41 -115v-287h-81z" />
    <glyph glyph-name="Eng" unicode="&#x14a;" horiz-adv-x="747" 
d="M443 -193l-6.00098 63.001l46 4c32 2 56.5 12.5 73.5 31.5s25.5 45.5 25.5 79.5v53l13 -38l-452 600h22v-600h-77v705h65l452 -600h-23v600h77v-711c0 -38.667 -6.16699 -71.334 -18.5 -98.001s-31.166 -47 -56.499 -61s-57.333 -22.333 -96 -25z" />
    <glyph glyph-name="eng" unicode="&#x14b;" horiz-adv-x="586" 
d="M79 0l-0.00195312 386.001c0 18.667 -0.833008 37.834 -2.5 57.501s-3.5 39.167 -5.5 58.5h78l10 -110h-12c14.667 38.667 38.334 68.167 71.001 88.5s70.334 30.5 113.001 30.5c59.333 0 104 -15.833 134 -47.5s45 -81.5 45 -149.5v-356
c0 -56.667 -13.667 -100.5 -41 -131.5s-68 -46.5 -122 -46.5c-12.667 0 -25 1.16699 -37 3.5s-23 5.16602 -33 8.49902v68c8.66699 -2.66699 17.334 -5.16699 26.001 -7.5s19 -3.5 31 -3.5c31.333 0 55 9.66699 71 29s24 48.666 24 87.999v343
c0 47.333 -9.33301 81.833 -28 103.5s-48 32.5 -88 32.5c-46.667 0 -83.834 -14.333 -111.501 -43s-41.5 -67 -41.5 -115v-287h-81z" />
    <glyph glyph-name="Omacron" unicode="&#x14c;" horiz-adv-x="772" 
d="M62 353c0 74.667 12.833 138.833 38.5 192.5s62.667 95.167 111 124.5s106.5 44 174.5 44c66 0 123.333 -14.667 172 -44s86.167 -70.833 112.5 -124.5s39.5 -117.5 39.5 -191.5c0 -74.667 -13.333 -139 -40 -193s-64.167 -95.833 -112.5 -125.5
s-105.5 -44.5 -171.5 -44.5c-68 0 -126 14.833 -174 44.5s-85 71.5 -111 125.5s-39 118 -39 192zM149 352.999c0 -60.667 9 -112.502 27 -155.502s44.667 -76 80 -99s78.666 -34.5 129.999 -34.5c74.667 0 132.834 25.5 174.501 76.5s62.5 121.833 62.5 212.5
c0 61.333 -9.33301 113.333 -28 156s-45.667 75.334 -81 98.001s-78 34 -128 34c-78 0 -137 -25.167 -177 -75.5s-60 -121.166 -60 -212.499zM223 813.997v55h326v-55h-326z" />
    <glyph glyph-name="omacron" unicode="&#x14d;" horiz-adv-x="571" 
d="M285 -9c-48 0 -89.833 10.5 -125.5 31.5s-63.167 51 -82.5 90s-29 85.167 -29 138.5c0 54 9.66699 100.333 29 139s46.833 68.5 82.5 89.5s77.5 31.5 125.5 31.5c48.667 0 90.834 -10.5 126.501 -31.5s63.334 -50.833 83.001 -89.5s29.5 -85 29.5 -139
c0 -53.333 -9.83301 -99.5 -29.5 -138.5s-47.334 -69 -83.001 -90s-77.834 -31.5 -126.501 -31.5zM285 57c48 0 86 16.5 114 49.5s42 81.167 42 144.5c0 64 -14 112.5 -42 145.5s-66 49.5 -114 49.5c-47.333 0 -85 -16.5 -113 -49.5s-42 -81.5 -42 -145.5
c0 -63.333 14 -111.5 42 -144.5s65.667 -49.5 113 -49.5zM138 625v55h296v-55h-296z" />
    <glyph glyph-name="Obreve" unicode="&#x14e;" horiz-adv-x="772" 
d="M62 353c0 74.667 12.833 138.833 38.5 192.5s62.667 95.167 111 124.5s106.5 44 174.5 44c66 0 123.333 -14.667 172 -44s86.167 -70.833 112.5 -124.5s39.5 -117.5 39.5 -191.5c0 -74.667 -13.333 -139 -40 -193s-64.167 -95.833 -112.5 -125.5
s-105.5 -44.5 -171.5 -44.5c-68 0 -126 14.833 -174 44.5s-85 71.5 -111 125.5s-39 118 -39 192zM149 352.999c0 -60.667 9 -112.502 27 -155.502s44.667 -76 80 -99s78.666 -34.5 129.999 -34.5c74.667 0 132.834 25.5 174.501 76.5s62.5 121.833 62.5 212.5
c0 61.333 -9.33301 113.333 -28 156s-45.667 75.334 -81 98.001s-78 34 -128 34c-78 0 -137 -25.167 -177 -75.5s-60 -121.166 -60 -212.499zM386 759.997c-31.333 0 -59.167 6.83301 -83.5 20.5s-44 33 -59 58s-23.833 54.833 -26.5 89.5l51 7
c3.33301 -38 15.333 -67.667 36 -89s48 -32 82 -32s61.5 10.667 82.5 32s32.833 51 35.5 89l51 -7c-4 -52 -21.333 -93 -52 -123s-69.667 -45 -117 -45z" />
    <glyph glyph-name="obreve" unicode="&#x14f;" horiz-adv-x="571" 
d="M285 -9c-48 0 -89.833 10.5 -125.5 31.5s-63.167 51 -82.5 90s-29 85.167 -29 138.5c0 54 9.66699 100.333 29 139s46.833 68.5 82.5 89.5s77.5 31.5 125.5 31.5c48.667 0 90.834 -10.5 126.501 -31.5s63.334 -50.833 83.001 -89.5s29.5 -85 29.5 -139
c0 -53.333 -9.83301 -99.5 -29.5 -138.5s-47.334 -69 -83.001 -90s-77.834 -31.5 -126.501 -31.5zM285 57c48 0 86 16.5 114 49.5s42 81.167 42 144.5c0 64 -14 112.5 -42 145.5s-66 49.5 -114 49.5c-47.333 0 -85 -16.5 -113 -49.5s-42 -81.5 -42 -145.5
c0 -63.333 14 -111.5 42 -144.5s65.667 -49.5 113 -49.5zM286 549c-30 0 -56.3359 7.66699 -79.0029 23s-40.334 37.166 -53.001 65.499s-20 62.166 -22 101.499l51 5c2.66699 -44.667 12.834 -79.167 30.501 -103.5s41.834 -36.5 72.501 -36.5s54.834 12.167 72.501 36.5
s27.834 58.833 30.501 103.5l51 -5c-1.33301 -39.333 -8.5 -73.166 -21.5 -101.499s-30.833 -50.166 -53.5 -65.499s-49 -23 -79 -23z" />
    <glyph glyph-name="Ohungarumlaut" unicode="&#x150;" horiz-adv-x="772" 
d="M62 353c0 74.667 12.833 138.833 38.5 192.5s62.667 95.167 111 124.5s106.5 44 174.5 44c66 0 123.333 -14.667 172 -44s86.167 -70.833 112.5 -124.5s39.5 -117.5 39.5 -191.5c0 -74.667 -13.333 -139 -40 -193s-64.167 -95.833 -112.5 -125.5
s-105.5 -44.5 -171.5 -44.5c-68 0 -126 14.833 -174 44.5s-85 71.5 -111 125.5s-39 118 -39 192zM149 352.999c0 -60.667 9 -112.502 27 -155.502s44.667 -76 80 -99s78.666 -34.5 129.999 -34.5c74.667 0 132.834 25.5 174.501 76.5s62.5 121.833 62.5 212.5
c0 61.333 -9.33301 113.333 -28 156s-45.667 75.334 -81 98.001s-78 34 -128 34c-78 0 -137 -25.167 -177 -75.5s-60 -121.166 -60 -212.499zM299 764.997l85 172h81l-119 -172h-47zM426 764.997l89 172h80l-122 -172h-47z" />
    <glyph glyph-name="ohungarumlaut" unicode="&#x151;" horiz-adv-x="571" 
d="M285 -9c-48 0 -89.833 10.5 -125.5 31.5s-63.167 51 -82.5 90s-29 85.167 -29 138.5c0 54 9.66699 100.333 29 139s46.833 68.5 82.5 89.5s77.5 31.5 125.5 31.5c48.667 0 90.834 -10.5 126.501 -31.5s63.334 -50.833 83.001 -89.5s29.5 -85 29.5 -139
c0 -53.333 -9.83301 -99.5 -29.5 -138.5s-47.334 -69 -83.001 -90s-77.834 -31.5 -126.501 -31.5zM285 57c48 0 86 16.5 114 49.5s42 81.167 42 144.5c0 64 -14 112.5 -42 145.5s-66 49.5 -114 49.5c-47.333 0 -85 -16.5 -113 -49.5s-42 -81.5 -42 -145.5
c0 -63.333 14 -111.5 42 -144.5s65.667 -49.5 113 -49.5zM327 551l53 202h75l-83 -202h-45zM199 551l54 202h75l-84 -202h-45z" />
    <glyph glyph-name="OE" unicode="&#x152;" horiz-adv-x="1056" 
d="M559 0v705h447v-68h-366v-245h345v-69h-345v-254h366v-69h-447zM381 -9c-66.667 0 -123.832 14.8311 -171.499 44.498s-84.167 71.5 -109.5 125.5s-38 118 -38 192c0 74.667 12.5 138.834 37.5 192.501s61.333 95.167 109 124.5s105.167 44 172.5 44
c38 0 73.667 -4.33301 107 -13s62 -24 86 -46v-96c-19.333 30 -45 51.167 -77 63.5s-69 18.5 -111 18.5c-78 0 -137 -25.167 -177 -75.5s-60 -121.166 -60 -212.499c0 -60.667 9 -112.5 27 -155.5s44.667 -76 80 -99s78.666 -34.5 129.999 -34.5
c43.333 0 81.333 7.33301 114 22s58.667 37.667 78 69v-95c-16 -15.333 -34.333 -28 -55 -38s-43 -17.667 -67 -23s-49 -8 -75 -8z" />
    <glyph glyph-name="oe" unicode="&#x153;" horiz-adv-x="934" 
d="M285 -9c-48 0 -89.834 10.499 -125.501 31.499s-63.167 51 -82.5 90s-29 85.5 -29 139.5c0 53.333 9.66699 99.5 29 138.5s46.833 68.833 82.5 89.5s77.5 31 125.5 31c52 0 96.167 -13.167 132.5 -39.5s62.166 -64.5 77.499 -114.5h-25
c11.333 33.333 26.833 61.333 46.5 84s43.5 40 71.5 52s58.667 18 92 18c43.333 0 80.5 -9.5 111.5 -28.5s55 -46.167 72 -81.5s25.5 -77.666 25.5 -126.999v-30h-385v51h332l-18 -12c0 52.667 -12 93.834 -36 123.501s-58.667 44.5 -104 44.5c-32.667 0 -60.5 -8 -83.5 -24
s-40.667 -38.333 -53 -67s-18.5 -62.667 -18.5 -102v-6c0 -64.667 15 -113.334 45 -146.001s73.333 -49 130 -49c28 0 54.833 4.66699 80.5 14s50.5 24 74.5 44l29 -57c-14.667 -14.667 -32.167 -27 -52.5 -37s-41.666 -17.5 -63.999 -22.5s-44.166 -7.5 -65.499 -7.5
c-59.333 0 -108.5 13.333 -147.5 40s-66.5 65 -82.5 115h24c-15.333 -50 -41 -88.333 -77 -115s-80 -40 -132 -40zM285.999 56.999c48 0 86 16.5 114 49.5s42 81.167 42 144.5c0 64 -14 112.5 -42 145.5s-66 49.5 -114 49.5c-47.333 0 -85.166 -16.5 -113.499 -49.5
s-42.5 -81.5 -42.5 -145.5c0 -63.333 14.167 -111.5 42.5 -144.5s66.166 -49.5 113.499 -49.5z" />
    <glyph glyph-name="Racute" unicode="&#x154;" horiz-adv-x="692" 
d="M88 0l-0.000976562 704.999h288c74 0 131.333 -17.5 172 -52.5s61 -83.833 61 -146.5c0 -41.333 -9.16699 -76.5 -27.5 -105.5s-44 -51.167 -77 -66.5s-71.5 -23 -115.5 -23l18 13h20c27.333 0 51.833 -6.66699 73.5 -20s38.834 -35.666 51.501 -66.999l100 -237h-91
l-96 233c-11.333 30 -28.333 49.5 -51 58.5s-51 13.5 -85 13.5h-158v-305h-83zM170.999 369.999h193c53.333 0 93.833 11.5 121.5 34.5s41.5 56.167 41.5 99.5s-13.833 76.333 -41.5 99s-68.167 34 -121.5 34h-193v-267zM314.999 764.999l118 172h91l-147 -172h-62z" />
    <glyph glyph-name="racute" unicode="&#x155;" horiz-adv-x="363" 
d="M77 0l-0.00390625 381.001c0 20 -0.5 40.333 -1.5 61s-2.5 40.667 -4.5 60h78l10 -122l-14 -1c6.66699 30 18.334 54.667 35.001 74s36.334 33.833 59.001 43.5s46.334 14.5 71.001 14.5c10 0 18.833 -0.333008 26.5 -1s14.834 -2.33398 21.501 -5.00098l-1 -72
c-10 3.33301 -19.167 5.5 -27.5 6.5s-17.833 1.5 -28.5 1.5c-29.333 0 -54.833 -7 -76.5 -21s-38 -32 -49 -54s-16.5 -45.333 -16.5 -70v-296h-82zM193.996 551.001l103 202h87l-132 -202h-58z" />
    <glyph glyph-name="uni0156" unicode="&#x156;" horiz-adv-x="692" 
d="M88 0l-0.000976562 704.999h288c74 0 131.333 -17.5 172 -52.5s61 -83.833 61 -146.5c0 -41.333 -9.16699 -76.5 -27.5 -105.5s-44 -51.167 -77 -66.5s-71.5 -23 -115.5 -23l18 13h20c27.333 0 51.833 -6.66699 73.5 -20s38.834 -35.666 51.501 -66.999l100 -237h-91
l-96 233c-11.333 30 -28.333 49.5 -51 58.5s-51 13.5 -85 13.5h-158v-305h-83zM170.999 369.999h193c53.333 0 93.833 11.5 121.5 34.5s41.5 56.167 41.5 99.5s-13.833 76.333 -41.5 99s-68.167 34 -121.5 34h-193v-267zM342.999 -268.001l-36 26.001
c15.333 16 25.5 31 30.5 45s7.5 29 7.5 45l21 -10h-70v82h99v-60c0 -24.667 -4.16699 -47.834 -12.5 -69.501s-21.5 -41.167 -39.5 -58.5z" />
    <glyph glyph-name="uni0157" unicode="&#x157;" horiz-adv-x="363" 
d="M77 0l-0.00390625 381.001c0 20 -0.5 40.333 -1.5 61s-2.5 40.667 -4.5 60h78l10 -122l-14 -1c6.66699 30 18.334 54.667 35.001 74s36.334 33.833 59.001 43.5s46.334 14.5 71.001 14.5c10 0 18.833 -0.333008 26.5 -1s14.834 -2.33398 21.501 -5.00098l-1 -72
c-10 3.33301 -19.167 5.5 -27.5 6.5s-17.833 1.5 -28.5 1.5c-29.333 0 -54.833 -7 -76.5 -21s-38 -32 -49 -54s-16.5 -45.333 -16.5 -70v-296h-82zM114.996 -267.999l-36 26.001c15.333 16 25.5 31 30.5 45s7.5 29 7.5 45l21 -10h-70v82h99v-60
c0 -24.667 -4.16699 -47.834 -12.5 -69.501s-21.5 -41.167 -39.5 -58.5z" />
    <glyph glyph-name="Rcaron" unicode="&#x158;" horiz-adv-x="692" 
d="M88 0l-0.000976562 704.999h288c74 0 131.333 -17.5 172 -52.5s61 -83.833 61 -146.5c0 -41.333 -9.16699 -76.5 -27.5 -105.5s-44 -51.167 -77 -66.5s-71.5 -23 -115.5 -23l18 13h20c27.333 0 51.833 -6.66699 73.5 -20s38.834 -35.666 51.501 -66.999l100 -237h-91
l-96 233c-11.333 30 -28.333 49.5 -51 58.5s-51 13.5 -85 13.5h-158v-305h-83zM170.999 369.999h193c53.333 0 93.833 11.5 121.5 34.5s41.5 56.167 41.5 99.5s-13.833 76.333 -41.5 99s-68.167 34 -121.5 34h-193v-267zM307.999 764.999l-123 172h61l100 -119l100 119h61
l-123 -172h-76z" />
    <glyph glyph-name="rcaron" unicode="&#x159;" horiz-adv-x="363" 
d="M77 0l-0.00390625 381.001c0 20 -0.5 40.333 -1.5 61s-2.5 40.667 -4.5 60h78l10 -122l-14 -1c6.66699 30 18.334 54.667 35.001 74s36.334 33.833 59.001 43.5s46.334 14.5 71.001 14.5c10 0 18.833 -0.333008 26.5 -1s14.834 -2.33398 21.501 -5.00098l-1 -72
c-10 3.33301 -19.167 5.5 -27.5 6.5s-17.833 1.5 -28.5 1.5c-29.333 0 -54.833 -7 -76.5 -21s-38 -32 -49 -54s-16.5 -45.333 -16.5 -70v-296h-82zM183.996 551.001l-109 202h56l92 -148l92 148h56l-109 -202h-78z" />
    <glyph glyph-name="Sacute" unicode="&#x15a;" horiz-adv-x="623" 
d="M318 -9c-56.667 0 -107.332 7.33496 -151.999 22.002s-83.667 35.667 -117 63l30 66c23.333 -17.333 46.833 -31.833 70.5 -43.5s49.167 -20.334 76.5 -26.001s58 -8.5 92 -8.5c59.333 0 103.333 11 132 33s43 51.333 43 88c0 31.333 -10 55.333 -30 72s-55 30 -105 40
l-105 21c-64.667 13.333 -112.834 35 -144.501 65s-47.5 70.667 -47.5 122c0 42 10.833 78.667 32.5 110s52.167 55.666 91.5 72.999s85 26 137 26c50 0 95.667 -7.5 137 -22.5s76.666 -36.833 105.999 -65.5l-29 -64c-31.333 28 -64.166 48.167 -98.499 60.5
s-73.166 18.5 -116.499 18.5c-54.667 0 -97.834 -11.833 -129.501 -35.5s-47.5 -55.834 -47.5 -96.501c0 -32.667 10 -58.167 30 -76.5s53 -32.166 99 -41.499l106 -21c68 -14 118 -35 150 -63s48 -67.333 48 -118c0 -38.667 -10.5 -73 -31.5 -103
s-50.833 -53.333 -89.5 -70s-84.667 -25 -138 -25zM290.002 765.002l118 172h91l-147 -172h-62z" />
    <glyph glyph-name="sacute" unicode="&#x15b;" horiz-adv-x="496" 
d="M246 -9c-40 0 -77.3281 5.5 -111.995 16.5s-63.334 26.5 -86.001 46.5l28 57c24.667 -19.333 51.5 -33.666 80.5 -42.999s59.167 -14 90.5 -14c40 0 70.167 7.16699 90.5 21.5s30.5 34.166 30.5 59.499c0 19.333 -6.5 34.833 -19.5 46.5s-34.167 20.834 -63.5 27.501
l-93 19c-42.667 9.33301 -74.667 25.166 -96 47.499s-32 50.833 -32 85.5c0 29.333 7.66699 55.166 23 77.499s37.666 40 66.999 53s63.666 19.5 102.999 19.5c36.667 0 70.5 -5.5 101.5 -16.5s56.833 -26.833 77.5 -47.5l-29 -56c-20 19.333 -42.833 33.833 -68.5 43.5
s-52.167 14.5 -79.5 14.5c-39.333 0 -68.833 -7.83301 -88.5 -23.5s-29.5 -36.167 -29.5 -61.5c0 -19.333 6.16699 -35.166 18.5 -47.499s31.5 -21.5 57.5 -27.5l93 -19c45.333 -10 79.166 -25.5 101.499 -46.5s33.5 -49.167 33.5 -84.5c0 -30 -8.33301 -56.167 -25 -78.5
s-39.834 -39.5 -69.501 -51.5s-64.5 -18 -104.5 -18zM225.005 551l103 202h87l-132 -202h-58z" />
    <glyph glyph-name="Scircumflex" unicode="&#x15c;" horiz-adv-x="623" 
d="M318 -9c-56.667 0 -107.332 7.33496 -151.999 22.002s-83.667 35.667 -117 63l30 66c23.333 -17.333 46.833 -31.833 70.5 -43.5s49.167 -20.334 76.5 -26.001s58 -8.5 92 -8.5c59.333 0 103.333 11 132 33s43 51.333 43 88c0 31.333 -10 55.333 -30 72s-55 30 -105 40
l-105 21c-64.667 13.333 -112.834 35 -144.501 65s-47.5 70.667 -47.5 122c0 42 10.833 78.667 32.5 110s52.167 55.666 91.5 72.999s85 26 137 26c50 0 95.667 -7.5 137 -22.5s76.666 -36.833 105.999 -65.5l-29 -64c-31.333 28 -64.166 48.167 -98.499 60.5
s-73.166 18.5 -116.499 18.5c-54.667 0 -97.834 -11.833 -129.501 -35.5s-47.5 -55.834 -47.5 -96.501c0 -32.667 10 -58.167 30 -76.5s53 -32.166 99 -41.499l106 -21c68 -14 118 -35 150 -63s48 -67.333 48 -118c0 -38.667 -10.5 -73 -31.5 -103
s-50.833 -53.333 -89.5 -70s-84.667 -25 -138 -25zM160.002 765.002l123 172h76l123 -172h-61l-100 119l-100 -119h-61z" />
    <glyph glyph-name="scircumflex" unicode="&#x15d;" horiz-adv-x="496" 
d="M246 -9c-40 0 -77.3281 5.5 -111.995 16.5s-63.334 26.5 -86.001 46.5l28 57c24.667 -19.333 51.5 -33.666 80.5 -42.999s59.167 -14 90.5 -14c40 0 70.167 7.16699 90.5 21.5s30.5 34.166 30.5 59.499c0 19.333 -6.5 34.833 -19.5 46.5s-34.167 20.834 -63.5 27.501
l-93 19c-42.667 9.33301 -74.667 25.166 -96 47.499s-32 50.833 -32 85.5c0 29.333 7.66699 55.166 23 77.499s37.666 40 66.999 53s63.666 19.5 102.999 19.5c36.667 0 70.5 -5.5 101.5 -16.5s56.833 -26.833 77.5 -47.5l-29 -56c-20 19.333 -42.833 33.833 -68.5 43.5
s-52.167 14.5 -79.5 14.5c-39.333 0 -68.833 -7.83301 -88.5 -23.5s-29.5 -36.167 -29.5 -61.5c0 -19.333 6.16699 -35.166 18.5 -47.499s31.5 -21.5 57.5 -27.5l93 -19c45.333 -10 79.166 -25.5 101.499 -46.5s33.5 -49.167 33.5 -84.5c0 -30 -8.33301 -56.167 -25 -78.5
s-39.834 -39.5 -69.501 -51.5s-64.5 -18 -104.5 -18zM106.005 551l109 202h78l109 -202h-56l-92 148l-92 -148h-56z" />
    <glyph glyph-name="Scedilla" unicode="&#x15e;" horiz-adv-x="623" 
d="M318 -9c-56.667 0 -107.332 7.33496 -151.999 22.002s-83.667 35.667 -117 63l30 66c23.333 -17.333 46.833 -31.833 70.5 -43.5s49.167 -20.334 76.5 -26.001s58 -8.5 92 -8.5c59.333 0 103.333 11 132 33s43 51.333 43 88c0 31.333 -10 55.333 -30 72s-55 30 -105 40
l-105 21c-64.667 13.333 -112.834 35 -144.501 65s-47.5 70.667 -47.5 122c0 42 10.833 78.667 32.5 110s52.167 55.666 91.5 72.999s85 26 137 26c50 0 95.667 -7.5 137 -22.5s76.666 -36.833 105.999 -65.5l-29 -64c-31.333 28 -64.166 48.167 -98.499 60.5
s-73.166 18.5 -116.499 18.5c-54.667 0 -97.834 -11.833 -129.501 -35.5s-47.5 -55.834 -47.5 -96.501c0 -32.667 10 -58.167 30 -76.5s53 -32.166 99 -41.499l106 -21c68 -14 118 -35 150 -63s48 -67.333 48 -118c0 -38.667 -10.5 -73 -31.5 -103
s-50.833 -53.333 -89.5 -70s-84.667 -25 -138 -25zM327.002 -191.998c-17.333 0 -33.833 1.66699 -49.5 5s-29.167 8 -40.5 14l14 44c12 -5.33301 23.5 -9.33301 34.5 -12s23.833 -4 38.5 -4c18 0 32.333 3.16699 43 9.5s16 15.5 16 27.5c0 8.66699 -3 15.5 -9 20.5
s-15.667 7.5 -29 7.5c-7.33301 0 -14.5 -0.5 -21.5 -1.5s-15.5 -3.5 -25.5 -7.5l-17 16l15 93h51l-13 -75l-24 6c7.33301 2 15 3.66699 23 5s15.333 2 22 2c24 0 44 -6 60 -18s24 -28.667 24 -50c0 -24.667 -10.333 -44.5 -31 -59.5s-47.667 -22.5 -81 -22.5z" />
    <glyph glyph-name="scedilla" unicode="&#x15f;" horiz-adv-x="496" 
d="M246 -9c-40 0 -77.3281 5.5 -111.995 16.5s-63.334 26.5 -86.001 46.5l28 57c24.667 -19.333 51.5 -33.666 80.5 -42.999s59.167 -14 90.5 -14c40 0 70.167 7.16699 90.5 21.5s30.5 34.166 30.5 59.499c0 19.333 -6.5 34.833 -19.5 46.5s-34.167 20.834 -63.5 27.501
l-93 19c-42.667 9.33301 -74.667 25.166 -96 47.499s-32 50.833 -32 85.5c0 29.333 7.66699 55.166 23 77.499s37.666 40 66.999 53s63.666 19.5 102.999 19.5c36.667 0 70.5 -5.5 101.5 -16.5s56.833 -26.833 77.5 -47.5l-29 -56c-20 19.333 -42.833 33.833 -68.5 43.5
s-52.167 14.5 -79.5 14.5c-39.333 0 -68.833 -7.83301 -88.5 -23.5s-29.5 -36.167 -29.5 -61.5c0 -19.333 6.16699 -35.166 18.5 -47.499s31.5 -21.5 57.5 -27.5l93 -19c45.333 -10 79.166 -25.5 101.499 -46.5s33.5 -49.167 33.5 -84.5c0 -30 -8.33301 -56.167 -25 -78.5
s-39.834 -39.5 -69.501 -51.5s-64.5 -18 -104.5 -18zM249.005 -192c-17.333 0 -33.833 1.66699 -49.5 5s-29.167 8 -40.5 14l14 44c12 -5.33301 23.5 -9.33301 34.5 -12s23.833 -4 38.5 -4c18 0 32.333 3.16699 43 9.5s16 15.5 16 27.5c0 8.66699 -3 15.5 -9 20.5
s-15.667 7.5 -29 7.5c-7.33301 0 -14.5 -0.5 -21.5 -1.5s-15.5 -3.5 -25.5 -7.5l-17 16l15 93h51l-13 -75l-24 6c7.33301 2 15 3.66699 23 5s15.333 2 22 2c24 0 44 -6 60 -18s24 -28.667 24 -50c0 -24.667 -10.333 -44.5 -31 -59.5s-47.667 -22.5 -81 -22.5z" />
    <glyph glyph-name="Scaron" unicode="&#x160;" horiz-adv-x="623" 
d="M318 -9c-56.667 0 -107.332 7.33496 -151.999 22.002s-83.667 35.667 -117 63l30 66c23.333 -17.333 46.833 -31.833 70.5 -43.5s49.167 -20.334 76.5 -26.001s58 -8.5 92 -8.5c59.333 0 103.333 11 132 33s43 51.333 43 88c0 31.333 -10 55.333 -30 72s-55 30 -105 40
l-105 21c-64.667 13.333 -112.834 35 -144.501 65s-47.5 70.667 -47.5 122c0 42 10.833 78.667 32.5 110s52.167 55.666 91.5 72.999s85 26 137 26c50 0 95.667 -7.5 137 -22.5s76.666 -36.833 105.999 -65.5l-29 -64c-31.333 28 -64.166 48.167 -98.499 60.5
s-73.166 18.5 -116.499 18.5c-54.667 0 -97.834 -11.833 -129.501 -35.5s-47.5 -55.834 -47.5 -96.501c0 -32.667 10 -58.167 30 -76.5s53 -32.166 99 -41.499l106 -21c68 -14 118 -35 150 -63s48 -67.333 48 -118c0 -38.667 -10.5 -73 -31.5 -103
s-50.833 -53.333 -89.5 -70s-84.667 -25 -138 -25zM283.002 765.002l-123 172h61l100 -119l100 119h61l-123 -172h-76z" />
    <glyph glyph-name="scaron" unicode="&#x161;" horiz-adv-x="496" 
d="M246 -9c-40 0 -77.3281 5.5 -111.995 16.5s-63.334 26.5 -86.001 46.5l28 57c24.667 -19.333 51.5 -33.666 80.5 -42.999s59.167 -14 90.5 -14c40 0 70.167 7.16699 90.5 21.5s30.5 34.166 30.5 59.499c0 19.333 -6.5 34.833 -19.5 46.5s-34.167 20.834 -63.5 27.501
l-93 19c-42.667 9.33301 -74.667 25.166 -96 47.499s-32 50.833 -32 85.5c0 29.333 7.66699 55.166 23 77.499s37.666 40 66.999 53s63.666 19.5 102.999 19.5c36.667 0 70.5 -5.5 101.5 -16.5s56.833 -26.833 77.5 -47.5l-29 -56c-20 19.333 -42.833 33.833 -68.5 43.5
s-52.167 14.5 -79.5 14.5c-39.333 0 -68.833 -7.83301 -88.5 -23.5s-29.5 -36.167 -29.5 -61.5c0 -19.333 6.16699 -35.166 18.5 -47.499s31.5 -21.5 57.5 -27.5l93 -19c45.333 -10 79.166 -25.5 101.499 -46.5s33.5 -49.167 33.5 -84.5c0 -30 -8.33301 -56.167 -25 -78.5
s-39.834 -39.5 -69.501 -51.5s-64.5 -18 -104.5 -18zM215.005 551l-109 202h56l92 -148l92 148h56l-109 -202h-78z" />
    <glyph glyph-name="uni0162" unicode="&#x162;" horiz-adv-x="604" 
d="M259 0v635h-249v70h580v-70h-248v-635h-83zM305 -192c-17.333 0 -33.833 1.66699 -49.5 5s-29.167 8 -40.5 14l14 44c12 -5.33301 23.5 -9.33301 34.5 -12s23.833 -4 38.5 -4c18 0 32.333 3.16699 43 9.5s16 15.5 16 27.5c0 8.66699 -3 15.5 -9 20.5s-15.667 7.5 -29 7.5
c-7.33301 0 -14.5 -0.5 -21.5 -1.5s-15.5 -3.5 -25.5 -7.5l-17 16l15 93h51l-13 -75l-24 6c7.33301 2 15 3.66699 23 5s15.333 2 22 2c24 0 44 -6 60 -18s24 -28.667 24 -50c0 -24.667 -10.333 -44.5 -31 -59.5s-47.667 -22.5 -81 -22.5z" />
    <glyph glyph-name="uni0163" unicode="&#x163;" horiz-adv-x="350" 
d="M257 -9c-49.333 0 -87 14.1689 -113 42.502s-39 71.166 -39 128.499v277h-98v63h98v137l81 23v-160h144v-63h-144v-268c0 -40 6.83301 -68.5 20.5 -85.5s34.167 -25.5 61.5 -25.5c12.667 0 24 1.16699 34 3.5s19 5.16602 27 8.49902v-68
c-9.33301 -4 -20.5 -7.16699 -33.5 -9.5s-25.833 -3.5 -38.5 -3.5zM228 -191.998c-17.333 0 -33.833 1.66699 -49.5 5s-29.167 8 -40.5 14l14 44c12 -5.33301 23.5 -9.33301 34.5 -12s23.833 -4 38.5 -4c18 0 32.333 3.16699 43 9.5s16 15.5 16 27.5
c0 8.66699 -3 15.5 -9 20.5s-15.667 7.5 -29 7.5c-7.33301 0 -14.5 -0.5 -21.5 -1.5s-15.5 -3.5 -25.5 -7.5l-17 16l15 93h51l-13 -75l-24 6c7.33301 2 15 3.66699 23 5s15.333 2 22 2c24 0 44 -6 60 -18s24 -28.667 24 -50c0 -24.667 -10.333 -44.5 -31 -59.5
s-47.667 -22.5 -81 -22.5z" />
    <glyph glyph-name="Tcaron" unicode="&#x164;" horiz-adv-x="604" 
d="M259 0v635h-249v70h580v-70h-248v-635h-83zM264 765l-123 172h61l100 -119l100 119h61l-123 -172h-76z" />
    <glyph glyph-name="tcaron" unicode="&#x165;" horiz-adv-x="350" 
d="M257 -9c-49.333 0 -87 14.1689 -113 42.502s-39 71.166 -39 128.499v277h-98v63h98v137l81 23v-160h144v-63h-144v-268c0 -40 6.83301 -68.5 20.5 -85.5s34.167 -25.5 61.5 -25.5c12.667 0 24 1.16699 34 3.5s19 5.16602 27 8.49902v-68
c-9.33301 -4 -20.5 -7.16699 -33.5 -9.5s-25.833 -3.5 -38.5 -3.5zM257 541.002v172h65l-23 -172h-42z" />
    <glyph glyph-name="Tbar" unicode="&#x166;" horiz-adv-x="604" 
d="M259 0v635h-249v70h580v-70h-248v-635h-83zM118 326v64h367v-64h-367z" />
    <glyph glyph-name="tbar" unicode="&#x167;" horiz-adv-x="350" 
d="M257 -9c-49.333 0 -87 14.1689 -113 42.502s-39 71.166 -39 128.499v277h-98v63h98v137l81 23v-160h144v-63h-144v-268c0 -40 6.83301 -68.5 20.5 -85.5s34.167 -25.5 61.5 -25.5c12.667 0 24 1.16699 34 3.5s19 5.16602 27 8.49902v-68
c-9.33301 -4 -20.5 -7.16699 -33.5 -9.5s-25.833 -3.5 -38.5 -3.5zM34 248.002v55h275v-55h-275z" />
    <glyph glyph-name="Utilde" unicode="&#x168;" horiz-adv-x="730" 
d="M366 -9c-63.333 0 -116 10.833 -158 32.5s-73.167 54 -93.5 97s-30.5 95.833 -30.5 158.5v426h82v-422c0 -72.667 16 -127.334 48 -164.001s82.667 -55 152 -55c65.333 0 115 18.333 149 55s51 91.334 51 164.001v422h82v-426c0 -62.667 -10.667 -115.5 -32 -158.5
s-53 -75.333 -95 -97s-93.667 -32.5 -155 -32.5zM203 783l-46.0029 3c4 42.667 16.833 75.5 38.5 98.5s48.834 34.5 81.501 34.5c15.333 0 30.833 -3.16699 46.5 -9.5s34.5 -16.833 56.5 -31.5c20.667 -12.667 36.334 -21.667 47.001 -27s21 -8 31 -8
c20 0 35.667 6.83301 47 20.5s19.333 33.167 24 58.5l46 -3c-4 -42.667 -16.667 -75.5 -38 -98.5s-48.333 -34.5 -81 -34.5c-15.333 0 -31 3.33301 -47 10s-36 17.667 -60 33c-18 12 -32.667 20.5 -44 25.5s-21.666 7.5 -30.999 7.5c-20 0 -35.667 -6.83301 -47 -20.5
s-19.333 -33.167 -24 -58.5z" />
    <glyph glyph-name="utilde" unicode="&#x169;" horiz-adv-x="577" 
d="M256 -9c-59.333 0 -104.167 16.333 -134.5 49s-45.5 82.667 -45.5 150v312h81v-310c0 -46 9.33301 -79.833 28 -101.5s47.667 -32.5 87 -32.5c44 0 79.333 14.5 106 43.5s40 67.167 40 114.5v286h81v-502h-79v113h13c-14 -38.667 -36.5 -68.667 -67.5 -90
s-67.5 -32 -109.5 -32zM154.999 591l-45.999 2.99902c3.33301 42.667 14.666 75.5 33.999 98.5s43.666 34.5 72.999 34.5c14.667 0 28.167 -3.33301 40.5 -10s26.5 -17 42.5 -31c14.667 -13.333 26.5 -22.5 35.5 -27.5s17.833 -7.5 26.5 -7.5c34 0 54.667 26.333 62 79
l46 -3c-3.33301 -42.667 -14.5 -75.5 -33.5 -98.5s-43.167 -34.5 -72.5 -34.5c-14 0 -27.333 3.33301 -40 10s-27.334 17.334 -44.001 32.001c-14 12.667 -25.5 21.5 -34.5 26.5s-18.167 7.5 -27.5 7.5c-17.333 0 -31.166 -6.83301 -41.499 -20.5
s-17.166 -33.167 -20.499 -58.5z" />
    <glyph glyph-name="Umacron" unicode="&#x16a;" horiz-adv-x="730" 
d="M366 -9c-63.333 0 -116 10.833 -158 32.5s-73.167 54 -93.5 97s-30.5 95.833 -30.5 158.5v426h82v-422c0 -72.667 16 -127.334 48 -164.001s82.667 -55 152 -55c65.333 0 115 18.333 149 55s51 91.334 51 164.001v422h82v-426c0 -62.667 -10.667 -115.5 -32 -158.5
s-53 -75.333 -95 -97s-93.667 -32.5 -155 -32.5zM203 814v55h326v-55h-326z" />
    <glyph glyph-name="umacron" unicode="&#x16b;" horiz-adv-x="577" 
d="M256 -9c-59.333 0 -104.167 16.333 -134.5 49s-45.5 82.667 -45.5 150v312h81v-310c0 -46 9.33301 -79.833 28 -101.5s47.667 -32.5 87 -32.5c44 0 79.333 14.5 106 43.5s40 67.167 40 114.5v286h81v-502h-79v113h13c-14 -38.667 -36.5 -68.667 -67.5 -90
s-67.5 -32 -109.5 -32zM140.999 626v55h296v-55h-296z" />
    <glyph glyph-name="Ubreve" unicode="&#x16c;" horiz-adv-x="730" 
d="M366 -9c-63.333 0 -116 10.833 -158 32.5s-73.167 54 -93.5 97s-30.5 95.833 -30.5 158.5v426h82v-422c0 -72.667 16 -127.334 48 -164.001s82.667 -55 152 -55c65.333 0 115 18.333 149 55s51 91.334 51 164.001v422h82v-426c0 -62.667 -10.667 -115.5 -32 -158.5
s-53 -75.333 -95 -97s-93.667 -32.5 -155 -32.5zM366 760c-31.333 0 -59.167 6.83301 -83.5 20.5s-44 33 -59 58s-23.833 54.833 -26.5 89.5l51 7c3.33301 -38 15.333 -67.667 36 -89s48 -32 82 -32s61.5 10.667 82.5 32s32.833 51 35.5 89l51 -7
c-4 -52 -21.333 -93 -52 -123s-69.667 -45 -117 -45z" />
    <glyph glyph-name="ubreve" unicode="&#x16d;" horiz-adv-x="577" 
d="M256 -9c-59.333 0 -104.167 16.333 -134.5 49s-45.5 82.667 -45.5 150v312h81v-310c0 -46 9.33301 -79.833 28 -101.5s47.667 -32.5 87 -32.5c44 0 79.333 14.5 106 43.5s40 67.167 40 114.5v286h81v-502h-79v113h13c-14 -38.667 -36.5 -68.667 -67.5 -90
s-67.5 -32 -109.5 -32zM288.999 550c-30 0 -56.3359 7.66699 -79.0029 23s-40.334 37.166 -53.001 65.499s-20 62.166 -22 101.499l51 5c2.66699 -44.667 12.834 -79.167 30.501 -103.5s41.834 -36.5 72.501 -36.5s54.834 12.167 72.501 36.5s27.834 58.833 30.501 103.5
l51 -5c-1.33301 -39.333 -8.5 -73.166 -21.5 -101.499s-30.833 -50.166 -53.5 -65.499s-49 -23 -79 -23z" />
    <glyph glyph-name="Uring" unicode="&#x16e;" horiz-adv-x="730" 
d="M366 -9c-63.333 0 -116 10.833 -158 32.5s-73.167 54 -93.5 97s-30.5 95.833 -30.5 158.5v426h82v-422c0 -72.667 16 -127.334 48 -164.001s82.667 -55 152 -55c65.333 0 115 18.333 149 55s51 91.334 51 164.001v422h82v-426c0 -62.667 -10.667 -115.5 -32 -158.5
s-53 -75.333 -95 -97s-93.667 -32.5 -155 -32.5zM366 758c-22 0 -42 5.16699 -60 15.5s-32.333 24.333 -43 42s-16 37.167 -16 58.5c0 22 5.33301 41.5 16 58.5s25 30.667 43 41s38 15.5 60 15.5c22.667 0 42.834 -5.16699 60.501 -15.5s31.834 -24 42.501 -41
s16 -36.5 16 -58.5c0 -21.333 -5.33301 -40.833 -16 -58.5s-24.834 -31.667 -42.501 -42s-37.834 -15.5 -60.501 -15.5zM366 801c21.333 0 38.666 7 51.999 21s20 31.333 20 52c0 20 -6.66699 37 -20 51s-30.666 21 -51.999 21c-20.667 0 -37.834 -7 -51.501 -21
s-20.5 -31 -20.5 -51c0 -20.667 6.83301 -38 20.5 -52s30.834 -21 51.501 -21z" />
    <glyph glyph-name="uring" unicode="&#x16f;" horiz-adv-x="577" 
d="M256 -9c-59.333 0 -104.167 16.333 -134.5 49s-45.5 82.667 -45.5 150v312h81v-310c0 -46 9.33301 -79.833 28 -101.5s47.667 -32.5 87 -32.5c44 0 79.333 14.5 106 43.5s40 67.167 40 114.5v286h81v-502h-79v113h13c-14 -38.667 -36.5 -68.667 -67.5 -90
s-67.5 -32 -109.5 -32zM288.999 548c-22 0 -42 5 -60 15s-32.333 23.833 -43 41.5s-16 37.167 -16 58.5c0 22 5.33301 41.667 16 59s25 31.166 43 41.499s38 15.5 60 15.5c22.667 0 42.834 -5.16699 60.501 -15.5s31.834 -24.166 42.501 -41.499s16 -37 16 -59
c0 -21.333 -5.33301 -40.833 -16 -58.5s-24.834 -31.5 -42.501 -41.5s-37.834 -15 -60.501 -15zM288.999 591c21.333 0 38.666 6.99902 51.999 20.999s20 31 20 51c0 20.667 -6.66699 37.834 -20 51.501s-30.666 20.5 -51.999 20.5
c-20.667 0 -37.834 -6.83301 -51.501 -20.5s-20.5 -30.5 -20.5 -50.5c0 -20.667 6.83301 -38 20.5 -52s30.834 -21 51.501 -21z" />
    <glyph glyph-name="Uhungarumlaut" unicode="&#x170;" horiz-adv-x="730" 
d="M366 -9c-63.333 0 -116 10.833 -158 32.5s-73.167 54 -93.5 97s-30.5 95.833 -30.5 158.5v426h82v-422c0 -72.667 16 -127.334 48 -164.001s82.667 -55 152 -55c65.333 0 115 18.333 149 55s51 91.334 51 164.001v422h82v-426c0 -62.667 -10.667 -115.5 -32 -158.5
s-53 -75.333 -95 -97s-93.667 -32.5 -155 -32.5zM279 765l85 172h81l-119 -172h-47zM406 765l89 172h80l-122 -172h-47z" />
    <glyph glyph-name="uhungarumlaut" unicode="&#x171;" horiz-adv-x="577" 
d="M256 -9c-59.333 0 -104.167 16.333 -134.5 49s-45.5 82.667 -45.5 150v312h81v-310c0 -46 9.33301 -79.833 28 -101.5s47.667 -32.5 87 -32.5c44 0 79.333 14.5 106 43.5s40 67.167 40 114.5v286h81v-502h-79v113h13c-14 -38.667 -36.5 -68.667 -67.5 -90
s-67.5 -32 -109.5 -32zM329.999 552l53 202h75l-83 -202h-45zM201.999 552l54 202h75l-84 -202h-45z" />
    <glyph glyph-name="Uogonek" unicode="&#x172;" horiz-adv-x="730" 
d="M366 -9c-63.333 0 -116 10.833 -158 32.5s-73.167 54 -93.5 97s-30.5 95.833 -30.5 158.5v426h82v-422c0 -72.667 16 -127.334 48 -164.001s82.667 -55 152 -55c65.333 0 115 18.333 149 55s51 91.334 51 164.001v422h82v-426c0 -62.667 -10.667 -115.5 -32 -158.5
s-53 -75.333 -95 -97s-93.667 -32.5 -155 -32.5zM425 -192c-32 0 -57.667 8.66504 -77 25.998s-29 41 -29 71c0 26.667 8.66699 51.834 26 75.501s40.666 42.167 69.999 55.5l29 -36c-10.667 -4 -21.167 -10.167 -31.5 -18.5s-18.833 -18.166 -25.5 -29.499s-10 -24 -10 -38
c0 -18.667 5.66699 -32.667 17 -42s25 -14 41 -14c9.33301 0 18.333 1 27 3s17.667 5 27 9l14 -45c-9.33301 -5.33301 -20.666 -9.5 -33.999 -12.5s-28 -4.5 -44 -4.5z" />
    <glyph glyph-name="uogonek" unicode="&#x173;" horiz-adv-x="577" 
d="M256 -9c-59.333 0 -104.167 16.333 -134.5 49s-45.5 82.667 -45.5 150v312h81v-310c0 -46 9.33301 -79.833 28 -101.5s47.667 -32.5 87 -32.5c44 0 79.333 14.5 106 43.5s40 67.167 40 114.5v286h81v-502h-79v113h13c-14 -38.667 -36.5 -68.667 -67.5 -90
s-67.5 -32 -109.5 -32zM465.999 -192c-32 0 -57.667 8.66504 -77 25.998s-29 41 -29 71c0 26.667 8.66699 51.834 26 75.501s40.666 42.167 69.999 55.5l29 -36c-10.667 -4 -21.167 -10.167 -31.5 -18.5s-18.833 -18.166 -25.5 -29.499s-10 -24 -10 -38
c0 -18.667 5.66699 -32.667 17 -42s25 -14 41 -14c9.33301 0 18.333 1 27 3s17.667 5 27 9l14 -45c-9.33301 -5.33301 -20.666 -9.5 -33.999 -12.5s-28 -4.5 -44 -4.5z" />
    <glyph glyph-name="Wcircumflex" unicode="&#x174;" horiz-adv-x="1112" 
d="M280 0l-246 705h87l215 -635h-35l226 635h66l214 -635h-32l221 635h82l-248 -705h-74l-208 611h21l-217 -611h-72zM395 765l123 172h76l123 -172h-61l-100 119l-100 -119h-61z" />
    <glyph glyph-name="wcircumflex" unicode="&#x175;" horiz-adv-x="869" 
d="M213 0l-186 502h86l155 -442h-26l160 442h70l157 -442h-25l156 442h82l-187 -502h-78l-162 449h40l-163 -449h-79zM287 551l109 202h78l109 -202h-56l-92 148l-92 -148h-56z" />
    <glyph glyph-name="Ycircumflex" unicode="&#x176;" horiz-adv-x="607" 
d="M262 0v329l18 -56l-292 432h96l232 -351h-21l231 351h92l-291 -432l18 56v-329h-83zM143 765l123 172h76l123 -172h-61l-100 119l-100 -119h-61z" />
    <glyph glyph-name="ycircumflex" unicode="&#x177;" horiz-adv-x="531" 
d="M59 -227l-19 67.001c31.333 7.33301 57.5 15.833 78.5 25.5s38.5 22.5 52.5 38.5s26 36 36 60l26 59l-2 -34l-219 513h88l181 -441h-26l179 441h85l-232 -544c-13.333 -32 -28 -58.833 -44 -80.5s-33.167 -39.334 -51.5 -53.001s-38.5 -24.5 -60.5 -32.5
s-46 -14.333 -72 -19zM117 551.001l109 202h78l109 -202h-56l-92 148l-92 -148h-56z" />
    <glyph glyph-name="Ydieresis" unicode="&#x178;" horiz-adv-x="607" 
d="M262 0v329l18 -56l-292 432h96l232 -351h-21l231 351h92l-291 -432l18 56v-329h-83zM348 806v86h86v-86h-86zM174 806v86h86v-86h-86z" />
    <glyph glyph-name="Zacute" unicode="&#x179;" horiz-adv-x="596" 
d="M43 0v61l427 605v-32h-427v71h506v-61l-428 -604v31h439v-71h-517zM271 765l118 172h91l-147 -172h-62z" />
    <glyph glyph-name="zacute" unicode="&#x17a;" horiz-adv-x="519" 
d="M50 0v54l338 406l1 -21h-339v63h414v-54l-342 -408l-1 23h354v-63h-425zM230 551l103 202h87l-132 -202h-58z" />
    <glyph glyph-name="Zdotaccent" unicode="&#x17b;" horiz-adv-x="596" 
d="M43 0v61l427 605v-32h-427v71h506v-61l-428 -604v31h439v-71h-517zM257 807v88h90v-88h-90z" />
    <glyph glyph-name="zdotaccent" unicode="&#x17c;" horiz-adv-x="519" 
d="M50 0v54l338 406l1 -21h-339v63h414v-54l-342 -408l-1 23h354v-63h-425zM213 609v88h92v-88h-92z" />
    <glyph glyph-name="Zcaron" unicode="&#x17d;" horiz-adv-x="596" 
d="M43 0v61l427 605v-32h-427v71h506v-61l-428 -604v31h439v-71h-517zM264 765l-123 172h61l100 -119l100 119h61l-123 -172h-76z" />
    <glyph glyph-name="zcaron" unicode="&#x17e;" horiz-adv-x="519" 
d="M50 0v54l338 406l1 -21h-339v63h414v-54l-342 -408l-1 23h354v-63h-425zM220 551l-109 202h56l92 -148l92 148h56l-109 -202h-78z" />
    <glyph glyph-name="uni0181" unicode="&#x181;" horiz-adv-x="809" 
d="M217 0v642.001h-34c-38.667 0 -67.167 -8.83301 -85.5 -26.5s-27.5 -44.834 -27.5 -81.501v-45h-71v48c0 56 15.833 98 47.5 126s80.5 42 146.5 42h306c74 0 131.333 -16 172 -48s61 -77.333 61 -136c0 -43.333 -13.167 -79.833 -39.5 -109.5s-62.5 -49.167 -108.5 -58.5
v14c52.667 -6 93.5 -24 122.5 -54s43.5 -69.667 43.5 -119c0 -62.667 -20.833 -110.667 -62.5 -144s-100.5 -50 -176.5 -50h-294zM297 67.001h205.999c55.333 0 96.833 10.5 124.5 31.5s41.5 53.167 41.5 96.5c0 29.333 -6.16699 53.5 -18.5 72.5
s-30.666 33.167 -54.999 42.5s-54.833 14 -91.5 14h-207v-257zM296.999 390.001h190c54 0 94.667 10.667 122 32s41 52 41 92c0 41.333 -13.667 72.5 -41 93.5s-68 31.5 -122 31.5h-190v-249z" />
    <glyph glyph-name="uni018A" unicode="&#x18a;" horiz-adv-x="876" 
d="M217 0l0.000976562 642.001h-34c-38.667 0 -67.167 -8.83301 -85.5 -26.5s-27.5 -44.834 -27.5 -81.501v-45h-71v48c0 56 15.5 98 46.5 126s77.833 42 140.5 42h265c78 0 143.833 -13.333 197.5 -40s94.667 -66.167 123 -118.5s42.5 -116.833 42.5 -193.5
c0 -114.667 -31.333 -202.167 -94 -262.5s-152.334 -90.5 -269.001 -90.5h-234zM300.001 71.001l144 -0.000976562c96 0 167.5 23.5 214.5 70.5s70.5 117.5 70.5 211.5c0 94.667 -23.5 165.334 -70.5 212.001s-118.5 70 -214.5 70h-144v-564z" />
    <glyph glyph-name="uni018F" unicode="&#x18f;" horiz-adv-x="750" 
d="M372 -9c-73.333 0 -132.834 15.002 -178.501 45.002s-79 72.167 -100 126.5s-31.5 117.833 -31.5 190.5v36h556v-68h-494l22 32c0 -63.333 7.16699 -116.5 21.5 -159.5s37.833 -75.5 70.5 -97.5s76.667 -33 132 -33c74.667 0 132.167 25.167 172.5 75.5
s60.5 122.166 60.5 215.499c0 92 -21.5 162.833 -64.5 212.5s-106.833 74.5 -191.5 74.5c-32 0 -60.667 -2.83301 -86 -8.5s-49 -14.5 -71 -26.5s-44.333 -27.667 -67 -47l-33 65c33.333 29.333 71.166 51.666 113.499 66.999s92.833 23 151.5 23
c70 0 129.833 -14.5 179.5 -43.5s87.667 -70.333 114 -124s39.5 -117.834 39.5 -192.501s-12.667 -139.167 -38 -193.5s-61.666 -96.166 -108.999 -125.499s-103.666 -44 -168.999 -44z" />
    <glyph glyph-name="florin" unicode="&#x192;" 
d="M41 -189v66.001h47c29.333 0 53.166 7.66699 71.499 23s31.833 42.666 40.5 81.999l95 450l17 -9h-139v63h148l-17 -14l16 74c10.667 54 31.5 95.5 62.5 124.5s73.167 43.5 126.5 43.5h48v-68h-42c-31.333 0 -56.166 -7.33301 -74.499 -22s-31.833 -42 -40.5 -82l-15 -70
l-12 14h139v-63h-153l18 10l-97 -455c-12 -53.333 -33.167 -94.5 -63.5 -123.5s-71.5 -43.5 -123.5 -43.5h-52z" />
    <glyph glyph-name="Ohorn" unicode="&#x1a0;" horiz-adv-x="772" 
d="M62 353c0 74.667 12.833 138.833 38.5 192.5s62.667 95.167 111 124.5s106.5 44 174.5 44c66 0 123.333 -14.667 172 -44s86.167 -70.833 112.5 -124.5s39.5 -117.5 39.5 -191.5c0 -74.667 -13.333 -139 -40 -193s-64.167 -95.833 -112.5 -125.5
s-105.5 -44.5 -171.5 -44.5c-68 0 -126 14.833 -174 44.5s-85 71.5 -111 125.5s-39 118 -39 192zM149 352.999c0 -60.667 9 -112.502 27 -155.502s44.667 -76 80 -99s78.666 -34.5 129.999 -34.5c74.667 0 132.834 25.5 174.501 76.5s62.5 121.833 62.5 212.5
c0 61.333 -9.33301 113.333 -28 156s-45.667 75.334 -81 98.001s-78 34 -128 34c-78 0 -137 -25.167 -177 -75.5s-60 -121.166 -60 -212.499zM496 654.997l-49.0039 54c17.333 -1.33301 32.333 -2.33301 45 -3s25.334 -1 38.001 -1c28.667 0 50.834 3.83301 66.501 11.5
s26.834 20 33.501 37s10 38.5 10 64.5v17h72v-28c0 -30 -5.83301 -56.5 -17.5 -79.5s-28.167 -40.833 -49.5 -53.5s-46.666 -19 -75.999 -19h-73z" />
    <glyph glyph-name="ohorn" unicode="&#x1a1;" horiz-adv-x="571" 
d="M285 -9c-48 0 -89.833 10.5 -125.5 31.5s-63.167 51 -82.5 90s-29 85.167 -29 138.5c0 54 9.66699 100.333 29 139s46.833 68.5 82.5 89.5s77.5 31.5 125.5 31.5c48.667 0 90.834 -10.5 126.501 -31.5s63.334 -50.833 83.001 -89.5s29.5 -85 29.5 -139
c0 -53.333 -9.83301 -99.5 -29.5 -138.5s-47.334 -69 -83.001 -90s-77.834 -31.5 -126.501 -31.5zM285 57c48 0 86 16.5 114 49.5s42 81.167 42 144.5c0 64 -14 112.5 -42 145.5s-66 49.5 -114 49.5c-47.333 0 -85 -16.5 -113 -49.5s-42 -81.5 -42 -145.5
c0 -63.333 14 -111.5 42 -144.5s65.667 -49.5 113 -49.5zM379 452l-42 28v22c28 0.666992 50 5 66 13s27.333 20.333 34 37s10 38 10 64v16h72v-28c0 -30 -5.5 -56 -16.5 -78s-27 -39.333 -48 -52s-46.167 -20 -75.5 -22z" />
    <glyph glyph-name="Uhorn" unicode="&#x1af;" horiz-adv-x="730" 
d="M366 -9c-63.333 0 -116 10.833 -158 32.5s-73.167 54 -93.5 97s-30.5 95.833 -30.5 158.5v426h82v-422c0 -72.667 16 -127.334 48 -164.001s82.667 -55 152 -55c65.333 0 115 18.333 149 55s51 91.334 51 164.001v422h82v-426c0 -62.667 -10.667 -115.5 -32 -158.5
s-53 -75.333 -95 -97s-93.667 -32.5 -155 -32.5zM632 655l-41.002 27.998v22c28.667 0.666992 50.834 4.83398 66.501 12.501s26.834 19.834 33.501 36.501s10 38 10 64v17h72v-28c0 -30 -5.5 -56 -16.5 -78s-27 -39.333 -48 -52s-46.5 -20 -76.5 -22z" />
    <glyph glyph-name="uhorn" unicode="&#x1b0;" horiz-adv-x="577" 
d="M256 -9c-59.333 0 -104.167 16.333 -134.5 49s-45.5 82.667 -45.5 150v312h81v-310c0 -46 9.33301 -79.833 28 -101.5s47.667 -32.5 87 -32.5c44 0 79.333 14.5 106 43.5s40 67.167 40 114.5v286h81v-502h-79v113h13c-14 -38.667 -36.5 -68.667 -67.5 -90
s-67.5 -32 -109.5 -32zM473.999 452l-42 28v22c28 0.666992 50 5 66 13s27.333 20.333 34 37s10 38 10 64v16h72v-28c0 -30 -5.5 -56 -16.5 -78s-27 -39.333 -48 -52s-46.167 -20 -75.5 -22z" />
    <glyph glyph-name="uni01B3" unicode="&#x1b3;" horiz-adv-x="607" 
d="M262 0l-0.000976562 364.999l18 -57l-292 397h96l232 -315h-21l173 243c13.333 18.667 27.5 34 42.5 46s31.167 20.667 48.5 26s36.333 8 57 8c11.333 0 21.833 -0.666992 31.5 -2s18.834 -3.66602 27.501 -6.99902v-62c-6.66699 2.66699 -14 4.66699 -22 6s-17 2 -27 2
c-17.333 0 -33.5 -3.83301 -48.5 -11.5s-29.167 -20.5 -42.5 -38.5l-208 -292l18 57v-365h-83z" />
    <glyph glyph-name="uni01B4" unicode="&#x1b4;" horiz-adv-x="570" 
d="M59 -227l-19.001 67c31.333 7.33301 57.5 15.833 78.5 25.5s38.5 22.5 52.5 38.5s26 36 36 60l26 59l-2 -34l-219 513h88l181 -441h-26l138 339c10 25.333 21.833 46.166 35.5 62.499s29.834 28.5 48.501 36.5s41 12 67 12c12.667 0 24 -0.666992 34 -2
s19 -3.66602 27 -6.99902l-11 -63c-6 2.66699 -12.5 4.33398 -19.5 5.00098s-13.167 1 -18.5 1c-22 0 -40.167 -5.66699 -54.5 -17s-28.5 -33.333 -42.5 -66l-172 -404c-13.333 -32 -28 -58.833 -44 -80.5s-33.167 -39.334 -51.5 -53.001s-38.5 -24.5 -60.5 -32.5
s-46 -14.333 -72 -19z" />
    <glyph glyph-name="uni01C4" unicode="&#x1c4;" horiz-adv-x="1327" 
d="M88 0v705h234c78 0 144 -13.5 198 -40.5s95 -66.667 123 -119s42 -116.5 42 -192.5c0 -75.333 -14 -139.333 -42 -192s-69 -92.667 -123 -120s-120 -41 -198 -41h-234zM171 71l145 -0.000976562c96 0 167.333 23.5 214 70.5s70 117.5 70 211.5
c0 94.667 -23.333 165.334 -70 212.001s-118 70 -214 70h-145v-564zM775 -0.000976562v61l427 605v-32h-427v71h506v-61l-428 -604v31h439v-71h-517zM996 764.999l-123 172h61l100 -119l100 119h61l-123 -172h-76z" />
    <glyph glyph-name="uni01C5" unicode="&#x1c5;" horiz-adv-x="1265" 
d="M88 0v705h234c78 0 144 -13.5 198 -40.5s95 -66.667 123 -119s42 -116.5 42 -192.5c0 -75.333 -14 -139.333 -42 -192s-69 -92.667 -123 -120s-120 -41 -198 -41h-234zM171 71l145 -0.000976562c96 0 167.333 23.5 214 70.5s70 117.5 70 211.5
c0 94.667 -23.333 165.334 -70 212.001s-118 70 -214 70h-145v-564zM797 -0.000976562v54l338 406l1 -21h-339v63h414v-54l-342 -408l-1 23h354v-63h-425zM966 550.999l-109 202h56l92 -148l92 148h56l-109 -202h-78z" />
    <glyph glyph-name="uni01C6" unicode="&#x1c6;" horiz-adv-x="1119" 
d="M269 -9c-44 0 -82.668 10.499 -116.001 31.499s-59.166 50.833 -77.499 89.5s-27.5 85 -27.5 139c0 54.667 9.16699 101.334 27.5 140.001s44.166 68.334 77.499 89.001s72 31 116 31c45.333 0 84.5 -11.333 117.5 -34s55.167 -53.334 66.5 -92.001h-12v351h81v-736h-80
v120h11c-10.667 -40 -32.667 -71.5 -66 -94.5s-72.666 -34.5 -117.999 -34.5zM285.999 56.999c47.333 0 85.333 16.5 114 49.5s43 81.167 43 144.5c0 64 -14.333 112.5 -43 145.5s-66.667 49.5 -114 49.5s-85.166 -16.5 -113.499 -49.5s-42.5 -81.5 -42.5 -145.5
c0 -63.333 14.167 -111.5 42.5 -144.5s66.166 -49.5 113.499 -49.5zM649.999 -0.000976562v54l338 406l1 -21h-339v63h414v-54l-342 -408l-1 23h354v-63h-425zM819.999 550.999l-109 202h56l92 -148l92 148h56l-109 -202h-78z" />
    <glyph glyph-name="uni01C7" unicode="&#x1c7;" horiz-adv-x="914" 
d="M88 0v705h83v-633h356v-72h-439zM664 -186c-10.667 0 -22.832 0.500977 -36.499 1.50098s-27.5 3.16699 -41.5 6.5v69c12.667 -2.66699 24.5 -4.83398 35.5 -6.50098s20.833 -2.5 29.5 -2.5c30.667 0 53.667 9.5 69 28.5s23 49.167 23 90.5v704h83v-705
c0 -40 -5.83301 -74 -17.5 -102s-29.334 -49 -53.001 -63s-54.167 -21 -91.5 -21z" />
    <glyph glyph-name="uni01C8" unicode="&#x1c8;" horiz-adv-x="783" 
d="M88 0v705h83v-633h356v-72h-439zM558 -220c-9.33301 0 -21 1.16699 -35 3.5s-25.667 5.16602 -35 8.49902v68c8 -2.66699 17.333 -5.16699 28 -7.5s20.667 -3.5 30 -3.5c28 0 48.833 8.83301 62.5 26.5s20.5 46.5 20.5 86.5v540h81v-548
c0 -57.333 -12.5 -100.666 -37.5 -129.999s-63.167 -44 -114.5 -44zM620 616v91h99v-91h-99z" />
    <glyph glyph-name="uni01C9" unicode="&#x1c9;" horiz-adv-x="476" 
d="M79 0v736h81v-736h-81zM251 -220c-9.33301 0 -21 1.16699 -35 3.5s-25.667 5.16602 -35 8.49902v68c8 -2.66699 17.333 -5.16699 28 -7.5s20.667 -3.5 30 -3.5c28 0 48.833 8.83301 62.5 26.5s20.5 46.5 20.5 86.5v540h81v-548c0 -57.333 -12.5 -100.666 -37.5 -129.999
s-63.167 -44 -114.5 -44zM313 616v91h99v-91h-99z" />
    <glyph glyph-name="uni01CA" unicode="&#x1ca;" horiz-adv-x="1076" 
d="M88 0v705h65l452 -600h-23v600h77v-705h-64l-452 600h22v-600h-77zM826 -186c-10.667 0 -22.832 0.500977 -36.499 1.50098s-27.5 3.16699 -41.5 6.5v69c12.667 -2.66699 24.5 -4.83398 35.5 -6.50098s20.833 -2.5 29.5 -2.5c30.667 0 53.667 9.5 69 28.5
s23 49.167 23 90.5v704h83v-705c0 -40 -5.83301 -74 -17.5 -102s-29.334 -49 -53.001 -63s-54.167 -21 -91.5 -21z" />
    <glyph glyph-name="uni01CB" unicode="&#x1cb;" horiz-adv-x="985" 
d="M88 0v705h65l452 -600h-23v600h77v-705h-64l-452 600h22v-600h-77zM760 -220c-9.33301 0 -21 1.16699 -35 3.5s-25.667 5.16602 -35 8.49902v68c8 -2.66699 17.333 -5.16699 28 -7.5s20.667 -3.5 30 -3.5c28 0 48.833 8.83301 62.5 26.5s20.5 46.5 20.5 86.5v540h81v-548
c0 -57.333 -12.5 -100.666 -37.5 -129.999s-63.167 -44 -114.5 -44zM822 616v91h99v-91h-99z" />
    <glyph glyph-name="uni01CC" unicode="&#x1cc;" horiz-adv-x="823" 
d="M79 0l0.000976562 385.999c0 18.667 -0.833008 37.834 -2.5 57.501s-3.5 39.167 -5.5 58.5h78l10 -110h-12c14.667 38.667 38.167 68.167 70.5 88.5s69.833 30.5 112.5 30.5c59.333 0 104.166 -15.833 134.499 -47.5s45.5 -81.5 45.5 -149.5v-314h-81v309
c0 47.333 -9.5 81.833 -28.5 103.5s-48.5 32.5 -88.5 32.5c-46.667 0 -83.667 -14.333 -111 -43s-41 -67 -41 -115v-287h-81zM599.001 -220.001c-9.33301 0 -21 1.16699 -35 3.5s-25.667 5.16602 -35 8.49902v68c8 -2.66699 17.333 -5.16699 28 -7.5s20.667 -3.5 30 -3.5
c28 0 48.833 8.83301 62.5 26.5s20.5 46.5 20.5 86.5v540h81v-548c0 -57.333 -12.5 -100.666 -37.5 -129.999s-63.167 -44 -114.5 -44zM661.001 615.999v91h99v-91h-99z" />
    <glyph glyph-name="uni01CD" unicode="&#x1cd;" horiz-adv-x="735" 
d="M18 0l311 705h72l316 -705h-86l-88 201l37 -21h-431l40 21l-86 -201h-85zM364 610l-162 -380l-24 18h372l-18 -18l-166 380h-2zM328 765l-123 172h61l100 -119l100 119h61l-123 -172h-76z" />
    <glyph glyph-name="uni01CE" unicode="&#x1ce;" 
d="M270 -9c-44.667 0 -83.667 10.499 -117 31.499s-59.166 50.833 -77.499 89.5s-27.5 85 -27.5 139c0 54.667 9.16699 101.334 27.5 140.001s44.166 68.334 77.499 89.001s72.333 31 117 31c45.333 0 84.5 -11.5 117.5 -34.5s54.833 -54.167 65.5 -93.5h-12l11 119h78
c-2 -19.333 -3.83301 -38.833 -5.5 -58.5s-2.5 -38.834 -2.5 -57.501v-386h-81v118h11c-10.667 -39.333 -32.667 -70.333 -66 -93s-72 -34 -116 -34zM286 56.999c48 0 86 16.5 114 49.5s42 81.167 42 144.5c0 64 -14 112.5 -42 145.5s-66 49.5 -114 49.5
c-47.333 0 -85.166 -16.5 -113.499 -49.5s-42.5 -81.5 -42.5 -145.5c0 -63.333 14.167 -111.5 42.5 -144.5s66.166 -49.5 113.499 -49.5zM255 550.999l-109 202h56l92 -148l92 148h56l-109 -202h-78z" />
    <glyph glyph-name="uni01D4" unicode="&#x1d4;" horiz-adv-x="577" 
d="M256 -9c-59.333 0 -104.167 16.333 -134.5 49s-45.5 82.667 -45.5 150v312h81v-310c0 -46 9.33301 -79.833 28 -101.5s47.667 -32.5 87 -32.5c44 0 79.333 14.5 106 43.5s40 67.167 40 114.5v286h81v-502h-79v113h13c-14 -38.667 -36.5 -68.667 -67.5 -90
s-67.5 -32 -109.5 -32zM249.999 552l-109 202h56l92 -148l92 148h56l-109 -202h-78z" />
    <glyph glyph-name="uni01E5" unicode="&#x1e5;" horiz-adv-x="604" 
d="M299 -223c-43.333 0 -83.168 5.32617 -119.501 15.9932s-69.166 27 -98.499 49l23 62c20.667 -15.333 41 -27.666 61 -36.999s40.833 -16.166 62.5 -20.499s44.5 -6.5 68.5 -6.5c77.333 0 124.666 31 141.999 93l8 -10h-132v46h142l-12 -13
c0.666992 5.33301 1.16699 10.5 1.5 15.5s0.5 10.5 0.5 16.5v161h10c-10.667 -39.333 -32.667 -70.166 -66 -92.499s-72.333 -33.5 -117 -33.5c-46 0 -85.833 9.83301 -119.5 29.5s-59.667 47.834 -78 84.501s-27.5 80 -27.5 130s9.16699 93.333 27.5 130
s44.333 64.834 78 84.501s73.5 29.5 119.5 29.5c44.667 0 83.667 -11.167 117 -33.5s55.333 -53.5 66 -93.5l-15 -1l11 119h78c-2 -19.333 -3.83301 -38.833 -5.5 -58.5s-2.5 -38.834 -2.5 -57.501l3 -383c0 -7.33301 -0.166992 -14.666 -0.5 -21.999
s-1.16602 -14.666 -2.49902 -21.999l-9 10h82v-46h-88l12 10c-10.667 -51.333 -34.5 -90.166 -71.5 -116.499s-86.5 -39.5 -148.5 -39.5zM287.998 87.9932c48 0 86.167 15.667 114.5 47s42.5 75.333 42.5 132s-14.167 100.667 -42.5 132s-66.5 47 -114.5 47
c-48.667 0 -87.167 -15.667 -115.5 -47s-42.5 -75.333 -42.5 -132c0 -57.333 14.167 -101.5 42.5 -132.5s66.833 -46.5 115.5 -46.5z" />
    <glyph glyph-name="Gcaron" unicode="&#x1e6;" horiz-adv-x="731" 
d="M412 -9c-77.333 0 -142.001 14.334 -194.001 43.001s-91 70 -117 124s-39 118.667 -39 194c0 74.667 13.667 139 41 193s66.666 95.667 117.999 125s113.333 44 186 44c51.333 0 95.833 -7.5 133.5 -22.5s71.5 -37.167 101.5 -66.5l-31 -65
c-22 19.333 -43.167 34.666 -63.5 45.999s-41.5 19.833 -63.5 25.5s-47.667 8.5 -77 8.5c-83.333 0 -147.166 -25.167 -191.499 -75.5s-66.5 -121.5 -66.5 -213.5c0 -92.667 21.5 -163.667 64.5 -213s109.833 -74 200.5 -74c33.333 0 65.166 3.16699 95.499 9.5
s59.833 15.5 88.5 27.5l-18 -45v248h-180v65h251v-327c-18.667 -10 -41.167 -18.833 -67.5 -26.5s-54.166 -13.667 -83.499 -18s-58.666 -6.5 -87.999 -6.5zM361.999 765.001l-123 172h61l100 -119l100 119h61l-123 -172h-76z" />
    <glyph glyph-name="gcaron" unicode="&#x1e7;" horiz-adv-x="603" 
d="M300 -223c-43.333 0 -83.332 5.33594 -119.999 16.0029s-69.667 27 -99 49l24 61c20.667 -14.667 41 -26.334 61 -35.001s40.667 -15.167 62 -19.5s44 -6.5 68 -6.5c49.333 0 86.666 13 111.999 39s38 63 38 111v147h10c-10.667 -39.333 -32.667 -70.5 -66 -93.5
s-72.333 -34.5 -117 -34.5c-46 0 -85.833 10.167 -119.5 30.5s-59.667 49.333 -78 87s-27.5 82.167 -27.5 133.5c0 50.667 9.16699 94.667 27.5 132s44.333 66.166 78 86.499s73.5 30.5 119.5 30.5c45.333 0 84.5 -11.333 117.5 -34s54.833 -54 65.5 -94l-10 10l9 109h79
c-2.66699 -19.333 -4.66699 -38.833 -6 -58.5s-2 -38.834 -2 -57.501v-383c0 -74.667 -19.167 -131 -57.5 -169s-94.5 -57 -168.5 -57zM288.001 77.0029c48.667 0 87 16.167 115 48.5s42 77.833 42 136.5s-14 104 -42 136s-66.333 48 -115 48c-48 0 -86.333 -16 -115 -48
s-43 -77.333 -43 -136s14.333 -104.167 43 -136.5s67 -48.5 115 -48.5zM266.001 551.003l-109 202h56l92 -148l92 148h56l-109 -202h-78z" />
    <glyph glyph-name="uni01E9" unicode="&#x1e9;" horiz-adv-x="515" 
d="M79 0v736h81v-457h2l233 223h102l-275 -262l2 41l299 -281h-105l-256 236h-2v-236h-81zM225 773l-123 172h61l100 -119l100 119h61l-123 -172h-76z" />
    <glyph glyph-name="uni01EA" unicode="&#x1ea;" horiz-adv-x="772" 
d="M62 353c0 74.667 12.833 138.833 38.5 192.5s62.667 95.167 111 124.5s106.5 44 174.5 44c66 0 123.333 -14.667 172 -44s86.167 -70.833 112.5 -124.5s39.5 -117.5 39.5 -191.5c0 -74.667 -13.333 -139 -40 -193s-64.167 -95.833 -112.5 -125.5
s-105.5 -44.5 -171.5 -44.5c-68 0 -126 14.833 -174 44.5s-85 71.5 -111 125.5s-39 118 -39 192zM149 352.999c0 -60.667 9 -112.502 27 -155.502s44.667 -76 80 -99s78.666 -34.5 129.999 -34.5c74.667 0 132.834 25.5 174.501 76.5s62.5 121.833 62.5 212.5
c0 61.333 -9.33301 113.333 -28 156s-45.667 75.334 -81 98.001s-78 34 -128 34c-78 0 -137 -25.167 -177 -75.5s-60 -121.166 -60 -212.499zM428 -192.003c-32 0 -57.667 8.66504 -77 25.998s-29 41 -29 71c0 26.667 8.66699 51.834 26 75.501s40.666 42.167 69.999 55.5
l29 -36c-10.667 -4 -21.167 -10.167 -31.5 -18.5s-18.833 -18.166 -25.5 -29.499s-10 -24 -10 -38c0 -18.667 5.66699 -32.667 17 -42s25 -14 41 -14c9.33301 0 18.333 1 27 3s17.667 5 27 9l14 -45c-9.33301 -5.33301 -20.666 -9.5 -33.999 -12.5s-28 -4.5 -44 -4.5z" />
    <glyph glyph-name="uni01EB" unicode="&#x1eb;" horiz-adv-x="571" 
d="M285 -9c-48 0 -89.833 10.5 -125.5 31.5s-63.167 51 -82.5 90s-29 85.167 -29 138.5c0 54 9.66699 100.333 29 139s46.833 68.5 82.5 89.5s77.5 31.5 125.5 31.5c48.667 0 90.834 -10.5 126.501 -31.5s63.334 -50.833 83.001 -89.5s29.5 -85 29.5 -139
c0 -53.333 -9.83301 -99.5 -29.5 -138.5s-47.334 -69 -83.001 -90s-77.834 -31.5 -126.501 -31.5zM285 57c48 0 86 16.5 114 49.5s42 81.167 42 144.5c0 64 -14 112.5 -42 145.5s-66 49.5 -114 49.5c-47.333 0 -85 -16.5 -113 -49.5s-42 -81.5 -42 -145.5
c0 -63.333 14 -111.5 42 -144.5s65.667 -49.5 113 -49.5zM323 -192c-32 0 -57.667 8.66504 -77 25.998s-29 41 -29 71c0 26.667 8.66699 51.834 26 75.501s40.666 42.167 69.999 55.5l29 -36c-10.667 -4 -21.167 -10.167 -31.5 -18.5s-18.833 -18.166 -25.5 -29.499
s-10 -24 -10 -38c0 -18.667 5.66699 -32.667 17 -42s25 -14 41 -14c9.33301 0 18.333 1 27 3s17.667 5 27 9l14 -45c-9.33301 -5.33301 -20.666 -9.5 -33.999 -12.5s-28 -4.5 -44 -4.5z" />
    <glyph glyph-name="Aringacute" unicode="&#x1fa;" horiz-adv-x="735" 
d="M18 0l311 705h72l316 -705h-86l-88 201l37 -21h-431l40 21l-86 -201h-85zM364 610l-162 -380l-24 18h372l-18 -18l-166 380h-2zM366 758c-21.333 0 -40.834 5 -58.501 15s-31.667 23.667 -42 41s-15.5 36.333 -15.5 57c0 21.333 5.16699 40.5 15.5 57.5
s24.333 30.667 42 41s37.167 15.5 58.5 15.5c12.667 0 24.5 -1.66699 35.5 -5s21.167 -8.33301 30.5 -15l71 66h79l-117 -100c11.333 -17.333 17 -37.333 17 -60c0 -20.667 -5.16699 -39.667 -15.5 -57s-24.166 -31 -41.499 -41s-37 -15 -59 -15zM365.999 799
c21.333 0 38.666 7 51.999 21s20 31 20 51c0 20.667 -6.66699 37.834 -20 51.501s-30.666 20.5 -51.999 20.5c-20.667 0 -37.834 -6.83301 -51.501 -20.5s-20.5 -30.834 -20.5 -51.501c0 -20 6.83301 -37 20.5 -51s30.834 -21 51.501 -21z" />
    <glyph glyph-name="aringacute" unicode="&#x1fb;" 
d="M270 -9c-44.667 0 -83.667 10.499 -117 31.499s-59.166 50.833 -77.499 89.5s-27.5 85 -27.5 139c0 54.667 9.16699 101.334 27.5 140.001s44.166 68.334 77.499 89.001s72.333 31 117 31c45.333 0 84.5 -11.5 117.5 -34.5s54.833 -54.167 65.5 -93.5h-12l11 119h78
c-2 -19.333 -3.83301 -38.833 -5.5 -58.5s-2.5 -38.834 -2.5 -57.501v-386h-81v118h11c-10.667 -39.333 -32.667 -70.333 -66 -93s-72 -34 -116 -34zM286 56.999c48 0 86 16.5 114 49.5s42 81.167 42 144.5c0 64 -14 112.5 -42 145.5s-66 49.5 -114 49.5
c-47.333 0 -85.166 -16.5 -113.499 -49.5s-42.5 -81.5 -42.5 -145.5c0 -63.333 14.167 -111.5 42.5 -144.5s66.166 -49.5 113.499 -49.5zM294 543.999c-21.333 0 -40.834 5.16797 -58.501 15.501s-31.667 24 -42 41s-15.5 35.833 -15.5 56.5
c0 21.333 5.16699 40.666 15.5 57.999s24.333 31 42 41s37.167 15 58.5 15c12.667 0 24.5 -1.66699 35.5 -5s21.167 -8.33301 30.5 -15l71 66h79l-117 -99c11.333 -18 17 -38.333 17 -61c0 -20.667 -5.16699 -39.5 -15.5 -56.5s-24.166 -30.667 -41.499 -41
s-37 -15.5 -59 -15.5zM293.999 586c21.333 0 38.666 6.83301 51.999 20.5s20 30.5 20 50.5c0 21.333 -6.66699 38.666 -20 51.999s-30.666 20 -51.999 20c-20.667 0 -37.834 -6.66699 -51.501 -20s-20.5 -30.666 -20.5 -51.999c0 -20 6.83301 -36.833 20.5 -50.5
s30.834 -20.5 51.501 -20.5z" />
    <glyph glyph-name="AEacute" unicode="&#x1fc;" horiz-adv-x="1006" 
d="M-2 0l431 705h527v-68h-399l21 22l26 -289l-17 22h347v-69h-340l13 10l27 -288l-12 24h334v-69h-396l-18 196l26 -16h-384l28 22l-122 -202h-92zM471 636l-243 -407l-10 20h331l-9 -22l-37 409h-32zM485 765l118 172h91l-147 -172h-62z" />
    <glyph glyph-name="aeacute" unicode="&#x1fd;" horiz-adv-x="882" 
d="M240 -9c-35.333 0 -66.6699 6.83105 -94.0029 20.498s-48.666 32.167 -63.999 55.5s-23 49.333 -23 78c0 38.667 9 69.167 27 91.5s48.167 38.166 90.5 47.499s100.5 14 174.5 14h51v-51h-50c-56 0 -99.667 -3 -131 -9s-53.333 -16 -66 -30s-19 -33.667 -19 -59
c0 -28.667 10.167 -52 30.5 -70s48.166 -27 83.499 -27c28 0 52.667 6.5 74 19.5s38.166 31 50.499 54s18.5 49.833 18.5 80.5v120c0 42.667 -9.5 73.334 -28.5 92.001s-48.167 28 -87.5 28c-30.667 0 -59.5 -4 -86.5 -12s-54.5 -21.333 -82.5 -40l-28 60
c17.333 12 36.833 22.167 58.5 30.5s44.334 14.833 68.001 19.5s47.5 7 71.5 7c51.333 0 91.5 -10.5 120.5 -31.5s48.167 -52.167 57.5 -93.5h-25c20 40.667 46.5 71.667 79.5 93s72.167 32 117.5 32c43.333 0 80.5 -9.5 111.5 -28.5s55 -46.167 72 -81.5
s25.5 -77.666 25.5 -126.999v-27h-377v51h323l-17 -15c0 52.667 -12 93.834 -36 123.501s-58.667 44.5 -104 44.5c-31.333 0 -58.666 -7 -81.999 -21s-41.166 -34.5 -53.499 -61.5s-18.5 -60.5 -18.5 -100.5v-8c0 -64.667 14.5 -114.667 43.5 -150s71.5 -53 127.5 -53
c28.667 0 56.167 4.66699 82.5 14s51.5 24 75.5 44l29 -57c-22.667 -21.333 -51 -37.833 -85 -49.5s-68.667 -17.5 -104 -17.5c-59.333 0 -108.166 13.5 -146.499 40.5s-64.833 65.833 -79.5 116.5h21c-10 -48.667 -32.333 -87 -67 -115s-77.667 -42 -129 -42z
M405.996 550.998l103 202h87l-132 -202h-58z" />
    <glyph glyph-name="Oslashacute" unicode="&#x1fe;" horiz-adv-x="772" 
d="M62 353c0 74.667 12.833 138.833 38.5 192.5s62.667 95.167 111 124.5s106.5 44 174.5 44c66 0 123.333 -14.667 172 -44s86.167 -70.833 112.5 -124.5s39.5 -117.5 39.5 -191.5c0 -74.667 -13.333 -139 -40 -193s-64.167 -95.833 -112.5 -125.5
s-105.5 -44.5 -171.5 -44.5c-68 0 -126 14.833 -174 44.5s-85 71.5 -111 125.5s-39 118 -39 192zM149 352.999c0 -60.667 9 -112.502 27 -155.502s44.667 -76 80 -99s78.666 -34.5 129.999 -34.5c74.667 0 132.834 25.5 174.501 76.5s62.5 121.833 62.5 212.5
c0 61.333 -9.33301 113.333 -28 156s-45.667 75.334 -81 98.001s-78 34 -128 34c-78 0 -137 -25.167 -177 -75.5s-60 -121.166 -60 -212.499zM247 45.9971l-54 -93l-56 33l54 93l26 37l296 507l17 37l54 92l56 -33l-54 -93l-26 -36l-296 -508zM355 764.997l118 172h91
l-147 -172h-62z" />
    <glyph glyph-name="oslashacute" unicode="&#x1ff;" horiz-adv-x="571" 
d="M285 -9c-48 0 -89.833 10.5 -125.5 31.5s-63.167 51 -82.5 90s-29 85.167 -29 138.5c0 54 9.66699 100.333 29 139s46.833 68.5 82.5 89.5s77.5 31.5 125.5 31.5c48.667 0 90.834 -10.5 126.501 -31.5s63.334 -50.833 83.001 -89.5s29.5 -85 29.5 -139
c0 -53.333 -9.83301 -99.5 -29.5 -138.5s-47.334 -69 -83.001 -90s-77.834 -31.5 -126.501 -31.5zM285 57c50 0 89.333 16.833 118 50.5s43 81.5 43 143.5c0 62.667 -14.333 110.834 -43 144.501s-68 50.5 -118 50.5s-89.167 -16.833 -117.5 -50.5
s-42.5 -81.834 -42.5 -144.501c0 -62 14.167 -109.833 42.5 -143.5s67.5 -50.5 117.5 -50.5zM147 -39l-43 27l322 554l44 -27zM257 551l103 202h87l-132 -202h-58z" />
    <glyph glyph-name="uni0200" unicode="&#x200;" horiz-adv-x="735" 
d="M18 0l311 705h72l316 -705h-86l-88 201l37 -21h-431l40 21l-86 -201h-85zM364 610l-162 -380l-24 18h372l-18 -18l-166 380h-2zM406 765l-119 172h81l85 -172h-47zM279 765l-122 172h80l89 -172h-47z" />
    <glyph glyph-name="uni0201" unicode="&#x201;" 
d="M270 -9c-44.667 0 -83.667 10.499 -117 31.499s-59.166 50.833 -77.499 89.5s-27.5 85 -27.5 139c0 54.667 9.16699 101.334 27.5 140.001s44.166 68.334 77.499 89.001s72.333 31 117 31c45.333 0 84.5 -11.5 117.5 -34.5s54.833 -54.167 65.5 -93.5h-12l11 119h78
c-2 -19.333 -3.83301 -38.833 -5.5 -58.5s-2.5 -38.834 -2.5 -57.501v-386h-81v118h11c-10.667 -39.333 -32.667 -70.333 -66 -93s-72 -34 -116 -34zM286 56.999c48 0 86 16.5 114 49.5s42 81.167 42 144.5c0 64 -14 112.5 -42 145.5s-66 49.5 -114 49.5
c-47.333 0 -85.166 -16.5 -113.499 -49.5s-42.5 -81.5 -42.5 -145.5c0 -63.333 14.167 -111.5 42.5 -144.5s66.166 -49.5 113.499 -49.5zM336 550.999l-84 202h75l54 -202h-45zM208 550.999l-83 202h75l53 -202h-45z" />
    <glyph glyph-name="uni0202" unicode="&#x202;" horiz-adv-x="735" 
d="M18 0l311 705h72l316 -705h-86l-88 201l37 -21h-431l40 21l-86 -201h-85zM364 610l-162 -380l-24 18h372l-18 -18l-166 380h-2zM248 760l-50.999 6c4 52.667 21.333 94 52 124s69.667 45 117 45c31.333 0 59.166 -6.83301 83.499 -20.5s44 -33 59 -58
s23.833 -55.167 26.5 -90.5l-51 -6c-2.66699 38.667 -14.5 68.5 -35.5 89.5s-48.5 31.5 -82.5 31.5s-61.333 -10.5 -82 -31.5s-32.667 -50.833 -36 -89.5z" />
    <glyph glyph-name="uni0203" unicode="&#x203;" 
d="M270 -9c-44.667 0 -83.667 10.499 -117 31.499s-59.166 50.833 -77.499 89.5s-27.5 85 -27.5 139c0 54.667 9.16699 101.334 27.5 140.001s44.166 68.334 77.499 89.001s72.333 31 117 31c45.333 0 84.5 -11.5 117.5 -34.5s54.833 -54.167 65.5 -93.5h-12l11 119h78
c-2 -19.333 -3.83301 -38.833 -5.5 -58.5s-2.5 -38.834 -2.5 -57.501v-386h-81v118h11c-10.667 -39.333 -32.667 -70.333 -66 -93s-72 -34 -116 -34zM286 56.999c48 0 86 16.5 114 49.5s42 81.167 42 144.5c0 64 -14 112.5 -42 145.5s-66 49.5 -114 49.5
c-47.333 0 -85.166 -16.5 -113.499 -49.5s-42.5 -81.5 -42.5 -145.5c0 -63.333 14.167 -111.5 42.5 -144.5s66.166 -49.5 113.499 -49.5zM191 543.999l-50.9971 5c2 39.333 9.33301 73.166 22 101.499s30.334 50.166 53.001 65.499s49 23 79 23s56.333 -7.66699 79 -23
s40.5 -37.166 53.5 -65.499s20.167 -62.166 21.5 -101.499l-51 -5c-2.66699 44.667 -12.834 79.167 -30.501 103.5s-41.834 36.5 -72.501 36.5s-54.834 -12.167 -72.501 -36.5s-27.834 -58.833 -30.501 -103.5z" />
    <glyph glyph-name="uni0204" unicode="&#x204;" horiz-adv-x="588" 
d="M88 0v705h450v-68h-369v-245h347v-69h-347v-254h369v-69h-450zM368 765l-119 172h81l85 -172h-47zM241 765l-122 172h80l89 -172h-47z" />
    <glyph glyph-name="uni0205" unicode="&#x205;" horiz-adv-x="544" 
d="M302 -9c-52 0 -97 10.168 -135 30.501s-67.333 50 -88 89s-31 85.5 -31 139.5c0 52.667 10 98.5 30 137.5s48 69.333 84 91s77.333 32.5 124 32.5c46 0 84.667 -9.66699 116 -29s55.333 -46.833 72 -82.5s25 -77.834 25 -126.501v-30h-389v51h336l-17 -13
c0 53.333 -12 95 -36 125s-59.667 45 -107 45c-34 0 -62.833 -8 -86.5 -24s-41.667 -38.333 -54 -67s-18.5 -63 -18.5 -103v-9c0 -62.667 15.5 -110.167 46.5 -142.5s74.5 -48.5 130.5 -48.5c30 0 58.167 4.5 84.5 13.5s51.5 23.833 75.5 44.5l28 -57
c-22 -21.333 -49.833 -37.833 -83.5 -49.5s-69.167 -17.5 -106.5 -17.5zM328 551.001l-84 202h75l54 -202h-45zM200 551.001l-83 202h75l53 -202h-45z" />
    <glyph glyph-name="uni0206" unicode="&#x206;" horiz-adv-x="588" 
d="M88 0v705h450v-68h-369v-245h347v-69h-347v-254h369v-69h-450zM210 760l-50.999 6c4 52.667 21.333 94 52 124s69.667 45 117 45c31.333 0 59.166 -6.83301 83.499 -20.5s44 -33 59 -58s23.833 -55.167 26.5 -90.5l-51 -6c-2.66699 38.667 -14.5 68.5 -35.5 89.5
s-48.5 31.5 -82.5 31.5s-61.333 -10.5 -82 -31.5s-32.667 -50.833 -36 -89.5z" />
    <glyph glyph-name="uni0207" unicode="&#x207;" horiz-adv-x="544" 
d="M302 -9c-52 0 -97 10.168 -135 30.501s-67.333 50 -88 89s-31 85.5 -31 139.5c0 52.667 10 98.5 30 137.5s48 69.333 84 91s77.333 32.5 124 32.5c46 0 84.667 -9.66699 116 -29s55.333 -46.833 72 -82.5s25 -77.834 25 -126.501v-30h-389v51h336l-17 -13
c0 53.333 -12 95 -36 125s-59.667 45 -107 45c-34 0 -62.833 -8 -86.5 -24s-41.667 -38.333 -54 -67s-18.5 -63 -18.5 -103v-9c0 -62.667 15.5 -110.167 46.5 -142.5s74.5 -48.5 130.5 -48.5c30 0 58.167 4.5 84.5 13.5s51.5 23.833 75.5 44.5l28 -57
c-22 -21.333 -49.833 -37.833 -83.5 -49.5s-69.167 -17.5 -106.5 -17.5zM183 544.001l-50.9971 5c2 39.333 9.33301 73.166 22 101.499s30.334 50.166 53.001 65.499s49 23 79 23s56.333 -7.66699 79 -23s40.5 -37.166 53.5 -65.499s20.167 -62.166 21.5 -101.499l-51 -5
c-2.66699 44.667 -12.834 79.167 -30.501 103.5s-41.834 36.5 -72.501 36.5s-54.834 -12.167 -72.501 -36.5s-27.834 -58.833 -30.501 -103.5z" />
    <glyph glyph-name="uni0208" unicode="&#x208;" horiz-adv-x="259" 
d="M88 0v705h83v-705h-83zM169 765l-119 172h81l85 -172h-47zM42 765l-122 172h80l89 -172h-47z" />
    <glyph glyph-name="uni0209" unicode="&#x209;" horiz-adv-x="238" 
d="M79 0v502h81v-502h-81zM161 551l-84 202h75l54 -202h-45zM33 551l-83 202h75l53 -202h-45z" />
    <glyph glyph-name="uni020A" unicode="&#x20a;" horiz-adv-x="259" 
d="M88 0v705h83v-705h-83zM11 760l-50.999 6c4 52.667 21.333 94 52 124s69.667 45 117 45c31.333 0 59.166 -6.83301 83.499 -20.5s44 -33 59 -58s23.833 -55.167 26.5 -90.5l-51 -6c-2.66699 38.667 -14.5 68.5 -35.5 89.5s-48.5 31.5 -82.5 31.5s-61.333 -10.5 -82 -31.5
s-32.667 -50.833 -36 -89.5z" />
    <glyph glyph-name="uni020B" unicode="&#x20b;" horiz-adv-x="238" 
d="M79 0v502h81v-502h-81zM16 544l-50.9971 5c2 39.333 9.33301 73.166 22 101.499s30.334 50.166 53.001 65.499s49 23 79 23s56.333 -7.66699 79 -23s40.5 -37.166 53.5 -65.499s20.167 -62.166 21.5 -101.499l-51 -5c-2.66699 44.667 -12.834 79.167 -30.501 103.5
s-41.834 36.5 -72.501 36.5s-54.834 -12.167 -72.501 -36.5s-27.834 -58.833 -30.501 -103.5z" />
    <glyph glyph-name="uni020C" unicode="&#x20c;" horiz-adv-x="772" 
d="M62 353c0 74.667 12.833 138.833 38.5 192.5s62.667 95.167 111 124.5s106.5 44 174.5 44c66 0 123.333 -14.667 172 -44s86.167 -70.833 112.5 -124.5s39.5 -117.5 39.5 -191.5c0 -74.667 -13.333 -139 -40 -193s-64.167 -95.833 -112.5 -125.5
s-105.5 -44.5 -171.5 -44.5c-68 0 -126 14.833 -174 44.5s-85 71.5 -111 125.5s-39 118 -39 192zM149 352.999c0 -60.667 9 -112.502 27 -155.502s44.667 -76 80 -99s78.666 -34.5 129.999 -34.5c74.667 0 132.834 25.5 174.501 76.5s62.5 121.833 62.5 212.5
c0 61.333 -9.33301 113.333 -28 156s-45.667 75.334 -81 98.001s-78 34 -128 34c-78 0 -137 -25.167 -177 -75.5s-60 -121.166 -60 -212.499zM426 764.997l-119 172h81l85 -172h-47zM299 764.997l-122 172h80l89 -172h-47z" />
    <glyph glyph-name="uni020D" unicode="&#x20d;" horiz-adv-x="571" 
d="M285 -9c-48 0 -89.833 10.5 -125.5 31.5s-63.167 51 -82.5 90s-29 85.167 -29 138.5c0 54 9.66699 100.333 29 139s46.833 68.5 82.5 89.5s77.5 31.5 125.5 31.5c48.667 0 90.834 -10.5 126.501 -31.5s63.334 -50.833 83.001 -89.5s29.5 -85 29.5 -139
c0 -53.333 -9.83301 -99.5 -29.5 -138.5s-47.334 -69 -83.001 -90s-77.834 -31.5 -126.501 -31.5zM285 57c48 0 86 16.5 114 49.5s42 81.167 42 144.5c0 64 -14 112.5 -42 145.5s-66 49.5 -114 49.5c-47.333 0 -85 -16.5 -113 -49.5s-42 -81.5 -42 -145.5
c0 -63.333 14 -111.5 42 -144.5s65.667 -49.5 113 -49.5zM328 551l-84 202h75l54 -202h-45zM200 551l-83 202h75l53 -202h-45z" />
    <glyph glyph-name="uni020E" unicode="&#x20e;" horiz-adv-x="772" 
d="M62 353c0 74.667 12.833 138.833 38.5 192.5s62.667 95.167 111 124.5s106.5 44 174.5 44c66 0 123.333 -14.667 172 -44s86.167 -70.833 112.5 -124.5s39.5 -117.5 39.5 -191.5c0 -74.667 -13.333 -139 -40 -193s-64.167 -95.833 -112.5 -125.5
s-105.5 -44.5 -171.5 -44.5c-68 0 -126 14.833 -174 44.5s-85 71.5 -111 125.5s-39 118 -39 192zM149 352.999c0 -60.667 9 -112.502 27 -155.502s44.667 -76 80 -99s78.666 -34.5 129.999 -34.5c74.667 0 132.834 25.5 174.501 76.5s62.5 121.833 62.5 212.5
c0 61.333 -9.33301 113.333 -28 156s-45.667 75.334 -81 98.001s-78 34 -128 34c-78 0 -137 -25.167 -177 -75.5s-60 -121.166 -60 -212.499zM268 759.997l-50.999 6c4 52.667 21.333 94 52 124s69.667 45 117 45c31.333 0 59.166 -6.83301 83.499 -20.5s44 -33 59 -58
s23.833 -55.167 26.5 -90.5l-51 -6c-2.66699 38.667 -14.5 68.5 -35.5 89.5s-48.5 31.5 -82.5 31.5s-61.333 -10.5 -82 -31.5s-32.667 -50.833 -36 -89.5z" />
    <glyph glyph-name="uni020F" unicode="&#x20f;" horiz-adv-x="571" 
d="M285 -9c-48 0 -89.833 10.5 -125.5 31.5s-63.167 51 -82.5 90s-29 85.167 -29 138.5c0 54 9.66699 100.333 29 139s46.833 68.5 82.5 89.5s77.5 31.5 125.5 31.5c48.667 0 90.834 -10.5 126.501 -31.5s63.334 -50.833 83.001 -89.5s29.5 -85 29.5 -139
c0 -53.333 -9.83301 -99.5 -29.5 -138.5s-47.334 -69 -83.001 -90s-77.834 -31.5 -126.501 -31.5zM285 57c48 0 86 16.5 114 49.5s42 81.167 42 144.5c0 64 -14 112.5 -42 145.5s-66 49.5 -114 49.5c-47.333 0 -85 -16.5 -113 -49.5s-42 -81.5 -42 -145.5
c0 -63.333 14 -111.5 42 -144.5s65.667 -49.5 113 -49.5zM183 544l-50.9971 5c2 39.333 9.33301 73.166 22 101.499s30.334 50.166 53.001 65.499s49 23 79 23s56.333 -7.66699 79 -23s40.5 -37.166 53.5 -65.499s20.167 -62.166 21.5 -101.499l-51 -5
c-2.66699 44.667 -12.834 79.167 -30.501 103.5s-41.834 36.5 -72.501 36.5s-54.834 -12.167 -72.501 -36.5s-27.834 -58.833 -30.501 -103.5z" />
    <glyph glyph-name="uni0210" unicode="&#x210;" horiz-adv-x="692" 
d="M88 0l-0.000976562 704.999h288c74 0 131.333 -17.5 172 -52.5s61 -83.833 61 -146.5c0 -41.333 -9.16699 -76.5 -27.5 -105.5s-44 -51.167 -77 -66.5s-71.5 -23 -115.5 -23l18 13h20c27.333 0 51.833 -6.66699 73.5 -20s38.834 -35.666 51.501 -66.999l100 -237h-91
l-96 233c-11.333 30 -28.333 49.5 -51 58.5s-51 13.5 -85 13.5h-158v-305h-83zM170.999 369.999h193c53.333 0 93.833 11.5 121.5 34.5s41.5 56.167 41.5 99.5s-13.833 76.333 -41.5 99s-68.167 34 -121.5 34h-193v-267zM385.999 764.999l-119 172h81l85 -172h-47z
M258.999 764.999l-122 172h80l89 -172h-47z" />
    <glyph glyph-name="uni0211" unicode="&#x211;" horiz-adv-x="363" 
d="M77 0l-0.00390625 381.001c0 20 -0.5 40.333 -1.5 61s-2.5 40.667 -4.5 60h78l10 -122l-14 -1c6.66699 30 18.334 54.667 35.001 74s36.334 33.833 59.001 43.5s46.334 14.5 71.001 14.5c10 0 18.833 -0.333008 26.5 -1s14.834 -2.33398 21.501 -5.00098l-1 -72
c-10 3.33301 -19.167 5.5 -27.5 6.5s-17.833 1.5 -28.5 1.5c-29.333 0 -54.833 -7 -76.5 -21s-38 -32 -49 -54s-16.5 -45.333 -16.5 -70v-296h-82zM264.996 551.001l-84 202h75l54 -202h-45zM136.996 551.001l-83 202h75l53 -202h-45z" />
    <glyph glyph-name="uni0212" unicode="&#x212;" horiz-adv-x="692" 
d="M88 0l-0.000976562 704.999h288c74 0 131.333 -17.5 172 -52.5s61 -83.833 61 -146.5c0 -41.333 -9.16699 -76.5 -27.5 -105.5s-44 -51.167 -77 -66.5s-71.5 -23 -115.5 -23l18 13h20c27.333 0 51.833 -6.66699 73.5 -20s38.834 -35.666 51.501 -66.999l100 -237h-91
l-96 233c-11.333 30 -28.333 49.5 -51 58.5s-51 13.5 -85 13.5h-158v-305h-83zM170.999 369.999h193c53.333 0 93.833 11.5 121.5 34.5s41.5 56.167 41.5 99.5s-13.833 76.333 -41.5 99s-68.167 34 -121.5 34h-193v-267zM227.999 759.999l-50.999 6
c4 52.667 21.333 94 52 124s69.667 45 117 45c31.333 0 59.166 -6.83301 83.499 -20.5s44 -33 59 -58s23.833 -55.167 26.5 -90.5l-51 -6c-2.66699 38.667 -14.5 68.5 -35.5 89.5s-48.5 31.5 -82.5 31.5s-61.333 -10.5 -82 -31.5s-32.667 -50.833 -36 -89.5z" />
    <glyph glyph-name="uni0213" unicode="&#x213;" horiz-adv-x="363" 
d="M77 0l-0.00390625 381.001c0 20 -0.5 40.333 -1.5 61s-2.5 40.667 -4.5 60h78l10 -122l-14 -1c6.66699 30 18.334 54.667 35.001 74s36.334 33.833 59.001 43.5s46.334 14.5 71.001 14.5c10 0 18.833 -0.333008 26.5 -1s14.834 -2.33398 21.501 -5.00098l-1 -72
c-10 3.33301 -19.167 5.5 -27.5 6.5s-17.833 1.5 -28.5 1.5c-29.333 0 -54.833 -7 -76.5 -21s-38 -32 -49 -54s-16.5 -45.333 -16.5 -70v-296h-82zM119.996 544.001l-50.9971 5c2 39.333 9.33301 73.166 22 101.499s30.334 50.166 53.001 65.499s49 23 79 23
s56.333 -7.66699 79 -23s40.5 -37.166 53.5 -65.499s20.167 -62.166 21.5 -101.499l-51 -5c-2.66699 44.667 -12.834 79.167 -30.501 103.5s-41.834 36.5 -72.501 36.5s-54.834 -12.167 -72.501 -36.5s-27.834 -58.833 -30.501 -103.5z" />
    <glyph glyph-name="uni0214" unicode="&#x214;" horiz-adv-x="730" 
d="M366 -9c-63.333 0 -116 10.833 -158 32.5s-73.167 54 -93.5 97s-30.5 95.833 -30.5 158.5v426h82v-422c0 -72.667 16 -127.334 48 -164.001s82.667 -55 152 -55c65.333 0 115 18.333 149 55s51 91.334 51 164.001v422h82v-426c0 -62.667 -10.667 -115.5 -32 -158.5
s-53 -75.333 -95 -97s-93.667 -32.5 -155 -32.5zM406 765l-119 172h81l85 -172h-47zM279 765l-122 172h80l89 -172h-47z" />
    <glyph glyph-name="uni0215" unicode="&#x215;" horiz-adv-x="577" 
d="M256 -9c-59.333 0 -104.167 16.333 -134.5 49s-45.5 82.667 -45.5 150v312h81v-310c0 -46 9.33301 -79.833 28 -101.5s47.667 -32.5 87 -32.5c44 0 79.333 14.5 106 43.5s40 67.167 40 114.5v286h81v-502h-79v113h13c-14 -38.667 -36.5 -68.667 -67.5 -90
s-67.5 -32 -109.5 -32zM330.999 552l-84 202h75l54 -202h-45zM202.999 552l-83 202h75l53 -202h-45z" />
    <glyph glyph-name="uni0216" unicode="&#x216;" horiz-adv-x="730" 
d="M366 -9c-63.333 0 -116 10.833 -158 32.5s-73.167 54 -93.5 97s-30.5 95.833 -30.5 158.5v426h82v-422c0 -72.667 16 -127.334 48 -164.001s82.667 -55 152 -55c65.333 0 115 18.333 149 55s51 91.334 51 164.001v422h82v-426c0 -62.667 -10.667 -115.5 -32 -158.5
s-53 -75.333 -95 -97s-93.667 -32.5 -155 -32.5zM248 760l-50.999 6c4 52.667 21.333 94 52 124s69.667 45 117 45c31.333 0 59.166 -6.83301 83.499 -20.5s44 -33 59 -58s23.833 -55.167 26.5 -90.5l-51 -6c-2.66699 38.667 -14.5 68.5 -35.5 89.5s-48.5 31.5 -82.5 31.5
s-61.333 -10.5 -82 -31.5s-32.667 -50.833 -36 -89.5z" />
    <glyph glyph-name="uni0217" unicode="&#x217;" horiz-adv-x="577" 
d="M256 -9c-59.333 0 -104.167 16.333 -134.5 49s-45.5 82.667 -45.5 150v312h81v-310c0 -46 9.33301 -79.833 28 -101.5s47.667 -32.5 87 -32.5c44 0 79.333 14.5 106 43.5s40 67.167 40 114.5v286h81v-502h-79v113h13c-14 -38.667 -36.5 -68.667 -67.5 -90
s-67.5 -32 -109.5 -32zM185.999 545l-50.9971 5c2 39.333 9.33301 73.166 22 101.499s30.334 50.166 53.001 65.499s49 23 79 23s56.333 -7.66699 79 -23s40.5 -37.166 53.5 -65.499s20.167 -62.166 21.5 -101.499l-51 -5c-2.66699 44.667 -12.834 79.167 -30.501 103.5
s-41.834 36.5 -72.501 36.5s-54.834 -12.167 -72.501 -36.5s-27.834 -58.833 -30.501 -103.5z" />
    <glyph glyph-name="uni0218" unicode="&#x218;" horiz-adv-x="623" 
d="M318 -9c-56.667 0 -107.332 7.33496 -151.999 22.002s-83.667 35.667 -117 63l30 66c23.333 -17.333 46.833 -31.833 70.5 -43.5s49.167 -20.334 76.5 -26.001s58 -8.5 92 -8.5c59.333 0 103.333 11 132 33s43 51.333 43 88c0 31.333 -10 55.333 -30 72s-55 30 -105 40
l-105 21c-64.667 13.333 -112.834 35 -144.501 65s-47.5 70.667 -47.5 122c0 42 10.833 78.667 32.5 110s52.167 55.666 91.5 72.999s85 26 137 26c50 0 95.667 -7.5 137 -22.5s76.666 -36.833 105.999 -65.5l-29 -64c-31.333 28 -64.166 48.167 -98.499 60.5
s-73.166 18.5 -116.499 18.5c-54.667 0 -97.834 -11.833 -129.501 -35.5s-47.5 -55.834 -47.5 -96.501c0 -32.667 10 -58.167 30 -76.5s53 -32.166 99 -41.499l106 -21c68 -14 118 -35 150 -63s48 -67.333 48 -118c0 -38.667 -10.5 -73 -31.5 -103
s-50.833 -53.333 -89.5 -70s-84.667 -25 -138 -25zM321.002 -267.998l-36 26.001c15.333 16 25.5 31 30.5 45s7.5 29 7.5 45l21 -10h-70v82h99v-60c0 -24.667 -4.16699 -47.834 -12.5 -69.501s-21.5 -41.167 -39.5 -58.5z" />
    <glyph glyph-name="uni0219" unicode="&#x219;" horiz-adv-x="496" 
d="M246 -9c-40 0 -77.3281 5.5 -111.995 16.5s-63.334 26.5 -86.001 46.5l28 57c24.667 -19.333 51.5 -33.666 80.5 -42.999s59.167 -14 90.5 -14c40 0 70.167 7.16699 90.5 21.5s30.5 34.166 30.5 59.499c0 19.333 -6.5 34.833 -19.5 46.5s-34.167 20.834 -63.5 27.501
l-93 19c-42.667 9.33301 -74.667 25.166 -96 47.499s-32 50.833 -32 85.5c0 29.333 7.66699 55.166 23 77.499s37.666 40 66.999 53s63.666 19.5 102.999 19.5c36.667 0 70.5 -5.5 101.5 -16.5s56.833 -26.833 77.5 -47.5l-29 -56c-20 19.333 -42.833 33.833 -68.5 43.5
s-52.167 14.5 -79.5 14.5c-39.333 0 -68.833 -7.83301 -88.5 -23.5s-29.5 -36.167 -29.5 -61.5c0 -19.333 6.16699 -35.166 18.5 -47.499s31.5 -21.5 57.5 -27.5l93 -19c45.333 -10 79.166 -25.5 101.499 -46.5s33.5 -49.167 33.5 -84.5c0 -30 -8.33301 -56.167 -25 -78.5
s-39.834 -39.5 -69.501 -51.5s-64.5 -18 -104.5 -18zM243.005 -268l-36 26.001c15.333 16 25.5 31 30.5 45s7.5 29 7.5 45l21 -10h-70v82h99v-60c0 -24.667 -4.16699 -47.834 -12.5 -69.501s-21.5 -41.167 -39.5 -58.5z" />
    <glyph glyph-name="uni021A" unicode="&#x21a;" horiz-adv-x="604" 
d="M259 0v635h-249v70h580v-70h-248v-635h-83zM299 -268l-36 26.001c15.333 16 25.5 31 30.5 45s7.5 29 7.5 45l21 -10h-70v82h99v-60c0 -24.667 -4.16699 -47.834 -12.5 -69.501s-21.5 -41.167 -39.5 -58.5z" />
    <glyph glyph-name="uni021B" unicode="&#x21b;" horiz-adv-x="350" 
d="M257 -9c-49.333 0 -87 14.1689 -113 42.502s-39 71.166 -39 128.499v277h-98v63h98v137l81 23v-160h144v-63h-144v-268c0 -40 6.83301 -68.5 20.5 -85.5s34.167 -25.5 61.5 -25.5c12.667 0 24 1.16699 34 3.5s19 5.16602 27 8.49902v-68
c-9.33301 -4 -20.5 -7.16699 -33.5 -9.5s-25.833 -3.5 -38.5 -3.5zM222 -267.998l-36 26.001c15.333 16 25.5 31 30.5 45s7.5 29 7.5 45l21 -10h-70v82h99v-60c0 -24.667 -4.16699 -47.834 -12.5 -69.501s-21.5 -41.167 -39.5 -58.5z" />
    <glyph glyph-name="uni021F" unicode="&#x21f;" horiz-adv-x="586" 
d="M79 0l0.000976562 736.001h81v-345h-13c14 39.333 37.5 69.166 70.5 89.499s71.167 30.5 114.5 30.5c60 0 104.667 -16.167 134 -48.5s44 -81.166 44 -146.499v-316h-81v311c0 46.667 -9.16699 80.667 -27.5 102s-47.833 32 -88.5 32
c-46.667 0 -83.834 -14.333 -111.501 -43s-41.5 -66.334 -41.5 -113.001v-289h-81zM259.001 773.001l-123 172h61l100 -119l100 119h61l-123 -172h-76z" />
    <glyph glyph-name="uni0226" unicode="&#x226;" horiz-adv-x="735" 
d="M18 0l311 705h72l316 -705h-86l-88 201l37 -21h-431l40 21l-86 -201h-85zM364 610l-162 -380l-24 18h372l-18 -18l-166 380h-2zM321 807v88h90v-88h-90z" />
    <glyph glyph-name="uni0227" unicode="&#x227;" 
d="M270 -9c-44.667 0 -83.667 10.499 -117 31.499s-59.166 50.833 -77.499 89.5s-27.5 85 -27.5 139c0 54.667 9.16699 101.334 27.5 140.001s44.166 68.334 77.499 89.001s72.333 31 117 31c45.333 0 84.5 -11.5 117.5 -34.5s54.833 -54.167 65.5 -93.5h-12l11 119h78
c-2 -19.333 -3.83301 -38.833 -5.5 -58.5s-2.5 -38.834 -2.5 -57.501v-386h-81v118h11c-10.667 -39.333 -32.667 -70.333 -66 -93s-72 -34 -116 -34zM286 56.999c48 0 86 16.5 114 49.5s42 81.167 42 144.5c0 64 -14 112.5 -42 145.5s-66 49.5 -114 49.5
c-47.333 0 -85.166 -16.5 -113.499 -49.5s-42.5 -81.5 -42.5 -145.5c0 -63.333 14.167 -111.5 42.5 -144.5s66.166 -49.5 113.499 -49.5zM248 608.999v88h92v-88h-92z" />
    <glyph glyph-name="uni0228" unicode="&#x228;" horiz-adv-x="588" 
d="M88 0v705h450v-68h-369v-245h347v-69h-347v-254h369v-69h-450zM331 -192c-17.333 0 -33.833 1.66699 -49.5 5s-29.167 8 -40.5 14l14 44c12 -5.33301 23.5 -9.33301 34.5 -12s23.833 -4 38.5 -4c18 0 32.333 3.16699 43 9.5s16 15.5 16 27.5c0 8.66699 -3 15.5 -9 20.5
s-15.667 7.5 -29 7.5c-7.33301 0 -14.5 -0.5 -21.5 -1.5s-15.5 -3.5 -25.5 -7.5l-17 16l15 93h51l-13 -75l-24 6c7.33301 2 15 3.66699 23 5s15.333 2 22 2c24 0 44 -6 60 -18s24 -28.667 24 -50c0 -24.667 -10.333 -44.5 -31 -59.5s-47.667 -22.5 -81 -22.5z" />
    <glyph glyph-name="uni022A" unicode="&#x22a;" horiz-adv-x="772" 
d="M62 353c0 74.667 12.833 138.833 38.5 192.5s62.667 95.167 111 124.5s106.5 44 174.5 44c66 0 123.333 -14.667 172 -44s86.167 -70.833 112.5 -124.5s39.5 -117.5 39.5 -191.5c0 -74.667 -13.333 -139 -40 -193s-64.167 -95.833 -112.5 -125.5
s-105.5 -44.5 -171.5 -44.5c-68 0 -126 14.833 -174 44.5s-85 71.5 -111 125.5s-39 118 -39 192zM149 352.999c0 -60.667 9 -112.502 27 -155.502s44.667 -76 80 -99s78.666 -34.5 129.999 -34.5c74.667 0 132.834 25.5 174.501 76.5s62.5 121.833 62.5 212.5
c0 61.333 -9.33301 113.333 -28 156s-45.667 75.334 -81 98.001s-78 34 -128 34c-78 0 -137 -25.167 -177 -75.5s-60 -121.166 -60 -212.499zM238 925.997v55h296v-55h-296zM256 797.997v72h86v-72h-86zM430 797.997v72h86v-72h-86z" />
    <glyph glyph-name="uni022B" unicode="&#x22b;" horiz-adv-x="571" 
d="M285 -9c-48 0 -89.833 10.5 -125.5 31.5s-63.167 51 -82.5 90s-29 85.167 -29 138.5c0 54 9.66699 100.333 29 139s46.833 68.5 82.5 89.5s77.5 31.5 125.5 31.5c48.667 0 90.834 -10.5 126.501 -31.5s63.334 -50.833 83.001 -89.5s29.5 -85 29.5 -139
c0 -53.333 -9.83301 -99.5 -29.5 -138.5s-47.334 -69 -83.001 -90s-77.834 -31.5 -126.501 -31.5zM285 57c48 0 86 16.5 114 49.5s42 81.167 42 144.5c0 64 -14 112.5 -42 145.5s-66 49.5 -114 49.5c-47.333 0 -85 -16.5 -113 -49.5s-42 -81.5 -42 -145.5
c0 -63.333 14 -111.5 42 -144.5s65.667 -49.5 113 -49.5zM138 707v55h296v-55h-296zM156 579v73h86v-73h-86zM330 579v73h86v-73h-86z" />
    <glyph glyph-name="uni022C" unicode="&#x22c;" horiz-adv-x="772" 
d="M62 353c0 74.667 12.833 138.833 38.5 192.5s62.667 95.167 111 124.5s106.5 44 174.5 44c66 0 123.333 -14.667 172 -44s86.167 -70.833 112.5 -124.5s39.5 -117.5 39.5 -191.5c0 -74.667 -13.333 -139 -40 -193s-64.167 -95.833 -112.5 -125.5
s-105.5 -44.5 -171.5 -44.5c-68 0 -126 14.833 -174 44.5s-85 71.5 -111 125.5s-39 118 -39 192zM149 352.999c0 -60.667 9 -112.502 27 -155.502s44.667 -76 80 -99s78.666 -34.5 129.999 -34.5c74.667 0 132.834 25.5 174.501 76.5s62.5 121.833 62.5 212.5
c0 61.333 -9.33301 113.333 -28 156s-45.667 75.334 -81 98.001s-78 34 -128 34c-78 0 -137 -25.167 -177 -75.5s-60 -121.166 -60 -212.499zM238 925.997v55h296v-55h-296zM451 767.997c-12 0 -23.8281 2.33496 -35.4951 7.00195s-24.834 12 -39.501 22
c-13.333 10 -23.833 16.333 -31.5 19s-14.834 4 -21.501 4c-14.667 0 -25.834 -4.33301 -33.501 -13s-13.167 -22.334 -16.5 -41.001l-45 2c2.66699 34 12.5 59.5 29.5 76.5s38.5 25.5 64.5 25.5c11.333 0 22.166 -2 32.499 -6s23.166 -11 38.499 -21
c14 -10 25 -16.667 33 -20s15.667 -5 23 -5c15.333 0 26.833 4.16699 34.5 12.5s12.834 22.166 15.501 41.499l45 -3c-2.66699 -34 -12.334 -59.333 -29.001 -76s-38 -25 -64 -25z" />
    <glyph glyph-name="uni022D" unicode="&#x22d;" horiz-adv-x="571" 
d="M285 -9c-48 0 -89.833 10.5 -125.5 31.5s-63.167 51 -82.5 90s-29 85.167 -29 138.5c0 54 9.66699 100.333 29 139s46.833 68.5 82.5 89.5s77.5 31.5 125.5 31.5c48.667 0 90.834 -10.5 126.501 -31.5s63.334 -50.833 83.001 -89.5s29.5 -85 29.5 -139
c0 -53.333 -9.83301 -99.5 -29.5 -138.5s-47.334 -69 -83.001 -90s-77.834 -31.5 -126.501 -31.5zM285 57c48 0 86 16.5 114 49.5s42 81.167 42 144.5c0 64 -14 112.5 -42 145.5s-66 49.5 -114 49.5c-47.333 0 -85 -16.5 -113 -49.5s-42 -81.5 -42 -145.5
c0 -63.333 14 -111.5 42 -144.5s65.667 -49.5 113 -49.5zM138 707v55h296v-55h-296zM173 547l-44.999 2.99902c2.66699 34 12.5 59.333 29.5 76s38.5 25 64.5 25c12 0 23.5 -2.16699 34.5 -6.5s23.833 -11.5 38.5 -21.5c12 -8.66699 22 -14.834 30 -18.501s16 -5.5 24 -5.5
c15.333 0 26.833 4.33301 34.5 13s12.834 22.334 15.501 41.001l45 -2c-2.66699 -34 -12.334 -59.5 -29.001 -76.5s-38 -25.5 -64 -25.5c-12 0 -24 2.33301 -36 7s-25 12 -39 22c-11.333 8 -21 13.833 -29 17.5s-16 5.5 -24 5.5c-14.667 0 -25.834 -4.16699 -33.501 -12.5
s-13.167 -22.166 -16.5 -41.499z" />
    <glyph glyph-name="uni0230" unicode="&#x230;" horiz-adv-x="772" 
d="M62 353c0 74.667 12.833 138.833 38.5 192.5s62.667 95.167 111 124.5s106.5 44 174.5 44c66 0 123.333 -14.667 172 -44s86.167 -70.833 112.5 -124.5s39.5 -117.5 39.5 -191.5c0 -74.667 -13.333 -139 -40 -193s-64.167 -95.833 -112.5 -125.5
s-105.5 -44.5 -171.5 -44.5c-68 0 -126 14.833 -174 44.5s-85 71.5 -111 125.5s-39 118 -39 192zM149 352.999c0 -60.667 9 -112.502 27 -155.502s44.667 -76 80 -99s78.666 -34.5 129.999 -34.5c74.667 0 132.834 25.5 174.501 76.5s62.5 121.833 62.5 212.5
c0 61.333 -9.33301 113.333 -28 156s-45.667 75.334 -81 98.001s-78 34 -128 34c-78 0 -137 -25.167 -177 -75.5s-60 -121.166 -60 -212.499zM238 925.997v55h296v-55h-296zM343 797.997v72h87v-72h-87z" />
    <glyph glyph-name="uni0231" unicode="&#x231;" horiz-adv-x="571" 
d="M285 -9c-48 0 -89.833 10.5 -125.5 31.5s-63.167 51 -82.5 90s-29 85.167 -29 138.5c0 54 9.66699 100.333 29 139s46.833 68.5 82.5 89.5s77.5 31.5 125.5 31.5c48.667 0 90.834 -10.5 126.501 -31.5s63.334 -50.833 83.001 -89.5s29.5 -85 29.5 -139
c0 -53.333 -9.83301 -99.5 -29.5 -138.5s-47.334 -69 -83.001 -90s-77.834 -31.5 -126.501 -31.5zM285 57c48 0 86 16.5 114 49.5s42 81.167 42 144.5c0 64 -14 112.5 -42 145.5s-66 49.5 -114 49.5c-47.333 0 -85 -16.5 -113 -49.5s-42 -81.5 -42 -145.5
c0 -63.333 14 -111.5 42 -144.5s65.667 -49.5 113 -49.5zM138 707v55h296v-55h-296zM243 579v73h87v-73h-87z" />
    <glyph glyph-name="uni0232" unicode="&#x232;" horiz-adv-x="607" 
d="M262 0v329l18 -56l-292 432h96l232 -351h-21l231 351h92l-291 -432l18 56v-329h-83zM141 814v55h326v-55h-326z" />
    <glyph glyph-name="uni0233" unicode="&#x233;" horiz-adv-x="531" 
d="M59 -227l-19 67.001c31.333 7.33301 57.5 15.833 78.5 25.5s38.5 22.5 52.5 38.5s26 36 36 60l26 59l-2 -34l-219 513h88l181 -441h-26l179 441h85l-232 -544c-13.333 -32 -28 -58.833 -44 -80.5s-33.167 -39.334 -51.5 -53.001s-38.5 -24.5 -60.5 -32.5
s-46 -14.333 -72 -19zM117 625.001v55h296v-55h-296z" />
    <glyph glyph-name="uni0237" unicode="&#x237;" horiz-adv-x="238" 
d="M14 -220c-10 0 -21.834 1.16699 -35.501 3.5s-25.167 5.16602 -34.5 8.49902v68c8 -2.66699 17.333 -5.16699 28 -7.5s20.334 -3.5 29.001 -3.5c28 0 49 8.83301 63 26.5s21 46.5 21 86.5v540h81v-548c0 -57.333 -12.667 -100.666 -38 -129.999s-63.333 -44 -114 -44z
" />
    </font>
</defs>
</svg>
