<?xml version="1.0" standalone="no"?>
<!DOCTYPE svg PUBLIC "-//W3C//DTD SVG 1.1//EN" "http://www.w3.org/Graphics/SVG/1.1/DTD/svg11.dtd" >
<svg>
<metadata>
Created by FontForge 20090914 at Tue Sep 14 21:33:46 2021
 By www-data
Copyright 2016 The Mulish Project Authors (https://github.com/googlefonts/mulish)
</metadata>
<defs>
<font id="Mulish-SemiBold" horiz-adv-x="0" >
  <font-face 
    font-family="Mulish SemiBold"
    font-weight="600"
    font-stretch="normal"
    units-per-em="1000"
    panose-1="0 0 0 0 0 0 0 0 0 0"
    ascent="800"
    descent="-200"
    x-height="503.999"
    cap-height="705"
    bbox="-259 -273.001 1306 1047"
    underline-thickness="28"
    underline-position="-66"
    unicode-range="U+000D-U+FB02"
  />
<missing-glyph horiz-adv-x="500" 
d="M50 -216v952h400v-952h-400zM100 -166h300v852h-300v-852z" />
    <glyph glyph-name="fi" unicode="fi" horiz-adv-x="598" 
d="M104 0v426.001h-98v78h126l-28 -26v80c0 59.333 14.833 104.5 44.5 135.5s72.834 46.5 129.501 46.5c13.333 0 27.666 -1 42.999 -3s28.333 -5.33301 39 -10v-82c-8 3.33301 -18 6.16602 -30 8.49902s-23.667 3.5 -35 3.5c-29.333 0 -51.833 -8.5 -67.5 -25.5
s-23.5 -43.5 -23.5 -79.5v-68l-15 20h335v-504h-101v426h-218v-426h-101zM415 609.001v105h117v-105h-117z" />
    <glyph glyph-name="fl" unicode="fl" horiz-adv-x="599" 
d="M104 0v426.001h-98v78h126l-28 -26v80c0 59.333 15 104.5 45 135.5s74 46.5 132 46.5c14 0 28.667 -1 44 -3s28 -5.33301 38 -10v-82c-8 3.33301 -17.833 6.16602 -29.5 8.49902s-23.5 3.5 -35.5 3.5c-19.333 0 -36 -3.83301 -50 -11.5s-24.833 -19.167 -32.5 -34.5
s-11.5 -35 -11.5 -59v-68l-15 20h152v-78h-136v-426h-101zM426 0.000976562v736h101v-736h-101z" />
    <glyph glyph-name=".notdef" horiz-adv-x="500" 
d="M50 -216v952h400v-952h-400zM100 -166h300v852h-300v-852z" />
    <glyph glyph-name="uni0000" 
 />
    <glyph glyph-name="uni0000" 
 />
    <glyph glyph-name="CR" unicode="&#xd;" horiz-adv-x="267" 
 />
    <glyph glyph-name="space" unicode=" " horiz-adv-x="267" 
 />
    <glyph glyph-name="exclam" unicode="!" horiz-adv-x="237" 
d="M88 195l-32 510h125l-31 -510h-62zM59 0v119h119v-119h-119z" />
    <glyph glyph-name="quotedbl" unicode="&#x22;" horiz-adv-x="417" 
d="M82 422l-25 283h118l-25 -283h-68zM268 422l-25 283h118l-25 -283h-68z" />
    <glyph glyph-name="numbersign" unicode="#" horiz-adv-x="600" 
d="M82 0l36 177h-85v69h97l46 221h-122v69h135l35 169h74l-34 -169h145l34 169h74l-34 -169h84v-69h-98l-45 -221h122v-69h-135l-36 -177h-75l36 177h-144l-34 -177h-76zM205 246h145l44 221h-144z" />
    <glyph glyph-name="dollar" unicode="$" horiz-adv-x="600" 
d="M269 -115l-0.000976562 129.006l20 -19c-32 0.666992 -63 4 -93 10s-58.167 15 -84.5 27s-50.166 27 -71.499 45l34 82c32 -25.333 66.167 -44.333 102.5 -57s77.5 -19 123.5 -19c54 0 93.833 10.167 119.5 30.5s38.5 46.166 38.5 77.499c0 26 -9.16699 46.667 -27.5 62
s-49.166 27.666 -92.499 36.999l-103 22c-40.667 9.33301 -74.334 22.166 -101.001 38.499s-46.5 37 -59.5 62s-19.5 54.167 -19.5 87.5c0 39.333 9.5 74.333 28.5 105s45.667 55 80 73s74.5 28.333 120.5 31l-15 -14v125h82v-125l-17 14
c37.333 -1.33301 74.333 -8.83301 111 -22.5s67.667 -33.834 93 -60.501l-33 -79c-26 25.333 -55.333 44.166 -88 56.499s-68.667 18.5 -108 18.5c-48 0 -85.833 -11 -113.5 -33s-41.5 -50.667 -41.5 -86c0 -26.667 8.66699 -48.334 26 -65.001s46 -29.334 86 -38.001
l103 -22c64 -13.333 111.667 -34.666 143 -63.999s47 -68.333 47 -117c0 -38 -9.66699 -71.5 -29 -100.5s-45.833 -52 -79.5 -69s-72.5 -27.5 -116.5 -31.5l17 19v-130h-82z" />
    <glyph glyph-name="percent" unicode="%" horiz-adv-x="943" 
d="M307 0h-88l418 705h88zM224 283c-55.333 0 -98.833 19.167 -130.5 57.5s-47.5 91.166 -47.5 158.499c0 68 16 120.833 48 158.5s75.333 56.5 130 56.5c55.333 0 98.666 -19.167 129.999 -57.5s47 -90.833 47 -157.5c0 -67.333 -15.667 -120.166 -47 -158.499
s-74.666 -57.5 -129.999 -57.5zM224 351c28.667 0 51.167 12.167 67.5 36.5s24.5 61.5 24.5 111.5c0 50.667 -8.16699 87.834 -24.5 111.501s-38.833 35.5 -67.5 35.5s-51.167 -11.833 -67.5 -35.5s-24.5 -60.834 -24.5 -111.501s8.16699 -88 24.5 -112s38.833 -36 67.5 -36
zM720 -9c-55.333 0 -98.668 19.167 -130.001 57.5s-47 91.166 -47 158.499c0 68 15.833 120.833 47.5 158.5s74.834 56.5 129.501 56.5c55.333 0 98.666 -19.167 129.999 -57.5s47 -90.833 47 -157.5c0 -67.333 -15.667 -120.166 -47 -158.499s-74.666 -57.5 -129.999 -57.5
zM719.998 59c28.667 0 51.167 12 67.5 36s24.5 61.333 24.5 112s-8.16699 87.834 -24.5 111.501s-38.833 35.5 -67.5 35.5s-51.167 -11.833 -67.5 -35.5s-24.5 -60.834 -24.5 -111.501s8.16699 -88 24.5 -112s38.833 -36 67.5 -36z" />
    <glyph glyph-name="ampersand" unicode="&#x26;" horiz-adv-x="678" 
d="M655 -9c-30.667 12 -59.665 27.6699 -86.998 47.0029s-51.333 39 -72 59l23 -1c-29.333 -32.667 -64.333 -58.334 -105 -77.001s-84.334 -28 -131.001 -28c-50 0 -92.833 7.66699 -128.5 23s-63 36.666 -82 63.999s-28.5 59.333 -28.5 96c0 46 13.333 85 40 117
s64 63 112 93l33 20l-15 -19c-30 31.333 -52 60.166 -66 86.499s-21 53.833 -21 82.5c0 32 7.66699 60 23 84s36.833 42.667 64.5 56s60.5 20 98.5 20c32.667 0 61.334 -6 86.001 -18s44.167 -29 58.5 -51s21.5 -48.333 21.5 -79c0 -24 -4.83301 -46.833 -14.5 -68.5
s-25.667 -42.5 -48 -62.5s-52.5 -41 -90.5 -63l3 21l185 -197h-21c17.333 28 30.666 61.167 39.999 99.5s15 79.166 17 122.499h86c-1.33301 -55.333 -9.33301 -107.166 -24 -155.499s-34.334 -90.833 -59.001 -127.5l-1 27c17.333 -18.667 38 -36.667 62 -54s50 -32 78 -44
zM287.002 71.0029c37.333 0 70.5 7.16797 99.5 21.501s54.167 35.5 75.5 63.5l-2 -26l-214 223l40 -1l-30 -18c-25.333 -16 -46.333 -31.833 -63 -47.5s-29 -31.834 -37 -48.501s-12 -36 -12 -58c0 -34 12.167 -60.667 36.5 -80s59.833 -29 106.5 -29zM313.002 643.004
c-28 0 -50.5 -8.00098 -67.5 -24.001s-25.5 -37.333 -25.5 -64c0 -13.333 2.33301 -26 7 -38s12.667 -25.167 24 -39.5s26.666 -31.833 45.999 -52.5l-26 -2c44 25.333 76 48.333 96 69s30 44 30 70c0 24.667 -7.66699 44.334 -23 59.001s-35.666 22 -60.999 22z" />
    <glyph glyph-name="quotesingle" unicode="'" horiz-adv-x="231" 
d="M82 422l-25 283h118l-25 -283h-68z" />
    <glyph glyph-name="parenleft" unicode="(" horiz-adv-x="335" 
d="M228 -180c-29.333 49.333 -53.333 97.834 -72 145.501s-32.334 96 -41.001 145s-13 99.833 -13 152.5c0 53.333 4.33301 104.333 13 153s22.334 96.667 41.001 144s42.667 95.666 72 144.999h82c-34.667 -75.333 -60.5 -149.5 -77.5 -222.5s-25.5 -146.167 -25.5 -219.5
s8.5 -146.5 25.5 -219.5s42.833 -147.5 77.5 -223.5h-82z" />
    <glyph glyph-name="parenright" unicode=")" horiz-adv-x="335" 
d="M107 -180l-82 0.000976562c34.667 75.333 60.667 149.666 78 222.999s26 146.666 26 219.999c0 72.667 -8.66699 145.667 -26 219s-43.333 147.666 -78 222.999h82c30 -49.333 54.333 -97.666 73 -144.999s32.167 -95.5 40.5 -144.5s12.5 -99.833 12.5 -152.5
c0 -53.333 -4.16699 -104.5 -12.5 -153.5s-21.833 -97.167 -40.5 -144.5s-43 -95.666 -73 -144.999z" />
    <glyph glyph-name="asterisk" unicode="*" horiz-adv-x="456" 
d="M142 357l-60 44l96 121l-150 43l24 71l144 -54l-6 154h75l-6 -154l146 54l22 -71l-148 -42l95 -122l-60 -44l-86 130z" />
    <glyph glyph-name="plus" unicode="+" horiz-adv-x="600" 
d="M262 38v212h-209v74h209v207h76v-207h209v-74h-209v-212h-76z" />
    <glyph glyph-name="comma" unicode="," horiz-adv-x="237" 
d="M110 -123l-44 34c19.333 20.667 32.5 39.667 39.5 57s10.5 35.333 10.5 54l22 -22h-79v119h119v-81c0 -20 -2.16699 -39 -6.5 -57s-11.333 -35.5 -21 -52.5s-23.167 -34.167 -40.5 -51.5z" />
    <glyph glyph-name="hyphen" unicode="-" horiz-adv-x="433" 
d="M70 234v81h293v-81h-293z" />
    <glyph glyph-name="period" unicode="." horiz-adv-x="237" 
d="M59 0v119h119v-119h-119z" />
    <glyph glyph-name="slash" unicode="/" horiz-adv-x="300" 
d="M61 -57h-85l262 807h85z" />
    <glyph glyph-name="zero" unicode="0" horiz-adv-x="600" 
d="M300 -9c-81.333 0 -143.833 31.166 -187.5 93.499s-65.5 151.833 -65.5 268.5c0 118.667 21.833 208.5 65.5 269.5s106.167 91.5 187.5 91.5c82 0 144.667 -30.5 188 -91.5s65 -150.5 65 -268.5c0 -117.333 -21.833 -207.166 -65.5 -269.499s-106.167 -93.5 -187.5 -93.5
zM300 77.999c51.333 0 89.501 22.332 114.501 66.999s37.5 114.334 37.5 209.001c0 64 -5.5 116 -16.5 156s-27.833 69.667 -50.5 89s-51 29 -85 29c-50.667 0 -88.667 -21.833 -114 -65.5s-38 -113.167 -38 -208.5c0 -62.667 5.66699 -114.5 17 -155.5
s28.166 -71.333 50.499 -91s50.5 -29.5 84.5 -29.5z" />
    <glyph glyph-name="one" unicode="1" horiz-adv-x="600" 
d="M120 0v87h164v530h52l-200 -122v100l177 110h75v-618h154v-87h-422z" />
    <glyph glyph-name="two" unicode="2" horiz-adv-x="600" 
d="M83 0l0.000976562 76.998l242 253c31.333 32.667 54.666 63.334 69.999 92.001s23 58.334 23 89.001c0 38 -11.833 66.667 -35.5 86s-57.834 29 -102.501 29c-35.333 0 -68.5 -6.33301 -99.5 -19s-60.833 -32 -89.5 -58l-36 79c28 26 62.833 46.833 104.5 62.5
s85.834 23.5 132.501 23.5c48.667 0 90 -7.5 124 -22.5s60 -36.833 78 -65.5s27 -63.667 27 -105c0 -44 -10.667 -86.167 -32 -126.5s-53.333 -81.833 -96 -124.5l-209 -211v28h366v-87h-467z" />
    <glyph glyph-name="three" unicode="3" horiz-adv-x="600" 
d="M293 -9c-48 0 -94.0029 7.16602 -138.003 21.499s-80.667 34.833 -110 61.5l36 79c32.667 -25.333 66 -44 100 -56s70.333 -18 109 -18c49.333 0 86.833 10.333 112.5 31s38.5 50.334 38.5 89.001c0 38 -12.833 66.833 -38.5 86.5s-63.5 29.5 -113.5 29.5h-109v84h101
c42.667 0 76.667 10.833 102 32.5s38 51.167 38 88.5c0 34 -11.667 60.167 -35 78.5s-56.666 27.5 -99.999 27.5c-37.333 0 -71.833 -6.33301 -103.5 -19s-61.5 -32 -89.5 -58l-35 79c27.333 27.333 62 48.5 104 63.5s86 22.5 132 22.5
c70.667 0 126.334 -16.167 167.001 -48.5s61 -77.166 61 -134.499c0 -43.333 -12.167 -80.333 -36.5 -111s-57.5 -51 -99.5 -61v11c50 -8 88.5 -27.833 115.5 -59.5s40.5 -71.167 40.5 -118.5c0 -62.667 -22.167 -111.834 -66.5 -147.501s-105.166 -53.5 -182.499 -53.5z
" />
    <glyph glyph-name="four" unicode="4" horiz-adv-x="600" 
d="M372 0v146h-326v74l343 485h84v-478h105v-81h-105v-146h-101zM372 227v355h23l-268 -380v25h245z" />
    <glyph glyph-name="five" unicode="5" horiz-adv-x="600" 
d="M310 -9c-30.667 0 -60.998 3.33105 -90.998 9.99805s-58 16.167 -84 28.5s-48.667 27.166 -68 44.499l36 79c32 -24.667 64.833 -43.167 98.5 -55.5s69.167 -18.5 106.5 -18.5c47.333 0 84.5 12.333 111.5 37s40.5 57.667 40.5 99c0 42.667 -12.833 77.167 -38.5 103.5
s-61.167 39.5 -106.5 39.5c-31.333 0 -59.833 -6.33301 -85.5 -19s-48.167 -32 -67.5 -58h-72v424h427v-87h-328v-254h-26c18 25.333 42.167 45 72.5 59s64.5 21 102.5 21c45.333 0 84.666 -9.33301 117.999 -28s59.166 -44.667 77.499 -78s27.5 -72.666 27.5 -117.999
s-10.167 -85.166 -30.5 -119.499s-49.333 -61.166 -87 -80.499s-82.167 -29 -133.5 -29z" />
    <glyph glyph-name="six" unicode="6" horiz-adv-x="600" 
d="M324 -9c-58 0 -107.331 13.666 -147.998 40.999s-71.5 66.833 -92.5 118.5s-31.5 113.834 -31.5 186.501c0 81.333 12 149.833 36 205.5s58.167 98.167 102.5 127.5s97.833 44 160.5 44c37.333 0 74.666 -7.16699 111.999 -21.5s68.666 -34.5 93.999 -60.5l-37 -78
c-24.667 24 -51.667 42 -81 54s-59 18 -89 18c-64.667 0 -114 -22.5 -148 -67.5s-51 -112.167 -51 -201.5v-85h-10c4.66699 36 16 67.167 34 93.5s41.333 46.5 70 60.5s60.667 21 96 21c42 0 79.167 -9.66699 111.5 -29s57.833 -45.833 76.5 -79.5s28 -72.167 28 -115.5
c0 -44.667 -10 -84.667 -30 -120s-47.5 -62.833 -82.5 -82.5s-75.167 -29.5 -120.5 -29.5zM318.002 74.999c28 0 52.5 6 73.5 18s37.5 28.833 49.5 50.5s18 46.834 18 75.501s-6 53.667 -18 75s-28.5 38.166 -49.5 50.499s-45.5 18.5 -73.5 18.5s-52.667 -6.16699 -74 -18.5
s-38 -29.166 -50 -50.499s-18 -46.333 -18 -75s6 -53.834 18 -75.501s28.667 -38.5 50 -50.5s46 -18 74 -18z" />
    <glyph glyph-name="seven" unicode="7" horiz-adv-x="600" 
d="M100 0l346 657v-40h-386v88h480v-77l-326 -628h-114z" />
    <glyph glyph-name="eight" unicode="8" horiz-adv-x="600" 
d="M300 -9c-81.333 0 -144.669 17.3359 -190.002 52.0029s-68 83 -68 145c0 49.333 15 90.166 45 122.499s69.333 51.833 118 58.5v-18c-44 9.33301 -79.167 29.666 -105.5 60.999s-39.5 69.333 -39.5 114c0 58.667 21.333 104.667 64 138s101.334 50 176.001 50
c50.667 0 93.834 -7.33301 129.501 -22s63.167 -36.167 82.5 -64.5s29 -62.166 29 -101.499c0 -44.667 -12.5 -82.834 -37.5 -114.501s-59.167 -51.5 -102.5 -59.5v17c32 -4 59.833 -14.167 83.5 -30.5s42 -37.333 55 -63s19.5 -54.834 19.5 -87.501
c0 -62 -22.667 -110.333 -68 -145s-109 -52 -191 -52zM299.997 73.0029c54 0 94.333 10.167 121 30.5s40 50.833 40 91.5s-13.333 71 -40 91s-67 30 -121 30s-94.333 -10 -121 -30s-40 -50.333 -40 -91s13.5 -71.167 40.5 -91.5s67.167 -30.5 120.5 -30.5zM299.997 398.003
c46.667 0 82.167 10.5 106.5 31.5s36.5 49.833 36.5 86.5c0 36 -12.167 64.333 -36.5 85s-59.833 31 -106.5 31c-46 0 -81.333 -10.333 -106 -31s-37 -49 -37 -85c0 -36.667 12.333 -65.5 37 -86.5s60 -31.5 106 -31.5z" />
    <glyph glyph-name="nine" unicode="9" horiz-adv-x="600" 
d="M250 -9c-37.333 0 -74.668 7.5 -112.001 22.5s-68.666 34.833 -93.999 59.5l37 79c24.667 -24 51.667 -42.167 81 -54.5s59 -18.5 89 -18.5c64 0 113.167 22.5 147.5 67.5s51.5 112.167 51.5 201.5v85h10c-4 -35.333 -15.333 -66.333 -34 -93s-42.167 -47 -70.5 -61
s-60.166 -21 -95.499 -21c-41.333 0 -78.5 9.66699 -111.5 29s-58.667 46 -77 80s-27.5 72.333 -27.5 115c0 45.333 10 85.5 30 120.5s47.333 62.333 82 82s74.667 29.5 120 29.5c58.667 0 108.334 -13.5 149.001 -40.5s71.5 -66.5 92.5 -118.5s31.5 -114.333 31.5 -187
c0 -80.667 -11.833 -149 -35.5 -205s-57.834 -98.667 -102.501 -128s-98.334 -44 -161.001 -44zM282.998 343c28 0 52.667 6 74 18s38 28.833 50 50.5s18 46.5 18 74.5c0 28.667 -6 53.834 -18 75.501s-28.667 38.667 -50 51s-46 18.5 -74 18.5s-52.5 -6.16699 -73.5 -18.5
s-37.5 -29.333 -49.5 -51s-18 -46.834 -18 -75.501c0 -28 6 -52.833 18 -74.5s28.5 -38.5 49.5 -50.5s45.5 -18 73.5 -18z" />
    <glyph glyph-name="colon" unicode=":" horiz-adv-x="237" 
d="M59 385v119h119v-119h-119zM59 0v119h119v-119h-119z" />
    <glyph glyph-name="semicolon" unicode=";" horiz-adv-x="237" 
d="M110 -123l-44 34c19.333 20.667 32.5 39.667 39.5 57s10.5 35.333 10.5 54l28 -22h-85v119h119v-81c0 -30 -5 -57.833 -15 -83.5s-27.667 -51.5 -53 -77.5zM59 385v119h119v-119h-119z" />
    <glyph glyph-name="less" unicode="&#x3c;" horiz-adv-x="600" 
d="M546 33l-493 215v78l493 215v-82l-457 -197v50l457 -197v-82z" />
    <glyph glyph-name="equal" unicode="=" horiz-adv-x="600" 
d="M53 350v74h494v-74h-494zM53 151v73h494v-73h-494z" />
    <glyph glyph-name="greater" unicode="&#x3e;" horiz-adv-x="600" 
d="M54 33v82l457 197v-50l-457 197v82l493 -215v-78z" />
    <glyph glyph-name="question" unicode="?" horiz-adv-x="455" 
d="M172 195l-0.00390625 34.998c0 21.333 2.5 41.833 7.5 61.5s13.833 39.5 26.5 59.5s29.334 41.333 50.001 64c16.667 18 29.834 34.167 39.501 48.5s16.667 28 21 41s6.5 26.5 6.5 40.5c0 26 -9.66699 46.333 -29 61s-45.666 22 -78.999 22
c-26 0 -51.333 -3.66699 -76 -11s-48 -17.333 -70 -30v90c22.667 12 47.834 21.167 75.501 27.5s55.5 9.5 83.5 9.5c38 0 72 -5.83301 102 -17.5s53.5 -29.167 70.5 -52.5s25.5 -52.666 25.5 -87.999c0 -21.333 -3.66699 -42 -11 -62s-18 -39.667 -32 -59
s-31.667 -39.333 -53 -60c-32.667 -31.333 -55.5 -58.666 -68.5 -81.999s-20.833 -47 -23.5 -71l-4 -27h-62zM142.996 -0.00195312v119h120v-119h-120z" />
    <glyph glyph-name="at" unicode="@" horiz-adv-x="967" 
d="M494 -164c-65.333 0 -124.665 10.1631 -177.998 30.4961s-99.166 49.666 -137.499 87.999s-67.833 84 -88.5 137s-31 112.5 -31 178.5s10.667 126.333 32 181s52.166 101.667 92.499 141s88 69.5 143 90.5s116.167 31.5 183.5 31.5c59.333 0 113.5 -8.83301 162.5 -26.5
s91.167 -42.667 126.5 -75s62.5 -71.333 81.5 -117s28.5 -96.834 28.5 -153.501c0 -57.333 -8.16699 -107.166 -24.5 -149.499s-39.333 -75.166 -69 -98.499s-64.5 -35 -104.5 -35s-70.833 11.333 -92.5 34s-31.834 54 -30.501 94l24 1c-17.333 -42 -41.5 -74 -72.5 -96
s-64.833 -33 -101.5 -33c-53.333 0 -94.5 16.333 -123.5 49s-43.5 77.667 -43.5 135c0 49.333 9.33301 93.166 28 131.499s44.667 68.333 78 90s71 32.5 113 32.5c37.333 0 67.666 -9 90.999 -27s38.666 -43.667 45.999 -77h-14l18 95h78l-45 -251
c-1.33301 -10 -2.5 -19.167 -3.5 -27.5s-1.5 -16.166 -1.5 -23.499c0 -21.333 4.83301 -37.333 14.5 -48s24.167 -16 43.5 -16c24.667 0 46.334 9.16699 65.001 27.5s33.334 44 44.001 77s16 71.5 16 115.5c0 47.333 -7.83301 89.833 -23.5 127.5s-38 69.834 -67 96.501
s-63.833 47 -104.5 61s-86.667 21 -138 21c-56.667 0 -108 -8.83301 -154 -26.5s-85.667 -43.167 -119 -76.5s-58.833 -73.166 -76.5 -119.499s-26.5 -98.166 -26.5 -155.499c0 -76 14.833 -141.667 44.5 -197s71.5 -97.666 125.5 -126.999s117.667 -44 191 -44
c54 0 102.833 7.83301 146.5 23.5s80.5 38.167 110.5 67.5l36 -57c-32.667 -32 -74.334 -56.667 -125.001 -74s-106.667 -26 -168 -26zM451.001 125.996c28.667 0 54.167 8.33203 76.5 24.999s40 39.834 53 69.501s19.5 63.5 19.5 101.5c0 36 -8 62.833 -24 80.5
s-40.667 26.5 -74 26.5c-28 0 -53.5 -7.83301 -76.5 -23.5s-40.833 -37.5 -53.5 -65.5s-19 -60 -19 -96c0 -38 8.5 -67.167 25.5 -87.5s41.167 -30.5 72.5 -30.5z" />
    <glyph glyph-name="A" unicode="A" horiz-adv-x="742" 
d="M10 0l314 705h89l319 -705h-107l-87 200l44 -28h-427l47 28l-87 -200h-105zM367 591l-152 -359l-24 23h355l-20 -23l-155 359h-4z" />
    <glyph glyph-name="B" unicode="B" horiz-adv-x="685" 
d="M83 0v705h294c76 0 134.5 -16 175.5 -48s61.5 -77 61.5 -135c0 -43.333 -13 -79.666 -39 -108.999s-61.667 -49 -107 -59v15c52 -6.66699 92.333 -25 121 -55s43 -69.667 43 -119c0 -62.667 -21.167 -110.834 -63.5 -144.501s-101.833 -50.5 -178.5 -50.5h-307zM184 81
h195c47.333 0 84.5 9 111.5 27s40.5 48.333 40.5 91c0 28.667 -6.16699 51.667 -18.5 69s-29.833 29.833 -52.5 37.5s-49.667 11.5 -81 11.5h-195v-236zM184 397l177 0.00195312c50.667 0 88.667 9.66699 114 29s38 47.666 38 84.999s-12.667 65.666 -38 84.999
s-63.333 29 -114 29h-177v-228z" />
    <glyph glyph-name="C" unicode="C" horiz-adv-x="685" 
d="M400 -9c-72 0 -133.333 14.667 -184 44s-89.5 71.166 -116.5 125.499s-40.5 118.5 -40.5 192.5s13.5 138 40.5 192s65.833 95.667 116.5 125s112 44 184 44c50 0 94.667 -7.33301 134 -22s73.666 -36 102.999 -64l-36 -83c-32 27.333 -63.167 47 -93.5 59
s-65.5 18 -105.5 18c-76 0 -134 -23.333 -174 -70s-60 -113 -60 -199c0 -57.333 8.83301 -106.166 26.5 -146.499s44 -71 79 -92s77.833 -31.5 128.5 -31.5c40 0 75.167 6 105.5 18s61.5 32 93.5 60l36 -83c-29.333 -28 -63.666 -49.5 -102.999 -64.5s-84 -22.5 -134 -22.5z
" />
    <glyph glyph-name="D" unicode="D" horiz-adv-x="754" 
d="M83 0v705h244c79.333 0 146.5 -13.667 201.5 -41s96.667 -67.166 125 -119.499s42.5 -116.166 42.5 -191.499c0 -74.667 -14.167 -138.334 -42.5 -191.001s-70 -92.834 -125 -120.501s-122.167 -41.5 -201.5 -41.5h-244zM187 87h134c90.667 0 158.167 22 202.5 66
s66.5 110.667 66.5 200s-22.167 155.833 -66.5 199.5s-111.833 65.5 -202.5 65.5h-134v-531z" />
    <glyph glyph-name="E" unicode="E" horiz-adv-x="591" 
d="M83 0v705h462v-83h-361v-222h338v-84h-338v-232h361v-84h-462z" />
    <glyph glyph-name="F" unicode="F" horiz-adv-x="567" 
d="M83 0v705h452v-83h-348v-226h325v-83h-325v-313h-104z" />
    <glyph glyph-name="G" unicode="G" horiz-adv-x="735" 
d="M415 -9c-78 0 -143.499 14.499 -196.499 43.499s-92.833 70.5 -119.5 124.5s-40 118.333 -40 193s14.167 139 42.5 193s69 95.667 122 125s116.833 44 191.5 44c51.333 0 96 -7.16699 134 -21.5s72 -35.166 102 -62.499l-37 -81c-21.333 18 -42 32.333 -62 43
s-40.667 18.5 -62 23.5s-46.333 7.5 -75 7.5c-80.667 0 -142 -23.667 -184 -71s-63 -114.333 -63 -201c0 -88 20.167 -155 60.5 -201s103.833 -69 190.5 -69c30 0 59.667 2.83301 89 8.5s57.666 14.167 84.999 25.5l-20 -49v231h-174v78h261v-333
c-20 -10 -43.5 -18.833 -70.5 -26.5s-55.5 -13.667 -85.5 -18s-59.667 -6.5 -89 -6.5z" />
    <glyph glyph-name="H" unicode="H" horiz-adv-x="770" 
d="M83 0v705h104v-304h396v304h104v-705h-104v314h-396v-314h-104z" />
    <glyph glyph-name="I" unicode="I" horiz-adv-x="270" 
d="M83 0v705h104v-705h-104z" />
    <glyph glyph-name="J" unicode="J" horiz-adv-x="344" 
d="M84 -187c-10.667 0 -23.333 0.667969 -38 2.00098s-29.667 3.66602 -45 6.99902v84c12.667 -2.66699 24.667 -4.83398 36 -6.50098s21.333 -2.5 30 -2.5c30.667 0 53.334 9.33301 68.001 28s22 48.334 22 89.001v691h104v-692c0 -44 -6.33301 -80.833 -19 -110.5
s-31.834 -52 -57.501 -67s-59.167 -22.5 -100.5 -22.5z" />
    <glyph glyph-name="K" unicode="K" horiz-adv-x="648" 
d="M83 0v705h104v-317h2l324 317h129l-380 -366l1 49l405 -388h-133l-346 329h-2v-329h-104z" />
    <glyph glyph-name="L" unicode="L" horiz-adv-x="552" 
d="M83 0v705h104v-616h346v-89h-450z" />
    <glyph glyph-name="M" unicode="M" horiz-adv-x="864" 
d="M84 0v705h91l272 -613h-30l272 613h90v-705h-94v564h33l-254 -564h-65l-254 564h34v-564h-95z" />
    <glyph glyph-name="N" unicode="N" horiz-adv-x="750" 
d="M83 0v705h80l433 -568h-25v568h97v-705h-79l-432 568h23v-568h-97z" />
    <glyph glyph-name="O" unicode="O" horiz-adv-x="779" 
d="M59 353c0 74 12.998 138.001 38.998 192.001s63.833 95.667 113.5 125s108.834 44 177.501 44c68 0 126.667 -14.667 176 -44s87.5 -71 114.5 -125s40.5 -117.667 40.5 -191c0 -74 -13.5 -138.167 -40.5 -192.5s-65.333 -96.333 -115 -126s-108.167 -44.5 -175.5 -44.5
c-68.667 0 -127.667 14.833 -177 44.5s-87.166 71.667 -113.499 126s-39.5 118.166 -39.5 191.499zM167.998 353.001c0 -56.667 8.16504 -105.5 24.498 -146.5s41 -72.167 74 -93.5s73.833 -32 122.5 -32c70.667 0 125.334 23.833 164.001 71.5s58 114.5 58 200.5
c0 57.333 -8.5 106.333 -25.5 147s-42.167 71.5 -75.5 92.5s-73.666 31.5 -120.999 31.5c-72.667 0 -127.667 -23.667 -165 -71s-56 -114 -56 -200z" />
    <glyph glyph-name="P" unicode="P" horiz-adv-x="658" 
d="M83 0l0.000976562 705h299c75.333 0 133.166 -18.167 173.499 -54.5s60.5 -86.5 60.5 -150.5c0 -42.667 -9 -79.5 -27 -110.5s-44.5 -54.667 -79.5 -71s-77.5 -24.5 -127.5 -24.5h-195v-294h-104zM187.001 377l184 0.000976562c47.333 0 83 10.667 107 32
s36 51.666 36 90.999c0 38.667 -12 68.667 -36 90s-59.667 32 -107 32h-184v-245z" />
    <glyph glyph-name="Q" unicode="Q" horiz-adv-x="779" 
d="M579 -192c-20.667 12.667 -41.501 29.001 -62.501 49.001s-40.667 42.167 -59 66.5s-34.166 49.166 -47.499 74.499l86 35c17.333 -34.667 39.833 -66.167 67.5 -94.5s56.167 -52.5 85.5 -72.5zM58.999 353.001c0 74 12.998 138.001 38.998 192.001
s63.833 95.667 113.5 125s108.834 44 177.501 44c68 0 126.667 -14.667 176 -44s87.5 -71 114.5 -125s40.5 -117.667 40.5 -191c0 -74 -13.5 -138.167 -40.5 -192.5s-65.333 -96.333 -115 -126s-108.167 -44.5 -175.5 -44.5c-68.667 0 -127.667 14.833 -177 44.5
s-87.166 71.667 -113.499 126s-39.5 118.166 -39.5 191.499zM167.997 353.002c0 -56.667 8.16504 -105.5 24.498 -146.5s41 -72.167 74 -93.5s73.833 -32 122.5 -32c70.667 0 125.334 23.833 164.001 71.5s58 114.5 58 200.5c0 57.333 -8.5 106.333 -25.5 147
s-42.167 71.5 -75.5 92.5s-73.666 31.5 -120.999 31.5c-72.667 0 -127.667 -23.667 -165 -71s-56 -114 -56 -200z" />
    <glyph glyph-name="R" unicode="R" horiz-adv-x="697" 
d="M83 0l0.000976562 705h298c75.333 0 133.666 -17.833 174.999 -53.5s62 -85.5 62 -149.5c0 -42 -9.33301 -78 -28 -108s-45 -52.833 -79 -68.5s-74 -23.5 -120 -23.5l16 16h27c27.333 0 51.833 -7 73.5 -21s39.5 -36.333 53.5 -67l101 -230h-114l-100 231
c-10 27.333 -25.5 45 -46.5 53s-46.833 12 -77.5 12h-137v-296h-104zM187.001 375l177 -0.000976562c50 0 87.833 10.667 113.5 32s38.5 52 38.5 92c0 40.667 -12.833 71.334 -38.5 92.001s-63.5 31 -113.5 31h-177v-247z" />
    <glyph glyph-name="S" unicode="S" horiz-adv-x="633" 
d="M321 -9c-56.667 0 -108 7.16992 -154 21.5029s-86 34.833 -120 61.5l35 82c22.667 -17.333 46.167 -31.666 70.5 -42.999s50.333 -19.833 78 -25.5s57.834 -8.5 90.501 -8.5c56 0 97.167 10 123.5 30s39.5 46.333 39.5 79c0 28 -9.16699 49.667 -27.5 65
s-50.5 27.666 -96.5 36.999l-109 22c-64.667 13.333 -112.834 35.166 -144.501 65.499s-47.5 71.833 -47.5 124.5c0 42.667 11.333 80 34 112s54.167 56.667 94.5 74s87.5 26 141.5 26c50 0 96 -7.16699 138 -21.5s77.333 -35.5 106 -63.5l-34 -79
c-30 26 -62 45.167 -96 57.5s-72.667 18.5 -116 18.5c-51.333 0 -91.5 -10.667 -120.5 -32s-43.5 -50.333 -43.5 -87c0 -29.333 9.16699 -52.333 27.5 -69s48.833 -29.334 91.5 -38.001l109 -21c67.333 -14 117 -35.5 149 -64.5s48 -68.833 48 -119.5
c0 -40.667 -10.833 -76.334 -32.5 -107.001s-52.5 -54.5 -92.5 -71.5s-87.333 -25.5 -142 -25.5z" />
    <glyph glyph-name="T" unicode="T" horiz-adv-x="611" 
d="M252 0v618h-241v87h586v-87h-241v-618h-104z" />
    <glyph glyph-name="U" unicode="U" horiz-adv-x="735" 
d="M369 -9c-65.333 0 -119.499 11 -162.499 33s-75 54.833 -96 98.5s-31.5 97.5 -31.5 161.5v421h104v-419c0 -68 14.833 -119.167 44.5 -153.5s76.834 -51.5 141.501 -51.5c61.333 0 107.666 17.167 138.999 51.5s47 85.5 47 153.5v419h102v-421
c0 -64 -10.833 -117.833 -32.5 -161.5s-53.834 -76.5 -96.501 -98.5s-95.667 -33 -159 -33z" />
    <glyph glyph-name="V" unicode="V" horiz-adv-x="708" 
d="M308 0l-310 705h112l264 -618h-36l265 618h107l-311 -705h-91z" />
    <glyph glyph-name="W" unicode="W" horiz-adv-x="1116" 
d="M277 0l-247 705h108l205 -609h-37l217 609h79l204 -609h-34l212 609h102l-249 -705h-89l-198 580h21l-206 -580h-88z" />
    <glyph glyph-name="X" unicode="X" horiz-adv-x="661" 
d="M1 0l286 381v-42l-274 366h122l212 -292h-32l210 292h123l-274 -366v42l286 -381h-123l-225 308h37l-226 -308h-122z" />
    <glyph glyph-name="Y" unicode="Y" horiz-adv-x="617" 
d="M256 0v331l23 -66l-297 440h120l221 -337h-25l221 337h116l-296 -440l21 66v-331h-104z" />
    <glyph glyph-name="Z" unicode="Z" horiz-adv-x="601" 
d="M44 0v76l412 577v-35h-412v87h511v-76l-413 -577v35h425v-87h-523z" />
    <glyph glyph-name="bracketleft" unicode="[" horiz-adv-x="334" 
d="M104 -180v885h219v-78h-119v-729h119v-78h-219z" />
    <glyph glyph-name="backslash" unicode="\" horiz-adv-x="300" 
d="M238 -57l-262 807h85l262 -807h-85z" />
    <glyph glyph-name="bracketright" unicode="]" horiz-adv-x="334" 
d="M11 -180v78h119v729h-119v78h218v-885h-218z" />
    <glyph glyph-name="asciicircum" unicode="^" horiz-adv-x="600" 
d="M45 141l216 487h77l217 -487h-81l-200 452h50l-199 -452h-80z" />
    <glyph glyph-name="underscore" unicode="_" horiz-adv-x="505" 
d="M10 -63v63h485v-63h-485z" />
    <glyph glyph-name="grave" unicode="`" horiz-adv-x="500" 
d="M215 553l-136 202h103l103 -202h-70z" />
    <glyph glyph-name="a" unicode="a" horiz-adv-x="609" 
d="M267 -9c-44.667 0 -83.668 10.3311 -117.001 30.998s-59.166 50.667 -77.499 90s-27.5 86 -27.5 140c0 54.667 9.16699 101.334 27.5 140.001s44.166 68.5 77.499 89.5s72.333 31.5 117 31.5c44 0 82.333 -11 115 -33s54.334 -52 65.001 -90h-11l10 114h98
c-2 -20.667 -3.83301 -41.167 -5.5 -61.5s-2.5 -40.166 -2.5 -59.499v-383h-101v112h11c-10.667 -37.333 -32.5 -66.833 -65.5 -88.5s-70.833 -32.5 -113.5 -32.5zM291.999 69.998c43.333 0 78.166 15.333 104.499 46s39.5 76 39.5 136s-13.167 105.167 -39.5 135.5
s-61.166 45.5 -104.499 45.5c-44 0 -79.167 -15.167 -105.5 -45.5s-39.5 -75.5 -39.5 -135.5s13 -105.333 39 -136s61.333 -46 106 -46z" />
    <glyph glyph-name="b" unicode="b" horiz-adv-x="609" 
d="M343 -9c-44 0 -82.3301 11 -114.997 33s-54.334 52 -65.001 90h11v-114h-100v736h101v-344h-12c11.333 37.333 33.166 66.833 65.499 88.5s70.5 32.5 114.5 32.5c44.667 0 83.667 -10.5 117 -31.5s59.166 -51 77.499 -90s27.5 -85.833 27.5 -140.5
c0 -54 -9.16699 -100.5 -27.5 -139.5s-44.333 -68.833 -78 -89.5s-72.5 -31 -116.5 -31zM318.003 70c43.333 0 78.333 15.167 105 45.5s40 75.5 40 135.5c0 60.667 -13.333 106.167 -40 136.5s-61.667 45.5 -105 45.5c-44 0 -79.167 -15.167 -105.5 -45.5
s-39.5 -75.5 -39.5 -135.5s13.167 -105.333 39.5 -136s61.5 -46 105.5 -46z" />
    <glyph glyph-name="c" unicode="c" horiz-adv-x="499" 
d="M295 -9c-50.667 0 -94.832 10.499 -132.499 31.499s-66.667 51.333 -87 91s-30.5 86.834 -30.5 141.501c0 54 10.333 100.333 31 139s49.667 68.167 87 88.5s81.333 30.5 132 30.5c32.667 0 64.334 -5.5 95.001 -16.5s56 -26.5 76 -46.5l-33 -71
c-18.667 18 -39.667 31.5 -63 40.5s-46 13.5 -68 13.5c-48 0 -85.667 -15.333 -113 -46s-41 -75 -41 -133c0 -58.667 13.667 -103.667 41 -135s65 -47 113 -47c21.333 0 43.666 4.16699 66.999 12.5s44.666 21.833 63.999 40.5l33 -71c-20.667 -20 -46.5 -35.5 -77.5 -46.5
s-62.167 -16.5 -93.5 -16.5z" />
    <glyph glyph-name="d" unicode="d" horiz-adv-x="609" 
d="M267 -9c-44 0 -82.833 10.332 -116.5 30.999s-59.667 50.667 -78 90s-27.5 86 -27.5 140c0 54.667 9.16699 101.334 27.5 140.001s44.333 68.5 78 89.5s72.5 31.5 116.5 31.5c43.333 0 81.5 -10.833 114.5 -32.5s54.833 -51.167 65.5 -88.5h-12v344h101v-736h-100v114h12
c-11.333 -38 -33.333 -68 -66 -90s-71 -33 -115 -33zM292 69.999c43.333 0 78.333 15.333 105 46s40 76 40 136s-13.333 105.167 -40 135.5s-61.667 45.5 -105 45.5c-44 0 -79.167 -15.167 -105.5 -45.5s-39.5 -75.5 -39.5 -135.5s13.167 -105.333 39.5 -136
s61.5 -46 105.5 -46z" />
    <glyph glyph-name="e" unicode="e" horiz-adv-x="546" 
d="M307 -9c-54.667 0 -101.501 10.333 -140.501 31s-69 50.5 -90 89.5s-31.5 85.5 -31.5 139.5c0 52.667 10.167 98.667 30.5 138s48.666 69.833 84.999 91.5s78.5 32.5 126.5 32.5c47.333 0 87 -10 119 -30s56.333 -48.167 73 -84.5s25 -79.166 25 -128.499v-32h-380v58
h311l-17 -13c0 50 -11.167 88.833 -33.5 116.5s-54.5 41.5 -96.5 41.5c-31.333 0 -57.833 -7.33301 -79.5 -22s-38.167 -35.5 -49.5 -62.5s-17 -59.5 -17 -97.5v-10c0 -59.333 14.5 -104 43.5 -134s70.167 -45 123.5 -45c29.333 0 56.833 4.16699 82.5 12.5
s50.167 22.166 73.5 41.499l33 -69c-23.333 -20.667 -51.666 -36.5 -84.999 -47.5s-68.666 -16.5 -105.999 -16.5z" />
    <glyph glyph-name="f" unicode="f" horiz-adv-x="352" 
d="M104 0v426.001h-98v78h126l-28 -26v80c0 59.333 15 104.5 45 135.5s74 46.5 132 46.5c14 0 28.667 -1 44 -3s28 -5.33301 38 -10v-82c-8 3.33301 -17.833 6.16602 -29.5 8.49902s-23.5 3.5 -35.5 3.5c-19.333 0 -36 -3.83301 -50 -11.5s-24.833 -19.167 -32.5 -34.5
s-11.5 -35 -11.5 -59v-68l-15 20h152v-78h-136v-426h-101z" />
    <glyph glyph-name="g" unicode="g" horiz-adv-x="612" 
d="M301 -224c-45.333 0 -86.5 5.33398 -123.5 16.001s-70.167 26.667 -99.5 48l25 74c20.667 -14 41 -25.167 61 -33.5s41 -14.5 63 -18.5s44.667 -6 68 -6c48 0 84.167 12.167 108.5 36.5s36.5 59.5 36.5 105.5v135h10c-10.667 -37.333 -32.5 -66.833 -65.5 -88.5
s-71.167 -32.5 -114.5 -32.5c-46 0 -85.833 10.167 -119.5 30.5s-59.667 49.333 -78 87s-27.5 82.167 -27.5 133.5s9.16699 95.666 27.5 132.999s44.333 66.166 78 86.499s73.5 30.5 119.5 30.5c44 0 82.167 -10.833 114.5 -32.5s53.833 -51.167 64.5 -88.5l-9 8l9 104h98
c-2.66699 -20.667 -4.66699 -41.167 -6 -61.5s-2 -40.166 -2 -59.499v-373c0 -76 -20.167 -134 -60.5 -174s-99.5 -60 -177.5 -60zM294 91.001c44 0 79.167 15 105.5 45s39.5 72.333 39.5 127s-13.167 96.667 -39.5 126s-61.5 44 -105.5 44
c-45.333 0 -81.166 -14.667 -107.499 -44s-39.5 -71.333 -39.5 -126s13.167 -97 39.5 -127s62.166 -45 107.499 -45z" />
    <glyph glyph-name="h" unicode="h" horiz-adv-x="593" 
d="M74 0l-0.000976562 735.999h101v-339h-14c14.667 38 38.334 66.833 71.001 86.5s70.334 29.5 113.001 29.5c60 0 104.667 -16.5 134 -49.5s44 -82.833 44 -149.5v-314h-101v308c0 43.333 -8.5 74.833 -25.5 94.5s-43.833 29.5 -80.5 29.5
c-42.667 0 -76.834 -13.167 -102.501 -39.5s-38.5 -61.166 -38.5 -104.499v-288h-101z" />
    <glyph glyph-name="i" unicode="i" horiz-adv-x="249" 
d="M74 0v504h101v-504h-101zM66 609v105h117v-105h-117z" />
    <glyph glyph-name="j" unicode="j" horiz-adv-x="249" 
d="M15 -221c-10.667 0 -23.166 1.00098 -37.499 3.00098s-26.833 5.33301 -37.5 10v82c8.66699 -2.66699 18.167 -5.16699 28.5 -7.5s20.166 -3.5 29.499 -3.5c26 0 45.833 8.16699 59.5 24.5s20.5 43.166 20.5 80.499v536h101v-543c0 -60 -13.333 -105.333 -40 -136
s-68 -46 -124 -46zM69.001 609.001v105h118v-105h-118z" />
    <glyph glyph-name="k" unicode="k" horiz-adv-x="532" 
d="M74 0v736h101v-452h2l220 220h125l-266 -265l1 45l287 -284h-128l-239 231h-2v-231h-101z" />
    <glyph glyph-name="l" unicode="l" horiz-adv-x="249" 
d="M74 0v736h101v-736h-101z" />
    <glyph glyph-name="m" unicode="m" horiz-adv-x="888" 
d="M74 0l0.00195312 383.002c0 19.333 -0.833008 39.166 -2.5 59.499s-3.5 40.833 -5.5 61.5h98l9 -106h-12c14 36.667 35.5 65 64.5 85s63.833 30 104.5 30c41.333 0 75.166 -9.83301 101.499 -29.5s44.5 -49.834 54.5 -90.501h-16c13.333 36.667 36 65.834 68 87.501
s69 32.5 111 32.5c56 0 98 -16.333 126 -49s42 -83.334 42 -152.001v-312h-101v307c0 44 -7.5 75.833 -22.5 95.5s-39.167 29.5 -72.5 29.5c-38.667 0 -69.334 -13.333 -92.001 -40s-34 -62.667 -34 -108v-284h-101v307c0 44 -7.5 75.833 -22.5 95.5
s-39.167 29.5 -72.5 29.5c-38.667 0 -69 -13.333 -91 -40s-33 -62.667 -33 -108v-284h-101z" />
    <glyph glyph-name="n" unicode="n" horiz-adv-x="593" 
d="M74 0l0.000976562 383.001c0 19.333 -0.833008 39.166 -2.5 59.499s-3.5 40.833 -5.5 61.5h98l9 -106h-12c15.333 37.333 39 65.833 71 85.5s69 29.5 111 29.5c59.333 0 104.166 -16.333 134.499 -49s45.5 -83.334 45.5 -152.001v-312h-101v306
c0 44.667 -8.83301 76.834 -26.5 96.501s-44.5 29.5 -80.5 29.5c-42.667 0 -76.667 -13.167 -102 -39.5s-38 -61.833 -38 -106.5v-286h-101z" />
    <glyph glyph-name="o" unicode="o" horiz-adv-x="581" 
d="M290 -9c-50 0 -93.333 10.5 -130 31.5s-65 51 -85 90s-30 85.5 -30 139.5s10 100.5 30 139.5s48.333 69 85 90s80 31.5 130 31.5s93.5 -10.5 130.5 -31.5s65.667 -51 86 -90s30.5 -85.5 30.5 -139.5s-10.167 -100.5 -30.5 -139.5s-49 -69 -86 -90
s-80.5 -31.5 -130.5 -31.5zM290 70c44 0 79 15.333 105 46s39 76 39 136s-13 105.167 -39 135.5s-61 45.5 -105 45.5c-43.333 0 -78 -15.167 -104 -45.5s-39 -75.5 -39 -135.5s13 -105.333 39 -136s60.667 -46 104 -46z" />
    <glyph glyph-name="p" unicode="p" horiz-adv-x="609" 
d="M74 -216v599.002c0 19.333 -0.833008 39.166 -2.5 59.499s-3.5 40.833 -5.5 61.5h98l10 -114h-11c10.667 38 32.167 68 64.5 90s70.833 33 115.5 33s83.667 -10.5 117 -31.5s59.166 -50.833 77.499 -89.5s27.5 -85.334 27.5 -140.001c0 -54 -9.16699 -100.667 -27.5 -140
s-44.166 -69.333 -77.499 -90s-72.333 -31 -117 -31c-44 0 -82.167 10.833 -114.5 32.5s-53.833 51.167 -64.5 88.5h11v-328h-101zM318 70.002c44 0 79.167 15.333 105.5 46s39.5 76 39.5 136s-13.167 105.167 -39.5 135.5s-61.5 45.5 -105.5 45.5
s-79.167 -15.167 -105.5 -45.5s-39.5 -75.5 -39.5 -135.5s13.167 -105.333 39.5 -136s61.5 -46 105.5 -46z" />
    <glyph glyph-name="q" unicode="q" horiz-adv-x="609" 
d="M435 -216l-0.000976562 327.998h11c-10.667 -37.333 -32.5 -66.833 -65.5 -88.5s-70.833 -32.5 -113.5 -32.5c-44.667 0 -83.667 10.333 -117 31s-59.166 50.667 -77.499 90s-27.5 86 -27.5 140c0 54.667 9.16699 101.334 27.5 140.001s44.166 68.5 77.499 89.5
s72.333 31.5 117 31.5c44 0 82.333 -11 115 -33s54.334 -52 65.001 -90h-11l10 114h98c-2 -20.667 -3.83301 -41.167 -5.5 -61.5s-2.5 -40.166 -2.5 -59.499v-599h-101zM291.999 69.998c43.333 0 78.166 15.333 104.499 46s39.5 76 39.5 136s-13.167 105.167 -39.5 135.5
s-61.166 45.5 -104.499 45.5c-44 0 -79.167 -15.167 -105.5 -45.5s-39.5 -75.5 -39.5 -135.5s13 -105.333 39 -136s61.333 -46 106 -46z" />
    <glyph glyph-name="r" unicode="r" horiz-adv-x="377" 
d="M72 0l0.000976562 379c0 20.667 -0.5 41.5 -1.5 62.5s-2.5 41.833 -4.5 62.5h98l11 -130h-16c6.66699 31.333 18 57.333 34 78s35.5 36 58.5 46s47.167 15 72.5 15c10.667 0 19.667 -0.5 27 -1.5s14.666 -2.5 21.999 -4.5l-1 -90
c-11.333 4.66699 -21.166 7.5 -29.499 8.5s-18.5 1.5 -30.5 1.5c-29.333 0 -54.333 -6.5 -75 -19.5s-36.334 -30.5 -47.001 -52.5s-16 -45.667 -16 -71v-284h-102z" />
    <glyph glyph-name="s" unicode="s" horiz-adv-x="498" 
d="M247 -9c-42 0 -80.667 5.33203 -116 15.999s-64.666 25.667 -87.999 45l31 69c24.667 -18.667 52 -32.667 82 -42s60.667 -14 92 -14c36.667 0 64.334 6.5 83.001 19.5s28 30.833 28 53.5c0 17.333 -5.83301 31.333 -17.5 42s-30.834 18.667 -57.501 24l-96 19
c-42.667 9.33301 -75 25.333 -97 48s-33 51.667 -33 87c0 30 8.16699 56.667 24.5 80s39.666 41.666 69.999 54.999s65.833 20 106.5 20c37.333 0 72 -5.33301 104 -16s58.667 -26 80 -46l-32 -67c-20.667 17.333 -44 30.833 -70 40.5s-52.333 14.5 -79 14.5
c-37.333 0 -65 -7 -83 -21s-27 -32.333 -27 -55c0 -17.333 5.5 -31.5 16.5 -42.5s28.5 -19.5 52.5 -25.5l96 -19c45.333 -9.33301 79.333 -24.666 102 -45.999s34 -50 34 -86c0 -31.333 -8.66699 -58.666 -26 -81.999s-41.333 -41 -72 -53s-66.667 -18 -108 -18z" />
    <glyph glyph-name="t" unicode="t" horiz-adv-x="363" 
d="M270 -9c-54.667 0 -96 14.834 -124 44.501s-42 74.167 -42 133.5v257h-98v78h98v133l101 27v-160h140v-78h-140v-248c0 -37.333 6.66699 -64 20 -80s32.666 -24 57.999 -24c12.667 0 23.834 1.16699 33.501 3.5s18.5 5.16602 26.5 8.49902v-82
c-10 -4 -21.667 -7.16699 -35 -9.5s-26 -3.5 -38 -3.5z" />
    <glyph glyph-name="u" unicode="u" horiz-adv-x="586" 
d="M253 -9c-60.667 0 -106.165 16.499 -136.498 49.499s-45.5 83.833 -45.5 152.5v311h101v-309c0 -42 8.66699 -73 26 -93s43.666 -30 78.999 -30c40 0 72.333 13.333 97 40s37 62 37 106v286h101v-504h-98v108h13c-14 -37.333 -36.333 -66.166 -67 -86.499
s-66.334 -30.5 -107.001 -30.5z" />
    <glyph glyph-name="v" unicode="v" horiz-adv-x="537" 
d="M222 0l-216 504h108l170 -421h-29l173 421h103l-217 -504h-92z" />
    <glyph glyph-name="w" unicode="w" horiz-adv-x="875" 
d="M211 0l-191 504h105l149 -420h-26l153 420h78l152 -420h-25l149 420h101l-192 -504h-92l-158 428h47l-156 -428h-94z" />
    <glyph glyph-name="x" unicode="x" horiz-adv-x="541" 
d="M2 0l229 284v-48l-217 268h121l153 -197h-36l153 197h120l-215 -267v46l228 -283h-121l-165 211h36l-166 -211h-120z" />
    <glyph glyph-name="y" unicode="y" horiz-adv-x="536" 
d="M59 -227l-24.001 82c31.333 6.66699 57.5 14.667 78.5 24s38.5 21.5 52.5 36.5s26 34.167 36 57.5l25 59l-2 -41l-219 513h108l170 -420h-27l170 420h104l-231 -540c-14.667 -33.333 -30.334 -61.333 -47.001 -84s-34.667 -41 -54 -55s-40.666 -25 -63.999 -33
s-48.666 -14.333 -75.999 -19z" />
    <glyph glyph-name="z" unicode="z" horiz-adv-x="522" 
d="M49 0v67l328 384l1 -25h-329v78h421v-67l-331 -387l-1 27h343v-77h-432z" />
    <glyph glyph-name="braceleft" unicode="{" horiz-adv-x="372" 
d="M257 -180c-23.333 0 -43.168 4.33105 -59.501 12.998s-28.666 21.334 -36.999 38.001s-12.5 37 -12.5 61v211c0 27.333 -5.33301 47 -16 59s-29 19 -55 21l-33 2v75l33 3c26 1.33301 44.333 8 55 20s16 31.667 16 59v211c0 36.667 9.33301 64.5 28 83.5
s45.667 28.5 81 28.5h105v-78h-71c-14.667 0 -25.667 -3.66699 -33 -11s-11 -18.666 -11 -33.999v-211c0 -20 -4.33301 -38.5 -13 -55.5s-20.167 -30.5 -34.5 -40.5s-30.5 -15 -48.5 -15v4c18 0 34.167 -4.83301 48.5 -14.5s25.833 -22.667 34.5 -39s13 -35.166 13 -56.499
v-211c0 -14.667 3.66699 -25.834 11 -33.501s18.333 -11.5 33 -11.5h71v-78h-105z" />
    <glyph glyph-name="bar" unicode="|" horiz-adv-x="272" 
d="M86 -185v895h101v-895h-101z" />
    <glyph glyph-name="braceright" unicode="}" horiz-adv-x="372" 
d="M10 -180l0.00195312 77.999h71c15.333 0 26.5 3.83301 33.5 11.5s10.5 18.834 10.5 33.501v211c0 20.667 4.16699 39.334 12.5 56.001s19.833 30 34.5 40s31 15 49 15v-4c-18 0 -34.333 4.83301 -49 14.5s-26.167 23 -34.5 40s-12.5 35.5 -12.5 55.5v211
c0 15.333 -3.5 26.666 -10.5 33.999s-18.167 11 -33.5 11h-71v78h105c23.333 0 43.166 -4.16699 59.499 -12.5s28.666 -20.833 36.999 -37.5s12.5 -37.334 12.5 -62.001v-211c0 -26.667 5.33301 -46.167 16 -58.5s29 -19.166 55 -20.499l33 -2v-76l-33 -3
c-26 -1.33301 -44.333 -7.83301 -55 -19.5s-16 -31.5 -16 -59.5v-211c0 -36 -9.33301 -63.667 -28 -83s-45.667 -29 -81 -29h-105z" />
    <glyph glyph-name="asciitilde" unicode="~" horiz-adv-x="600" 
d="M414 213c-16.667 0 -34.333 2.99902 -53 8.99902s-42 16.667 -70 32c-26.667 14 -47.167 23.5 -61.5 28.5s-26.833 7.5 -37.5 7.5c-18 0 -33.5 -5 -46.5 -15s-24.5 -26.333 -34.5 -49l-58 34c13.333 32 31.5 56.833 54.5 74.5s49.167 26.5 78.5 26.5
c16.667 0 34.334 -2.83301 53.001 -8.5s41.667 -15.5 69 -29.5c25.333 -13.333 45.333 -23.166 60 -29.499s28 -9.5 40 -9.5c18 0 33.667 5.16699 47 15.5s24.666 26.5 33.999 48.5l58 -34c-13.333 -32.667 -31.333 -57.667 -54 -75s-49 -26 -79 -26z" />
    <glyph glyph-name="uni00A0" unicode="&#xa0;" horiz-adv-x="267" 
 />
    <glyph glyph-name="exclamdown" unicode="&#xa1;" horiz-adv-x="237" 
d="M56 -180l32 489h62l31 -489h-125zM59 385v119h119v-119h-119z" />
    <glyph glyph-name="cent" unicode="&#xa2;" horiz-adv-x="600" 
d="M275 -115v135l20 -25c-42 5.33301 -78.667 19 -110 41s-55.5 51 -72.5 87s-25.5 76.333 -25.5 121c0 44 8.66699 83.5 26 118.5s41.5 63.833 72.5 86.5s67.167 36.667 108.5 42l-19 -29v146h82v-141l-21 27c33.333 0 65.833 -5.5 97.5 -16.5s56.834 -26.5 75.501 -46.5
l-30 -70c-19.333 16.667 -40.833 29.5 -64.5 38.5s-48.167 13.5 -73.5 13.5c-46 0 -82.667 -15.333 -110 -46s-41 -71 -41 -121c0 -34 6.16699 -63.833 18.5 -89.5s29.666 -45.5 51.999 -59.5s48.833 -21 79.5 -21c25.333 0 50 4.5 74 13.5s45.667 21.833 65 38.5l30 -70
c-20 -19.333 -45.667 -34.833 -77 -46.5s-64 -18.167 -98 -19.5l23 24v-131h-82z" />
    <glyph glyph-name="sterling" unicode="&#xa3;" horiz-adv-x="600" 
d="M45 0l0.000976562 70.999c29.333 11.333 52.333 25.333 69 42s25 38.334 25 65.001v143h-95v65h95v118c0 44 8.5 81.667 25.5 113s42.5 55.333 76.5 72s76.667 25 128 25c40 0 77.667 -6.5 113 -19.5s66 -31.833 92 -56.5l-39 -77c-23.333 24 -48.333 41.333 -75 52
s-56.334 16 -89.001 16c-43.333 0 -75.5 -10.167 -96.5 -30.5s-31.5 -50.5 -31.5 -90.5v-122h178v-65h-177v-116c0 -33.333 -7 -60 -21 -80s-33 -34.667 -57 -44v5h399v-86h-520z" />
    <glyph glyph-name="currency" unicode="&#xa4;" horiz-adv-x="600" 
d="M80 -28l-47.001 47.9971l74 75c-15.333 20.667 -27.333 43.834 -36 69.501s-13 52.5 -13 80.5c0 28.667 4.33301 55.834 13 81.501s20.667 48.834 36 69.501l-74 75l47 47l74 -76c20 16.667 42.5 29.334 67.5 38.001s51.167 13 78.5 13
c26.667 0 52.334 -4.16699 77.001 -12.5s47 -20.5 67 -36.5l73 75l48 -49l-73 -75c16 -20.667 28 -43.834 36 -69.501s12 -52.5 12 -80.5s-4.16699 -54.833 -12.5 -80.5s-20.5 -49.167 -36.5 -70.5l74 -74l-47 -47l-73 75c-20 -16 -42.333 -28.5 -67 -37.5
s-50.667 -13.5 -78 -13.5s-53.5 4.5 -78.5 13.5s-47.833 21.167 -68.5 36.5zM298.999 80.9971c28.667 0 54.668 7.50098 78.001 22.501s41.833 34.833 55.5 59.5s20.5 52 20.5 82c0 30.667 -6.83301 58.334 -20.5 83.001s-32.167 44.5 -55.5 59.5s-49.333 22.167 -78 21.5
c-28 0 -53.833 -7.33301 -77.5 -22s-42.334 -34.334 -56.001 -59.001s-20.5 -52.334 -20.5 -83.001c0 -30 6.83301 -57.333 20.5 -82s32.167 -44.5 55.5 -59.5s49.333 -22.5 78 -22.5z" />
    <glyph glyph-name="yen" unicode="&#xa5;" horiz-adv-x="600" 
d="M248 0v173h-178v63h178v91h-178v63h152v-13l-232 328h114l208 -301h-24l209 301h113l-231 -328v13h151v-63h-178v-91h178v-63h-178v-173h-104z" />
    <glyph glyph-name="brokenbar" unicode="&#xa6;" horiz-adv-x="272" 
d="M86 372v338h101v-338h-101zM86 -185v339h101v-339h-101z" />
    <glyph glyph-name="section" unicode="&#xa7;" horiz-adv-x="555" 
d="M255 -189c-44.667 0 -85.335 5.49805 -122.002 16.498s-67 26.5 -91 46.5l32 69c14.667 -11.333 31.834 -21.5 51.501 -30.5s41 -16 64 -21s45.5 -7.5 67.5 -7.5c38.667 0 69.667 8.83301 93 26.5s35 42.834 35 75.501c0 22 -6.5 41.333 -19.5 58
s-35.5 32.334 -67.5 47.001l-121 54c-35.333 16.667 -63.5 33.5 -84.5 50.5s-36.167 35.5 -45.5 55.5s-14 42.333 -14 67c0 29.333 7.5 57 22.5 83s35.5 47.667 61.5 65l-8 -28c-10.667 10.667 -19 23.667 -25 39s-9 33.666 -9 54.999c0 38 9.66699 70.5 29 97.5
s45.833 47.833 79.5 62.5s72.5 22 116.5 22c42 0 80.5 -5.16699 115.5 -15.5s63.5 -25.5 85.5 -45.5l-31 -68c-22 16.667 -48.667 30 -80 40s-62 15 -92 15c-36.667 0 -66.667 -8.66699 -90 -26s-35 -42.333 -35 -75c0 -22.667 6.66699 -42.167 20 -58.5
s36 -31.833 68 -46.5l120 -54c35.333 -16 63.5 -32.667 84.5 -50s36.167 -36 45.5 -56s14 -42.333 14 -67c0 -29.333 -7.33301 -57 -22 -83s-35 -47.667 -61 -65l8 28c10 -10.667 18 -23.834 24 -39.501s9 -34.167 9 -55.5c0 -37.333 -9.5 -69.666 -28.5 -96.999
s-45.667 -48.166 -80 -62.499s-74.166 -21.5 -119.499 -21.5zM124.999 333.998c0 -22.667 7.33105 -42.832 21.998 -60.499s41.334 -35.5 80.001 -53.5l103 -47c22 -10 40.833 -20.5 56.5 -31.5s28.167 -21.833 37.5 -32.5l-28 -2c12.667 11.333 22.167 24.166 28.5 38.499
s9.5 29.166 9.5 44.499c0 23.333 -7.5 43.833 -22.5 61.5s-41.5 35.5 -79.5 53.5l-104 46c-22 10.667 -40.667 21.5 -56 32.5s-27.666 21.833 -36.999 32.5l27 2c-12 -11.333 -21.167 -24.166 -27.5 -38.499s-9.5 -29.5 -9.5 -45.5z" />
    <glyph glyph-name="dieresis" unicode="&#xa8;" horiz-adv-x="500" 
d="M291 604v99h99v-99h-99zM110 604v99h99v-99h-99z" />
    <glyph glyph-name="copyright" unicode="&#xa9;" horiz-adv-x="815" 
d="M408 -9c-51.333 0 -99 9.16699 -143 27.5s-82.333 43.833 -115 76.5s-58.167 71 -76.5 115s-27.5 91.667 -27.5 143s9.16699 99 27.5 143s43.833 82.167 76.5 114.5s71 57.666 115 75.999s91.667 27.5 143 27.5s99 -9.16699 143 -27.5s82.167 -43.666 114.5 -75.999
s57.666 -70.5 75.999 -114.5s27.5 -91.667 27.5 -143s-9.16699 -99 -27.5 -143s-43.666 -82.333 -75.999 -115s-70.5 -58.167 -114.5 -76.5s-91.667 -27.5 -143 -27.5zM423 137c-65.333 0 -116.999 19.8311 -154.999 59.498s-57 92.5 -57 158.5s19 118 57 156
s89.667 57 155 57c26.667 0 53.167 -4.5 79.5 -13.5s47.833 -21.5 64.5 -37.5l-28 -62c-16 14.667 -33.667 25.5 -53 32.5s-38.333 10.5 -57 10.5c-40.667 0 -72.5 -12.667 -95.5 -38s-34.5 -60.666 -34.5 -105.999c0 -44.667 11.5 -80.167 34.5 -106.5
s54.833 -39.5 95.5 -39.5c18.667 0 37.667 3.5 57 10.5s37 17.833 53 32.5l28 -63c-16.667 -15.333 -38.334 -27.666 -65.001 -36.999s-53 -14 -79 -14zM408.001 38.998c44.667 0 85.834 7.83301 123.501 23.5s70.5 37.834 98.5 66.501s49.833 62 65.5 100
s23.5 79.333 23.5 124s-7.83301 86 -23.5 124s-37.5 71.167 -65.5 99.5s-60.833 50.333 -98.5 66s-78.834 23.5 -123.501 23.5s-86 -7.83301 -124 -23.5s-71 -37.667 -99 -66s-49.833 -61.5 -65.5 -99.5s-23.5 -79.333 -23.5 -124s7.83301 -86 23.5 -124
s37.5 -71.333 65.5 -100s61 -50.834 99 -66.501s79.333 -23.5 124 -23.5z" />
    <glyph glyph-name="ordfeminine" unicode="&#xaa;" horiz-adv-x="333" 
d="M133 409c-21.333 0 -40.334 4.16602 -57.001 12.499s-29.667 19.333 -39 33s-14 29.5 -14 47.5c0 20 6.16699 36.333 18.5 49s30.333 22 54 28s52.167 9 85.5 9h56v-40h-53c-32 0 -55.5 -3.66699 -70.5 -11s-22.5 -18.666 -22.5 -33.999
c0 -12.667 4.66699 -23.334 14 -32.001s24.333 -13 45 -13c22.667 0 41.5 7.66699 56.5 23s22.5 36.333 22.5 63v58c0 20.667 -5.66699 35.834 -17 45.501s-28.666 14.5 -51.999 14.5c-17.333 0 -35.333 -2.16699 -54 -6.5s-36 -11.5 -52 -21.5l-18 49
c16.667 10.667 36.667 18.5 60 23.5s46 7.5 68 7.5c44 0 77 -9.5 99 -28.5s33 -47.833 33 -86.5v-184h-65v55h-2c-10.667 -20.667 -23.5 -36 -38.5 -46s-34.167 -15 -57.5 -15z" />
    <glyph glyph-name="guillemotleft" unicode="&#xab;" horiz-adv-x="469" 
d="M155 87l-130 181l130 181h85l-120 -181l120 -181h-85zM349 87l-130 181l130 181h85l-120 -181l120 -181h-85z" />
    <glyph glyph-name="logicalnot" unicode="&#xac;" horiz-adv-x="600" 
d="M470 145v207h-417v73h494v-280h-77z" />
    <glyph glyph-name="uni00AD" unicode="&#xad;" horiz-adv-x="433" 
d="M70 234v81h293v-81h-293z" />
    <glyph glyph-name="registered" unicode="&#xae;" horiz-adv-x="815" 
d="M408 -9c-51.333 0 -99 9.16699 -143 27.5s-82.333 43.833 -115 76.5s-58.167 71 -76.5 115s-27.5 91.667 -27.5 143s9.16699 99 27.5 143s43.833 82.167 76.5 114.5s71 57.666 115 75.999s91.667 27.5 143 27.5s99 -9.16699 143 -27.5s82.167 -43.666 114.5 -75.999
s57.666 -70.5 75.999 -114.5s27.5 -91.667 27.5 -143s-9.16699 -99 -27.5 -143s-43.666 -82.333 -75.999 -115s-70.5 -58.167 -114.5 -76.5s-91.667 -27.5 -143 -27.5zM408 39c44.667 0 85.834 7.83301 123.501 23.5s70.5 37.834 98.5 66.501s49.833 62 65.5 100
s23.5 79.333 23.5 124s-7.83301 86 -23.5 124s-37.5 71.167 -65.5 99.5s-60.833 50.333 -98.5 66s-78.834 23.5 -123.501 23.5s-86 -7.83301 -124 -23.5s-71 -37.667 -99 -66s-49.833 -61.5 -65.5 -99.5s-23.5 -79.333 -23.5 -124s7.83301 -86 23.5 -124
s37.5 -71.333 65.5 -100s61 -50.834 99 -66.501s79.333 -23.5 124 -23.5zM259 142v422.001h177c46 0 81.333 -11.167 106 -33.5s37 -52.166 37 -89.499c0 -38.667 -12.333 -68.167 -37 -88.5s-59 -30.5 -103 -30.5l16 11c21.333 0 38.833 -4.83301 52.5 -14.5
s24.5 -27.834 32.5 -54.501l44 -122h-82l-44 128c-6 15.333 -14.5 25.666 -25.5 30.999s-24.5 8 -40.5 8h-68l15 11v-178h-80zM338 371.001l87 -0.00195312c26 0 45.333 5.33301 58 16s19 27.334 19 50.001s-6.33301 39.334 -19 50.001s-32 16 -58 16h-87v-132z" />
    <glyph glyph-name="macron" unicode="&#xaf;" horiz-adv-x="500" 
d="M97 621v64h306v-64h-306z" />
    <glyph glyph-name="degree" unicode="&#xb0;" horiz-adv-x="375" 
d="M188 413c-29.333 0 -55.5 6.66797 -78.5 20.001s-41.167 31.333 -54.5 54s-20 48.334 -20 77.001s6.66699 54.167 20 76.5s31.5 40.166 54.5 53.499s49.167 20 78.5 20c28.667 0 54.334 -6.5 77.001 -19.5s40.667 -30.833 54 -53.5s20 -48.334 20 -77.001
s-6.66699 -54.5 -20 -77.5s-31.333 -41 -54 -54s-48.334 -19.5 -77.001 -19.5zM188 475.001c24.667 0 44.834 8.33301 60.501 25s23.5 38 23.5 64c0 25.333 -7.83301 46.333 -23.5 63s-35.834 25 -60.501 25c-25.333 0 -46 -8.33301 -62 -25s-24 -37.667 -24 -63
c0 -26 8 -47.333 24 -64s36.667 -25 62 -25z" />
    <glyph glyph-name="plusminus" unicode="&#xb1;" horiz-adv-x="600" 
d="M262 132v162h-209v74h209v162h76v-162h209v-74h-209v-162h-76zM53 0v74h494v-74h-494z" />
    <glyph glyph-name="uni00B2" unicode="&#xb2;" horiz-adv-x="380" 
d="M49 282l0.00195312 60l138 139c18 19.333 31.167 36.5 39.5 51.5s12.5 30.833 12.5 47.5c0 19.333 -5.83301 34 -17.5 44s-28.834 15 -51.501 15c-18 0 -37 -3.66699 -57 -11s-37.667 -17.333 -53 -30l-23 63c18 14.667 40 26.334 66 35.001s54 13 84 13
c43.333 0 77.666 -10.667 102.999 -32s38 -50.333 38 -87c0 -22.667 -5.5 -44.834 -16.5 -66.501s-28.833 -44.5 -53.5 -68.5l-114 -113v10h201v-70h-296z" />
    <glyph glyph-name="uni00B3" unicode="&#xb3;" horiz-adv-x="380" 
d="M187 278c-32 0 -61.501 3.83301 -88.501 11.5s-49.833 18.834 -68.5 33.501l21 61c16.667 -12.667 36.167 -22.5 58.5 -29.5s45.833 -10.5 70.5 -10.5c24 0 43.5 5.16699 58.5 15.5s22.5 26.166 22.5 47.499c0 20 -7.33301 34.5 -22 43.5s-34.334 13.5 -59.001 13.5h-81
v63h70c24.667 0 44 5.16699 58 15.5s21 25.166 21 44.499c0 18 -6.33301 31.833 -19 41.5s-31 14.5 -55 14.5c-20.667 0 -41.667 -3.83301 -63 -11.5s-39.666 -17.834 -54.999 -30.501l-22 61c18 14.667 40.333 26.167 67 34.5s55.334 12.5 86.001 12.5
c44 0 78.833 -10 104.5 -30s38.5 -46.667 38.5 -80c0 -27.333 -8.5 -50.166 -25.5 -68.499s-37.833 -30.166 -62.5 -35.499v9c30 -4 54 -14.833 72 -32.5s27 -42.167 27 -73.5c0 -38 -14.5 -67.5 -43.5 -88.5s-65.833 -31.5 -110.5 -31.5z" />
    <glyph glyph-name="acute" unicode="&#xb4;" horiz-adv-x="500" 
d="M215 553l103 202h103l-136 -202h-70z" />
    <glyph glyph-name="uni00B5" unicode="&#xb5;" horiz-adv-x="575" 
d="M68 -203l-0.00292969 707h101v-314c0 -40 8.33301 -69.333 25 -88s42.334 -28 77.001 -28c40 0 72.333 12.667 97 38s37 59.666 37 102.999v289h101v-504h-99v107h6c-10 -37.333 -27.833 -66 -53.5 -86s-55.167 -30 -88.5 -30c-27.333 0 -51.166 4.83301 -71.499 14.5
s-36.166 27.834 -47.499 54.501h9l8 -263h-101z" />
    <glyph glyph-name="paragraph" unicode="&#xb6;" horiz-adv-x="614" 
d="M250 -180l-0.000976562 477.001c-42 0 -78.667 8.83301 -110 26.5s-55.666 41.667 -72.999 72s-26 65.833 -26 106.5c0 40 8.66699 75.167 26 105.5s42 54.166 74 71.499s69.333 26 112 26h278v-885h-77v811h-127v-811h-77z" />
    <glyph glyph-name="periodcentered" unicode="&#xb7;" horiz-adv-x="240" 
d="M60 215v119h120v-119h-120z" />
    <glyph glyph-name="cedilla" unicode="&#xb8;" horiz-adv-x="500" 
d="M252 -194c-18.667 0 -36.167 1.83203 -52.5 5.49902s-30.833 8.83398 -43.5 15.501l16 49c12 -5.33301 23.667 -9.33301 35 -12s24 -4 38 -4c18 0 32.167 2.83301 42.5 8.5s15.5 13.834 15.5 24.501c0 8 -3 14.333 -9 19s-15.667 7 -29 7
c-6.66699 0 -13.5 -0.5 -20.5 -1.5s-15.167 -2.83301 -24.5 -5.5l-18 16l15 92h58l-13 -76l-28 9c8 2 16 3.66699 24 5s15.333 2 22 2c26 0 47 -6 63 -18s24 -29.333 24 -52c0 -24.667 -10.667 -44.834 -32 -60.501s-49 -23.5 -83 -23.5z" />
    <glyph glyph-name="uni00B9" unicode="&#xb9;" horiz-adv-x="380" 
d="M72 282v70h98v281h36l-125 -71v80l110 63h62v-353h86v-70h-267z" />
    <glyph glyph-name="ordmasculine" unicode="&#xba;" horiz-adv-x="348" 
d="M174 410c-29.333 0 -55.334 6.33301 -78.001 19s-40.5 30.5 -53.5 53.5s-19.5 49.833 -19.5 80.5c0 31.333 6.5 58.166 19.5 80.499s30.833 39.666 53.5 51.999s49 18.5 79 18.5c28.667 0 54.334 -6.16699 77.001 -18.5s40.667 -29.666 54 -51.999s20 -49.166 20 -80.499
c0 -30.667 -6.66699 -57.5 -20 -80.5s-31.333 -40.833 -54 -53.5s-48.667 -19 -78 -19zM173.999 464c25.333 0 45.333 8.50098 60 25.501s22 41.5 22 73.5s-7.33301 56.333 -22 73s-34.667 25 -60 25s-45.333 -8.16699 -60 -24.5s-22 -40.833 -22 -73.5
s7.33301 -57.334 22 -74.001s34.667 -25 60 -25z" />
    <glyph glyph-name="guillemotright" unicode="&#xbb;" horiz-adv-x="469" 
d="M120 87h-86l121 181l-121 181h87l129 -181zM314 87h-86l121 181l-121 181h87l129 -181z" />
    <glyph glyph-name="onequarter" unicode="&#xbc;" horiz-adv-x="904" 
d="M72 282v70h98v281h36l-125 -71v80l110 63h62v-353h86v-70h-267zM309 -9h-89l428 723h88zM750 0v80h-198v59l206 284h69v-278h62v-65h-62v-80h-77zM752 145v192h10l-149 -207v15h139z" />
    <glyph glyph-name="onehalf" unicode="&#xbd;" horiz-adv-x="950" 
d="M72 282v70h98v281h36l-125 -71v80l110 63h62v-353h86v-70h-267zM309 -9h-89l428 723h88zM619 0l0.00195312 60l138 139c18 19.333 31.167 36.5 39.5 51.5s12.5 30.833 12.5 47.5c0 19.333 -5.83301 34 -17.5 44s-28.834 15 -51.501 15c-18 0 -37 -3.66699 -57 -11
s-37.667 -17.333 -53 -30l-23 63c18 14.667 40 26.334 66 35.001s54 13 84 13c43.333 0 77.666 -10.667 102.999 -32s38 -50.333 38 -87c0 -22.667 -5.5 -44.834 -16.5 -66.501s-28.833 -44.5 -53.5 -68.5l-114 -113v10h201v-70h-296z" />
    <glyph glyph-name="threequarters" unicode="&#xbe;" horiz-adv-x="904" 
d="M187 278c-32 0 -61.501 3.83301 -88.501 11.5s-49.833 18.834 -68.5 33.501l21 61c16.667 -12.667 36.167 -22.5 58.5 -29.5s45.833 -10.5 70.5 -10.5c24 0 43.5 5.16699 58.5 15.5s22.5 26.166 22.5 47.499c0 20 -7.33301 34.5 -22 43.5s-34.334 13.5 -59.001 13.5h-81
v63h70c24.667 0 44 5.16699 58 15.5s21 25.166 21 44.499c0 18 -6.33301 31.833 -19 41.5s-31 14.5 -55 14.5c-20.667 0 -41.667 -3.83301 -63 -11.5s-39.666 -17.834 -54.999 -30.501l-22 61c18 14.667 40.333 26.167 67 34.5s55.334 12.5 86.001 12.5
c44 0 78.833 -10 104.5 -30s38.5 -46.667 38.5 -80c0 -27.333 -8.5 -50.166 -25.5 -68.499s-37.833 -30.166 -62.5 -35.499v9c30 -4 54 -14.833 72 -32.5s27 -42.167 27 -73.5c0 -38 -14.5 -67.5 -43.5 -88.5s-65.833 -31.5 -110.5 -31.5zM308.999 -9h-89l428 723h88z
M749.999 0v80h-198v59l206 284h69v-278h62v-65h-62v-80h-77zM751.999 145v192h10l-149 -207v15h139z" />
    <glyph glyph-name="questiondown" unicode="&#xbf;" horiz-adv-x="455" 
d="M228 -206c-38.667 0 -72.999 6.16797 -102.999 18.501s-53.5 30.5 -70.5 54.5s-25.5 53 -25.5 87c0 22 3 42.167 9 60.5s16.167 37.166 30.5 56.499s33.166 40.333 56.499 63c32.667 31.333 55.5 58.666 68.5 81.999s20.833 47 23.5 71l4 21h62v-29
c0 -21.333 -2.5 -41.833 -7.5 -61.5s-13.667 -39.5 -26 -59.5s-29.166 -41.333 -50.499 -64c-16.667 -17.333 -29.667 -33.333 -39 -48s-16.333 -28.5 -21 -41.5s-7 -26.833 -7 -41.5c0 -26 9.66699 -46.333 29 -61s45.666 -22 78.999 -22c26 0 51.333 3.83301 76 11.5
s48 17.834 70 30.501v-90c-22 -12 -46.833 -21.333 -74.5 -28s-55.5 -10 -83.5 -10zM312.001 503.001v-119h-119v119h119z" />
    <glyph glyph-name="Agrave" unicode="&#xc0;" horiz-adv-x="742" 
d="M10 0l314 705h89l319 -705h-107l-87 200l44 -28h-427l47 28l-87 -200h-105zM367 591l-152 -359l-24 23h355l-20 -23l-155 359h-4zM332 765l-153 173h109l118 -173h-74z" />
    <glyph glyph-name="Aacute" unicode="&#xc1;" horiz-adv-x="742" 
d="M10 0l314 705h89l319 -705h-107l-87 200l44 -28h-427l47 28l-87 -200h-105zM367 591l-152 -359l-24 23h355l-20 -23l-155 359h-4zM332 765l118 173h109l-153 -173h-74z" />
    <glyph glyph-name="Acircumflex" unicode="&#xc2;" horiz-adv-x="742" 
d="M10 0l314 705h89l319 -705h-107l-87 200l44 -28h-427l47 28l-87 -200h-105zM367 591l-152 -359l-24 23h355l-20 -23l-155 359h-4zM201 765l123 173h90l123 -173h-72l-96 112l-96 -112h-72z" />
    <glyph glyph-name="Atilde" unicode="&#xc3;" horiz-adv-x="742" 
d="M10 0l314 705h89l319 -705h-107l-87 200l44 -28h-427l47 28l-87 -200h-105zM367 591l-152 -359l-24 23h355l-20 -23l-155 359h-4zM207 778l-52.999 3.00098c3.33301 44.667 16.5 79.167 39.5 103.5s51.833 36.5 86.5 36.5c15.333 0 30.833 -3 46.5 -9
s34.5 -15.667 56.5 -29c20 -12 35.667 -20.5 47 -25.5s21.666 -7.5 30.999 -7.5c19.333 0 34.833 6.5 46.5 19.5s19.5 31.5 23.5 55.5l53 -4c-3.33301 -44.667 -16.333 -79.167 -39 -103.5s-51.334 -36.5 -86.001 -36.5c-15.333 0 -31.166 3.16699 -47.499 9.5
s-36.166 16.833 -59.499 31.5c-18.667 12 -33.334 20.167 -44.001 24.5s-21 6.5 -31 6.5c-19.333 0 -34.833 -6.33301 -46.5 -19s-19.5 -31.334 -23.5 -56.001z" />
    <glyph glyph-name="Adieresis" unicode="&#xc4;" horiz-adv-x="742" 
d="M10 0l314 705h89l319 -705h-107l-87 200l44 -28h-427l47 28l-87 -200h-105zM367 591l-152 -359l-24 23h355l-20 -23l-155 359h-4zM410 799v99h99v-99h-99zM229 799v99h99v-99h-99z" />
    <glyph glyph-name="Aring" unicode="&#xc5;" horiz-adv-x="742" 
d="M10 0l314 705h89l319 -705h-107l-87 200l44 -28h-427l47 28l-87 -200h-105zM367 591l-152 -359l-24 23h355l-20 -23l-155 359h-4zM369 756c-22.667 0 -43.334 5.5 -62.001 16.5s-33.334 25.5 -44.001 43.5s-16 38 -16 60c0 22.667 5.33301 42.834 16 60.501
s25.334 31.667 44.001 42s39.334 15.5 62.001 15.5c23.333 0 44.166 -5.16699 62.499 -15.5s32.833 -24.333 43.5 -42s16 -37.834 16 -60.501c0 -22 -5.33301 -42 -16 -60s-25.167 -32.5 -43.5 -43.5s-39.166 -16.5 -62.499 -16.5zM369 806
c20.667 0 37.334 6.66699 50.001 20s19 30 19 50c0 19.333 -6.33301 35.5 -19 48.5s-29.334 19.5 -50.001 19.5c-20 0 -36.5 -6.5 -49.5 -19.5s-19.5 -29.167 -19.5 -48.5c0 -20 6.5 -36.667 19.5 -50s29.5 -20 49.5 -20z" />
    <glyph glyph-name="AE" unicode="&#xc6;" horiz-adv-x="1011" 
d="M-10 0l435 705h540v-83h-390l23 22l23 -272l-17 28h339v-84h-334l16 10l24 -268l-14 26h330v-84h-407l-17 195l27 -23h-377l33 28l-121 -200h-113zM476 621l-234 -390l-9 25h315l-9 -27l-35 392h-28z" />
    <glyph glyph-name="Ccedilla" unicode="&#xc7;" horiz-adv-x="684" 
d="M400 -9c-72 0 -133.333 14.667 -184 44s-89.5 71.166 -116.5 125.499s-40.5 118.5 -40.5 192.5s13.5 138 40.5 192s65.833 95.667 116.5 125s112 44 184 44c50 0 94.667 -7.33301 134 -22s73.666 -36 102.999 -64l-36 -83c-32 27.333 -63.167 47 -93.5 59
s-65.5 18 -105.5 18c-76 0 -134 -23.333 -174 -70s-60 -113 -60 -199c0 -57.333 8.83301 -106.166 26.5 -146.499s44 -71 79 -92s77.833 -31.5 128.5 -31.5c40 0 75.167 6 105.5 18s61.5 32 93.5 60l36 -83c-29.333 -28 -63.666 -49.5 -102.999 -64.5s-84 -22.5 -134 -22.5z
M396 -194c-18.667 0 -36.167 1.83203 -52.5 5.49902s-30.833 8.83398 -43.5 15.501l16 49c12 -5.33301 23.667 -9.33301 35 -12s24 -4 38 -4c18 0 32.167 2.83301 42.5 8.5s15.5 13.834 15.5 24.501c0 8 -3 14.333 -9 19s-15.667 7 -29 7c-6.66699 0 -13.5 -0.5 -20.5 -1.5
s-15.167 -2.83301 -24.5 -5.5l-18 16l15 92h58l-13 -76l-28 9c8 2 16 3.66699 24 5s15.333 2 22 2c26 0 47 -6 63 -18s24 -29.333 24 -52c0 -24.667 -10.667 -44.834 -32 -60.501s-49 -23.5 -83 -23.5z" />
    <glyph glyph-name="Egrave" unicode="&#xc8;" horiz-adv-x="591" 
d="M83 0v705h462v-83h-361v-222h338v-84h-338v-232h361v-84h-462zM293 765l-153 173h109l118 -173h-74z" />
    <glyph glyph-name="Eacute" unicode="&#xc9;" horiz-adv-x="591" 
d="M83 0v705h462v-83h-361v-222h338v-84h-338v-232h361v-84h-462zM293 765l118 173h109l-153 -173h-74z" />
    <glyph glyph-name="Ecircumflex" unicode="&#xca;" horiz-adv-x="591" 
d="M83 0v705h462v-83h-361v-222h338v-84h-338v-232h361v-84h-462zM162 765l123 173h90l123 -173h-72l-96 112l-96 -112h-72z" />
    <glyph glyph-name="Edieresis" unicode="&#xcb;" horiz-adv-x="591" 
d="M83 0v705h462v-83h-361v-222h338v-84h-338v-232h361v-84h-462zM371 799v99h99v-99h-99zM190 799v99h99v-99h-99z" />
    <glyph glyph-name="Igrave" unicode="&#xcc;" horiz-adv-x="270" 
d="M83 0v705h104v-705h-104zM98 765l-153 173h109l118 -173h-74z" />
    <glyph glyph-name="Iacute" unicode="&#xcd;" horiz-adv-x="270" 
d="M83 0v705h104v-705h-104zM98 765l118 173h109l-153 -173h-74z" />
    <glyph glyph-name="Icircumflex" unicode="&#xce;" horiz-adv-x="270" 
d="M83 0v705h104v-705h-104zM-33 765l123 173h90l123 -173h-72l-96 112l-96 -112h-72z" />
    <glyph glyph-name="Idieresis" unicode="&#xcf;" horiz-adv-x="270" 
d="M83 0v705h104v-705h-104zM176 799v99h99v-99h-99zM-5 799v99h99v-99h-99z" />
    <glyph glyph-name="Eth" unicode="&#xd0;" horiz-adv-x="754" 
d="M83 0v705h244c79.333 0 146.5 -13.667 201.5 -41s96.667 -67.166 125 -119.499s42.5 -116.166 42.5 -191.499c0 -74.667 -14.167 -138.334 -42.5 -191.001s-70 -92.834 -125 -120.501s-122.167 -41.5 -201.5 -41.5h-244zM187 87h134c90.667 0 158.167 22 202.5 66
s66.5 110.667 66.5 200s-22.167 155.833 -66.5 199.5s-111.833 65.5 -202.5 65.5h-134v-531zM-2 319v77h385v-77h-385z" />
    <glyph glyph-name="Ntilde" unicode="&#xd1;" horiz-adv-x="750" 
d="M83 0v705h80l433 -568h-25v568h97v-705h-79l-432 568h23v-568h-97zM215 778l-52.999 3.00098c3.33301 44.667 16.5 79.167 39.5 103.5s51.833 36.5 86.5 36.5c15.333 0 30.833 -3 46.5 -9s34.5 -15.667 56.5 -29c20 -12 35.667 -20.5 47 -25.5s21.666 -7.5 30.999 -7.5
c19.333 0 34.833 6.5 46.5 19.5s19.5 31.5 23.5 55.5l53 -4c-3.33301 -44.667 -16.333 -79.167 -39 -103.5s-51.334 -36.5 -86.001 -36.5c-15.333 0 -31.166 3.16699 -47.499 9.5s-36.166 16.833 -59.499 31.5c-18.667 12 -33.334 20.167 -44.001 24.5s-21 6.5 -31 6.5
c-19.333 0 -34.833 -6.33301 -46.5 -19s-19.5 -31.334 -23.5 -56.001z" />
    <glyph glyph-name="Ograve" unicode="&#xd2;" horiz-adv-x="779" 
d="M59 353c0 74 12.998 138.001 38.998 192.001s63.833 95.667 113.5 125s108.834 44 177.501 44c68 0 126.667 -14.667 176 -44s87.5 -71 114.5 -125s40.5 -117.667 40.5 -191c0 -74 -13.5 -138.167 -40.5 -192.5s-65.333 -96.333 -115 -126s-108.167 -44.5 -175.5 -44.5
c-68.667 0 -127.667 14.833 -177 44.5s-87.166 71.667 -113.499 126s-39.5 118.166 -39.5 191.499zM167.998 353.001c0 -56.667 8.16504 -105.5 24.498 -146.5s41 -72.167 74 -93.5s73.833 -32 122.5 -32c70.667 0 125.334 23.833 164.001 71.5s58 114.5 58 200.5
c0 57.333 -8.5 106.333 -25.5 147s-42.167 71.5 -75.5 92.5s-73.666 31.5 -120.999 31.5c-72.667 0 -127.667 -23.667 -165 -71s-56 -114 -56 -200zM351.996 765.001l-153 173h109l118 -173h-74z" />
    <glyph glyph-name="Oacute" unicode="&#xd3;" horiz-adv-x="779" 
d="M59 353c0 74 12.998 138.001 38.998 192.001s63.833 95.667 113.5 125s108.834 44 177.501 44c68 0 126.667 -14.667 176 -44s87.5 -71 114.5 -125s40.5 -117.667 40.5 -191c0 -74 -13.5 -138.167 -40.5 -192.5s-65.333 -96.333 -115 -126s-108.167 -44.5 -175.5 -44.5
c-68.667 0 -127.667 14.833 -177 44.5s-87.166 71.667 -113.499 126s-39.5 118.166 -39.5 191.499zM167.998 353.001c0 -56.667 8.16504 -105.5 24.498 -146.5s41 -72.167 74 -93.5s73.833 -32 122.5 -32c70.667 0 125.334 23.833 164.001 71.5s58 114.5 58 200.5
c0 57.333 -8.5 106.333 -25.5 147s-42.167 71.5 -75.5 92.5s-73.666 31.5 -120.999 31.5c-72.667 0 -127.667 -23.667 -165 -71s-56 -114 -56 -200zM351.996 765.001l118 173h109l-153 -173h-74z" />
    <glyph glyph-name="Ocircumflex" unicode="&#xd4;" horiz-adv-x="779" 
d="M59 353c0 74 12.998 138.001 38.998 192.001s63.833 95.667 113.5 125s108.834 44 177.501 44c68 0 126.667 -14.667 176 -44s87.5 -71 114.5 -125s40.5 -117.667 40.5 -191c0 -74 -13.5 -138.167 -40.5 -192.5s-65.333 -96.333 -115 -126s-108.167 -44.5 -175.5 -44.5
c-68.667 0 -127.667 14.833 -177 44.5s-87.166 71.667 -113.499 126s-39.5 118.166 -39.5 191.499zM167.998 353.001c0 -56.667 8.16504 -105.5 24.498 -146.5s41 -72.167 74 -93.5s73.833 -32 122.5 -32c70.667 0 125.334 23.833 164.001 71.5s58 114.5 58 200.5
c0 57.333 -8.5 106.333 -25.5 147s-42.167 71.5 -75.5 92.5s-73.666 31.5 -120.999 31.5c-72.667 0 -127.667 -23.667 -165 -71s-56 -114 -56 -200zM220.996 765.001l123 173h90l123 -173h-72l-96 112l-96 -112h-72z" />
    <glyph glyph-name="Otilde" unicode="&#xd5;" horiz-adv-x="779" 
d="M59 353c0 74 12.998 138.001 38.998 192.001s63.833 95.667 113.5 125s108.834 44 177.501 44c68 0 126.667 -14.667 176 -44s87.5 -71 114.5 -125s40.5 -117.667 40.5 -191c0 -74 -13.5 -138.167 -40.5 -192.5s-65.333 -96.333 -115 -126s-108.167 -44.5 -175.5 -44.5
c-68.667 0 -127.667 14.833 -177 44.5s-87.166 71.667 -113.499 126s-39.5 118.166 -39.5 191.499zM167.998 353.001c0 -56.667 8.16504 -105.5 24.498 -146.5s41 -72.167 74 -93.5s73.833 -32 122.5 -32c70.667 0 125.334 23.833 164.001 71.5s58 114.5 58 200.5
c0 57.333 -8.5 106.333 -25.5 147s-42.167 71.5 -75.5 92.5s-73.666 31.5 -120.999 31.5c-72.667 0 -127.667 -23.667 -165 -71s-56 -114 -56 -200zM226.996 778.001l-52.999 3.00098c3.33301 44.667 16.5 79.167 39.5 103.5s51.833 36.5 86.5 36.5
c15.333 0 30.833 -3 46.5 -9s34.5 -15.667 56.5 -29c20 -12 35.667 -20.5 47 -25.5s21.666 -7.5 30.999 -7.5c19.333 0 34.833 6.5 46.5 19.5s19.5 31.5 23.5 55.5l53 -4c-3.33301 -44.667 -16.333 -79.167 -39 -103.5s-51.334 -36.5 -86.001 -36.5
c-15.333 0 -31.166 3.16699 -47.499 9.5s-36.166 16.833 -59.499 31.5c-18.667 12 -33.334 20.167 -44.001 24.5s-21 6.5 -31 6.5c-19.333 0 -34.833 -6.33301 -46.5 -19s-19.5 -31.334 -23.5 -56.001z" />
    <glyph glyph-name="Odieresis" unicode="&#xd6;" horiz-adv-x="779" 
d="M59 353c0 74 12.998 138.001 38.998 192.001s63.833 95.667 113.5 125s108.834 44 177.501 44c68 0 126.667 -14.667 176 -44s87.5 -71 114.5 -125s40.5 -117.667 40.5 -191c0 -74 -13.5 -138.167 -40.5 -192.5s-65.333 -96.333 -115 -126s-108.167 -44.5 -175.5 -44.5
c-68.667 0 -127.667 14.833 -177 44.5s-87.166 71.667 -113.499 126s-39.5 118.166 -39.5 191.499zM167.998 353.001c0 -56.667 8.16504 -105.5 24.498 -146.5s41 -72.167 74 -93.5s73.833 -32 122.5 -32c70.667 0 125.334 23.833 164.001 71.5s58 114.5 58 200.5
c0 57.333 -8.5 106.333 -25.5 147s-42.167 71.5 -75.5 92.5s-73.666 31.5 -120.999 31.5c-72.667 0 -127.667 -23.667 -165 -71s-56 -114 -56 -200zM429.996 799.001v99h99v-99h-99zM248.996 799.001v99h99v-99h-99z" />
    <glyph glyph-name="multiply" unicode="&#xd7;" horiz-adv-x="600" 
d="M118 50l-52 52l182 183l-182 183l52 52l182 -182l183 182l52 -52l-183 -183l183 -183l-52 -52l-183 183z" />
    <glyph glyph-name="Oslash" unicode="&#xd8;" horiz-adv-x="779" 
d="M59 353c0 74 12.998 138.001 38.998 192.001s63.833 95.667 113.5 125s108.834 44 177.501 44c68 0 126.667 -14.667 176 -44s87.5 -71 114.5 -125s40.5 -117.667 40.5 -191c0 -74 -13.5 -138.167 -40.5 -192.5s-65.333 -96.333 -115 -126s-108.167 -44.5 -175.5 -44.5
c-68.667 0 -127.667 14.833 -177 44.5s-87.166 71.667 -113.499 126s-39.5 118.166 -39.5 191.499zM167.998 353.001c0 -56.667 8.16504 -105.5 24.498 -146.5s41 -72.167 74 -93.5s73.833 -32 122.5 -32c70.667 0 125.334 23.833 164.001 71.5s58 114.5 58 200.5
c0 57.333 -8.5 106.333 -25.5 147s-42.167 71.5 -75.5 92.5s-73.666 31.5 -120.999 31.5c-72.667 0 -127.667 -23.667 -165 -71s-56 -114 -56 -200zM260.996 47.001l-58 -100l-69 40l58 101l33 44l282 482l18 44l58 100l69 -40l-58 -101l-33 -44l-282 -482z" />
    <glyph glyph-name="Ugrave" unicode="&#xd9;" horiz-adv-x="735" 
d="M369 -9c-65.333 0 -119.499 11 -162.499 33s-75 54.833 -96 98.5s-31.5 97.5 -31.5 161.5v421h104v-419c0 -68 14.833 -119.167 44.5 -153.5s76.834 -51.5 141.501 -51.5c61.333 0 107.666 17.167 138.999 51.5s47 85.5 47 153.5v419h102v-421
c0 -64 -10.833 -117.833 -32.5 -161.5s-53.834 -76.5 -96.501 -98.5s-95.667 -33 -159 -33zM332.001 765l-153 173h109l118 -173h-74z" />
    <glyph glyph-name="Uacute" unicode="&#xda;" horiz-adv-x="735" 
d="M369 -9c-65.333 0 -119.499 11 -162.499 33s-75 54.833 -96 98.5s-31.5 97.5 -31.5 161.5v421h104v-419c0 -68 14.833 -119.167 44.5 -153.5s76.834 -51.5 141.501 -51.5c61.333 0 107.666 17.167 138.999 51.5s47 85.5 47 153.5v419h102v-421
c0 -64 -10.833 -117.833 -32.5 -161.5s-53.834 -76.5 -96.501 -98.5s-95.667 -33 -159 -33zM332.001 765l118 173h109l-153 -173h-74z" />
    <glyph glyph-name="Ucircumflex" unicode="&#xdb;" horiz-adv-x="735" 
d="M369 -9c-65.333 0 -119.499 11 -162.499 33s-75 54.833 -96 98.5s-31.5 97.5 -31.5 161.5v421h104v-419c0 -68 14.833 -119.167 44.5 -153.5s76.834 -51.5 141.501 -51.5c61.333 0 107.666 17.167 138.999 51.5s47 85.5 47 153.5v419h102v-421
c0 -64 -10.833 -117.833 -32.5 -161.5s-53.834 -76.5 -96.501 -98.5s-95.667 -33 -159 -33zM201.001 765l123 173h90l123 -173h-72l-96 112l-96 -112h-72z" />
    <glyph glyph-name="Udieresis" unicode="&#xdc;" horiz-adv-x="735" 
d="M369 -9c-65.333 0 -119.499 11 -162.499 33s-75 54.833 -96 98.5s-31.5 97.5 -31.5 161.5v421h104v-419c0 -68 14.833 -119.167 44.5 -153.5s76.834 -51.5 141.501 -51.5c61.333 0 107.666 17.167 138.999 51.5s47 85.5 47 153.5v419h102v-421
c0 -64 -10.833 -117.833 -32.5 -161.5s-53.834 -76.5 -96.501 -98.5s-95.667 -33 -159 -33zM410.001 799v99h99v-99h-99zM229.001 799v99h99v-99h-99z" />
    <glyph glyph-name="Yacute" unicode="&#xdd;" horiz-adv-x="617" 
d="M256 0v331l23 -66l-297 440h120l221 -337h-25l221 337h116l-296 -440l21 66v-331h-104zM272 765l118 173h109l-153 -173h-74z" />
    <glyph glyph-name="Thorn" unicode="&#xde;" horiz-adv-x="659" 
d="M83 0l0.000976562 705h104v-130h192c75.333 0 133.666 -18.167 174.999 -54.5s62 -86.5 62 -150.5c0 -42.667 -9.33301 -79.5 -28 -110.5s-45.667 -54.667 -81 -71s-78 -24.5 -128 -24.5h-192v-164h-104zM187.001 248h185c46.667 0 82 10.667 106 32s36 51.333 36 90
s-12 68.667 -36 90s-59.333 32 -106 32h-185v-244z" />
    <glyph glyph-name="germandbls" unicode="&#xdf;" horiz-adv-x="652" 
d="M74 0l0.00292969 484.001c0 84.667 21.167 149 63.5 193s105.166 66 188.499 66c44 0 81.5 -7 112.5 -21s55.167 -34 72.5 -60s26 -57.333 26 -94c0 -28 -5.33301 -54.5 -16 -79.5s-28.5 -48 -53.5 -69s-58.833 -40.167 -101.5 -57.5v19
c59.333 -16 108 -34.167 146 -54.5s66 -43.833 84 -70.5s27 -58 27 -94c0 -35.333 -8.33301 -65.833 -25 -91.5s-40.167 -45.334 -70.5 -59.001s-66.166 -20.5 -107.499 -20.5c-26.667 0 -51 2.33301 -73 7s-42.167 11.334 -60.5 20.001s-35.5 19.667 -51.5 33l29 69
c25.333 -18 50.166 -31.333 74.499 -40s51.166 -13 80.499 -13c34 0 60.333 7.83301 79 23.5s28 38.5 28 68.5c0 22 -7 42.667 -21 62s-38.333 37.666 -73 54.999s-83.334 34 -146.001 50v79c39.333 14 70.5 29.167 93.5 45.5s39.167 34 48.5 53s14 39.833 14 62.5
c0 30 -10.167 54 -30.5 72s-48.5 27 -84.5 27c-52 0 -90.333 -13.833 -115 -41.5s-37 -70.167 -37 -127.5v-496h-101z" />
    <glyph glyph-name="agrave" unicode="&#xe0;" horiz-adv-x="609" 
d="M267 -9c-44.667 0 -83.668 10.3311 -117.001 30.998s-59.166 50.667 -77.499 90s-27.5 86 -27.5 140c0 54.667 9.16699 101.334 27.5 140.001s44.166 68.5 77.499 89.5s72.333 31.5 117 31.5c44 0 82.333 -11 115 -33s54.334 -52 65.001 -90h-11l10 114h98
c-2 -20.667 -3.83301 -41.167 -5.5 -61.5s-2.5 -40.166 -2.5 -59.499v-383h-101v112h11c-10.667 -37.333 -32.5 -66.833 -65.5 -88.5s-70.833 -32.5 -113.5 -32.5zM291.999 69.998c43.333 0 78.166 15.333 104.499 46s39.5 76 39.5 136s-13.167 105.167 -39.5 135.5
s-61.166 45.5 -104.499 45.5c-44 0 -79.167 -15.167 -105.5 -45.5s-39.5 -75.5 -39.5 -135.5s13 -105.333 39 -136s61.333 -46 106 -46zM263.999 552.998l-136 202h103l103 -202h-70z" />
    <glyph glyph-name="aacute" unicode="&#xe1;" horiz-adv-x="609" 
d="M267 -9c-44.667 0 -83.668 10.3311 -117.001 30.998s-59.166 50.667 -77.499 90s-27.5 86 -27.5 140c0 54.667 9.16699 101.334 27.5 140.001s44.166 68.5 77.499 89.5s72.333 31.5 117 31.5c44 0 82.333 -11 115 -33s54.334 -52 65.001 -90h-11l10 114h98
c-2 -20.667 -3.83301 -41.167 -5.5 -61.5s-2.5 -40.166 -2.5 -59.499v-383h-101v112h11c-10.667 -37.333 -32.5 -66.833 -65.5 -88.5s-70.833 -32.5 -113.5 -32.5zM291.999 69.998c43.333 0 78.166 15.333 104.499 46s39.5 76 39.5 136s-13.167 105.167 -39.5 135.5
s-61.166 45.5 -104.499 45.5c-44 0 -79.167 -15.167 -105.5 -45.5s-39.5 -75.5 -39.5 -135.5s13 -105.333 39 -136s61.333 -46 106 -46zM263.999 552.998l103 202h103l-136 -202h-70z" />
    <glyph glyph-name="acircumflex" unicode="&#xe2;" horiz-adv-x="609" 
d="M267 -9c-44.667 0 -83.668 10.3311 -117.001 30.998s-59.166 50.667 -77.499 90s-27.5 86 -27.5 140c0 54.667 9.16699 101.334 27.5 140.001s44.166 68.5 77.499 89.5s72.333 31.5 117 31.5c44 0 82.333 -11 115 -33s54.334 -52 65.001 -90h-11l10 114h98
c-2 -20.667 -3.83301 -41.167 -5.5 -61.5s-2.5 -40.166 -2.5 -59.499v-383h-101v112h11c-10.667 -37.333 -32.5 -66.833 -65.5 -88.5s-70.833 -32.5 -113.5 -32.5zM291.999 69.998c43.333 0 78.166 15.333 104.499 46s39.5 76 39.5 136s-13.167 105.167 -39.5 135.5
s-61.166 45.5 -104.499 45.5c-44 0 -79.167 -15.167 -105.5 -45.5s-39.5 -75.5 -39.5 -135.5s13 -105.333 39 -136s61.333 -46 106 -46zM142.999 552.998l110 202h92l110 -202h-67l-89 140l-89 -140h-67z" />
    <glyph glyph-name="atilde" unicode="&#xe3;" horiz-adv-x="609" 
d="M267 -9c-44.667 0 -83.668 10.3311 -117.001 30.998s-59.166 50.667 -77.499 90s-27.5 86 -27.5 140c0 54.667 9.16699 101.334 27.5 140.001s44.166 68.5 77.499 89.5s72.333 31.5 117 31.5c44 0 82.333 -11 115 -33s54.334 -52 65.001 -90h-11l10 114h98
c-2 -20.667 -3.83301 -41.167 -5.5 -61.5s-2.5 -40.166 -2.5 -59.499v-383h-101v112h11c-10.667 -37.333 -32.5 -66.833 -65.5 -88.5s-70.833 -32.5 -113.5 -32.5zM291.999 69.998c43.333 0 78.166 15.333 104.499 46s39.5 76 39.5 136s-13.167 105.167 -39.5 135.5
s-61.166 45.5 -104.499 45.5c-44 0 -79.167 -15.167 -105.5 -45.5s-39.5 -75.5 -39.5 -135.5s13 -105.333 39 -136s61.333 -46 106 -46zM165.999 586.998l-52.999 4.00195c3.33301 44.667 15.166 79.167 35.499 103.5s46.166 36.5 77.499 36.5c14 0 27.333 -3.33301 40 -10
s27 -16.334 43 -29.001c14 -12 25.5 -20.5 34.5 -25.5s17.833 -7.5 26.5 -7.5c34 0 54.667 25 62 75l53 -3c-2.66699 -44.667 -14.167 -79.167 -34.5 -103.5s-46.166 -36.5 -77.499 -36.5c-14 0 -27.333 3.16699 -40 9.5s-27.667 16.166 -45 29.499
c-13.333 12 -24.333 20.333 -33 25s-17.667 7 -27 7c-18 0 -32 -6.5 -42 -19.5s-16.667 -31.5 -20 -55.5z" />
    <glyph glyph-name="adieresis" unicode="&#xe4;" horiz-adv-x="609" 
d="M267 -9c-44.667 0 -83.668 10.3311 -117.001 30.998s-59.166 50.667 -77.499 90s-27.5 86 -27.5 140c0 54.667 9.16699 101.334 27.5 140.001s44.166 68.5 77.499 89.5s72.333 31.5 117 31.5c44 0 82.333 -11 115 -33s54.334 -52 65.001 -90h-11l10 114h98
c-2 -20.667 -3.83301 -41.167 -5.5 -61.5s-2.5 -40.166 -2.5 -59.499v-383h-101v112h11c-10.667 -37.333 -32.5 -66.833 -65.5 -88.5s-70.833 -32.5 -113.5 -32.5zM291.999 69.998c43.333 0 78.166 15.333 104.499 46s39.5 76 39.5 136s-13.167 105.167 -39.5 135.5
s-61.166 45.5 -104.499 45.5c-44 0 -79.167 -15.167 -105.5 -45.5s-39.5 -75.5 -39.5 -135.5s13 -105.333 39 -136s61.333 -46 106 -46zM339.999 603.998v99h99v-99h-99zM158.999 603.998v99h99v-99h-99z" />
    <glyph glyph-name="aring" unicode="&#xe5;" horiz-adv-x="609" 
d="M267 -9c-44.667 0 -83.668 10.3311 -117.001 30.998s-59.166 50.667 -77.499 90s-27.5 86 -27.5 140c0 54.667 9.16699 101.334 27.5 140.001s44.166 68.5 77.499 89.5s72.333 31.5 117 31.5c44 0 82.333 -11 115 -33s54.334 -52 65.001 -90h-11l10 114h98
c-2 -20.667 -3.83301 -41.167 -5.5 -61.5s-2.5 -40.166 -2.5 -59.499v-383h-101v112h11c-10.667 -37.333 -32.5 -66.833 -65.5 -88.5s-70.833 -32.5 -113.5 -32.5zM291.999 69.998c43.333 0 78.166 15.333 104.499 46s39.5 76 39.5 136s-13.167 105.167 -39.5 135.5
s-61.166 45.5 -104.499 45.5c-44 0 -79.167 -15.167 -105.5 -45.5s-39.5 -75.5 -39.5 -135.5s13 -105.333 39 -136s61.333 -46 106 -46zM298.999 545.998c-22.667 0 -43.334 5.33301 -62.001 16s-33.334 25 -44.001 43s-16 38 -16 60c0 22.667 5.33301 42.834 16 60.501
s25.334 31.834 44.001 42.501s39.334 16 62.001 16c23.333 0 44.166 -5.33301 62.499 -16s32.833 -24.834 43.5 -42.501s16 -37.834 16 -60.501c0 -22 -5.33301 -42 -16 -60s-25.167 -32.333 -43.5 -43s-39.166 -16 -62.499 -16zM298.999 595.998
c20.667 0 37.334 6.66797 50.001 20.001s19 29.666 19 48.999c0 20 -6.33301 36.5 -19 49.5s-29.334 19.5 -50.001 19.5c-20 0 -36.5 -6.5 -49.5 -19.5s-19.5 -29.167 -19.5 -48.5c0 -20.667 6.5 -37.5 19.5 -50.5s29.5 -19.5 49.5 -19.5z" />
    <glyph glyph-name="ae" unicode="&#xe6;" horiz-adv-x="877" 
d="M237 -9c-36.667 0 -68.8291 6.99902 -96.4961 20.999s-49.167 32.833 -64.5 56.5s-23 49.834 -23 78.501c0 38.667 8.83301 69.167 26.5 91.5s47.667 38.166 90 47.499s99.833 14 172.5 14h51v-58h-51c-50 0 -89.333 -2.66699 -118 -8s-48.834 -14.666 -60.501 -27.999
s-17.5 -31.333 -17.5 -54c0 -26 9.33301 -47.333 28 -64s44 -25 76 -25c26 0 48.833 5.83301 68.5 17.5s35.167 28.167 46.5 49.5s17 46.333 17 75v120c0 38.667 -8.83301 66.5 -26.5 83.5s-45.167 25.5 -82.5 25.5c-30 0 -58.333 -3.83301 -85 -11.5
s-54.334 -20.167 -83.001 -37.5l-31 71c17.333 12 37 22.167 59 30.5s45.167 14.833 69.5 19.5s48.833 7 73.5 7c50.667 0 90.834 -9.83301 120.501 -29.5s49.834 -48.834 60.501 -87.501h-28c20.667 38 47.167 67 79.5 87s70.5 30 114.5 30c43.333 0 81 -9.66699 113 -29
s56.5 -47 73.5 -83s25.5 -79 25.5 -129v-30h-368v58h299l-17 -15c0 49.333 -11 87.666 -33 114.999s-53.667 41 -95 41c-29.333 0 -54.5 -6.5 -75.5 -19.5s-37.333 -32.333 -49 -58s-17.5 -57.5 -17.5 -95.5v-7c0 -62 13.667 -109.333 41 -142s67.666 -49 120.999 -49
c28 0 55 4.33301 81 13s50.667 22.667 74 42l33 -70c-23.333 -20.667 -52 -36.5 -86 -47.5s-69 -16.5 -105 -16.5c-58.667 0 -107.334 12.833 -146.001 38.5s-66 62.834 -82 111.501h23c-10.667 -47.333 -33.334 -84.166 -68.001 -110.499s-77.334 -39.5 -128.001 -39.5z
" />
    <glyph glyph-name="ccedilla" unicode="&#xe7;" horiz-adv-x="499" 
d="M295 -9c-50.667 0 -94.832 10.499 -132.499 31.499s-66.667 51.333 -87 91s-30.5 86.834 -30.5 141.501c0 54 10.333 100.333 31 139s49.667 68.167 87 88.5s81.333 30.5 132 30.5c32.667 0 64.334 -5.5 95.001 -16.5s56 -26.5 76 -46.5l-33 -71
c-18.667 18 -39.667 31.5 -63 40.5s-46 13.5 -68 13.5c-48 0 -85.667 -15.333 -113 -46s-41 -75 -41 -133c0 -58.667 13.667 -103.667 41 -135s65 -47 113 -47c21.333 0 43.666 4.16699 66.999 12.5s44.666 21.833 63.999 40.5l33 -71c-20.667 -20 -46.5 -35.5 -77.5 -46.5
s-62.167 -16.5 -93.5 -16.5zM292.002 -194.001c-18.667 0 -36.167 1.83203 -52.5 5.49902s-30.833 8.83398 -43.5 15.501l16 49c12 -5.33301 23.667 -9.33301 35 -12s24 -4 38 -4c18 0 32.167 2.83301 42.5 8.5s15.5 13.834 15.5 24.501c0 8 -3 14.333 -9 19
s-15.667 7 -29 7c-6.66699 0 -13.5 -0.5 -20.5 -1.5s-15.167 -2.83301 -24.5 -5.5l-18 16l15 92h58l-13 -76l-28 9c8 2 16 3.66699 24 5s15.333 2 22 2c26 0 47 -6 63 -18s24 -29.333 24 -52c0 -24.667 -10.667 -44.834 -32 -60.501s-49 -23.5 -83 -23.5z" />
    <glyph glyph-name="egrave" unicode="&#xe8;" horiz-adv-x="546" 
d="M307 -9c-54.667 0 -101.501 10.333 -140.501 31s-69 50.5 -90 89.5s-31.5 85.5 -31.5 139.5c0 52.667 10.167 98.667 30.5 138s48.666 69.833 84.999 91.5s78.5 32.5 126.5 32.5c47.333 0 87 -10 119 -30s56.333 -48.167 73 -84.5s25 -79.166 25 -128.499v-32h-380v58
h311l-17 -13c0 50 -11.167 88.833 -33.5 116.5s-54.5 41.5 -96.5 41.5c-31.333 0 -57.833 -7.33301 -79.5 -22s-38.167 -35.5 -49.5 -62.5s-17 -59.5 -17 -97.5v-10c0 -59.333 14.5 -104 43.5 -134s70.167 -45 123.5 -45c29.333 0 56.833 4.16699 82.5 12.5
s50.167 22.166 73.5 41.499l33 -69c-23.333 -20.667 -51.666 -36.5 -84.999 -47.5s-68.666 -16.5 -105.999 -16.5zM251.999 553l-136 202h103l103 -202h-70z" />
    <glyph glyph-name="eacute" unicode="&#xe9;" horiz-adv-x="546" 
d="M307 -9c-54.667 0 -101.501 10.333 -140.501 31s-69 50.5 -90 89.5s-31.5 85.5 -31.5 139.5c0 52.667 10.167 98.667 30.5 138s48.666 69.833 84.999 91.5s78.5 32.5 126.5 32.5c47.333 0 87 -10 119 -30s56.333 -48.167 73 -84.5s25 -79.166 25 -128.499v-32h-380v58
h311l-17 -13c0 50 -11.167 88.833 -33.5 116.5s-54.5 41.5 -96.5 41.5c-31.333 0 -57.833 -7.33301 -79.5 -22s-38.167 -35.5 -49.5 -62.5s-17 -59.5 -17 -97.5v-10c0 -59.333 14.5 -104 43.5 -134s70.167 -45 123.5 -45c29.333 0 56.833 4.16699 82.5 12.5
s50.167 22.166 73.5 41.499l33 -69c-23.333 -20.667 -51.666 -36.5 -84.999 -47.5s-68.666 -16.5 -105.999 -16.5zM251.999 553l103 202h103l-136 -202h-70z" />
    <glyph glyph-name="ecircumflex" unicode="&#xea;" horiz-adv-x="546" 
d="M307 -9c-54.667 0 -101.501 10.333 -140.501 31s-69 50.5 -90 89.5s-31.5 85.5 -31.5 139.5c0 52.667 10.167 98.667 30.5 138s48.666 69.833 84.999 91.5s78.5 32.5 126.5 32.5c47.333 0 87 -10 119 -30s56.333 -48.167 73 -84.5s25 -79.166 25 -128.499v-32h-380v58
h311l-17 -13c0 50 -11.167 88.833 -33.5 116.5s-54.5 41.5 -96.5 41.5c-31.333 0 -57.833 -7.33301 -79.5 -22s-38.167 -35.5 -49.5 -62.5s-17 -59.5 -17 -97.5v-10c0 -59.333 14.5 -104 43.5 -134s70.167 -45 123.5 -45c29.333 0 56.833 4.16699 82.5 12.5
s50.167 22.166 73.5 41.499l33 -69c-23.333 -20.667 -51.666 -36.5 -84.999 -47.5s-68.666 -16.5 -105.999 -16.5zM130.999 553l110 202h92l110 -202h-67l-89 140l-89 -140h-67z" />
    <glyph glyph-name="edieresis" unicode="&#xeb;" horiz-adv-x="546" 
d="M307 -9c-54.667 0 -101.501 10.333 -140.501 31s-69 50.5 -90 89.5s-31.5 85.5 -31.5 139.5c0 52.667 10.167 98.667 30.5 138s48.666 69.833 84.999 91.5s78.5 32.5 126.5 32.5c47.333 0 87 -10 119 -30s56.333 -48.167 73 -84.5s25 -79.166 25 -128.499v-32h-380v58
h311l-17 -13c0 50 -11.167 88.833 -33.5 116.5s-54.5 41.5 -96.5 41.5c-31.333 0 -57.833 -7.33301 -79.5 -22s-38.167 -35.5 -49.5 -62.5s-17 -59.5 -17 -97.5v-10c0 -59.333 14.5 -104 43.5 -134s70.167 -45 123.5 -45c29.333 0 56.833 4.16699 82.5 12.5
s50.167 22.166 73.5 41.499l33 -69c-23.333 -20.667 -51.666 -36.5 -84.999 -47.5s-68.666 -16.5 -105.999 -16.5zM327.999 604v99h99v-99h-99zM146.999 604v99h99v-99h-99z" />
    <glyph glyph-name="igrave" unicode="&#xec;" horiz-adv-x="249" 
d="M74 0v504h101v-504h-101zM90 553l-136 202h103l103 -202h-70z" />
    <glyph glyph-name="iacute" unicode="&#xed;" horiz-adv-x="249" 
d="M74 0v504h101v-504h-101zM90 553l103 202h103l-136 -202h-70z" />
    <glyph glyph-name="icircumflex" unicode="&#xee;" horiz-adv-x="249" 
d="M74 0v504h101v-504h-101zM-31 553l110 202h92l110 -202h-67l-89 140l-89 -140h-67z" />
    <glyph glyph-name="idieresis" unicode="&#xef;" horiz-adv-x="249" 
d="M74 0v504h101v-504h-101zM166 604v99h99v-99h-99zM-15 604v99h99v-99h-99z" />
    <glyph glyph-name="eth" unicode="&#xf0;" horiz-adv-x="587" 
d="M289 -9c-48.667 0 -91.5029 9.66895 -128.503 29.002s-65.5 46.666 -85.5 81.999s-30 76.333 -30 123c0 46 9.83301 86.5 29.5 121.5s47.334 62.167 83.001 81.5s77.167 29 124.5 29c49.333 0 89.833 -11.833 121.5 -35.5s54.5 -60.5 68.5 -110.5h-26
c0.666992 55.333 -10.333 107.833 -33 157.5s-56 92.167 -100 127.5l21 -3l-197 -86l-23 51l169 72l-1 -13c-20 14 -42 26 -66 36s-49.667 18 -77 24l20 67c42.667 -8 81.334 -19.5 116.001 -34.5s66 -32.833 94 -53.5l-21 3l118 51l23 -50l-99 -43l4 18
c34 -29.333 61.833 -63 83.5 -101s37.834 -78.333 48.501 -121s16 -86.334 16 -131.001c0 -62 -9.83301 -114.667 -29.5 -158s-48.167 -76.333 -85.5 -99s-83.333 -34 -138 -34zM290.997 71.002c44.667 0 80.001 13.668 106.001 41.001s39 64.666 39 111.999
c0 48 -12.833 85.667 -38.5 113s-61.167 41 -106.5 41c-44 0 -79 -13.667 -105 -41s-39 -65 -39 -113s12.667 -85.5 38 -112.5s60.666 -40.5 105.999 -40.5z" />
    <glyph glyph-name="ntilde" unicode="&#xf1;" horiz-adv-x="593" 
d="M74 0l0.000976562 383.001c0 19.333 -0.833008 39.166 -2.5 59.499s-3.5 40.833 -5.5 61.5h98l9 -106h-12c15.333 37.333 39 65.833 71 85.5s69 29.5 111 29.5c59.333 0 104.166 -16.333 134.499 -49s45.5 -83.334 45.5 -152.001v-312h-101v306
c0 44.667 -8.83301 76.834 -26.5 96.501s-44.5 29.5 -80.5 29.5c-42.667 0 -76.667 -13.167 -102 -39.5s-38 -61.833 -38 -106.5v-286h-101zM164.001 587.001l-52.999 4.00195c3.33301 44.667 15.166 79.167 35.499 103.5s46.166 36.5 77.499 36.5
c14 0 27.333 -3.33301 40 -10s27 -16.334 43 -29.001c14 -12 25.5 -20.5 34.5 -25.5s17.833 -7.5 26.5 -7.5c34 0 54.667 25 62 75l53 -3c-2.66699 -44.667 -14.167 -79.167 -34.5 -103.5s-46.166 -36.5 -77.499 -36.5c-14 0 -27.333 3.16699 -40 9.5
s-27.667 16.166 -45 29.499c-13.333 12 -24.333 20.333 -33 25s-17.667 7 -27 7c-18 0 -32 -6.5 -42 -19.5s-16.667 -31.5 -20 -55.5z" />
    <glyph glyph-name="ograve" unicode="&#xf2;" horiz-adv-x="581" 
d="M290 -9c-50 0 -93.333 10.5 -130 31.5s-65 51 -85 90s-30 85.5 -30 139.5s10 100.5 30 139.5s48.333 69 85 90s80 31.5 130 31.5s93.5 -10.5 130.5 -31.5s65.667 -51 86 -90s30.5 -85.5 30.5 -139.5s-10.167 -100.5 -30.5 -139.5s-49 -69 -86 -90
s-80.5 -31.5 -130.5 -31.5zM290 70c44 0 79 15.333 105 46s39 76 39 136s-13 105.167 -39 135.5s-61 45.5 -105 45.5c-43.333 0 -78 -15.167 -104 -45.5s-39 -75.5 -39 -135.5s13 -105.333 39 -136s60.667 -46 104 -46zM256 553l-136 202h103l103 -202h-70z" />
    <glyph glyph-name="oacute" unicode="&#xf3;" horiz-adv-x="581" 
d="M290 -9c-50 0 -93.333 10.5 -130 31.5s-65 51 -85 90s-30 85.5 -30 139.5s10 100.5 30 139.5s48.333 69 85 90s80 31.5 130 31.5s93.5 -10.5 130.5 -31.5s65.667 -51 86 -90s30.5 -85.5 30.5 -139.5s-10.167 -100.5 -30.5 -139.5s-49 -69 -86 -90
s-80.5 -31.5 -130.5 -31.5zM290 70c44 0 79 15.333 105 46s39 76 39 136s-13 105.167 -39 135.5s-61 45.5 -105 45.5c-43.333 0 -78 -15.167 -104 -45.5s-39 -75.5 -39 -135.5s13 -105.333 39 -136s60.667 -46 104 -46zM256 553l103 202h103l-136 -202h-70z" />
    <glyph glyph-name="ocircumflex" unicode="&#xf4;" horiz-adv-x="581" 
d="M290 -9c-50 0 -93.333 10.5 -130 31.5s-65 51 -85 90s-30 85.5 -30 139.5s10 100.5 30 139.5s48.333 69 85 90s80 31.5 130 31.5s93.5 -10.5 130.5 -31.5s65.667 -51 86 -90s30.5 -85.5 30.5 -139.5s-10.167 -100.5 -30.5 -139.5s-49 -69 -86 -90
s-80.5 -31.5 -130.5 -31.5zM290 70c44 0 79 15.333 105 46s39 76 39 136s-13 105.167 -39 135.5s-61 45.5 -105 45.5c-43.333 0 -78 -15.167 -104 -45.5s-39 -75.5 -39 -135.5s13 -105.333 39 -136s60.667 -46 104 -46zM135 553l110 202h92l110 -202h-67l-89 140l-89 -140
h-67z" />
    <glyph glyph-name="otilde" unicode="&#xf5;" horiz-adv-x="581" 
d="M290 -9c-50 0 -93.333 10.5 -130 31.5s-65 51 -85 90s-30 85.5 -30 139.5s10 100.5 30 139.5s48.333 69 85 90s80 31.5 130 31.5s93.5 -10.5 130.5 -31.5s65.667 -51 86 -90s30.5 -85.5 30.5 -139.5s-10.167 -100.5 -30.5 -139.5s-49 -69 -86 -90
s-80.5 -31.5 -130.5 -31.5zM290 70c44 0 79 15.333 105 46s39 76 39 136s-13 105.167 -39 135.5s-61 45.5 -105 45.5c-43.333 0 -78 -15.167 -104 -45.5s-39 -75.5 -39 -135.5s13 -105.333 39 -136s60.667 -46 104 -46zM158 587l-52.999 4.00195
c3.33301 44.667 15.166 79.167 35.499 103.5s46.166 36.5 77.499 36.5c14 0 27.333 -3.33301 40 -10s27 -16.334 43 -29.001c14 -12 25.5 -20.5 34.5 -25.5s17.833 -7.5 26.5 -7.5c34 0 54.667 25 62 75l53 -3c-2.66699 -44.667 -14.167 -79.167 -34.5 -103.5
s-46.166 -36.5 -77.499 -36.5c-14 0 -27.333 3.16699 -40 9.5s-27.667 16.166 -45 29.499c-13.333 12 -24.333 20.333 -33 25s-17.667 7 -27 7c-18 0 -32 -6.5 -42 -19.5s-16.667 -31.5 -20 -55.5z" />
    <glyph glyph-name="odieresis" unicode="&#xf6;" horiz-adv-x="581" 
d="M290 -9c-50 0 -93.333 10.5 -130 31.5s-65 51 -85 90s-30 85.5 -30 139.5s10 100.5 30 139.5s48.333 69 85 90s80 31.5 130 31.5s93.5 -10.5 130.5 -31.5s65.667 -51 86 -90s30.5 -85.5 30.5 -139.5s-10.167 -100.5 -30.5 -139.5s-49 -69 -86 -90
s-80.5 -31.5 -130.5 -31.5zM290 70c44 0 79 15.333 105 46s39 76 39 136s-13 105.167 -39 135.5s-61 45.5 -105 45.5c-43.333 0 -78 -15.167 -104 -45.5s-39 -75.5 -39 -135.5s13 -105.333 39 -136s60.667 -46 104 -46zM332 604v99h99v-99h-99zM151 604v99h99v-99h-99z" />
    <glyph glyph-name="divide" unicode="&#xf7;" horiz-adv-x="600" 
d="M53 250v74h494v-74h-494zM248 42v94h94v-94h-94zM248 438v94h94v-94h-94z" />
    <glyph glyph-name="oslash" unicode="&#xf8;" horiz-adv-x="581" 
d="M290 -9c-50 0 -93.333 10.5 -130 31.5s-65 51 -85 90s-30 85.5 -30 139.5s10 100.5 30 139.5s48.333 69 85 90s80 31.5 130 31.5s93.5 -10.5 130.5 -31.5s65.667 -51 86 -90s30.5 -85.5 30.5 -139.5s-10.167 -100.5 -30.5 -139.5s-49 -69 -86 -90
s-80.5 -31.5 -130.5 -31.5zM290 70c48 0 85.167 15.833 111.5 47.5s39.5 76.5 39.5 134.5c0 58.667 -13.167 103.5 -39.5 134.5s-63.5 46.5 -111.5 46.5c-47.333 0 -84.166 -15.5 -110.499 -46.5s-39.5 -75.833 -39.5 -134.5c0 -58 13.167 -102.833 39.5 -134.5
s63.166 -47.5 110.499 -47.5zM153 -44l-50 31l326 561l51 -31z" />
    <glyph glyph-name="ugrave" unicode="&#xf9;" horiz-adv-x="586" 
d="M253 -9c-60.667 0 -106.165 16.499 -136.498 49.499s-45.5 83.833 -45.5 152.5v311h101v-309c0 -42 8.66699 -73 26 -93s43.666 -30 78.999 -30c40 0 72.333 13.333 97 40s37 62 37 106v286h101v-504h-98v108h13c-14 -37.333 -36.333 -66.166 -67 -86.499
s-66.334 -30.5 -107.001 -30.5zM258.002 553.999l-136 202h103l103 -202h-70z" />
    <glyph glyph-name="uacute" unicode="&#xfa;" horiz-adv-x="586" 
d="M253 -9c-60.667 0 -106.165 16.499 -136.498 49.499s-45.5 83.833 -45.5 152.5v311h101v-309c0 -42 8.66699 -73 26 -93s43.666 -30 78.999 -30c40 0 72.333 13.333 97 40s37 62 37 106v286h101v-504h-98v108h13c-14 -37.333 -36.333 -66.166 -67 -86.499
s-66.334 -30.5 -107.001 -30.5zM258.002 553.999l103 202h103l-136 -202h-70z" />
    <glyph glyph-name="ucircumflex" unicode="&#xfb;" horiz-adv-x="586" 
d="M253 -9c-60.667 0 -106.165 16.499 -136.498 49.499s-45.5 83.833 -45.5 152.5v311h101v-309c0 -42 8.66699 -73 26 -93s43.666 -30 78.999 -30c40 0 72.333 13.333 97 40s37 62 37 106v286h101v-504h-98v108h13c-14 -37.333 -36.333 -66.166 -67 -86.499
s-66.334 -30.5 -107.001 -30.5zM137.002 553.999l110 202h92l110 -202h-67l-89 140l-89 -140h-67z" />
    <glyph glyph-name="udieresis" unicode="&#xfc;" horiz-adv-x="586" 
d="M253 -9c-60.667 0 -106.165 16.499 -136.498 49.499s-45.5 83.833 -45.5 152.5v311h101v-309c0 -42 8.66699 -73 26 -93s43.666 -30 78.999 -30c40 0 72.333 13.333 97 40s37 62 37 106v286h101v-504h-98v108h13c-14 -37.333 -36.333 -66.166 -67 -86.499
s-66.334 -30.5 -107.001 -30.5zM334.002 604.999v99h99v-99h-99zM153.002 604.999v99h99v-99h-99z" />
    <glyph glyph-name="yacute" unicode="&#xfd;" horiz-adv-x="536" 
d="M59 -227l-24.001 82c31.333 6.66699 57.5 14.667 78.5 24s38.5 21.5 52.5 36.5s26 34.167 36 57.5l25 59l-2 -41l-219 513h108l170 -420h-27l170 420h104l-231 -540c-14.667 -33.333 -30.334 -61.333 -47.001 -84s-34.667 -41 -54 -55s-40.666 -25 -63.999 -33
s-48.666 -14.333 -75.999 -19zM232.999 553l103 202h103l-136 -202h-70z" />
    <glyph glyph-name="thorn" unicode="&#xfe;" horiz-adv-x="609" 
d="M74 -216v952.001h101v-346h-12c10.667 38 32.334 68 65.001 90s71 33 115 33c44.667 0 83.667 -10.5 117 -31.5s59.166 -50.833 77.499 -89.5s27.5 -85.334 27.5 -140.001c0 -54 -9.16699 -100.667 -27.5 -140s-44 -69.333 -77 -90s-71.833 -31 -116.5 -31
s-83.167 10.833 -115.5 32.5s-53.833 51.167 -64.5 88.5h11v-328h-101zM319 70.001c43.333 0 78.166 15.333 104.499 46s39.5 76 39.5 136s-13.167 105.167 -39.5 135.5s-61.166 45.5 -104.499 45.5c-44 0 -79.333 -15.167 -106 -45.5s-40 -75.5 -40 -135.5
s13.333 -105.333 40 -136s62 -46 106 -46z" />
    <glyph glyph-name="ydieresis" unicode="&#xff;" horiz-adv-x="536" 
d="M59 -227l-24.001 82c31.333 6.66699 57.5 14.667 78.5 24s38.5 21.5 52.5 36.5s26 34.167 36 57.5l25 59l-2 -41l-219 513h108l170 -420h-27l170 420h104l-231 -540c-14.667 -33.333 -30.334 -61.333 -47.001 -84s-34.667 -41 -54 -55s-40.666 -25 -63.999 -33
s-48.666 -14.333 -75.999 -19zM308.999 604v99h99v-99h-99zM127.999 604v99h99v-99h-99z" />
    <glyph glyph-name="Amacron" unicode="&#x100;" horiz-adv-x="742" 
d="M10 0l314 705h89l319 -705h-107l-87 200l44 -28h-427l47 28l-87 -200h-105zM367 591l-152 -359l-24 23h355l-20 -23l-155 359h-4zM201 811v63h336v-63h-336z" />
    <glyph glyph-name="amacron" unicode="&#x101;" horiz-adv-x="609" 
d="M267 -9c-44.667 0 -83.668 10.3311 -117.001 30.998s-59.166 50.667 -77.499 90s-27.5 86 -27.5 140c0 54.667 9.16699 101.334 27.5 140.001s44.166 68.5 77.499 89.5s72.333 31.5 117 31.5c44 0 82.333 -11 115 -33s54.334 -52 65.001 -90h-11l10 114h98
c-2 -20.667 -3.83301 -41.167 -5.5 -61.5s-2.5 -40.166 -2.5 -59.499v-383h-101v112h11c-10.667 -37.333 -32.5 -66.833 -65.5 -88.5s-70.833 -32.5 -113.5 -32.5zM291.999 69.998c43.333 0 78.166 15.333 104.499 46s39.5 76 39.5 136s-13.167 105.167 -39.5 135.5
s-61.166 45.5 -104.499 45.5c-44 0 -79.167 -15.167 -105.5 -45.5s-39.5 -75.5 -39.5 -135.5s13 -105.333 39 -136s61.333 -46 106 -46zM145.999 620.998v64h306v-64h-306z" />
    <glyph glyph-name="Abreve" unicode="&#x102;" horiz-adv-x="742" 
d="M10 0l314 705h89l319 -705h-107l-87 200l44 -28h-427l47 28l-87 -200h-105zM367 591l-152 -359l-24 23h355l-20 -23l-155 359h-4zM369 760c-32.667 0 -61.6689 6.83301 -87.002 20.5s-45.666 33.167 -60.999 58.5s-24.333 55.333 -27 90l60 8
c3.33301 -36 15 -63.833 35 -83.5s46.333 -29.5 79 -29.5c33.333 0 60.333 9.83301 81 29.5s32.334 47.5 35.001 83.5l60 -8c-4 -52 -21.833 -93.167 -53.5 -123.5s-72.167 -45.5 -121.5 -45.5z" />
    <glyph glyph-name="abreve" unicode="&#x103;" horiz-adv-x="609" 
d="M267 -9c-44.667 0 -83.668 10.3311 -117.001 30.998s-59.166 50.667 -77.499 90s-27.5 86 -27.5 140c0 54.667 9.16699 101.334 27.5 140.001s44.166 68.5 77.499 89.5s72.333 31.5 117 31.5c44 0 82.333 -11 115 -33s54.334 -52 65.001 -90h-11l10 114h98
c-2 -20.667 -3.83301 -41.167 -5.5 -61.5s-2.5 -40.166 -2.5 -59.499v-383h-101v112h11c-10.667 -37.333 -32.5 -66.833 -65.5 -88.5s-70.833 -32.5 -113.5 -32.5zM291.999 69.998c43.333 0 78.166 15.333 104.499 46s39.5 76 39.5 136s-13.167 105.167 -39.5 135.5
s-61.166 45.5 -104.499 45.5c-44 0 -79.167 -15.167 -105.5 -45.5s-39.5 -75.5 -39.5 -135.5s13 -105.333 39 -136s61.333 -46 106 -46zM298.999 549.998c-31.333 0 -58.832 7.66699 -82.499 23s-42 37.333 -55 66s-20.5 62.667 -22.5 102l60 6
c2.66699 -42.667 12.667 -75.5 30 -98.5s40.666 -34.5 69.999 -34.5s52.666 11.5 69.999 34.5s27.333 55.833 30 98.5l60 -6c-1.33301 -39.333 -8.66602 -73.333 -21.999 -102s-31.833 -50.667 -55.5 -66s-51.167 -23 -82.5 -23z" />
    <glyph glyph-name="Aogonek" unicode="&#x104;" horiz-adv-x="742" 
d="M10 0l314 705h89l319 -705h-107l-87 200l44 -28h-427l47 28l-87 -200h-105zM367 591l-152 -359l-24 23h355l-20 -23l-155 359h-4zM682 -194c-34 0 -61.002 9.16797 -81.002 27.501s-30 42.833 -30 73.5c0 27.333 9 52.833 27 76.5s42 42.167 72 55.5l33 -39
c-10.667 -4.66699 -21 -11 -31 -19s-18 -17.333 -24 -28s-9 -22.334 -9 -35.001c0 -18 5.5 -31.5 16.5 -40.5s24.5 -13.5 40.5 -13.5c9.33301 0 18.333 1 27 3s17.667 5 27 9l15 -53c-11.333 -5.33301 -23.666 -9.5 -36.999 -12.5s-28.666 -4.5 -45.999 -4.5z" />
    <glyph glyph-name="aogonek" unicode="&#x105;" horiz-adv-x="609" 
d="M267 -9c-44.667 0 -83.668 10.3311 -117.001 30.998s-59.166 50.667 -77.499 90s-27.5 86 -27.5 140c0 54.667 9.16699 101.334 27.5 140.001s44.166 68.5 77.499 89.5s72.333 31.5 117 31.5c44 0 82.333 -11 115 -33s54.334 -52 65.001 -90h-11l10 114h98
c-2 -20.667 -3.83301 -41.167 -5.5 -61.5s-2.5 -40.166 -2.5 -59.499v-383h-101v112h11c-10.667 -37.333 -32.5 -66.833 -65.5 -88.5s-70.833 -32.5 -113.5 -32.5zM291.999 69.998c43.333 0 78.166 15.333 104.499 46s39.5 76 39.5 136s-13.167 105.167 -39.5 135.5
s-61.166 45.5 -104.499 45.5c-44 0 -79.167 -15.167 -105.5 -45.5s-39.5 -75.5 -39.5 -135.5s13 -105.333 39 -136s61.333 -46 106 -46zM499.999 -194.002c-34 0 -61.002 9.16797 -81.002 27.501s-30 42.833 -30 73.5c0 27.333 9 52.833 27 76.5s42 42.167 72 55.5l33 -39
c-10.667 -4.66699 -21 -11 -31 -19s-18 -17.333 -24 -28s-9 -22.334 -9 -35.001c0 -18 5.5 -31.5 16.5 -40.5s24.5 -13.5 40.5 -13.5c9.33301 0 18.333 1 27 3s17.667 5 27 9l15 -53c-11.333 -5.33301 -23.666 -9.5 -36.999 -12.5s-28.666 -4.5 -45.999 -4.5z" />
    <glyph glyph-name="Cacute" unicode="&#x106;" horiz-adv-x="684" 
d="M400 -9c-72 0 -133.333 14.667 -184 44s-89.5 71.166 -116.5 125.499s-40.5 118.5 -40.5 192.5s13.5 138 40.5 192s65.833 95.667 116.5 125s112 44 184 44c50 0 94.667 -7.33301 134 -22s73.666 -36 102.999 -64l-36 -83c-32 27.333 -63.167 47 -93.5 59
s-65.5 18 -105.5 18c-76 0 -134 -23.333 -174 -70s-60 -113 -60 -199c0 -57.333 8.83301 -106.166 26.5 -146.499s44 -71 79 -92s77.833 -31.5 128.5 -31.5c40 0 75.167 6 105.5 18s61.5 32 93.5 60l36 -83c-29.333 -28 -63.666 -49.5 -102.999 -64.5s-84 -22.5 -134 -22.5z
M358 765l118 173h109l-153 -173h-74z" />
    <glyph glyph-name="cacute" unicode="&#x107;" horiz-adv-x="499" 
d="M295 -9c-50.667 0 -94.832 10.499 -132.499 31.499s-66.667 51.333 -87 91s-30.5 86.834 -30.5 141.501c0 54 10.333 100.333 31 139s49.667 68.167 87 88.5s81.333 30.5 132 30.5c32.667 0 64.334 -5.5 95.001 -16.5s56 -26.5 76 -46.5l-33 -71
c-18.667 18 -39.667 31.5 -63 40.5s-46 13.5 -68 13.5c-48 0 -85.667 -15.333 -113 -46s-41 -75 -41 -133c0 -58.667 13.667 -103.667 41 -135s65 -47 113 -47c21.333 0 43.666 4.16699 66.999 12.5s44.666 21.833 63.999 40.5l33 -71c-20.667 -20 -46.5 -35.5 -77.5 -46.5
s-62.167 -16.5 -93.5 -16.5zM255.002 552.999l103 202h103l-136 -202h-70z" />
    <glyph glyph-name="Ccircumflex" unicode="&#x108;" horiz-adv-x="684" 
d="M400 -9c-72 0 -133.333 14.667 -184 44s-89.5 71.166 -116.5 125.499s-40.5 118.5 -40.5 192.5s13.5 138 40.5 192s65.833 95.667 116.5 125s112 44 184 44c50 0 94.667 -7.33301 134 -22s73.666 -36 102.999 -64l-36 -83c-32 27.333 -63.167 47 -93.5 59
s-65.5 18 -105.5 18c-76 0 -134 -23.333 -174 -70s-60 -113 -60 -199c0 -57.333 8.83301 -106.166 26.5 -146.499s44 -71 79 -92s77.833 -31.5 128.5 -31.5c40 0 75.167 6 105.5 18s61.5 32 93.5 60l36 -83c-29.333 -28 -63.666 -49.5 -102.999 -64.5s-84 -22.5 -134 -22.5z
M227 765l123 173h90l123 -173h-72l-96 112l-96 -112h-72z" />
    <glyph glyph-name="ccircumflex" unicode="&#x109;" horiz-adv-x="499" 
d="M295 -9c-50.667 0 -94.832 10.499 -132.499 31.499s-66.667 51.333 -87 91s-30.5 86.834 -30.5 141.501c0 54 10.333 100.333 31 139s49.667 68.167 87 88.5s81.333 30.5 132 30.5c32.667 0 64.334 -5.5 95.001 -16.5s56 -26.5 76 -46.5l-33 -71
c-18.667 18 -39.667 31.5 -63 40.5s-46 13.5 -68 13.5c-48 0 -85.667 -15.333 -113 -46s-41 -75 -41 -133c0 -58.667 13.667 -103.667 41 -135s65 -47 113 -47c21.333 0 43.666 4.16699 66.999 12.5s44.666 21.833 63.999 40.5l33 -71c-20.667 -20 -46.5 -35.5 -77.5 -46.5
s-62.167 -16.5 -93.5 -16.5zM134.002 552.999l110 202h92l110 -202h-67l-89 140l-89 -140h-67z" />
    <glyph glyph-name="Cdotaccent" unicode="&#x10a;" horiz-adv-x="684" 
d="M400 -9c-72 0 -133.333 14.667 -184 44s-89.5 71.166 -116.5 125.499s-40.5 118.5 -40.5 192.5s13.5 138 40.5 192s65.833 95.667 116.5 125s112 44 184 44c50 0 94.667 -7.33301 134 -22s73.666 -36 102.999 -64l-36 -83c-32 27.333 -63.167 47 -93.5 59
s-65.5 18 -105.5 18c-76 0 -134 -23.333 -174 -70s-60 -113 -60 -199c0 -57.333 8.83301 -106.166 26.5 -146.499s44 -71 79 -92s77.833 -31.5 128.5 -31.5c40 0 75.167 6 105.5 18s61.5 32 93.5 60l36 -83c-29.333 -28 -63.666 -49.5 -102.999 -64.5s-84 -22.5 -134 -22.5z
M343 801v101h104v-101h-104z" />
    <glyph glyph-name="cdotaccent" unicode="&#x10b;" horiz-adv-x="499" 
d="M295 -9c-50.667 0 -94.832 10.499 -132.499 31.499s-66.667 51.333 -87 91s-30.5 86.834 -30.5 141.501c0 54 10.333 100.333 31 139s49.667 68.167 87 88.5s81.333 30.5 132 30.5c32.667 0 64.334 -5.5 95.001 -16.5s56 -26.5 76 -46.5l-33 -71
c-18.667 18 -39.667 31.5 -63 40.5s-46 13.5 -68 13.5c-48 0 -85.667 -15.333 -113 -46s-41 -75 -41 -133c0 -58.667 13.667 -103.667 41 -135s65 -47 113 -47c21.333 0 43.666 4.16699 66.999 12.5s44.666 21.833 63.999 40.5l33 -71c-20.667 -20 -46.5 -35.5 -77.5 -46.5
s-62.167 -16.5 -93.5 -16.5zM237.002 602.999v101h106v-101h-106z" />
    <glyph glyph-name="Ccaron" unicode="&#x10c;" horiz-adv-x="684" 
d="M400 -9c-72 0 -133.333 14.667 -184 44s-89.5 71.166 -116.5 125.499s-40.5 118.5 -40.5 192.5s13.5 138 40.5 192s65.833 95.667 116.5 125s112 44 184 44c50 0 94.667 -7.33301 134 -22s73.666 -36 102.999 -64l-36 -83c-32 27.333 -63.167 47 -93.5 59
s-65.5 18 -105.5 18c-76 0 -134 -23.333 -174 -70s-60 -113 -60 -199c0 -57.333 8.83301 -106.166 26.5 -146.499s44 -71 79 -92s77.833 -31.5 128.5 -31.5c40 0 75.167 6 105.5 18s61.5 32 93.5 60l36 -83c-29.333 -28 -63.666 -49.5 -102.999 -64.5s-84 -22.5 -134 -22.5z
M350 765l-123 173h72l96 -112l96 112h72l-123 -173h-90z" />
    <glyph glyph-name="ccaron" unicode="&#x10d;" horiz-adv-x="499" 
d="M295 -9c-50.667 0 -94.832 10.499 -132.499 31.499s-66.667 51.333 -87 91s-30.5 86.834 -30.5 141.501c0 54 10.333 100.333 31 139s49.667 68.167 87 88.5s81.333 30.5 132 30.5c32.667 0 64.334 -5.5 95.001 -16.5s56 -26.5 76 -46.5l-33 -71
c-18.667 18 -39.667 31.5 -63 40.5s-46 13.5 -68 13.5c-48 0 -85.667 -15.333 -113 -46s-41 -75 -41 -133c0 -58.667 13.667 -103.667 41 -135s65 -47 113 -47c21.333 0 43.666 4.16699 66.999 12.5s44.666 21.833 63.999 40.5l33 -71c-20.667 -20 -46.5 -35.5 -77.5 -46.5
s-62.167 -16.5 -93.5 -16.5zM244.002 552.999l-110 202h67l89 -141l89 141h67l-110 -202h-92z" />
    <glyph glyph-name="Dcaron" unicode="&#x10e;" horiz-adv-x="754" 
d="M83 0v705h244c79.333 0 146.5 -13.667 201.5 -41s96.667 -67.166 125 -119.499s42.5 -116.166 42.5 -191.499c0 -74.667 -14.167 -138.334 -42.5 -191.001s-70 -92.834 -125 -120.501s-122.167 -41.5 -201.5 -41.5h-244zM187 87h134c90.667 0 158.167 22 202.5 66
s66.5 110.667 66.5 200s-22.167 155.833 -66.5 199.5s-111.833 65.5 -202.5 65.5h-134v-531zM338 765l-123 173h72l96 -112l96 112h72l-123 -173h-90z" />
    <glyph glyph-name="dcaron" unicode="&#x10f;" horiz-adv-x="609" 
d="M267 -9c-44 0 -82.833 10.332 -116.5 30.999s-59.667 50.667 -78 90s-27.5 86 -27.5 140c0 54.667 9.16699 101.334 27.5 140.001s44.333 68.5 78 89.5s72.5 31.5 116.5 31.5c43.333 0 81.5 -10.833 114.5 -32.5s54.833 -51.167 65.5 -88.5h-12v344h101v-736h-100v114h12
c-11.333 -38 -33.333 -68 -66 -90s-71 -33 -115 -33zM292 69.999c43.333 0 78.333 15.333 105 46s40 76 40 136s-13.333 105.167 -40 135.5s-61.667 45.5 -105 45.5c-44 0 -79.167 -15.167 -105.5 -45.5s-39.5 -75.5 -39.5 -135.5s13.167 -105.333 39.5 -136
s61.5 -46 105.5 -46zM581 544.999v191h74l-25 -191h-49z" />
    <glyph glyph-name="Dcroat" unicode="&#x110;" horiz-adv-x="754" 
d="M83 0v705h244c79.333 0 146.5 -13.667 201.5 -41s96.667 -67.166 125 -119.499s42.5 -116.166 42.5 -191.499c0 -74.667 -14.167 -138.334 -42.5 -191.001s-70 -92.834 -125 -120.501s-122.167 -41.5 -201.5 -41.5h-244zM187 87h134c90.667 0 158.167 22 202.5 66
s66.5 110.667 66.5 200s-22.167 155.833 -66.5 199.5s-111.833 65.5 -202.5 65.5h-134v-531zM-2 319v77h385v-77h-385z" />
    <glyph glyph-name="dcroat" unicode="&#x111;" horiz-adv-x="609" 
d="M266 -9c-44 0 -82.6689 10.168 -116.002 30.501s-59.166 49.666 -77.499 87.999s-27.5 83.833 -27.5 136.5c0 53.333 9.16699 99 27.5 137s44.166 67.333 77.499 88s72 31 116 31c43.333 0 81.333 -10.833 114 -32.5s54.334 -50.5 65.001 -86.5h-11v193h-193v73h193v87
h101v-87h93v-73h-93v-576h-100v113h11c-11.333 -37.333 -33.166 -67 -65.499 -89s-70.5 -33 -114.5 -33zM291.998 70.001c42.667 0 77.334 15 104.001 45s40 73.667 40 131c0 58 -13.333 101.833 -40 131.5s-61.334 44.5 -104.001 44.5c-44 0 -79.167 -14.833 -105.5 -44.5
s-39.5 -73.5 -39.5 -131.5c0 -57.333 13.167 -101 39.5 -131s61.5 -45 105.5 -45z" />
    <glyph glyph-name="Emacron" unicode="&#x112;" horiz-adv-x="591" 
d="M83 0v705h462v-83h-361v-222h338v-84h-338v-232h361v-84h-462zM162 811v63h336v-63h-336z" />
    <glyph glyph-name="emacron" unicode="&#x113;" horiz-adv-x="546" 
d="M307 -9c-54.667 0 -101.501 10.333 -140.501 31s-69 50.5 -90 89.5s-31.5 85.5 -31.5 139.5c0 52.667 10.167 98.667 30.5 138s48.666 69.833 84.999 91.5s78.5 32.5 126.5 32.5c47.333 0 87 -10 119 -30s56.333 -48.167 73 -84.5s25 -79.166 25 -128.499v-32h-380v58
h311l-17 -13c0 50 -11.167 88.833 -33.5 116.5s-54.5 41.5 -96.5 41.5c-31.333 0 -57.833 -7.33301 -79.5 -22s-38.167 -35.5 -49.5 -62.5s-17 -59.5 -17 -97.5v-10c0 -59.333 14.5 -104 43.5 -134s70.167 -45 123.5 -45c29.333 0 56.833 4.16699 82.5 12.5
s50.167 22.166 73.5 41.499l33 -69c-23.333 -20.667 -51.666 -36.5 -84.999 -47.5s-68.666 -16.5 -105.999 -16.5zM133.999 621v64h306v-64h-306z" />
    <glyph glyph-name="Ebreve" unicode="&#x114;" horiz-adv-x="591" 
d="M83 0v705h462v-83h-361v-222h338v-84h-338v-232h361v-84h-462zM330 760c-32.667 0 -61.6689 6.83301 -87.002 20.5s-45.666 33.167 -60.999 58.5s-24.333 55.333 -27 90l60 8c3.33301 -36 15 -63.833 35 -83.5s46.333 -29.5 79 -29.5c33.333 0 60.333 9.83301 81 29.5
s32.334 47.5 35.001 83.5l60 -8c-4 -52 -21.833 -93.167 -53.5 -123.5s-72.167 -45.5 -121.5 -45.5z" />
    <glyph glyph-name="ebreve" unicode="&#x115;" horiz-adv-x="546" 
d="M307 -9c-54.667 0 -101.501 10.333 -140.501 31s-69 50.5 -90 89.5s-31.5 85.5 -31.5 139.5c0 52.667 10.167 98.667 30.5 138s48.666 69.833 84.999 91.5s78.5 32.5 126.5 32.5c47.333 0 87 -10 119 -30s56.333 -48.167 73 -84.5s25 -79.166 25 -128.499v-32h-380v58
h311l-17 -13c0 50 -11.167 88.833 -33.5 116.5s-54.5 41.5 -96.5 41.5c-31.333 0 -57.833 -7.33301 -79.5 -22s-38.167 -35.5 -49.5 -62.5s-17 -59.5 -17 -97.5v-10c0 -59.333 14.5 -104 43.5 -134s70.167 -45 123.5 -45c29.333 0 56.833 4.16699 82.5 12.5
s50.167 22.166 73.5 41.499l33 -69c-23.333 -20.667 -51.666 -36.5 -84.999 -47.5s-68.666 -16.5 -105.999 -16.5zM286.999 550c-31.333 0 -58.832 7.66699 -82.499 23s-42 37.333 -55 66s-20.5 62.667 -22.5 102l60 6c2.66699 -42.667 12.667 -75.5 30 -98.5
s40.666 -34.5 69.999 -34.5s52.666 11.5 69.999 34.5s27.333 55.833 30 98.5l60 -6c-1.33301 -39.333 -8.66602 -73.333 -21.999 -102s-31.833 -50.667 -55.5 -66s-51.167 -23 -82.5 -23z" />
    <glyph glyph-name="Edotaccent" unicode="&#x116;" horiz-adv-x="591" 
d="M83 0v705h462v-83h-361v-222h338v-84h-338v-232h361v-84h-462zM278 801v101h104v-101h-104z" />
    <glyph glyph-name="edotaccent" unicode="&#x117;" horiz-adv-x="546" 
d="M307 -9c-54.667 0 -101.501 10.333 -140.501 31s-69 50.5 -90 89.5s-31.5 85.5 -31.5 139.5c0 52.667 10.167 98.667 30.5 138s48.666 69.833 84.999 91.5s78.5 32.5 126.5 32.5c47.333 0 87 -10 119 -30s56.333 -48.167 73 -84.5s25 -79.166 25 -128.499v-32h-380v58
h311l-17 -13c0 50 -11.167 88.833 -33.5 116.5s-54.5 41.5 -96.5 41.5c-31.333 0 -57.833 -7.33301 -79.5 -22s-38.167 -35.5 -49.5 -62.5s-17 -59.5 -17 -97.5v-10c0 -59.333 14.5 -104 43.5 -134s70.167 -45 123.5 -45c29.333 0 56.833 4.16699 82.5 12.5
s50.167 22.166 73.5 41.499l33 -69c-23.333 -20.667 -51.666 -36.5 -84.999 -47.5s-68.666 -16.5 -105.999 -16.5zM233.999 603v101h106v-101h-106z" />
    <glyph glyph-name="Eogonek" unicode="&#x118;" horiz-adv-x="591" 
d="M83 0v705h462v-83h-361v-222h338v-84h-338v-232h361v-84h-462zM487 -194c-34 0 -61.002 9.16797 -81.002 27.501s-30 42.833 -30 73.5c0 27.333 9 52.833 27 76.5s42 42.167 72 55.5l33 -39c-10.667 -4.66699 -21 -11 -31 -19s-18 -17.333 -24 -28s-9 -22.334 -9 -35.001
c0 -18 5.5 -31.5 16.5 -40.5s24.5 -13.5 40.5 -13.5c9.33301 0 18.333 1 27 3s17.667 5 27 9l15 -53c-11.333 -5.33301 -23.666 -9.5 -36.999 -12.5s-28.666 -4.5 -45.999 -4.5z" />
    <glyph glyph-name="eogonek" unicode="&#x119;" horiz-adv-x="546" 
d="M307 -9c-54.667 0 -101.501 10.333 -140.501 31s-69 50.5 -90 89.5s-31.5 85.5 -31.5 139.5c0 52.667 10.167 98.667 30.5 138s48.666 69.833 84.999 91.5s78.5 32.5 126.5 32.5c47.333 0 87 -10 119 -30s56.333 -48.167 73 -84.5s25 -79.166 25 -128.499v-32h-380v58
h311l-17 -13c0 50 -11.167 88.833 -33.5 116.5s-54.5 41.5 -96.5 41.5c-31.333 0 -57.833 -7.33301 -79.5 -22s-38.167 -35.5 -49.5 -62.5s-17 -59.5 -17 -97.5v-10c0 -59.333 14.5 -104 43.5 -134s70.167 -45 123.5 -45c29.333 0 56.833 4.16699 82.5 12.5
s50.167 22.166 73.5 41.499l33 -69c-23.333 -20.667 -51.666 -36.5 -84.999 -47.5s-68.666 -16.5 -105.999 -16.5zM355.999 -194c-34 0 -61.002 9.16797 -81.002 27.501s-30 42.833 -30 73.5c0 27.333 9 52.833 27 76.5s42 42.167 72 55.5l33 -39
c-10.667 -4.66699 -21 -11 -31 -19s-18 -17.333 -24 -28s-9 -22.334 -9 -35.001c0 -18 5.5 -31.5 16.5 -40.5s24.5 -13.5 40.5 -13.5c9.33301 0 18.333 1 27 3s17.667 5 27 9l15 -53c-11.333 -5.33301 -23.666 -9.5 -36.999 -12.5s-28.666 -4.5 -45.999 -4.5z" />
    <glyph glyph-name="Ecaron" unicode="&#x11a;" horiz-adv-x="591" 
d="M83 0v705h462v-83h-361v-222h338v-84h-338v-232h361v-84h-462zM285 765l-123 173h72l96 -112l96 112h72l-123 -173h-90z" />
    <glyph glyph-name="ecaron" unicode="&#x11b;" horiz-adv-x="546" 
d="M307 -9c-54.667 0 -101.501 10.333 -140.501 31s-69 50.5 -90 89.5s-31.5 85.5 -31.5 139.5c0 52.667 10.167 98.667 30.5 138s48.666 69.833 84.999 91.5s78.5 32.5 126.5 32.5c47.333 0 87 -10 119 -30s56.333 -48.167 73 -84.5s25 -79.166 25 -128.499v-32h-380v58
h311l-17 -13c0 50 -11.167 88.833 -33.5 116.5s-54.5 41.5 -96.5 41.5c-31.333 0 -57.833 -7.33301 -79.5 -22s-38.167 -35.5 -49.5 -62.5s-17 -59.5 -17 -97.5v-10c0 -59.333 14.5 -104 43.5 -134s70.167 -45 123.5 -45c29.333 0 56.833 4.16699 82.5 12.5
s50.167 22.166 73.5 41.499l33 -69c-23.333 -20.667 -51.666 -36.5 -84.999 -47.5s-68.666 -16.5 -105.999 -16.5zM240.999 553l-110 202h67l89 -141l89 141h67l-110 -202h-92z" />
    <glyph glyph-name="Gcircumflex" unicode="&#x11c;" horiz-adv-x="735" 
d="M415 -9c-78 0 -143.499 14.499 -196.499 43.499s-92.833 70.5 -119.5 124.5s-40 118.333 -40 193s14.167 139 42.5 193s69 95.667 122 125s116.833 44 191.5 44c51.333 0 96 -7.16699 134 -21.5s72 -35.166 102 -62.499l-37 -81c-21.333 18 -42 32.333 -62 43
s-40.667 18.5 -62 23.5s-46.333 7.5 -75 7.5c-80.667 0 -142 -23.667 -184 -71s-63 -114.333 -63 -201c0 -88 20.167 -155 60.5 -201s103.833 -69 190.5 -69c30 0 59.667 2.83301 89 8.5s57.666 14.167 84.999 25.5l-20 -49v231h-174v78h261v-333
c-20 -10 -43.5 -18.833 -70.5 -26.5s-55.5 -13.667 -85.5 -18s-59.667 -6.5 -89 -6.5zM237.001 764.999l123 173h90l123 -173h-72l-96 112l-96 -112h-72z" />
    <glyph glyph-name="gcircumflex" unicode="&#x11d;" horiz-adv-x="612" 
d="M301 -224c-45.333 0 -86.5 5.33398 -123.5 16.001s-70.167 26.667 -99.5 48l25 74c20.667 -14 41 -25.167 61 -33.5s41 -14.5 63 -18.5s44.667 -6 68 -6c48 0 84.167 12.167 108.5 36.5s36.5 59.5 36.5 105.5v135h10c-10.667 -37.333 -32.5 -66.833 -65.5 -88.5
s-71.167 -32.5 -114.5 -32.5c-46 0 -85.833 10.167 -119.5 30.5s-59.667 49.333 -78 87s-27.5 82.167 -27.5 133.5s9.16699 95.666 27.5 132.999s44.333 66.166 78 86.499s73.5 30.5 119.5 30.5c44 0 82.167 -10.833 114.5 -32.5s53.833 -51.167 64.5 -88.5l-9 8l9 104h98
c-2.66699 -20.667 -4.66699 -41.167 -6 -61.5s-2 -40.166 -2 -59.499v-373c0 -76 -20.167 -134 -60.5 -174s-99.5 -60 -177.5 -60zM294 91.001c44 0 79.167 15 105.5 45s39.5 72.333 39.5 127s-13.167 96.667 -39.5 126s-61.5 44 -105.5 44
c-45.333 0 -81.166 -14.667 -107.499 -44s-39.5 -71.333 -39.5 -126s13.167 -97 39.5 -127s62.166 -45 107.499 -45zM154 553.001l110 202h92l110 -202h-67l-89 140l-89 -140h-67z" />
    <glyph glyph-name="Gbreve" unicode="&#x11e;" horiz-adv-x="735" 
d="M415 -9c-78 0 -143.499 14.499 -196.499 43.499s-92.833 70.5 -119.5 124.5s-40 118.333 -40 193s14.167 139 42.5 193s69 95.667 122 125s116.833 44 191.5 44c51.333 0 96 -7.16699 134 -21.5s72 -35.166 102 -62.499l-37 -81c-21.333 18 -42 32.333 -62 43
s-40.667 18.5 -62 23.5s-46.333 7.5 -75 7.5c-80.667 0 -142 -23.667 -184 -71s-63 -114.333 -63 -201c0 -88 20.167 -155 60.5 -201s103.833 -69 190.5 -69c30 0 59.667 2.83301 89 8.5s57.666 14.167 84.999 25.5l-20 -49v231h-174v78h261v-333
c-20 -10 -43.5 -18.833 -70.5 -26.5s-55.5 -13.667 -85.5 -18s-59.667 -6.5 -89 -6.5zM405.001 759.999c-32.667 0 -61.6689 6.83301 -87.002 20.5s-45.666 33.167 -60.999 58.5s-24.333 55.333 -27 90l60 8c3.33301 -36 15 -63.833 35 -83.5s46.333 -29.5 79 -29.5
c33.333 0 60.333 9.83301 81 29.5s32.334 47.5 35.001 83.5l60 -8c-4 -52 -21.833 -93.167 -53.5 -123.5s-72.167 -45.5 -121.5 -45.5z" />
    <glyph glyph-name="gbreve" unicode="&#x11f;" horiz-adv-x="612" 
d="M301 -224c-45.333 0 -86.5 5.33398 -123.5 16.001s-70.167 26.667 -99.5 48l25 74c20.667 -14 41 -25.167 61 -33.5s41 -14.5 63 -18.5s44.667 -6 68 -6c48 0 84.167 12.167 108.5 36.5s36.5 59.5 36.5 105.5v135h10c-10.667 -37.333 -32.5 -66.833 -65.5 -88.5
s-71.167 -32.5 -114.5 -32.5c-46 0 -85.833 10.167 -119.5 30.5s-59.667 49.333 -78 87s-27.5 82.167 -27.5 133.5s9.16699 95.666 27.5 132.999s44.333 66.166 78 86.499s73.5 30.5 119.5 30.5c44 0 82.167 -10.833 114.5 -32.5s53.833 -51.167 64.5 -88.5l-9 8l9 104h98
c-2.66699 -20.667 -4.66699 -41.167 -6 -61.5s-2 -40.166 -2 -59.499v-373c0 -76 -20.167 -134 -60.5 -174s-99.5 -60 -177.5 -60zM294 91.001c44 0 79.167 15 105.5 45s39.5 72.333 39.5 127s-13.167 96.667 -39.5 126s-61.5 44 -105.5 44
c-45.333 0 -81.166 -14.667 -107.499 -44s-39.5 -71.333 -39.5 -126s13.167 -97 39.5 -127s62.166 -45 107.499 -45zM310 550.001c-31.333 0 -58.832 7.66699 -82.499 23s-42 37.333 -55 66s-20.5 62.667 -22.5 102l60 6c2.66699 -42.667 12.667 -75.5 30 -98.5
s40.666 -34.5 69.999 -34.5s52.666 11.5 69.999 34.5s27.333 55.833 30 98.5l60 -6c-1.33301 -39.333 -8.66602 -73.333 -21.999 -102s-31.833 -50.667 -55.5 -66s-51.167 -23 -82.5 -23z" />
    <glyph glyph-name="Gdotaccent" unicode="&#x120;" horiz-adv-x="735" 
d="M415 -9c-78 0 -143.499 14.499 -196.499 43.499s-92.833 70.5 -119.5 124.5s-40 118.333 -40 193s14.167 139 42.5 193s69 95.667 122 125s116.833 44 191.5 44c51.333 0 96 -7.16699 134 -21.5s72 -35.166 102 -62.499l-37 -81c-21.333 18 -42 32.333 -62 43
s-40.667 18.5 -62 23.5s-46.333 7.5 -75 7.5c-80.667 0 -142 -23.667 -184 -71s-63 -114.333 -63 -201c0 -88 20.167 -155 60.5 -201s103.833 -69 190.5 -69c30 0 59.667 2.83301 89 8.5s57.666 14.167 84.999 25.5l-20 -49v231h-174v78h261v-333
c-20 -10 -43.5 -18.833 -70.5 -26.5s-55.5 -13.667 -85.5 -18s-59.667 -6.5 -89 -6.5zM353.001 800.999v101h104v-101h-104z" />
    <glyph glyph-name="gdotaccent" unicode="&#x121;" horiz-adv-x="612" 
d="M301 -224c-45.333 0 -86.5 5.33398 -123.5 16.001s-70.167 26.667 -99.5 48l25 74c20.667 -14 41 -25.167 61 -33.5s41 -14.5 63 -18.5s44.667 -6 68 -6c48 0 84.167 12.167 108.5 36.5s36.5 59.5 36.5 105.5v135h10c-10.667 -37.333 -32.5 -66.833 -65.5 -88.5
s-71.167 -32.5 -114.5 -32.5c-46 0 -85.833 10.167 -119.5 30.5s-59.667 49.333 -78 87s-27.5 82.167 -27.5 133.5s9.16699 95.666 27.5 132.999s44.333 66.166 78 86.499s73.5 30.5 119.5 30.5c44 0 82.167 -10.833 114.5 -32.5s53.833 -51.167 64.5 -88.5l-9 8l9 104h98
c-2.66699 -20.667 -4.66699 -41.167 -6 -61.5s-2 -40.166 -2 -59.499v-373c0 -76 -20.167 -134 -60.5 -174s-99.5 -60 -177.5 -60zM294 91.001c44 0 79.167 15 105.5 45s39.5 72.333 39.5 127s-13.167 96.667 -39.5 126s-61.5 44 -105.5 44
c-45.333 0 -81.166 -14.667 -107.499 -44s-39.5 -71.333 -39.5 -126s13.167 -97 39.5 -127s62.166 -45 107.499 -45zM257 603.001v101h106v-101h-106z" />
    <glyph glyph-name="uni0122" unicode="&#x122;" horiz-adv-x="735" 
d="M415 -9c-78 0 -143.499 14.499 -196.499 43.499s-92.833 70.5 -119.5 124.5s-40 118.333 -40 193s14.167 139 42.5 193s69 95.667 122 125s116.833 44 191.5 44c51.333 0 96 -7.16699 134 -21.5s72 -35.166 102 -62.499l-37 -81c-21.333 18 -42 32.333 -62 43
s-40.667 18.5 -62 23.5s-46.333 7.5 -75 7.5c-80.667 0 -142 -23.667 -184 -71s-63 -114.333 -63 -201c0 -88 20.167 -155 60.5 -201s103.833 -69 190.5 -69c30 0 59.667 2.83301 89 8.5s57.666 14.167 84.999 25.5l-20 -49v231h-174v78h261v-333
c-20 -10 -43.5 -18.833 -70.5 -26.5s-55.5 -13.667 -85.5 -18s-59.667 -6.5 -89 -6.5zM419.001 -273.001l-41.001 29c15.333 15.333 25.5 30 30.5 44s7.5 29 7.5 45l24 -13h-80v91h113v-63c0 -26 -4.16699 -50.167 -12.5 -72.5s-22.166 -42.5 -41.499 -60.5z" />
    <glyph glyph-name="uni0123" unicode="&#x123;" horiz-adv-x="612" 
d="M301 -224c-45.333 0 -86.5 5.33398 -123.5 16.001s-70.167 26.667 -99.5 48l25 74c20.667 -14 41 -25.167 61 -33.5s41 -14.5 63 -18.5s44.667 -6 68 -6c48 0 84.167 12.167 108.5 36.5s36.5 59.5 36.5 105.5v135h10c-10.667 -37.333 -32.5 -66.833 -65.5 -88.5
s-71.167 -32.5 -114.5 -32.5c-46 0 -85.833 10.167 -119.5 30.5s-59.667 49.333 -78 87s-27.5 82.167 -27.5 133.5s9.16699 95.666 27.5 132.999s44.333 66.166 78 86.499s73.5 30.5 119.5 30.5c44 0 82.167 -10.833 114.5 -32.5s53.833 -51.167 64.5 -88.5l-9 8l9 104h98
c-2.66699 -20.667 -4.66699 -41.167 -6 -61.5s-2 -40.166 -2 -59.499v-373c0 -76 -20.167 -134 -60.5 -174s-99.5 -60 -177.5 -60zM294 91.001c44 0 79.167 15 105.5 45s39.5 72.333 39.5 127s-13.167 96.667 -39.5 126s-61.5 44 -105.5 44
c-45.333 0 -81.166 -14.667 -107.499 -44s-39.5 -71.333 -39.5 -126s13.167 -97 39.5 -127s62.166 -45 107.499 -45zM253 566.001v63.001c0 26 4.33301 50.167 13 72.5s22.667 42.166 42 59.499l41 -28c-15.333 -15.333 -25.5 -30 -30.5 -44s-7.5 -29 -7.5 -45l-25 13h80
v-91h-113z" />
    <glyph glyph-name="Hcircumflex" unicode="&#x124;" horiz-adv-x="770" 
d="M83 0v705h104v-304h396v304h104v-705h-104v314h-396v-314h-104zM218 765l123 173h90l123 -173h-72l-96 112l-96 -112h-72z" />
    <glyph glyph-name="hcircumflex" unicode="&#x125;" horiz-adv-x="593" 
d="M74 0l-0.000976562 735.999h101v-339h-14c14.667 38 38.334 66.833 71.001 86.5s70.334 29.5 113.001 29.5c60 0 104.667 -16.5 134 -49.5s44 -82.833 44 -149.5v-314h-101v308c0 43.333 -8.5 74.833 -25.5 94.5s-43.833 29.5 -80.5 29.5
c-42.667 0 -76.834 -13.167 -102.501 -39.5s-38.5 -61.166 -38.5 -104.499v-288h-101zM132.999 775.999l123 173h90l123 -173h-72l-96 112l-96 -112h-72z" />
    <glyph glyph-name="Hbar" unicode="&#x126;" horiz-adv-x="805" 
d="M102 0v516h-90v77h90v112h104v-112h394v112h104v-112h90v-77h-90v-516h-104v305h-394v-305h-104zM206 393h394v123h-394v-123z" />
    <glyph glyph-name="hbar" unicode="&#x127;" horiz-adv-x="593" 
d="M74 0l-0.000976562 576h-94v73h94v87h101v-87h197v-73h-197v-186h-14c14.667 37.333 38.334 65.833 71.001 85.5s70.334 29.5 113.001 29.5c59.333 0 103.833 -16.5 133.5 -49.5s44.5 -82.833 44.5 -149.5v-306h-101v300c0 43.333 -8.66699 74.833 -26 94.5
s-44 29.5 -80 29.5c-42.667 0 -76.834 -13 -102.501 -39s-38.5 -60.667 -38.5 -104v-281h-101z" />
    <glyph glyph-name="Itilde" unicode="&#x128;" horiz-adv-x="270" 
d="M83 0v705h104v-705h-104zM-27 778l-52.999 3.00098c3.33301 44.667 16.5 79.167 39.5 103.5s51.833 36.5 86.5 36.5c15.333 0 30.833 -3 46.5 -9s34.5 -15.667 56.5 -29c20 -12 35.667 -20.5 47 -25.5s21.666 -7.5 30.999 -7.5c19.333 0 34.833 6.5 46.5 19.5
s19.5 31.5 23.5 55.5l53 -4c-3.33301 -44.667 -16.333 -79.167 -39 -103.5s-51.334 -36.5 -86.001 -36.5c-15.333 0 -31.166 3.16699 -47.499 9.5s-36.166 16.833 -59.499 31.5c-18.667 12 -33.334 20.167 -44.001 24.5s-21 6.5 -31 6.5
c-19.333 0 -34.833 -6.33301 -46.5 -19s-19.5 -31.334 -23.5 -56.001z" />
    <glyph glyph-name="itilde" unicode="&#x129;" horiz-adv-x="249" 
d="M74 0v504h101v-504h-101zM-8 587l-52.999 4.00195c3.33301 44.667 15.166 79.167 35.499 103.5s46.166 36.5 77.499 36.5c14 0 27.333 -3.33301 40 -10s27 -16.334 43 -29.001c14 -12 25.5 -20.5 34.5 -25.5s17.833 -7.5 26.5 -7.5c34 0 54.667 25 62 75l53 -3
c-2.66699 -44.667 -14.167 -79.167 -34.5 -103.5s-46.166 -36.5 -77.499 -36.5c-14 0 -27.333 3.16699 -40 9.5s-27.667 16.166 -45 29.499c-13.333 12 -24.333 20.333 -33 25s-17.667 7 -27 7c-18 0 -32 -6.5 -42 -19.5s-16.667 -31.5 -20 -55.5z" />
    <glyph glyph-name="Imacron" unicode="&#x12a;" horiz-adv-x="270" 
d="M83 0v705h104v-705h-104zM-33 811v63h336v-63h-336z" />
    <glyph glyph-name="imacron" unicode="&#x12b;" horiz-adv-x="249" 
d="M74 0v504h101v-504h-101zM-28 621v64h306v-64h-306z" />
    <glyph glyph-name="Ibreve" unicode="&#x12c;" horiz-adv-x="270" 
d="M83 0v705h104v-705h-104zM135 760c-32.667 0 -61.6689 6.83301 -87.002 20.5s-45.666 33.167 -60.999 58.5s-24.333 55.333 -27 90l60 8c3.33301 -36 15 -63.833 35 -83.5s46.333 -29.5 79 -29.5c33.333 0 60.333 9.83301 81 29.5s32.334 47.5 35.001 83.5l60 -8
c-4 -52 -21.833 -93.167 -53.5 -123.5s-72.167 -45.5 -121.5 -45.5z" />
    <glyph glyph-name="ibreve" unicode="&#x12d;" horiz-adv-x="249" 
d="M74 0v504h101v-504h-101zM125 550c-31.333 0 -58.832 7.66699 -82.499 23s-42 37.333 -55 66s-20.5 62.667 -22.5 102l60 6c2.66699 -42.667 12.667 -75.5 30 -98.5s40.666 -34.5 69.999 -34.5s52.666 11.5 69.999 34.5s27.333 55.833 30 98.5l60 -6
c-1.33301 -39.333 -8.66602 -73.333 -21.999 -102s-31.833 -50.667 -55.5 -66s-51.167 -23 -82.5 -23z" />
    <glyph glyph-name="Iogonek" unicode="&#x12e;" horiz-adv-x="270" 
d="M83 0v705h104v-705h-104zM146 -194c-34 0 -61.002 9.16797 -81.002 27.501s-30 42.833 -30 73.5c0 27.333 9 52.833 27 76.5s42 42.167 72 55.5l33 -39c-10.667 -4.66699 -21 -11 -31 -19s-18 -17.333 -24 -28s-9 -22.334 -9 -35.001c0 -18 5.5 -31.5 16.5 -40.5
s24.5 -13.5 40.5 -13.5c9.33301 0 18.333 1 27 3s17.667 5 27 9l15 -53c-11.333 -5.33301 -23.666 -9.5 -36.999 -12.5s-28.666 -4.5 -45.999 -4.5z" />
    <glyph glyph-name="iogonek" unicode="&#x12f;" horiz-adv-x="249" 
d="M74 0v504h101v-504h-101zM66 601v105h118v-105h-118zM136 -194c-34 0 -61.002 9.16797 -81.002 27.501s-30 42.833 -30 73.5c0 27.333 9 52.833 27 76.5s42 42.167 72 55.5l33 -39c-10.667 -4.66699 -21 -11 -31 -19s-18 -17.333 -24 -28s-9 -22.334 -9 -35.001
c0 -18 5.5 -31.5 16.5 -40.5s24.5 -13.5 40.5 -13.5c9.33301 0 18.333 1 27 3s17.667 5 27 9l15 -53c-11.333 -5.33301 -23.666 -9.5 -36.999 -12.5s-28.666 -4.5 -45.999 -4.5z" />
    <glyph glyph-name="Idotaccent" unicode="&#x130;" horiz-adv-x="270" 
d="M83 0v705h104v-705h-104zM83 801v101h104v-101h-104z" />
    <glyph glyph-name="dotlessi" unicode="&#x131;" horiz-adv-x="249" 
d="M74 0v504h101v-504h-101z" />
    <glyph glyph-name="IJ" unicode="&#x132;" horiz-adv-x="614" 
d="M83 0v705h104v-705h-104zM354 -187c-10.667 0 -23.333 0.667969 -38 2.00098s-29.667 3.66602 -45 6.99902v84c12.667 -2.66699 24.667 -4.83398 36 -6.50098s21.333 -2.5 30 -2.5c30.667 0 53.334 9.33301 68.001 28s22 48.334 22 89.001v691h104v-692
c0 -44 -6.33301 -80.833 -19 -110.5s-31.834 -52 -57.501 -67s-59.167 -22.5 -100.5 -22.5z" />
    <glyph glyph-name="Jcircumflex" unicode="&#x134;" horiz-adv-x="344" 
d="M84 -187c-10.667 0 -23.333 0.667969 -38 2.00098s-29.667 3.66602 -45 6.99902v84c12.667 -2.66699 24.667 -4.83398 36 -6.50098s21.333 -2.5 30 -2.5c30.667 0 53.334 9.33301 68.001 28s22 48.334 22 89.001v691h104v-692c0 -44 -6.33301 -80.833 -19 -110.5
s-31.834 -52 -57.501 -67s-59.167 -22.5 -100.5 -22.5zM41.001 765.001l123 173h90l123 -173h-72l-96 112l-96 -112h-72z" />
    <glyph glyph-name="jcircumflex" unicode="&#x135;" horiz-adv-x="249" 
d="M16 -221c-10.667 0 -23.334 1.00098 -38.001 3.00098s-27 5.33301 -37 10v82c8.66699 -2.66699 18.167 -5.16699 28.5 -7.5s19.833 -3.5 28.5 -3.5c26.667 0 46.834 8.16699 60.501 24.5s20.5 43.166 20.5 80.499v536h101v-543c0 -60 -13.333 -105.333 -40 -136
s-68 -46 -124 -46zM-27 553.001l110 202h92l110 -202h-67l-89 140l-89 -140h-67z" />
    <glyph glyph-name="uni0136" unicode="&#x136;" horiz-adv-x="648" 
d="M83 0v705h104v-317h2l324 317h129l-380 -366l1 49l405 -388h-133l-346 329h-2v-329h-104zM332 -273l-41.001 29c15.333 15.333 25.5 30 30.5 44s7.5 29 7.5 45l24 -13h-80v91h113v-63c0 -26 -4.16699 -50.167 -12.5 -72.5s-22.166 -42.5 -41.499 -60.5z" />
    <glyph glyph-name="uni0137" unicode="&#x137;" horiz-adv-x="532" 
d="M74 0v736h101v-452h2l220 220h125l-266 -265l1 45l287 -284h-128l-239 231h-2v-231h-101zM267 -273l-41.001 29c15.333 15.333 25.5 30 30.5 44s7.5 29 7.5 45l24 -13h-80v91h113v-63c0 -26 -4.16699 -50.167 -12.5 -72.5s-22.166 -42.5 -41.499 -60.5z" />
    <glyph glyph-name="kgreenlandic" unicode="&#x138;" horiz-adv-x="532" 
d="M74 0v504h101v-220h2l220 220h125l-266 -265l1 45l287 -284h-128l-239 231h-2v-231h-101z" />
    <glyph glyph-name="Lacute" unicode="&#x139;" horiz-adv-x="552" 
d="M83 0v705h104v-616h346v-89h-450zM98 765l118 173h109l-153 -173h-74z" />
    <glyph glyph-name="lacute" unicode="&#x13a;" horiz-adv-x="249" 
d="M74 0v736h101v-736h-101zM88 776l118 173h109l-153 -173h-74z" />
    <glyph glyph-name="uni013B" unicode="&#x13b;" horiz-adv-x="552" 
d="M83 0v705h104v-616h346v-89h-450zM312 -273l-41.001 29c15.333 15.333 25.5 30 30.5 44s7.5 29 7.5 45l24 -13h-80v91h113v-63c0 -26 -4.16699 -50.167 -12.5 -72.5s-22.166 -42.5 -41.499 -60.5z" />
    <glyph glyph-name="uni013C" unicode="&#x13c;" horiz-adv-x="249" 
d="M74 0v736h101v-736h-101zM127 -273l-41.001 29c15.333 15.333 25.5 30 30.5 44s7.5 29 7.5 45l24 -13h-80v91h113v-63c0 -26 -4.16699 -50.167 -12.5 -72.5s-22.166 -42.5 -41.499 -60.5z" />
    <glyph glyph-name="Lcaron" unicode="&#x13d;" horiz-adv-x="552" 
d="M83 0v705h104v-616h346v-89h-450zM296 475v230h83l-22 -230h-61z" />
    <glyph glyph-name="lcaron" unicode="&#x13e;" horiz-adv-x="249" 
d="M74 0v736h101v-736h-101zM220 545v191h74l-25 -191h-49z" />
    <glyph glyph-name="Ldot" unicode="&#x13f;" horiz-adv-x="552" 
d="M83 0v705h104v-616h346v-89h-450zM356 337v107h120v-107h-120z" />
    <glyph glyph-name="ldot" unicode="&#x140;" horiz-adv-x="249" 
d="M74 0v736h101v-736h-101zM227 301v107h120v-107h-120z" />
    <glyph glyph-name="Lslash" unicode="&#x141;" horiz-adv-x="552" 
d="M83 0v705h104v-616h346v-89h-450zM12 243l-39 70l378 218l40 -70z" />
    <glyph glyph-name="lslash" unicode="&#x142;" horiz-adv-x="249" 
d="M74 0v736h101v-736h-101zM4 248l-40 70l282 163l40 -69z" />
    <glyph glyph-name="Nacute" unicode="&#x143;" horiz-adv-x="750" 
d="M83 0v705h80l433 -568h-25v568h97v-705h-79l-432 568h23v-568h-97zM340 765l118 173h109l-153 -173h-74z" />
    <glyph glyph-name="nacute" unicode="&#x144;" horiz-adv-x="593" 
d="M74 0l0.000976562 383.001c0 19.333 -0.833008 39.166 -2.5 59.499s-3.5 40.833 -5.5 61.5h98l9 -106h-12c15.333 37.333 39 65.833 71 85.5s69 29.5 111 29.5c59.333 0 104.166 -16.333 134.499 -49s45.5 -83.334 45.5 -152.001v-312h-101v306
c0 44.667 -8.83301 76.834 -26.5 96.501s-44.5 29.5 -80.5 29.5c-42.667 0 -76.667 -13.167 -102 -39.5s-38 -61.833 -38 -106.5v-286h-101zM262.001 553.001l103 202h103l-136 -202h-70z" />
    <glyph glyph-name="uni0145" unicode="&#x145;" horiz-adv-x="750" 
d="M83 0v705h80l433 -568h-25v568h97v-705h-79l-432 568h23v-568h-97zM380 -273l-41.001 29c15.333 15.333 25.5 30 30.5 44s7.5 29 7.5 45l24 -13h-80v91h113v-63c0 -26 -4.16699 -50.167 -12.5 -72.5s-22.166 -42.5 -41.499 -60.5z" />
    <glyph glyph-name="uni0146" unicode="&#x146;" horiz-adv-x="593" 
d="M74 0l0.000976562 383.001c0 19.333 -0.833008 39.166 -2.5 59.499s-3.5 40.833 -5.5 61.5h98l9 -106h-12c15.333 37.333 39 65.833 71 85.5s69 29.5 111 29.5c59.333 0 104.166 -16.333 134.499 -49s45.5 -83.334 45.5 -152.001v-312h-101v306
c0 44.667 -8.83301 76.834 -26.5 96.501s-44.5 29.5 -80.5 29.5c-42.667 0 -76.667 -13.167 -102 -39.5s-38 -61.833 -38 -106.5v-286h-101zM299.001 -272.999l-41.001 29c15.333 15.333 25.5 30 30.5 44s7.5 29 7.5 45l24 -13h-80v91h113v-63
c0 -26 -4.16699 -50.167 -12.5 -72.5s-22.166 -42.5 -41.499 -60.5z" />
    <glyph glyph-name="Ncaron" unicode="&#x147;" horiz-adv-x="750" 
d="M83 0v705h80l433 -568h-25v568h97v-705h-79l-432 568h23v-568h-97zM332 765l-123 173h72l96 -112l96 112h72l-123 -173h-90z" />
    <glyph glyph-name="ncaron" unicode="&#x148;" horiz-adv-x="593" 
d="M74 0l0.000976562 383.001c0 19.333 -0.833008 39.166 -2.5 59.499s-3.5 40.833 -5.5 61.5h98l9 -106h-12c15.333 37.333 39 65.833 71 85.5s69 29.5 111 29.5c59.333 0 104.166 -16.333 134.499 -49s45.5 -83.334 45.5 -152.001v-312h-101v306
c0 44.667 -8.83301 76.834 -26.5 96.501s-44.5 29.5 -80.5 29.5c-42.667 0 -76.667 -13.167 -102 -39.5s-38 -61.833 -38 -106.5v-286h-101zM251.001 553.001l-110 202h67l89 -141l89 141h67l-110 -202h-92z" />
    <glyph glyph-name="napostrophe" unicode="&#x149;" horiz-adv-x="681" 
d="M124 569l-41 29.001c14.667 14 24.167 27.667 28.5 41s6.5 26.666 6.5 39.999l26 -12h-80v94h112v-63c0 -24.667 -3.66699 -47.667 -11 -69s-21 -41.333 -41 -60zM162 0.000976562l0.000976562 383.001c0 19.333 -0.833008 39.166 -2.5 59.499s-3.5 40.833 -5.5 61.5h98
l9 -106h-12c15.333 37.333 39 65.833 71 85.5s69 29.5 111 29.5c59.333 0 104.166 -16.333 134.499 -49s45.5 -83.334 45.5 -152.001v-312h-101v306c0 44.667 -8.83301 76.834 -26.5 96.501s-44.5 29.5 -80.5 29.5c-42.667 0 -76.667 -13.167 -102 -39.5
s-38 -61.833 -38 -106.5v-286h-101z" />
    <glyph glyph-name="Eng" unicode="&#x14a;" horiz-adv-x="750" 
d="M439 -193l-7 76.001l48 4c29.333 2 51.833 11.5 67.5 28.5s23.5 41.5 23.5 73.5v55l18 -44l-432 568h23v-568h-97v705h80l433 -568h-25v568h97v-704c0 -40.667 -6.5 -74.667 -19.5 -102s-33 -48.333 -60 -63s-61.833 -23.334 -104.5 -26.001z" />
    <glyph glyph-name="eng" unicode="&#x14b;" horiz-adv-x="593" 
d="M74 0v383.001c0 19.333 -0.833008 39.166 -2.5 59.499s-3.5 40.833 -5.5 61.5h98l9 -106h-12c15.333 37.333 39.166 65.833 71.499 85.5s69.5 29.5 111.5 29.5c59.333 0 104 -16.333 134 -49s45 -83.334 45 -152.001v-348c0 -59.333 -14.333 -105 -43 -137
s-72 -48 -130 -48c-13.333 0 -26.5 1 -39.5 3s-24.833 5.33301 -35.5 10v82c8.66699 -2.66699 17.334 -5.16699 26.001 -7.5s19 -3.5 31 -3.5c28.667 0 50.834 8.83301 66.501 26.5s23.5 45.167 23.5 82.5v334c0 44.667 -8.66699 76.834 -26 96.501s-44 29.5 -80 29.5
c-42.667 0 -76.834 -13.167 -102.501 -39.5s-38.5 -61.833 -38.5 -106.5v-286h-101z" />
    <glyph glyph-name="Omacron" unicode="&#x14c;" horiz-adv-x="779" 
d="M59 353c0 74 12.998 138.001 38.998 192.001s63.833 95.667 113.5 125s108.834 44 177.501 44c68 0 126.667 -14.667 176 -44s87.5 -71 114.5 -125s40.5 -117.667 40.5 -191c0 -74 -13.5 -138.167 -40.5 -192.5s-65.333 -96.333 -115 -126s-108.167 -44.5 -175.5 -44.5
c-68.667 0 -127.667 14.833 -177 44.5s-87.166 71.667 -113.499 126s-39.5 118.166 -39.5 191.499zM167.998 353.001c0 -56.667 8.16504 -105.5 24.498 -146.5s41 -72.167 74 -93.5s73.833 -32 122.5 -32c70.667 0 125.334 23.833 164.001 71.5s58 114.5 58 200.5
c0 57.333 -8.5 106.333 -25.5 147s-42.167 71.5 -75.5 92.5s-73.666 31.5 -120.999 31.5c-72.667 0 -127.667 -23.667 -165 -71s-56 -114 -56 -200zM220.996 811.001v63h336v-63h-336z" />
    <glyph glyph-name="omacron" unicode="&#x14d;" horiz-adv-x="581" 
d="M290 -9c-50 0 -93.333 10.5 -130 31.5s-65 51 -85 90s-30 85.5 -30 139.5s10 100.5 30 139.5s48.333 69 85 90s80 31.5 130 31.5s93.5 -10.5 130.5 -31.5s65.667 -51 86 -90s30.5 -85.5 30.5 -139.5s-10.167 -100.5 -30.5 -139.5s-49 -69 -86 -90
s-80.5 -31.5 -130.5 -31.5zM290 70c44 0 79 15.333 105 46s39 76 39 136s-13 105.167 -39 135.5s-61 45.5 -105 45.5c-43.333 0 -78 -15.167 -104 -45.5s-39 -75.5 -39 -135.5s13 -105.333 39 -136s60.667 -46 104 -46zM138 621v64h306v-64h-306z" />
    <glyph glyph-name="Obreve" unicode="&#x14e;" horiz-adv-x="779" 
d="M59 353c0 74 12.998 138.001 38.998 192.001s63.833 95.667 113.5 125s108.834 44 177.501 44c68 0 126.667 -14.667 176 -44s87.5 -71 114.5 -125s40.5 -117.667 40.5 -191c0 -74 -13.5 -138.167 -40.5 -192.5s-65.333 -96.333 -115 -126s-108.167 -44.5 -175.5 -44.5
c-68.667 0 -127.667 14.833 -177 44.5s-87.166 71.667 -113.499 126s-39.5 118.166 -39.5 191.499zM167.998 353.001c0 -56.667 8.16504 -105.5 24.498 -146.5s41 -72.167 74 -93.5s73.833 -32 122.5 -32c70.667 0 125.334 23.833 164.001 71.5s58 114.5 58 200.5
c0 57.333 -8.5 106.333 -25.5 147s-42.167 71.5 -75.5 92.5s-73.666 31.5 -120.999 31.5c-72.667 0 -127.667 -23.667 -165 -71s-56 -114 -56 -200zM388.996 760.001c-32.667 0 -61.6689 6.83301 -87.002 20.5s-45.666 33.167 -60.999 58.5s-24.333 55.333 -27 90l60 8
c3.33301 -36 15 -63.833 35 -83.5s46.333 -29.5 79 -29.5c33.333 0 60.333 9.83301 81 29.5s32.334 47.5 35.001 83.5l60 -8c-4 -52 -21.833 -93.167 -53.5 -123.5s-72.167 -45.5 -121.5 -45.5z" />
    <glyph glyph-name="obreve" unicode="&#x14f;" horiz-adv-x="581" 
d="M290 -9c-50 0 -93.333 10.5 -130 31.5s-65 51 -85 90s-30 85.5 -30 139.5s10 100.5 30 139.5s48.333 69 85 90s80 31.5 130 31.5s93.5 -10.5 130.5 -31.5s65.667 -51 86 -90s30.5 -85.5 30.5 -139.5s-10.167 -100.5 -30.5 -139.5s-49 -69 -86 -90
s-80.5 -31.5 -130.5 -31.5zM290 70c44 0 79 15.333 105 46s39 76 39 136s-13 105.167 -39 135.5s-61 45.5 -105 45.5c-43.333 0 -78 -15.167 -104 -45.5s-39 -75.5 -39 -135.5s13 -105.333 39 -136s60.667 -46 104 -46zM291 550c-31.333 0 -58.832 7.66699 -82.499 23
s-42 37.333 -55 66s-20.5 62.667 -22.5 102l60 6c2.66699 -42.667 12.667 -75.5 30 -98.5s40.666 -34.5 69.999 -34.5s52.666 11.5 69.999 34.5s27.333 55.833 30 98.5l60 -6c-1.33301 -39.333 -8.66602 -73.333 -21.999 -102s-31.833 -50.667 -55.5 -66
s-51.167 -23 -82.5 -23z" />
    <glyph glyph-name="Ohungarumlaut" unicode="&#x150;" horiz-adv-x="779" 
d="M59 353c0 74 12.998 138.001 38.998 192.001s63.833 95.667 113.5 125s108.834 44 177.501 44c68 0 126.667 -14.667 176 -44s87.5 -71 114.5 -125s40.5 -117.667 40.5 -191c0 -74 -13.5 -138.167 -40.5 -192.5s-65.333 -96.333 -115 -126s-108.167 -44.5 -175.5 -44.5
c-68.667 0 -127.667 14.833 -177 44.5s-87.166 71.667 -113.499 126s-39.5 118.166 -39.5 191.499zM167.998 353.001c0 -56.667 8.16504 -105.5 24.498 -146.5s41 -72.167 74 -93.5s73.833 -32 122.5 -32c70.667 0 125.334 23.833 164.001 71.5s58 114.5 58 200.5
c0 57.333 -8.5 106.333 -25.5 147s-42.167 71.5 -75.5 92.5s-73.666 31.5 -120.999 31.5c-72.667 0 -127.667 -23.667 -165 -71s-56 -114 -56 -200zM291.996 765.001l85 173h96l-123 -173h-58zM427.996 765.001l92 173h95l-129 -173h-58z" />
    <glyph glyph-name="ohungarumlaut" unicode="&#x151;" horiz-adv-x="581" 
d="M290 -9c-50 0 -93.333 10.5 -130 31.5s-65 51 -85 90s-30 85.5 -30 139.5s10 100.5 30 139.5s48.333 69 85 90s80 31.5 130 31.5s93.5 -10.5 130.5 -31.5s65.667 -51 86 -90s30.5 -85.5 30.5 -139.5s-10.167 -100.5 -30.5 -139.5s-49 -69 -86 -90
s-80.5 -31.5 -130.5 -31.5zM290 70c44 0 79 15.333 105 46s39 76 39 136s-13 105.167 -39 135.5s-61 45.5 -105 45.5c-43.333 0 -78 -15.167 -104 -45.5s-39 -75.5 -39 -135.5s13 -105.333 39 -136s60.667 -46 104 -46zM331 553l52 202h88l-85 -202h-55zM194 553l51 202h90
l-86 -202h-55z" />
    <glyph glyph-name="OE" unicode="&#x152;" horiz-adv-x="1056" 
d="M553 0v705h456v-83h-356v-222h335v-84h-335v-232h356v-84h-456zM382 -9c-67.333 0 -125.164 14.8359 -173.497 44.5029s-85.333 71.667 -111 126s-38.5 118.166 -38.5 191.499c0 74 12.667 138 38 192s62.166 95.667 110.499 125s106.5 44 174.5 44
c35.333 0 69.166 -4 101.499 -12s60.166 -22.333 83.499 -43v-113c-18.667 28 -42.834 48 -72.501 60s-64.834 18 -105.501 18c-72.667 0 -127.667 -23.667 -165 -71s-56 -114 -56 -200c0 -56.667 8.16699 -105.5 24.5 -146.5s41 -72.167 74 -93.5s73.833 -32 122.5 -32
c41.333 0 77.333 6.83301 108 20.5s55.334 35.167 74.001 64.5v-110c-15.333 -14.667 -33.166 -26.834 -53.499 -36.501s-42 -16.834 -65 -21.501s-46.5 -7 -70.5 -7z" />
    <glyph glyph-name="oe" unicode="&#x153;" horiz-adv-x="932" 
d="M290 -9c-50 0 -93.3369 10.501 -130.004 31.501s-65 51.167 -85 90.5s-30 86 -30 140s10 100.333 30 139s48.333 68.5 85 89.5s80 31.5 130 31.5c50.667 0 93.834 -12.333 129.501 -37s61.834 -60 78.501 -106h-26c11.333 30.667 26.833 56.667 46.5 78s43 37.5 70 48.5
s56.833 16.5 89.5 16.5c44 0 81.833 -9.66699 113.5 -29s56.167 -47 73.5 -83s26 -79 26 -129v-32h-374v58h305l-18 -13c0 49.333 -11 87.666 -33 114.999s-53.667 41 -95 41c-30 0 -55.667 -7.33301 -77 -22s-37.5 -35.334 -48.5 -62.001s-16.5 -59 -16.5 -97v-6
c0 -62 14.167 -108.167 42.5 -138.5s69.5 -45.5 123.5 -45.5c28 0 54.5 4.33301 79.5 13s49.167 22.334 72.5 41.001l32 -69c-15.333 -14 -33.166 -25.833 -53.499 -35.5s-41.5 -16.834 -63.5 -21.501s-43.333 -7 -64 -7c-59.333 0 -108.333 12.333 -147 37
s-67 60.334 -85 107.001h27c-17.333 -46 -43.666 -81.5 -78.999 -106.5s-78.333 -37.5 -129 -37.5zM290.996 70.001c44 0 79.001 15.333 105.001 46s39 76 39 136s-13 105.167 -39 135.5s-61 45.5 -105 45.5s-79 -15.167 -105 -45.5s-39 -75.5 -39 -135.5
s13.167 -105.333 39.5 -136s61.166 -46 104.499 -46z" />
    <glyph glyph-name="Racute" unicode="&#x154;" horiz-adv-x="697" 
d="M83 0l0.000976562 705h298c75.333 0 133.666 -17.833 174.999 -53.5s62 -85.5 62 -149.5c0 -42 -9.33301 -78 -28 -108s-45 -52.833 -79 -68.5s-74 -23.5 -120 -23.5l16 16h27c27.333 0 51.833 -7 73.5 -21s39.5 -36.333 53.5 -67l101 -230h-114l-100 231
c-10 27.333 -25.5 45 -46.5 53s-46.833 12 -77.5 12h-137v-296h-104zM187.001 375l177 -0.000976562c50 0 87.833 10.667 113.5 32s38.5 52 38.5 92c0 40.667 -12.833 71.334 -38.5 92.001s-63.5 31 -113.5 31h-177v-247zM312.001 764.999l118 173h109l-153 -173h-74z" />
    <glyph glyph-name="racute" unicode="&#x155;" horiz-adv-x="377" 
d="M72 0l0.000976562 379c0 20.667 -0.5 41.5 -1.5 62.5s-2.5 41.833 -4.5 62.5h98l11 -130h-16c6.66699 31.333 18 57.333 34 78s35.5 36 58.5 46s47.167 15 72.5 15c10.667 0 19.667 -0.5 27 -1.5s14.666 -2.5 21.999 -4.5l-1 -90
c-11.333 4.66699 -21.166 7.5 -29.499 8.5s-18.5 1.5 -30.5 1.5c-29.333 0 -54.333 -6.5 -75 -19.5s-36.334 -30.5 -47.001 -52.5s-16 -45.667 -16 -71v-284h-102zM195.001 553l103 202h103l-136 -202h-70z" />
    <glyph glyph-name="uni0156" unicode="&#x156;" horiz-adv-x="697" 
d="M83 0l0.000976562 705h298c75.333 0 133.666 -17.833 174.999 -53.5s62 -85.5 62 -149.5c0 -42 -9.33301 -78 -28 -108s-45 -52.833 -79 -68.5s-74 -23.5 -120 -23.5l16 16h27c27.333 0 51.833 -7 73.5 -21s39.5 -36.333 53.5 -67l101 -230h-114l-100 231
c-10 27.333 -25.5 45 -46.5 53s-46.833 12 -77.5 12h-137v-296h-104zM187.001 375l177 -0.000976562c50 0 87.833 10.667 113.5 32s38.5 52 38.5 92c0 40.667 -12.833 71.334 -38.5 92.001s-63.5 31 -113.5 31h-177v-247zM352.001 -273.001l-41.001 29
c15.333 15.333 25.5 30 30.5 44s7.5 29 7.5 45l24 -13h-80v91h113v-63c0 -26 -4.16699 -50.167 -12.5 -72.5s-22.166 -42.5 -41.499 -60.5z" />
    <glyph glyph-name="uni0157" unicode="&#x157;" horiz-adv-x="377" 
d="M72 0l0.000976562 379c0 20.667 -0.5 41.5 -1.5 62.5s-2.5 41.833 -4.5 62.5h98l11 -130h-16c6.66699 31.333 18 57.333 34 78s35.5 36 58.5 46s47.167 15 72.5 15c10.667 0 19.667 -0.5 27 -1.5s14.666 -2.5 21.999 -4.5l-1 -90
c-11.333 4.66699 -21.166 7.5 -29.499 8.5s-18.5 1.5 -30.5 1.5c-29.333 0 -54.333 -6.5 -75 -19.5s-36.334 -30.5 -47.001 -52.5s-16 -45.667 -16 -71v-284h-102zM125.001 -273l-41.001 29c15.333 15.333 25.5 30 30.5 44s7.5 29 7.5 45l24 -13h-80v91h113v-63
c0 -26 -4.16699 -50.167 -12.5 -72.5s-22.166 -42.5 -41.499 -60.5z" />
    <glyph glyph-name="Rcaron" unicode="&#x158;" horiz-adv-x="697" 
d="M83 0l0.000976562 705h298c75.333 0 133.666 -17.833 174.999 -53.5s62 -85.5 62 -149.5c0 -42 -9.33301 -78 -28 -108s-45 -52.833 -79 -68.5s-74 -23.5 -120 -23.5l16 16h27c27.333 0 51.833 -7 73.5 -21s39.5 -36.333 53.5 -67l101 -230h-114l-100 231
c-10 27.333 -25.5 45 -46.5 53s-46.833 12 -77.5 12h-137v-296h-104zM187.001 375l177 -0.000976562c50 0 87.833 10.667 113.5 32s38.5 52 38.5 92c0 40.667 -12.833 71.334 -38.5 92.001s-63.5 31 -113.5 31h-177v-247zM304.001 764.999l-123 173h72l96 -112l96 112h72
l-123 -173h-90z" />
    <glyph glyph-name="rcaron" unicode="&#x159;" horiz-adv-x="377" 
d="M72 0l0.000976562 379c0 20.667 -0.5 41.5 -1.5 62.5s-2.5 41.833 -4.5 62.5h98l11 -130h-16c6.66699 31.333 18 57.333 34 78s35.5 36 58.5 46s47.167 15 72.5 15c10.667 0 19.667 -0.5 27 -1.5s14.666 -2.5 21.999 -4.5l-1 -90
c-11.333 4.66699 -21.166 7.5 -29.499 8.5s-18.5 1.5 -30.5 1.5c-29.333 0 -54.333 -6.5 -75 -19.5s-36.334 -30.5 -47.001 -52.5s-16 -45.667 -16 -71v-284h-102zM184.001 553l-110 202h67l89 -141l89 141h67l-110 -202h-92z" />
    <glyph glyph-name="Sacute" unicode="&#x15a;" horiz-adv-x="633" 
d="M321 -9c-56.667 0 -108 7.16992 -154 21.5029s-86 34.833 -120 61.5l35 82c22.667 -17.333 46.167 -31.666 70.5 -42.999s50.333 -19.833 78 -25.5s57.834 -8.5 90.501 -8.5c56 0 97.167 10 123.5 30s39.5 46.333 39.5 79c0 28 -9.16699 49.667 -27.5 65
s-50.5 27.666 -96.5 36.999l-109 22c-64.667 13.333 -112.834 35.166 -144.501 65.499s-47.5 71.833 -47.5 124.5c0 42.667 11.333 80 34 112s54.167 56.667 94.5 74s87.5 26 141.5 26c50 0 96 -7.16699 138 -21.5s77.333 -35.5 106 -63.5l-34 -79
c-30 26 -62 45.167 -96 57.5s-72.667 18.5 -116 18.5c-51.333 0 -91.5 -10.667 -120.5 -32s-43.5 -50.333 -43.5 -87c0 -29.333 9.16699 -52.333 27.5 -69s48.833 -29.334 91.5 -38.001l109 -21c67.333 -14 117 -35.5 149 -64.5s48 -68.833 48 -119.5
c0 -40.667 -10.833 -76.334 -32.5 -107.001s-52.5 -54.5 -92.5 -71.5s-87.333 -25.5 -142 -25.5zM289 765.003l118 173h109l-153 -173h-74z" />
    <glyph glyph-name="sacute" unicode="&#x15b;" horiz-adv-x="498" 
d="M247 -9c-42 0 -80.667 5.33203 -116 15.999s-64.666 25.667 -87.999 45l31 69c24.667 -18.667 52 -32.667 82 -42s60.667 -14 92 -14c36.667 0 64.334 6.5 83.001 19.5s28 30.833 28 53.5c0 17.333 -5.83301 31.333 -17.5 42s-30.834 18.667 -57.501 24l-96 19
c-42.667 9.33301 -75 25.333 -97 48s-33 51.667 -33 87c0 30 8.16699 56.667 24.5 80s39.666 41.666 69.999 54.999s65.833 20 106.5 20c37.333 0 72 -5.33301 104 -16s58.667 -26 80 -46l-32 -67c-20.667 17.333 -44 30.833 -70 40.5s-52.333 14.5 -79 14.5
c-37.333 0 -65 -7 -83 -21s-27 -32.333 -27 -55c0 -17.333 5.5 -31.5 16.5 -42.5s28.5 -19.5 52.5 -25.5l96 -19c45.333 -9.33301 79.333 -24.666 102 -45.999s34 -50 34 -86c0 -31.333 -8.66699 -58.666 -26 -81.999s-41.333 -41 -72 -53s-66.667 -18 -108 -18z
M220 552.999l103 202h103l-136 -202h-70z" />
    <glyph glyph-name="Scircumflex" unicode="&#x15c;" horiz-adv-x="633" 
d="M321 -9c-56.667 0 -108 7.16992 -154 21.5029s-86 34.833 -120 61.5l35 82c22.667 -17.333 46.167 -31.666 70.5 -42.999s50.333 -19.833 78 -25.5s57.834 -8.5 90.501 -8.5c56 0 97.167 10 123.5 30s39.5 46.333 39.5 79c0 28 -9.16699 49.667 -27.5 65
s-50.5 27.666 -96.5 36.999l-109 22c-64.667 13.333 -112.834 35.166 -144.501 65.499s-47.5 71.833 -47.5 124.5c0 42.667 11.333 80 34 112s54.167 56.667 94.5 74s87.5 26 141.5 26c50 0 96 -7.16699 138 -21.5s77.333 -35.5 106 -63.5l-34 -79
c-30 26 -62 45.167 -96 57.5s-72.667 18.5 -116 18.5c-51.333 0 -91.5 -10.667 -120.5 -32s-43.5 -50.333 -43.5 -87c0 -29.333 9.16699 -52.333 27.5 -69s48.833 -29.334 91.5 -38.001l109 -21c67.333 -14 117 -35.5 149 -64.5s48 -68.833 48 -119.5
c0 -40.667 -10.833 -76.334 -32.5 -107.001s-52.5 -54.5 -92.5 -71.5s-87.333 -25.5 -142 -25.5zM158 765.003l123 173h90l123 -173h-72l-96 112l-96 -112h-72z" />
    <glyph glyph-name="scircumflex" unicode="&#x15d;" horiz-adv-x="498" 
d="M247 -9c-42 0 -80.667 5.33203 -116 15.999s-64.666 25.667 -87.999 45l31 69c24.667 -18.667 52 -32.667 82 -42s60.667 -14 92 -14c36.667 0 64.334 6.5 83.001 19.5s28 30.833 28 53.5c0 17.333 -5.83301 31.333 -17.5 42s-30.834 18.667 -57.501 24l-96 19
c-42.667 9.33301 -75 25.333 -97 48s-33 51.667 -33 87c0 30 8.16699 56.667 24.5 80s39.666 41.666 69.999 54.999s65.833 20 106.5 20c37.333 0 72 -5.33301 104 -16s58.667 -26 80 -46l-32 -67c-20.667 17.333 -44 30.833 -70 40.5s-52.333 14.5 -79 14.5
c-37.333 0 -65 -7 -83 -21s-27 -32.333 -27 -55c0 -17.333 5.5 -31.5 16.5 -42.5s28.5 -19.5 52.5 -25.5l96 -19c45.333 -9.33301 79.333 -24.666 102 -45.999s34 -50 34 -86c0 -31.333 -8.66699 -58.666 -26 -81.999s-41.333 -41 -72 -53s-66.667 -18 -108 -18zM99 552.999
l110 202h92l110 -202h-67l-89 140l-89 -140h-67z" />
    <glyph glyph-name="Scedilla" unicode="&#x15e;" horiz-adv-x="633" 
d="M321 -9c-56.667 0 -108 7.16992 -154 21.5029s-86 34.833 -120 61.5l35 82c22.667 -17.333 46.167 -31.666 70.5 -42.999s50.333 -19.833 78 -25.5s57.834 -8.5 90.501 -8.5c56 0 97.167 10 123.5 30s39.5 46.333 39.5 79c0 28 -9.16699 49.667 -27.5 65
s-50.5 27.666 -96.5 36.999l-109 22c-64.667 13.333 -112.834 35.166 -144.501 65.499s-47.5 71.833 -47.5 124.5c0 42.667 11.333 80 34 112s54.167 56.667 94.5 74s87.5 26 141.5 26c50 0 96 -7.16699 138 -21.5s77.333 -35.5 106 -63.5l-34 -79
c-30 26 -62 45.167 -96 57.5s-72.667 18.5 -116 18.5c-51.333 0 -91.5 -10.667 -120.5 -32s-43.5 -50.333 -43.5 -87c0 -29.333 9.16699 -52.333 27.5 -69s48.833 -29.334 91.5 -38.001l109 -21c67.333 -14 117 -35.5 149 -64.5s48 -68.833 48 -119.5
c0 -40.667 -10.833 -76.334 -32.5 -107.001s-52.5 -54.5 -92.5 -71.5s-87.333 -25.5 -142 -25.5zM329 -193.997c-18.667 0 -36.167 1.83203 -52.5 5.49902s-30.833 8.83398 -43.5 15.501l16 49c12 -5.33301 23.667 -9.33301 35 -12s24 -4 38 -4
c18 0 32.167 2.83301 42.5 8.5s15.5 13.834 15.5 24.501c0 8 -3 14.333 -9 19s-15.667 7 -29 7c-6.66699 0 -13.5 -0.5 -20.5 -1.5s-15.167 -2.83301 -24.5 -5.5l-18 16l15 92h58l-13 -76l-28 9c8 2 16 3.66699 24 5s15.333 2 22 2c26 0 47 -6 63 -18s24 -29.333 24 -52
c0 -24.667 -10.667 -44.834 -32 -60.501s-49 -23.5 -83 -23.5z" />
    <glyph glyph-name="scedilla" unicode="&#x15f;" horiz-adv-x="498" 
d="M247 -9c-42 0 -80.667 5.33203 -116 15.999s-64.666 25.667 -87.999 45l31 69c24.667 -18.667 52 -32.667 82 -42s60.667 -14 92 -14c36.667 0 64.334 6.5 83.001 19.5s28 30.833 28 53.5c0 17.333 -5.83301 31.333 -17.5 42s-30.834 18.667 -57.501 24l-96 19
c-42.667 9.33301 -75 25.333 -97 48s-33 51.667 -33 87c0 30 8.16699 56.667 24.5 80s39.666 41.666 69.999 54.999s65.833 20 106.5 20c37.333 0 72 -5.33301 104 -16s58.667 -26 80 -46l-32 -67c-20.667 17.333 -44 30.833 -70 40.5s-52.333 14.5 -79 14.5
c-37.333 0 -65 -7 -83 -21s-27 -32.333 -27 -55c0 -17.333 5.5 -31.5 16.5 -42.5s28.5 -19.5 52.5 -25.5l96 -19c45.333 -9.33301 79.333 -24.666 102 -45.999s34 -50 34 -86c0 -31.333 -8.66699 -58.666 -26 -81.999s-41.333 -41 -72 -53s-66.667 -18 -108 -18z
M249 -194.001c-18.667 0 -36.167 1.83203 -52.5 5.49902s-30.833 8.83398 -43.5 15.501l16 49c12 -5.33301 23.667 -9.33301 35 -12s24 -4 38 -4c18 0 32.167 2.83301 42.5 8.5s15.5 13.834 15.5 24.501c0 8 -3 14.333 -9 19s-15.667 7 -29 7
c-6.66699 0 -13.5 -0.5 -20.5 -1.5s-15.167 -2.83301 -24.5 -5.5l-18 16l15 92h58l-13 -76l-28 9c8 2 16 3.66699 24 5s15.333 2 22 2c26 0 47 -6 63 -18s24 -29.333 24 -52c0 -24.667 -10.667 -44.834 -32 -60.501s-49 -23.5 -83 -23.5z" />
    <glyph glyph-name="Scaron" unicode="&#x160;" horiz-adv-x="633" 
d="M321 -9c-56.667 0 -108 7.16992 -154 21.5029s-86 34.833 -120 61.5l35 82c22.667 -17.333 46.167 -31.666 70.5 -42.999s50.333 -19.833 78 -25.5s57.834 -8.5 90.501 -8.5c56 0 97.167 10 123.5 30s39.5 46.333 39.5 79c0 28 -9.16699 49.667 -27.5 65
s-50.5 27.666 -96.5 36.999l-109 22c-64.667 13.333 -112.834 35.166 -144.501 65.499s-47.5 71.833 -47.5 124.5c0 42.667 11.333 80 34 112s54.167 56.667 94.5 74s87.5 26 141.5 26c50 0 96 -7.16699 138 -21.5s77.333 -35.5 106 -63.5l-34 -79
c-30 26 -62 45.167 -96 57.5s-72.667 18.5 -116 18.5c-51.333 0 -91.5 -10.667 -120.5 -32s-43.5 -50.333 -43.5 -87c0 -29.333 9.16699 -52.333 27.5 -69s48.833 -29.334 91.5 -38.001l109 -21c67.333 -14 117 -35.5 149 -64.5s48 -68.833 48 -119.5
c0 -40.667 -10.833 -76.334 -32.5 -107.001s-52.5 -54.5 -92.5 -71.5s-87.333 -25.5 -142 -25.5zM281 765.003l-123 173h72l96 -112l96 112h72l-123 -173h-90z" />
    <glyph glyph-name="scaron" unicode="&#x161;" horiz-adv-x="498" 
d="M247 -9c-42 0 -80.667 5.33203 -116 15.999s-64.666 25.667 -87.999 45l31 69c24.667 -18.667 52 -32.667 82 -42s60.667 -14 92 -14c36.667 0 64.334 6.5 83.001 19.5s28 30.833 28 53.5c0 17.333 -5.83301 31.333 -17.5 42s-30.834 18.667 -57.501 24l-96 19
c-42.667 9.33301 -75 25.333 -97 48s-33 51.667 -33 87c0 30 8.16699 56.667 24.5 80s39.666 41.666 69.999 54.999s65.833 20 106.5 20c37.333 0 72 -5.33301 104 -16s58.667 -26 80 -46l-32 -67c-20.667 17.333 -44 30.833 -70 40.5s-52.333 14.5 -79 14.5
c-37.333 0 -65 -7 -83 -21s-27 -32.333 -27 -55c0 -17.333 5.5 -31.5 16.5 -42.5s28.5 -19.5 52.5 -25.5l96 -19c45.333 -9.33301 79.333 -24.666 102 -45.999s34 -50 34 -86c0 -31.333 -8.66699 -58.666 -26 -81.999s-41.333 -41 -72 -53s-66.667 -18 -108 -18z
M209 552.999l-110 202h67l89 -141l89 141h67l-110 -202h-92z" />
    <glyph glyph-name="uni0162" unicode="&#x162;" horiz-adv-x="611" 
d="M252 0v618h-241v87h586v-87h-241v-618h-104zM308 -194c-18.667 0 -36.167 1.83203 -52.5 5.49902s-30.833 8.83398 -43.5 15.501l16 49c12 -5.33301 23.667 -9.33301 35 -12s24 -4 38 -4c18 0 32.167 2.83301 42.5 8.5s15.5 13.834 15.5 24.501c0 8 -3 14.333 -9 19
s-15.667 7 -29 7c-6.66699 0 -13.5 -0.5 -20.5 -1.5s-15.167 -2.83301 -24.5 -5.5l-18 16l15 92h58l-13 -76l-28 9c8 2 16 3.66699 24 5s15.333 2 22 2c26 0 47 -6 63 -18s24 -29.333 24 -52c0 -24.667 -10.667 -44.834 -32 -60.501s-49 -23.5 -83 -23.5z" />
    <glyph glyph-name="uni0163" unicode="&#x163;" horiz-adv-x="363" 
d="M270 -9c-54.667 0 -96 14.834 -124 44.501s-42 74.167 -42 133.5v257h-98v78h98v133l101 27v-160h140v-78h-140v-248c0 -37.333 6.66699 -64 20 -80s32.666 -24 57.999 -24c12.667 0 23.834 1.16699 33.501 3.5s18.5 5.16602 26.5 8.49902v-82
c-10 -4 -21.667 -7.16699 -35 -9.5s-26 -3.5 -38 -3.5zM234 -193.999c-18.667 0 -36.167 1.83203 -52.5 5.49902s-30.833 8.83398 -43.5 15.501l16 49c12 -5.33301 23.667 -9.33301 35 -12s24 -4 38 -4c18 0 32.167 2.83301 42.5 8.5s15.5 13.834 15.5 24.501
c0 8 -3 14.333 -9 19s-15.667 7 -29 7c-6.66699 0 -13.5 -0.5 -20.5 -1.5s-15.167 -2.83301 -24.5 -5.5l-18 16l15 92h58l-13 -76l-28 9c8 2 16 3.66699 24 5s15.333 2 22 2c26 0 47 -6 63 -18s24 -29.333 24 -52c0 -24.667 -10.667 -44.834 -32 -60.501
s-49 -23.5 -83 -23.5z" />
    <glyph glyph-name="Tcaron" unicode="&#x164;" horiz-adv-x="611" 
d="M252 0v618h-241v87h586v-87h-241v-618h-104zM261 765l-123 173h72l96 -112l96 112h72l-123 -173h-90z" />
    <glyph glyph-name="tcaron" unicode="&#x165;" horiz-adv-x="363" 
d="M270 -9c-54.667 0 -96 14.834 -124 44.501s-42 74.167 -42 133.5v257h-98v78h98v133l101 27v-160h140v-78h-140v-248c0 -37.333 6.66699 -64 20 -80s32.666 -24 57.999 -24c12.667 0 23.834 1.16699 33.501 3.5s18.5 5.16602 26.5 8.49902v-82
c-10 -4 -21.667 -7.16699 -35 -9.5s-26 -3.5 -38 -3.5zM270 543.001v173h74l-25 -173h-49z" />
    <glyph glyph-name="Tbar" unicode="&#x166;" horiz-adv-x="611" 
d="M252 0v618h-241v87h586v-87h-241v-618h-104zM113 319v77h385v-77h-385z" />
    <glyph glyph-name="tbar" unicode="&#x167;" horiz-adv-x="363" 
d="M270 -9c-54.667 0 -96 14.834 -124 44.501s-42 74.167 -42 133.5v257h-98v78h98v133l101 27v-160h140v-78h-140v-248c0 -37.333 6.66699 -64 20 -80s32.666 -24 57.999 -24c12.667 0 23.834 1.16699 33.501 3.5s18.5 5.16602 26.5 8.49902v-82
c-10 -4 -21.667 -7.16699 -35 -9.5s-26 -3.5 -38 -3.5zM34 241.001v64h289v-64h-289z" />
    <glyph glyph-name="Utilde" unicode="&#x168;" horiz-adv-x="735" 
d="M369 -9c-65.333 0 -119.499 11 -162.499 33s-75 54.833 -96 98.5s-31.5 97.5 -31.5 161.5v421h104v-419c0 -68 14.833 -119.167 44.5 -153.5s76.834 -51.5 141.501 -51.5c61.333 0 107.666 17.167 138.999 51.5s47 85.5 47 153.5v419h102v-421
c0 -64 -10.833 -117.833 -32.5 -161.5s-53.834 -76.5 -96.501 -98.5s-95.667 -33 -159 -33zM207.001 778l-52.999 3.00098c3.33301 44.667 16.5 79.167 39.5 103.5s51.833 36.5 86.5 36.5c15.333 0 30.833 -3 46.5 -9s34.5 -15.667 56.5 -29c20 -12 35.667 -20.5 47 -25.5
s21.666 -7.5 30.999 -7.5c19.333 0 34.833 6.5 46.5 19.5s19.5 31.5 23.5 55.5l53 -4c-3.33301 -44.667 -16.333 -79.167 -39 -103.5s-51.334 -36.5 -86.001 -36.5c-15.333 0 -31.166 3.16699 -47.499 9.5s-36.166 16.833 -59.499 31.5
c-18.667 12 -33.334 20.167 -44.001 24.5s-21 6.5 -31 6.5c-19.333 0 -34.833 -6.33301 -46.5 -19s-19.5 -31.334 -23.5 -56.001z" />
    <glyph glyph-name="utilde" unicode="&#x169;" horiz-adv-x="586" 
d="M253 -9c-60.667 0 -106.165 16.499 -136.498 49.499s-45.5 83.833 -45.5 152.5v311h101v-309c0 -42 8.66699 -73 26 -93s43.666 -30 78.999 -30c40 0 72.333 13.333 97 40s37 62 37 106v286h101v-504h-98v108h13c-14 -37.333 -36.333 -66.166 -67 -86.499
s-66.334 -30.5 -107.001 -30.5zM160.002 587.999l-52.999 4.00195c3.33301 44.667 15.166 79.167 35.499 103.5s46.166 36.5 77.499 36.5c14 0 27.333 -3.33301 40 -10s27 -16.334 43 -29.001c14 -12 25.5 -20.5 34.5 -25.5s17.833 -7.5 26.5 -7.5c34 0 54.667 25 62 75
l53 -3c-2.66699 -44.667 -14.167 -79.167 -34.5 -103.5s-46.166 -36.5 -77.499 -36.5c-14 0 -27.333 3.16699 -40 9.5s-27.667 16.166 -45 29.499c-13.333 12 -24.333 20.333 -33 25s-17.667 7 -27 7c-18 0 -32 -6.5 -42 -19.5s-16.667 -31.5 -20 -55.5z" />
    <glyph glyph-name="Umacron" unicode="&#x16a;" horiz-adv-x="735" 
d="M369 -9c-65.333 0 -119.499 11 -162.499 33s-75 54.833 -96 98.5s-31.5 97.5 -31.5 161.5v421h104v-419c0 -68 14.833 -119.167 44.5 -153.5s76.834 -51.5 141.501 -51.5c61.333 0 107.666 17.167 138.999 51.5s47 85.5 47 153.5v419h102v-421
c0 -64 -10.833 -117.833 -32.5 -161.5s-53.834 -76.5 -96.501 -98.5s-95.667 -33 -159 -33zM201.001 811v63h336v-63h-336z" />
    <glyph glyph-name="umacron" unicode="&#x16b;" horiz-adv-x="586" 
d="M253 -9c-60.667 0 -106.165 16.499 -136.498 49.499s-45.5 83.833 -45.5 152.5v311h101v-309c0 -42 8.66699 -73 26 -93s43.666 -30 78.999 -30c40 0 72.333 13.333 97 40s37 62 37 106v286h101v-504h-98v108h13c-14 -37.333 -36.333 -66.166 -67 -86.499
s-66.334 -30.5 -107.001 -30.5zM140.002 621.999v64h306v-64h-306z" />
    <glyph glyph-name="Ubreve" unicode="&#x16c;" horiz-adv-x="735" 
d="M369 -9c-65.333 0 -119.499 11 -162.499 33s-75 54.833 -96 98.5s-31.5 97.5 -31.5 161.5v421h104v-419c0 -68 14.833 -119.167 44.5 -153.5s76.834 -51.5 141.501 -51.5c61.333 0 107.666 17.167 138.999 51.5s47 85.5 47 153.5v419h102v-421
c0 -64 -10.833 -117.833 -32.5 -161.5s-53.834 -76.5 -96.501 -98.5s-95.667 -33 -159 -33zM369.001 760c-32.667 0 -61.6689 6.83301 -87.002 20.5s-45.666 33.167 -60.999 58.5s-24.333 55.333 -27 90l60 8c3.33301 -36 15 -63.833 35 -83.5s46.333 -29.5 79 -29.5
c33.333 0 60.333 9.83301 81 29.5s32.334 47.5 35.001 83.5l60 -8c-4 -52 -21.833 -93.167 -53.5 -123.5s-72.167 -45.5 -121.5 -45.5z" />
    <glyph glyph-name="ubreve" unicode="&#x16d;" horiz-adv-x="586" 
d="M253 -9c-60.667 0 -106.165 16.499 -136.498 49.499s-45.5 83.833 -45.5 152.5v311h101v-309c0 -42 8.66699 -73 26 -93s43.666 -30 78.999 -30c40 0 72.333 13.333 97 40s37 62 37 106v286h101v-504h-98v108h13c-14 -37.333 -36.333 -66.166 -67 -86.499
s-66.334 -30.5 -107.001 -30.5zM293.002 550.999c-31.333 0 -58.832 7.66699 -82.499 23s-42 37.333 -55 66s-20.5 62.667 -22.5 102l60 6c2.66699 -42.667 12.667 -75.5 30 -98.5s40.666 -34.5 69.999 -34.5s52.666 11.5 69.999 34.5s27.333 55.833 30 98.5l60 -6
c-1.33301 -39.333 -8.66602 -73.333 -21.999 -102s-31.833 -50.667 -55.5 -66s-51.167 -23 -82.5 -23z" />
    <glyph glyph-name="Uring" unicode="&#x16e;" horiz-adv-x="735" 
d="M369 -9c-65.333 0 -119.499 11 -162.499 33s-75 54.833 -96 98.5s-31.5 97.5 -31.5 161.5v421h104v-419c0 -68 14.833 -119.167 44.5 -153.5s76.834 -51.5 141.501 -51.5c61.333 0 107.666 17.167 138.999 51.5s47 85.5 47 153.5v419h102v-421
c0 -64 -10.833 -117.833 -32.5 -161.5s-53.834 -76.5 -96.501 -98.5s-95.667 -33 -159 -33zM369.001 756c-22.667 0 -43.334 5.5 -62.001 16.5s-33.334 25.5 -44.001 43.5s-16 38 -16 60c0 22.667 5.33301 42.834 16 60.501s25.334 31.667 44.001 42
s39.334 15.5 62.001 15.5c23.333 0 44.166 -5.16699 62.499 -15.5s32.833 -24.333 43.5 -42s16 -37.834 16 -60.501c0 -22 -5.33301 -42 -16 -60s-25.167 -32.5 -43.5 -43.5s-39.166 -16.5 -62.499 -16.5zM369.001 806c20.667 0 37.334 6.66699 50.001 20s19 30 19 50
c0 19.333 -6.33301 35.5 -19 48.5s-29.334 19.5 -50.001 19.5c-20 0 -36.5 -6.5 -49.5 -19.5s-19.5 -29.167 -19.5 -48.5c0 -20 6.5 -36.667 19.5 -50s29.5 -20 49.5 -20z" />
    <glyph glyph-name="uring" unicode="&#x16f;" horiz-adv-x="586" 
d="M253 -9c-60.667 0 -106.165 16.499 -136.498 49.499s-45.5 83.833 -45.5 152.5v311h101v-309c0 -42 8.66699 -73 26 -93s43.666 -30 78.999 -30c40 0 72.333 13.333 97 40s37 62 37 106v286h101v-504h-98v108h13c-14 -37.333 -36.333 -66.166 -67 -86.499
s-66.334 -30.5 -107.001 -30.5zM293.002 546.999c-22.667 0 -43.334 5.33301 -62.001 16s-33.334 25 -44.001 43s-16 38 -16 60c0 22.667 5.33301 42.834 16 60.501s25.334 31.834 44.001 42.501s39.334 16 62.001 16c23.333 0 44.166 -5.33301 62.499 -16
s32.833 -24.834 43.5 -42.501s16 -37.834 16 -60.501c0 -22 -5.33301 -42 -16 -60s-25.167 -32.333 -43.5 -43s-39.166 -16 -62.499 -16zM293.002 596.999c20.667 0 37.334 6.66797 50.001 20.001s19 29.666 19 48.999c0 20 -6.33301 36.5 -19 49.5
s-29.334 19.5 -50.001 19.5c-20 0 -36.5 -6.5 -49.5 -19.5s-19.5 -29.167 -19.5 -48.5c0 -20.667 6.5 -37.5 19.5 -50.5s29.5 -19.5 49.5 -19.5z" />
    <glyph glyph-name="Uhungarumlaut" unicode="&#x170;" horiz-adv-x="735" 
d="M369 -9c-65.333 0 -119.499 11 -162.499 33s-75 54.833 -96 98.5s-31.5 97.5 -31.5 161.5v421h104v-419c0 -68 14.833 -119.167 44.5 -153.5s76.834 -51.5 141.501 -51.5c61.333 0 107.666 17.167 138.999 51.5s47 85.5 47 153.5v419h102v-421
c0 -64 -10.833 -117.833 -32.5 -161.5s-53.834 -76.5 -96.501 -98.5s-95.667 -33 -159 -33zM272.001 765l85 173h96l-123 -173h-58zM408.001 765l92 173h95l-129 -173h-58z" />
    <glyph glyph-name="uhungarumlaut" unicode="&#x171;" horiz-adv-x="586" 
d="M253 -9c-60.667 0 -106.165 16.499 -136.498 49.499s-45.5 83.833 -45.5 152.5v311h101v-309c0 -42 8.66699 -73 26 -93s43.666 -30 78.999 -30c40 0 72.333 13.333 97 40s37 62 37 106v286h101v-504h-98v108h13c-14 -37.333 -36.333 -66.166 -67 -86.499
s-66.334 -30.5 -107.001 -30.5zM333.002 553.999l52 202h88l-85 -202h-55zM196.002 553.999l51 202h90l-86 -202h-55z" />
    <glyph glyph-name="Uogonek" unicode="&#x172;" horiz-adv-x="735" 
d="M369 -9c-65.333 0 -119.499 11 -162.499 33s-75 54.833 -96 98.5s-31.5 97.5 -31.5 161.5v421h104v-419c0 -68 14.833 -119.167 44.5 -153.5s76.834 -51.5 141.501 -51.5c61.333 0 107.666 17.167 138.999 51.5s47 85.5 47 153.5v419h102v-421
c0 -64 -10.833 -117.833 -32.5 -161.5s-53.834 -76.5 -96.501 -98.5s-95.667 -33 -159 -33zM431.001 -194c-34 0 -61.002 9.16797 -81.002 27.501s-30 42.833 -30 73.5c0 27.333 9 52.833 27 76.5s42 42.167 72 55.5l33 -39c-10.667 -4.66699 -21 -11 -31 -19
s-18 -17.333 -24 -28s-9 -22.334 -9 -35.001c0 -18 5.5 -31.5 16.5 -40.5s24.5 -13.5 40.5 -13.5c9.33301 0 18.333 1 27 3s17.667 5 27 9l15 -53c-11.333 -5.33301 -23.666 -9.5 -36.999 -12.5s-28.666 -4.5 -45.999 -4.5z" />
    <glyph glyph-name="uogonek" unicode="&#x173;" horiz-adv-x="586" 
d="M253 -9c-60.667 0 -106.165 16.499 -136.498 49.499s-45.5 83.833 -45.5 152.5v311h101v-309c0 -42 8.66699 -73 26 -93s43.666 -30 78.999 -30c40 0 72.333 13.333 97 40s37 62 37 106v286h101v-504h-98v108h13c-14 -37.333 -36.333 -66.166 -67 -86.499
s-66.334 -30.5 -107.001 -30.5zM470.002 -194.001c-34 0 -61.002 9.16797 -81.002 27.501s-30 42.833 -30 73.5c0 27.333 9 52.833 27 76.5s42 42.167 72 55.5l33 -39c-10.667 -4.66699 -21 -11 -31 -19s-18 -17.333 -24 -28s-9 -22.334 -9 -35.001
c0 -18 5.5 -31.5 16.5 -40.5s24.5 -13.5 40.5 -13.5c9.33301 0 18.333 1 27 3s17.667 5 27 9l15 -53c-11.333 -5.33301 -23.666 -9.5 -36.999 -12.5s-28.666 -4.5 -45.999 -4.5z" />
    <glyph glyph-name="Wcircumflex" unicode="&#x174;" horiz-adv-x="1116" 
d="M277 0l-247 705h108l205 -609h-37l217 609h79l204 -609h-34l212 609h102l-249 -705h-89l-198 580h21l-206 -580h-88zM390 765l123 173h90l123 -173h-72l-96 112l-96 -112h-72z" />
    <glyph glyph-name="wcircumflex" unicode="&#x175;" horiz-adv-x="875" 
d="M211 0l-191 504h105l149 -420h-26l153 420h78l152 -420h-25l149 420h101l-192 -504h-92l-158 428h47l-156 -428h-94zM282 553l110 202h92l110 -202h-67l-89 140l-89 -140h-67z" />
    <glyph glyph-name="Ycircumflex" unicode="&#x176;" horiz-adv-x="617" 
d="M256 0v331l23 -66l-297 440h120l221 -337h-25l221 337h116l-296 -440l21 66v-331h-104zM141 765l123 173h90l123 -173h-72l-96 112l-96 -112h-72z" />
    <glyph glyph-name="ycircumflex" unicode="&#x177;" horiz-adv-x="536" 
d="M59 -227l-24.001 82c31.333 6.66699 57.5 14.667 78.5 24s38.5 21.5 52.5 36.5s26 34.167 36 57.5l25 59l-2 -41l-219 513h108l170 -420h-27l170 420h104l-231 -540c-14.667 -33.333 -30.334 -61.333 -47.001 -84s-34.667 -41 -54 -55s-40.666 -25 -63.999 -33
s-48.666 -14.333 -75.999 -19zM111.999 553l110 202h92l110 -202h-67l-89 140l-89 -140h-67z" />
    <glyph glyph-name="Ydieresis" unicode="&#x178;" horiz-adv-x="617" 
d="M256 0v331l23 -66l-297 440h120l221 -337h-25l221 337h116l-296 -440l21 66v-331h-104zM350 799v99h99v-99h-99zM169 799v99h99v-99h-99z" />
    <glyph glyph-name="Zacute" unicode="&#x179;" horiz-adv-x="601" 
d="M44 0v76l412 577v-35h-412v87h511v-76l-413 -577v35h425v-87h-523zM269 765l118 173h109l-153 -173h-74z" />
    <glyph glyph-name="zacute" unicode="&#x17a;" horiz-adv-x="522" 
d="M49 0v67l328 384l1 -25h-329v78h421v-67l-331 -387l-1 27h343v-77h-432zM227 553l103 202h103l-136 -202h-70z" />
    <glyph glyph-name="Zdotaccent" unicode="&#x17b;" horiz-adv-x="601" 
d="M44 0v76l412 577v-35h-412v87h511v-76l-413 -577v35h425v-87h-523zM254 801v101h104v-101h-104z" />
    <glyph glyph-name="zdotaccent" unicode="&#x17c;" horiz-adv-x="522" 
d="M49 0v67l328 384l1 -25h-329v78h421v-67l-331 -387l-1 27h343v-77h-432zM209 603v101h106v-101h-106z" />
    <glyph glyph-name="Zcaron" unicode="&#x17d;" horiz-adv-x="601" 
d="M44 0v76l412 577v-35h-412v87h511v-76l-413 -577v35h425v-87h-523zM261 765l-123 173h72l96 -112l96 112h72l-123 -173h-90z" />
    <glyph glyph-name="zcaron" unicode="&#x17e;" horiz-adv-x="522" 
d="M49 0v67l328 384l1 -25h-329v78h421v-67l-331 -387l-1 27h343v-77h-432zM216 553l-110 202h67l89 -141l89 141h67l-110 -202h-92z" />
    <glyph glyph-name="uni0181" unicode="&#x181;" horiz-adv-x="826" 
d="M224 0v629h-31c-36.667 0 -63.667 -8.33301 -81 -25s-26 -42.667 -26 -78v-46h-87v50c0 58.667 16.667 102.5 50 131.5s84.333 43.5 153 43.5h316c75.333 0 133.5 -16 174.5 -48s61.5 -77 61.5 -135c0 -43.333 -13 -79.666 -39 -108.999s-61.333 -49 -106 -59v15
c51.333 -6.66699 91.333 -25.167 120 -55.5s43 -69.833 43 -118.5c0 -62.667 -21.167 -110.834 -63.5 -144.501s-101.833 -50.5 -178.5 -50.5h-306zM324 81h194.998c50.667 0 88.834 9.66699 114.501 29s38.5 49 38.5 89c0 26.667 -5.66699 48.667 -17 66
s-28.166 30.333 -50.499 39s-50.833 13 -85.5 13h-195v-236zM323.998 397l178 0.00195312c50 0 87.5 9.66699 112.5 29s37.5 47.666 37.5 84.999s-12.5 65.666 -37.5 84.999s-62.5 29 -112.5 29h-178v-228z" />
    <glyph glyph-name="uni018A" unicode="&#x18a;" horiz-adv-x="894" 
d="M224 0l-0.00195312 629h-31c-36.667 0 -63.667 -8.33301 -81 -25s-26 -42.667 -26 -78v-46h-87v50c0 58.667 16.5 102.5 49.5 131.5s82.167 43.5 147.5 43.5h272c78.667 0 145.334 -13.5 200.001 -40.5s96.334 -66.667 125.001 -119s43 -116.5 43 -192.5
c0 -114 -31.833 -201.333 -95.5 -262s-154.5 -91 -272.5 -91h-244zM326.998 87h134c90.667 0 158.334 22 203.001 66s67 110.667 67 200s-22.333 155.833 -67 199.5s-112.334 65.5 -203.001 65.5h-134v-531z" />
    <glyph glyph-name="uni018F" unicode="&#x18f;" horiz-adv-x="757" 
d="M377 -9c-74.667 0 -135.498 15.167 -182.498 45.5s-81.333 72.833 -103 127.5s-32.5 118.667 -32.5 192v40h554v-82h-476l26 39c0 -60 6.66699 -110.5 20 -151.5s35.5 -71.833 66.5 -92.5s72.167 -31 123.5 -31c70.667 0 125 23.667 163 71s57 115.666 57 204.999
c0 87.333 -20.5 154.166 -61.5 200.499s-102.833 69.5 -185.5 69.5c-30.667 0 -58.334 -2.5 -83.001 -7.5s-48 -13.333 -70 -25s-44.333 -26.5 -67 -44.5l-38 80c33.333 28.667 71.666 50.334 114.999 65.001s95 22 155 22c72 0 133.333 -14.333 184 -43
s89.5 -70 116.5 -124s40.5 -118.667 40.5 -194c0 -74 -13.167 -138.167 -39.5 -192.5s-63.5 -96.166 -111.5 -125.499s-105 -44 -171 -44z" />
    <glyph glyph-name="florin" unicode="&#x192;" horiz-adv-x="600" 
d="M37 -189l-0.00195312 81h52c26.667 0 48.5 7.33301 65.5 22s29.5 40 37.5 76l92 432l19 -12h-137v78h149l-20 -16l14 66c10.667 56.667 32.834 100.167 66.501 130.5s77.834 45.5 132.501 45.5h54v-82h-45c-30 0 -53.667 -7.16699 -71 -21.5s-30 -39.833 -38 -76.5
l-13 -62l-15 16h138v-78h-153l20 13l-94 -437c-12 -56 -34.167 -99.167 -66.5 -129.5s-75.5 -45.5 -129.5 -45.5h-58z" />
    <glyph glyph-name="Ohorn" unicode="&#x1a0;" horiz-adv-x="779" 
d="M59 353c0 74 12.998 138.001 38.998 192.001s63.833 95.667 113.5 125s108.834 44 177.501 44c68 0 126.667 -14.667 176 -44s87.5 -71 114.5 -125s40.5 -117.667 40.5 -191c0 -74 -13.5 -138.167 -40.5 -192.5s-65.333 -96.333 -115 -126s-108.167 -44.5 -175.5 -44.5
c-68.667 0 -127.667 14.833 -177 44.5s-87.166 71.667 -113.499 126s-39.5 118.166 -39.5 191.499zM167.998 353.001c0 -56.667 8.16504 -105.5 24.498 -146.5s41 -72.167 74 -93.5s73.833 -32 122.5 -32c70.667 0 125.334 23.833 164.001 71.5s58 114.5 58 200.5
c0 57.333 -8.5 106.333 -25.5 147s-42.167 71.5 -75.5 92.5s-73.666 31.5 -120.999 31.5c-72.667 0 -127.667 -23.667 -165 -71s-56 -114 -56 -200zM498.996 649.001l-47 60c16 -0.666992 30 -1.5 42 -2.5s23.667 -1.5 35 -1.5c26.667 0 47.5 3.5 62.5 10.5
s25.833 18.667 32.5 35s10 37.833 10 64.5v18h89v-32c0 -29.333 -6 -55.5 -18 -78.5s-28.667 -41 -50 -54s-46.333 -19.5 -75 -19.5h-81z" />
    <glyph glyph-name="ohorn" unicode="&#x1a1;" horiz-adv-x="581" 
d="M290 -9c-50 0 -93.333 10.5 -130 31.5s-65 51 -85 90s-30 85.5 -30 139.5s10 100.5 30 139.5s48.333 69 85 90s80 31.5 130 31.5s93.5 -10.5 130.5 -31.5s65.667 -51 86 -90s30.5 -85.5 30.5 -139.5s-10.167 -100.5 -30.5 -139.5s-49 -69 -86 -90
s-80.5 -31.5 -130.5 -31.5zM290 70c44 0 79 15.333 105 46s39 76 39 136s-13 105.167 -39 135.5s-61 45.5 -105 45.5c-43.333 0 -78 -15.167 -104 -45.5s-39 -75.5 -39 -135.5s13 -105.333 39 -136s60.667 -46 104 -46zM399 447l-56 36v21c26 0.666992 46.667 4.5 62 11.5
s26.333 18.5 33 34.5s10 37.333 10 64v18h88v-32c0 -29.333 -5.5 -55 -16.5 -77s-26.667 -39.667 -47 -53s-44.833 -21 -73.5 -23z" />
    <glyph glyph-name="Uhorn" unicode="&#x1af;" horiz-adv-x="735" 
d="M369 -9c-65.333 0 -119.499 11 -162.499 33s-75 54.833 -96 98.5s-31.5 97.5 -31.5 161.5v421h104v-419c0 -68 14.833 -119.167 44.5 -153.5s76.834 -51.5 141.501 -51.5c61.333 0 107.666 17.167 138.999 51.5s47 85.5 47 153.5v419h102v-421
c0 -64 -10.833 -117.833 -32.5 -161.5s-53.834 -76.5 -96.501 -98.5s-95.667 -33 -159 -33zM644.001 649l-54.999 35v21c26.667 0.666992 47.5 4.5 62.5 11.5s25.667 18.667 32 35s9.5 37.5 9.5 63.5v18h89v-32c0 -29.333 -5.5 -55 -16.5 -77s-26.833 -39.5 -47.5 -52.5
s-45.334 -20.5 -74.001 -22.5z" />
    <glyph glyph-name="uhorn" unicode="&#x1b0;" horiz-adv-x="586" 
d="M253 -9c-60.667 0 -106.165 16.499 -136.498 49.499s-45.5 83.833 -45.5 152.5v311h101v-309c0 -42 8.66699 -73 26 -93s43.666 -30 78.999 -30c40 0 72.333 13.333 97 40s37 62 37 106v286h101v-504h-98v108h13c-14 -37.333 -36.333 -66.166 -67 -86.499
s-66.334 -30.5 -107.001 -30.5zM489.002 446.999l-56 36v21c26 0.666992 46.667 4.5 62 11.5s26.333 18.5 33 34.5s10 37.333 10 64v18h88v-32c0 -29.333 -5.5 -55 -16.5 -77s-26.667 -39.667 -47 -53s-44.833 -21 -73.5 -23z" />
    <glyph glyph-name="uni01B3" unicode="&#x1b3;" horiz-adv-x="617" 
d="M256 0v364l23 -66l-297 407h120l221 -304h-24l160 227c14 20 29 36.333 45 49s33.667 22 53 28s40 9 62 9c12.667 0 24.5 -0.833008 35.5 -2.5s20.833 -4.5 29.5 -8.5v-74c-6.66699 2.66699 -14 4.66699 -22 6s-17 2 -27 2c-17.333 0 -33.5 -3.83301 -48.5 -11.5
s-28.833 -20.5 -41.5 -38.5l-206 -289l21 66v-364h-104z" />
    <glyph glyph-name="uni01B4" unicode="&#x1b4;" horiz-adv-x="579" 
d="M59 -227l-23.998 82c31.333 6.66699 57.5 14.667 78.5 24s38.5 21.5 52.5 36.5s26 34.167 36 57.5l25 59l-2 -41l-219 513h108l170 -420h-27l127 313c10.667 25.333 23.167 46.666 37.5 63.999s31.666 30.333 51.999 39s44.5 13 72.5 13
c13.333 0 25.666 -0.833008 36.999 -2.5s21.333 -4.16699 30 -7.5l-13 -77c-6.66699 2.66699 -13.334 4.33398 -20.001 5.00098s-13 1 -19 1c-21.333 0 -39.333 -5.5 -54 -16.5s-28.667 -31.833 -42 -62.5l-165 -389c-14.667 -33.333 -30.334 -61.333 -47.001 -84
s-34.667 -41 -54 -55s-40.666 -25 -63.999 -33s-48.666 -14.333 -75.999 -19z" />
    <glyph glyph-name="uni01C4" unicode="&#x1c4;" horiz-adv-x="1340" 
d="M83 0v705h244c79.333 0 146.5 -13.667 201.5 -41s96.667 -67.166 125 -119.499s42.5 -116.166 42.5 -191.499c0 -74.667 -14.167 -138.334 -42.5 -191.001s-70 -92.834 -125 -120.501s-122.167 -41.5 -201.5 -41.5h-244zM187 87h134c90.667 0 158.167 22 202.5 66
s66.5 110.667 66.5 200s-22.167 155.833 -66.5 199.5s-111.833 65.5 -202.5 65.5h-134v-531zM783 0v76l412 577v-35h-412v87h511v-76l-413 -577v35h425v-87h-523zM1000 765l-123 173h72l96 -112l96 112h72l-123 -173h-90z" />
    <glyph glyph-name="uni01C5" unicode="&#x1c5;" horiz-adv-x="1276" 
d="M83 0v705h244c79.333 0 146.5 -13.667 201.5 -41s96.667 -67.166 125 -119.499s42.5 -116.166 42.5 -191.499c0 -74.667 -14.167 -138.334 -42.5 -191.001s-70 -92.834 -125 -120.501s-122.167 -41.5 -201.5 -41.5h-244zM187 87h134c90.667 0 158.167 22 202.5 66
s66.5 110.667 66.5 200s-22.167 155.833 -66.5 199.5s-111.833 65.5 -202.5 65.5h-134v-531zM803 0v67l328 384l1 -25h-329v78h421v-67l-331 -387l-1 27h343v-77h-432zM970 553l-110 202h67l89 -141l89 141h67l-110 -202h-92z" />
    <glyph glyph-name="uni01C6" unicode="&#x1c6;" horiz-adv-x="1131" 
d="M267 -9c-44 0 -82.833 10.332 -116.5 30.999s-59.667 50.667 -78 90s-27.5 86 -27.5 140c0 54.667 9.16699 101.334 27.5 140.001s44.333 68.5 78 89.5s72.5 31.5 116.5 31.5c43.333 0 81.5 -10.833 114.5 -32.5s54.833 -51.167 65.5 -88.5h-12v344h101v-736h-100v114h12
c-11.333 -38 -33.333 -68 -66 -90s-71 -33 -115 -33zM292 69.999c43.333 0 78.333 15.333 105 46s40 76 40 136s-13.333 105.167 -40 135.5s-61.667 45.5 -105 45.5c-44 0 -79.167 -15.167 -105.5 -45.5s-39.5 -75.5 -39.5 -135.5s13.167 -105.333 39.5 -136
s61.5 -46 105.5 -46zM658 -0.000976562v67l328 384l1 -25h-329v78h421v-67l-331 -387l-1 27h343v-77h-432zM826 552.999l-110 202h67l89 -141l89 141h67l-110 -202h-92z" />
    <glyph glyph-name="uni01C7" unicode="&#x1c7;" horiz-adv-x="936" 
d="M83 0v705h104v-616h346v-89h-450zM676 -187c-10.667 0 -23.333 0.667969 -38 2.00098s-29.667 3.66602 -45 6.99902v84c12.667 -2.66699 24.667 -4.83398 36 -6.50098s21.333 -2.5 30 -2.5c30.667 0 53.334 9.33301 68.001 28s22 48.334 22 89.001v691h104v-692
c0 -44 -6.33301 -80.833 -19 -110.5s-31.834 -52 -57.501 -67s-59.167 -22.5 -100.5 -22.5z" />
    <glyph glyph-name="uni01C8" unicode="&#x1c8;" horiz-adv-x="800" 
d="M83 0v705h104v-616h346v-89h-450zM567 -221c-10.667 0 -23.166 1.00098 -37.499 3.00098s-26.833 5.33301 -37.5 10v82c8.66699 -2.66699 18.167 -5.16699 28.5 -7.5s20.166 -3.5 29.499 -3.5c26 0 45.833 8.16699 59.5 24.5s20.5 43.166 20.5 80.499v536h101v-543
c0 -60 -13.333 -105.333 -40 -136s-68 -46 -124 -46zM621.001 609.001v105h118v-105h-118z" />
    <glyph glyph-name="uni01C9" unicode="&#x1c9;" horiz-adv-x="496" 
d="M74 0v736h101v-736h-101zM264 -221c-10.667 0 -23.166 1.00098 -37.499 3.00098s-26.833 5.33301 -37.5 10v82c8.66699 -2.66699 18.167 -5.16699 28.5 -7.5s20.166 -3.5 29.499 -3.5c26 0 45.833 8.16699 59.5 24.5s20.5 43.166 20.5 80.499v536h101v-543
c0 -60 -13.333 -105.333 -40 -136s-68 -46 -124 -46zM318.001 609.001v105h118v-105h-118z" />
    <glyph glyph-name="uni01CA" unicode="&#x1ca;" horiz-adv-x="1094" 
d="M83 0v705h80l433 -568h-25v568h97v-705h-79l-432 568h23v-568h-97zM834 -187c-10.667 0 -23.333 0.667969 -38 2.00098s-29.667 3.66602 -45 6.99902v84c12.667 -2.66699 24.667 -4.83398 36 -6.50098s21.333 -2.5 30 -2.5c30.667 0 53.334 9.33301 68.001 28
s22 48.334 22 89.001v691h104v-692c0 -44 -6.33301 -80.833 -19 -110.5s-31.834 -52 -57.501 -67s-59.167 -22.5 -100.5 -22.5z" />
    <glyph glyph-name="uni01CB" unicode="&#x1cb;" horiz-adv-x="999" 
d="M83 0v705h80l433 -568h-25v568h97v-705h-79l-432 568h23v-568h-97zM765 -221c-10.667 0 -23.166 1.00098 -37.499 3.00098s-26.833 5.33301 -37.5 10v82c8.66699 -2.66699 18.167 -5.16699 28.5 -7.5s20.166 -3.5 29.499 -3.5c26 0 45.833 8.16699 59.5 24.5
s20.5 43.166 20.5 80.499v536h101v-543c0 -60 -13.333 -105.333 -40 -136s-68 -46 -124 -46zM819.001 609.001v105h118v-105h-118z" />
    <glyph glyph-name="uni01CC" unicode="&#x1cc;" horiz-adv-x="841" 
d="M74 0l0.000976562 383.001c0 19.333 -0.833008 39.166 -2.5 59.499s-3.5 40.833 -5.5 61.5h98l9 -106h-12c15.333 37.333 39 65.833 71 85.5s69 29.5 111 29.5c59.333 0 104.166 -16.333 134.499 -49s45.5 -83.334 45.5 -152.001v-312h-101v306
c0 44.667 -8.83301 76.834 -26.5 96.501s-44.5 29.5 -80.5 29.5c-42.667 0 -76.667 -13.167 -102 -39.5s-38 -61.833 -38 -106.5v-286h-101zM608.001 -220.999c-10.667 0 -23.166 1.00098 -37.499 3.00098s-26.833 5.33301 -37.5 10v82
c8.66699 -2.66699 18.167 -5.16699 28.5 -7.5s20.166 -3.5 29.499 -3.5c26 0 45.833 8.16699 59.5 24.5s20.5 43.166 20.5 80.499v536h101v-543c0 -60 -13.333 -105.333 -40 -136s-68 -46 -124 -46zM662.002 609.002v105h118v-105h-118z" />
    <glyph glyph-name="uni01CD" unicode="&#x1cd;" horiz-adv-x="742" 
d="M10 0l314 705h89l319 -705h-107l-87 200l44 -28h-427l47 28l-87 -200h-105zM367 591l-152 -359l-24 23h355l-20 -23l-155 359h-4zM324 765l-123 173h72l96 -112l96 112h72l-123 -173h-90z" />
    <glyph glyph-name="uni01CE" unicode="&#x1ce;" horiz-adv-x="609" 
d="M267 -9c-44.667 0 -83.668 10.3311 -117.001 30.998s-59.166 50.667 -77.499 90s-27.5 86 -27.5 140c0 54.667 9.16699 101.334 27.5 140.001s44.166 68.5 77.499 89.5s72.333 31.5 117 31.5c44 0 82.333 -11 115 -33s54.334 -52 65.001 -90h-11l10 114h98
c-2 -20.667 -3.83301 -41.167 -5.5 -61.5s-2.5 -40.166 -2.5 -59.499v-383h-101v112h11c-10.667 -37.333 -32.5 -66.833 -65.5 -88.5s-70.833 -32.5 -113.5 -32.5zM291.999 69.998c43.333 0 78.166 15.333 104.499 46s39.5 76 39.5 136s-13.167 105.167 -39.5 135.5
s-61.166 45.5 -104.499 45.5c-44 0 -79.167 -15.167 -105.5 -45.5s-39.5 -75.5 -39.5 -135.5s13 -105.333 39 -136s61.333 -46 106 -46zM252.999 552.998l-110 202h67l89 -141l89 141h67l-110 -202h-92z" />
    <glyph glyph-name="uni01D4" unicode="&#x1d4;" horiz-adv-x="586" 
d="M253 -9c-60.667 0 -106.165 16.499 -136.498 49.499s-45.5 83.833 -45.5 152.5v311h101v-309c0 -42 8.66699 -73 26 -93s43.666 -30 78.999 -30c40 0 72.333 13.333 97 40s37 62 37 106v286h101v-504h-98v108h13c-14 -37.333 -36.333 -66.166 -67 -86.499
s-66.334 -30.5 -107.001 -30.5zM247.002 553.999l-110 202h67l89 -141l89 141h67l-110 -202h-92z" />
    <glyph glyph-name="uni01E5" unicode="&#x1e5;" horiz-adv-x="613" 
d="M300 -223c-44.667 0 -85.5 5.16895 -122.5 15.502s-70.167 26.166 -99.5 47.499l25 75c19.333 -14 39.333 -25.667 60 -35s42 -16.333 64 -21s44.333 -7 67 -7c75.333 0 121.333 29 138 87l8 -10h-131v51h142l-13 -18c0.666992 5.33301 1.16699 10.333 1.5 15
s0.5 9.66699 0.5 15v155h10c-10.667 -36.667 -32.667 -65.5 -66 -86.5s-71.333 -31.5 -114 -31.5c-46 0 -85.833 9.83301 -119.5 29.5s-59.667 47.667 -78 84s-27.5 79.166 -27.5 128.499s9.16699 92.166 27.5 128.499s44.333 64.333 78 84s73.5 29.5 119.5 29.5
c42.667 0 80.5 -10.5 113.5 -31.5s54.833 -50.5 65.5 -88.5l-13 -1l10 112h98c-2 -20.667 -3.83301 -41.167 -5.5 -61.5s-2.5 -40.166 -2.5 -59.499l2 -372v-21c0 -7.33301 -0.666992 -14.333 -2 -21l-11 11h80v-51h-87l14 11c-11.333 -53.333 -36.5 -93.833 -75.5 -121.5
s-91.167 -41.5 -156.5 -41.5zM293 107.002c44.667 0 80 14.167 106 42.5s39 68.5 39 120.5s-13 92.167 -39 120.5s-61.333 42.5 -106 42.5s-80.167 -14.167 -106.5 -42.5s-39.5 -68.5 -39.5 -120.5s13.167 -92.167 39.5 -120.5s61.833 -42.5 106.5 -42.5z" />
    <glyph glyph-name="Gcaron" unicode="&#x1e6;" horiz-adv-x="735" 
d="M415 -9c-78 0 -143.499 14.499 -196.499 43.499s-92.833 70.5 -119.5 124.5s-40 118.333 -40 193s14.167 139 42.5 193s69 95.667 122 125s116.833 44 191.5 44c51.333 0 96 -7.16699 134 -21.5s72 -35.166 102 -62.499l-37 -81c-21.333 18 -42 32.333 -62 43
s-40.667 18.5 -62 23.5s-46.333 7.5 -75 7.5c-80.667 0 -142 -23.667 -184 -71s-63 -114.333 -63 -201c0 -88 20.167 -155 60.5 -201s103.833 -69 190.5 -69c30 0 59.667 2.83301 89 8.5s57.666 14.167 84.999 25.5l-20 -49v231h-174v78h261v-333
c-20 -10 -43.5 -18.833 -70.5 -26.5s-55.5 -13.667 -85.5 -18s-59.667 -6.5 -89 -6.5zM360.001 764.999l-123 173h72l96 -112l96 112h72l-123 -173h-90z" />
    <glyph glyph-name="gcaron" unicode="&#x1e7;" horiz-adv-x="612" 
d="M301 -224c-45.333 0 -86.5 5.33398 -123.5 16.001s-70.167 26.667 -99.5 48l25 74c20.667 -14 41 -25.167 61 -33.5s41 -14.5 63 -18.5s44.667 -6 68 -6c48 0 84.167 12.167 108.5 36.5s36.5 59.5 36.5 105.5v135h10c-10.667 -37.333 -32.5 -66.833 -65.5 -88.5
s-71.167 -32.5 -114.5 -32.5c-46 0 -85.833 10.167 -119.5 30.5s-59.667 49.333 -78 87s-27.5 82.167 -27.5 133.5s9.16699 95.666 27.5 132.999s44.333 66.166 78 86.499s73.5 30.5 119.5 30.5c44 0 82.167 -10.833 114.5 -32.5s53.833 -51.167 64.5 -88.5l-9 8l9 104h98
c-2.66699 -20.667 -4.66699 -41.167 -6 -61.5s-2 -40.166 -2 -59.499v-373c0 -76 -20.167 -134 -60.5 -174s-99.5 -60 -177.5 -60zM294 91.001c44 0 79.167 15 105.5 45s39.5 72.333 39.5 127s-13.167 96.667 -39.5 126s-61.5 44 -105.5 44
c-45.333 0 -81.166 -14.667 -107.499 -44s-39.5 -71.333 -39.5 -126s13.167 -97 39.5 -127s62.166 -45 107.499 -45zM264 553.001l-110 202h67l89 -141l89 141h67l-110 -202h-92z" />
    <glyph glyph-name="uni01E9" unicode="&#x1e9;" horiz-adv-x="532" 
d="M74 0v736h101v-452h2l220 220h125l-266 -265l1 45l287 -284h-128l-239 231h-2v-231h-101zM226 776l-123 173h72l96 -112l96 112h72l-123 -173h-90z" />
    <glyph glyph-name="uni01EA" unicode="&#x1ea;" horiz-adv-x="779" 
d="M59 353c0 74 12.998 138.001 38.998 192.001s63.833 95.667 113.5 125s108.834 44 177.501 44c68 0 126.667 -14.667 176 -44s87.5 -71 114.5 -125s40.5 -117.667 40.5 -191c0 -74 -13.5 -138.167 -40.5 -192.5s-65.333 -96.333 -115 -126s-108.167 -44.5 -175.5 -44.5
c-68.667 0 -127.667 14.833 -177 44.5s-87.166 71.667 -113.499 126s-39.5 118.166 -39.5 191.499zM167.998 353.001c0 -56.667 8.16504 -105.5 24.498 -146.5s41 -72.167 74 -93.5s73.833 -32 122.5 -32c70.667 0 125.334 23.833 164.001 71.5s58 114.5 58 200.5
c0 57.333 -8.5 106.333 -25.5 147s-42.167 71.5 -75.5 92.5s-73.666 31.5 -120.999 31.5c-72.667 0 -127.667 -23.667 -165 -71s-56 -114 -56 -200zM431.996 -193.999c-34 0 -61.002 9.16797 -81.002 27.501s-30 42.833 -30 73.5c0 27.333 9 52.833 27 76.5
s42 42.167 72 55.5l33 -39c-10.667 -4.66699 -21 -11 -31 -19s-18 -17.333 -24 -28s-9 -22.334 -9 -35.001c0 -18 5.5 -31.5 16.5 -40.5s24.5 -13.5 40.5 -13.5c9.33301 0 18.333 1 27 3s17.667 5 27 9l15 -53c-11.333 -5.33301 -23.666 -9.5 -36.999 -12.5
s-28.666 -4.5 -45.999 -4.5z" />
    <glyph glyph-name="uni01EB" unicode="&#x1eb;" horiz-adv-x="581" 
d="M290 -9c-50 0 -93.333 10.5 -130 31.5s-65 51 -85 90s-30 85.5 -30 139.5s10 100.5 30 139.5s48.333 69 85 90s80 31.5 130 31.5s93.5 -10.5 130.5 -31.5s65.667 -51 86 -90s30.5 -85.5 30.5 -139.5s-10.167 -100.5 -30.5 -139.5s-49 -69 -86 -90
s-80.5 -31.5 -130.5 -31.5zM290 70c44 0 79 15.333 105 46s39 76 39 136s-13 105.167 -39 135.5s-61 45.5 -105 45.5c-43.333 0 -78 -15.167 -104 -45.5s-39 -75.5 -39 -135.5s13 -105.333 39 -136s60.667 -46 104 -46zM326 -194c-34 0 -61.002 9.16797 -81.002 27.501
s-30 42.833 -30 73.5c0 27.333 9 52.833 27 76.5s42 42.167 72 55.5l33 -39c-10.667 -4.66699 -21 -11 -31 -19s-18 -17.333 -24 -28s-9 -22.334 -9 -35.001c0 -18 5.5 -31.5 16.5 -40.5s24.5 -13.5 40.5 -13.5c9.33301 0 18.333 1 27 3s17.667 5 27 9l15 -53
c-11.333 -5.33301 -23.666 -9.5 -36.999 -12.5s-28.666 -4.5 -45.999 -4.5z" />
    <glyph glyph-name="Aringacute" unicode="&#x1fa;" horiz-adv-x="742" 
d="M10 0l314 705h89l319 -705h-107l-87 200l44 -28h-427l47 28l-87 -200h-105zM367 591l-152 -359l-24 23h355l-20 -23l-155 359h-4zM369 756c-22 0 -42.001 5.16602 -60.001 15.499s-32.167 24.333 -42.5 42s-15.5 37.167 -15.5 58.5c0 22 5.16699 41.5 15.5 58.5
s24.5 30.667 42.5 41s38 15.5 60 15.5c12.667 0 24.334 -1.5 35.001 -4.5s20.667 -7.5 30 -13.5l68 63h89l-119 -102c10 -17.333 15 -36.666 15 -57.999s-5.16699 -40.833 -15.5 -58.5s-24.5 -31.667 -42.5 -42s-38 -15.5 -60 -15.5zM368.999 802.999
c20.667 0 37.334 6.66699 50.001 20s19 29.666 19 48.999c0 20 -6.33301 36.5 -19 49.5s-29.334 19.5 -50.001 19.5c-20 0 -36.5 -6.5 -49.5 -19.5s-19.5 -29.5 -19.5 -49.5c0 -19.333 6.5 -35.666 19.5 -48.999s29.5 -20 49.5 -20z" />
    <glyph glyph-name="aringacute" unicode="&#x1fb;" horiz-adv-x="609" 
d="M267 -9c-44.667 0 -83.668 10.3311 -117.001 30.998s-59.166 50.667 -77.499 90s-27.5 86 -27.5 140c0 54.667 9.16699 101.334 27.5 140.001s44.166 68.5 77.499 89.5s72.333 31.5 117 31.5c44 0 82.333 -11 115 -33s54.334 -52 65.001 -90h-11l10 114h98
c-2 -20.667 -3.83301 -41.167 -5.5 -61.5s-2.5 -40.166 -2.5 -59.499v-383h-101v112h11c-10.667 -37.333 -32.5 -66.833 -65.5 -88.5s-70.833 -32.5 -113.5 -32.5zM291.999 69.998c43.333 0 78.166 15.333 104.499 46s39.5 76 39.5 136s-13.167 105.167 -39.5 135.5
s-61.166 45.5 -104.499 45.5c-44 0 -79.167 -15.167 -105.5 -45.5s-39.5 -75.5 -39.5 -135.5s13 -105.333 39 -136s61.333 -46 106 -46zM298.999 542.998c-22 0 -42.001 5 -60.001 15s-32.167 23.833 -42.5 41.5s-15.5 37.167 -15.5 58.5s5.16699 40.833 15.5 58.5
s24.5 31.5 42.5 41.5s38 15 60 15c12.667 0 24.334 -1.66699 35.001 -5s20.667 -8 30 -14l68 63h89l-119 -101c10 -18 15 -37.333 15 -58c0 -21.333 -5.16699 -40.833 -15.5 -58.5s-24.5 -31.5 -42.5 -41.5s-38 -15 -60 -15zM298.998 588.998
c20.667 0 37.334 6.5 50.001 19.5s19 29.5 19 49.5s-6.33301 36.333 -19 49s-29.334 19 -50.001 19c-20 0 -36.5 -6.33301 -49.5 -19s-19.5 -29 -19.5 -49s6.5 -36.5 19.5 -49.5s29.5 -19.5 49.5 -19.5z" />
    <glyph glyph-name="AEacute" unicode="&#x1fc;" horiz-adv-x="1011" 
d="M-10 0l435 705h540v-83h-390l23 22l23 -272l-17 28h339v-84h-334l16 10l24 -268l-14 26h330v-84h-407l-17 195l27 -23h-377l33 28l-121 -200h-113zM476 621l-234 -390l-9 25h315l-9 -27l-35 392h-28zM481 765l118 173h109l-153 -173h-74z" />
    <glyph glyph-name="aeacute" unicode="&#x1fd;" horiz-adv-x="877" 
d="M237 -9c-36.667 0 -68.8291 6.99902 -96.4961 20.999s-49.167 32.833 -64.5 56.5s-23 49.834 -23 78.501c0 38.667 8.83301 69.167 26.5 91.5s47.667 38.166 90 47.499s99.833 14 172.5 14h51v-58h-51c-50 0 -89.333 -2.66699 -118 -8s-48.834 -14.666 -60.501 -27.999
s-17.5 -31.333 -17.5 -54c0 -26 9.33301 -47.333 28 -64s44 -25 76 -25c26 0 48.833 5.83301 68.5 17.5s35.167 28.167 46.5 49.5s17 46.333 17 75v120c0 38.667 -8.83301 66.5 -26.5 83.5s-45.167 25.5 -82.5 25.5c-30 0 -58.333 -3.83301 -85 -11.5
s-54.334 -20.167 -83.001 -37.5l-31 71c17.333 12 37 22.167 59 30.5s45.167 14.833 69.5 19.5s48.833 7 73.5 7c50.667 0 90.834 -9.83301 120.501 -29.5s49.834 -48.834 60.501 -87.501h-28c20.667 38 47.167 67 79.5 87s70.5 30 114.5 30c43.333 0 81 -9.66699 113 -29
s56.5 -47 73.5 -83s25.5 -79 25.5 -129v-30h-368v58h299l-17 -15c0 49.333 -11 87.666 -33 114.999s-53.667 41 -95 41c-29.333 0 -54.5 -6.5 -75.5 -19.5s-37.333 -32.333 -49 -58s-17.5 -57.5 -17.5 -95.5v-7c0 -62 13.667 -109.333 41 -142s67.666 -49 120.999 -49
c28 0 55 4.33301 81 13s50.667 22.667 74 42l33 -70c-23.333 -20.667 -52 -36.5 -86 -47.5s-69 -16.5 -105 -16.5c-58.667 0 -107.334 12.833 -146.001 38.5s-66 62.834 -82 111.501h23c-10.667 -47.333 -33.334 -84.166 -68.001 -110.499s-77.334 -39.5 -128.001 -39.5z
M400.005 552.999l103 202h103l-136 -202h-70z" />
    <glyph glyph-name="Oslashacute" unicode="&#x1fe;" horiz-adv-x="779" 
d="M59 353c0 74 12.998 138.001 38.998 192.001s63.833 95.667 113.5 125s108.834 44 177.501 44c68 0 126.667 -14.667 176 -44s87.5 -71 114.5 -125s40.5 -117.667 40.5 -191c0 -74 -13.5 -138.167 -40.5 -192.5s-65.333 -96.333 -115 -126s-108.167 -44.5 -175.5 -44.5
c-68.667 0 -127.667 14.833 -177 44.5s-87.166 71.667 -113.499 126s-39.5 118.166 -39.5 191.499zM167.998 353.001c0 -56.667 8.16504 -105.5 24.498 -146.5s41 -72.167 74 -93.5s73.833 -32 122.5 -32c70.667 0 125.334 23.833 164.001 71.5s58 114.5 58 200.5
c0 57.333 -8.5 106.333 -25.5 147s-42.167 71.5 -75.5 92.5s-73.666 31.5 -120.999 31.5c-72.667 0 -127.667 -23.667 -165 -71s-56 -114 -56 -200zM260.996 47.001l-58 -100l-69 40l58 101l33 44l282 482l18 44l58 100l69 -40l-58 -101l-33 -44l-282 -482zM351.996 765.001
l118 173h109l-153 -173h-74z" />
    <glyph glyph-name="oslashacute" unicode="&#x1ff;" horiz-adv-x="581" 
d="M290 -9c-50 0 -93.333 10.5 -130 31.5s-65 51 -85 90s-30 85.5 -30 139.5s10 100.5 30 139.5s48.333 69 85 90s80 31.5 130 31.5s93.5 -10.5 130.5 -31.5s65.667 -51 86 -90s30.5 -85.5 30.5 -139.5s-10.167 -100.5 -30.5 -139.5s-49 -69 -86 -90
s-80.5 -31.5 -130.5 -31.5zM290 70c48 0 85.167 15.833 111.5 47.5s39.5 76.5 39.5 134.5c0 58.667 -13.167 103.5 -39.5 134.5s-63.5 46.5 -111.5 46.5c-47.333 0 -84.166 -15.5 -110.499 -46.5s-39.5 -75.833 -39.5 -134.5c0 -58 13.167 -102.833 39.5 -134.5
s63.166 -47.5 110.499 -47.5zM153 -44l-50 31l326 561l51 -31zM256 553l103 202h103l-136 -202h-70z" />
    <glyph glyph-name="uni0200" unicode="&#x200;" horiz-adv-x="742" 
d="M10 0l314 705h89l319 -705h-107l-87 200l44 -28h-427l47 28l-87 -200h-105zM367 591l-152 -359l-24 23h355l-20 -23l-155 359h-4zM408 765l-123 173h96l85 -173h-58zM272 765l-129 173h95l92 -173h-58z" />
    <glyph glyph-name="uni0201" unicode="&#x201;" horiz-adv-x="609" 
d="M267 -9c-44.667 0 -83.668 10.3311 -117.001 30.998s-59.166 50.667 -77.499 90s-27.5 86 -27.5 140c0 54.667 9.16699 101.334 27.5 140.001s44.166 68.5 77.499 89.5s72.333 31.5 117 31.5c44 0 82.333 -11 115 -33s54.334 -52 65.001 -90h-11l10 114h98
c-2 -20.667 -3.83301 -41.167 -5.5 -61.5s-2.5 -40.166 -2.5 -59.499v-383h-101v112h11c-10.667 -37.333 -32.5 -66.833 -65.5 -88.5s-70.833 -32.5 -113.5 -32.5zM291.999 69.998c43.333 0 78.166 15.333 104.499 46s39.5 76 39.5 136s-13.167 105.167 -39.5 135.5
s-61.166 45.5 -104.499 45.5c-44 0 -79.167 -15.167 -105.5 -45.5s-39.5 -75.5 -39.5 -135.5s13 -105.333 39 -136s61.333 -46 106 -46zM340.999 552.998l-86 202h90l51 -202h-55zM203.999 552.998l-85 202h88l52 -202h-55z" />
    <glyph glyph-name="uni0202" unicode="&#x202;" horiz-adv-x="742" 
d="M10 0l314 705h89l319 -705h-107l-87 200l44 -28h-427l47 28l-87 -200h-105zM367 591l-152 -359l-24 23h355l-20 -23l-155 359h-4zM254 760l-60 8c4 52 21.833 93.167 53.5 123.5s72.167 45.5 121.5 45.5c32.667 0 61.834 -6.83301 87.501 -20.5s46 -33.167 61 -58.5
s23.833 -55.333 26.5 -90l-60 -8c-2.66699 36 -14.334 64 -35.001 84s-47.667 30 -81 30c-32.667 0 -59 -10 -79 -30s-31.667 -48 -35 -84z" />
    <glyph glyph-name="uni0203" unicode="&#x203;" horiz-adv-x="609" 
d="M267 -9c-44.667 0 -83.668 10.3311 -117.001 30.998s-59.166 50.667 -77.499 90s-27.5 86 -27.5 140c0 54.667 9.16699 101.334 27.5 140.001s44.166 68.5 77.499 89.5s72.333 31.5 117 31.5c44 0 82.333 -11 115 -33s54.334 -52 65.001 -90h-11l10 114h98
c-2 -20.667 -3.83301 -41.167 -5.5 -61.5s-2.5 -40.166 -2.5 -59.499v-383h-101v112h11c-10.667 -37.333 -32.5 -66.833 -65.5 -88.5s-70.833 -32.5 -113.5 -32.5zM291.999 69.998c43.333 0 78.166 15.333 104.499 46s39.5 76 39.5 136s-13.167 105.167 -39.5 135.5
s-61.166 45.5 -104.499 45.5c-44 0 -79.167 -15.167 -105.5 -45.5s-39.5 -75.5 -39.5 -135.5s13 -105.333 39 -136s61.333 -46 106 -46zM198.999 545.998l-60.001 5c2 40 9.5 74.333 22.5 103s31.333 50.667 55 66s51.167 23 82.5 23s58.833 -7.66699 82.5 -23
s42.167 -37.333 55.5 -66s20.666 -63 21.999 -103l-60 -5c-2.66699 42 -12.667 74.667 -30 98s-40.666 35 -69.999 35s-52.666 -11.667 -69.999 -35s-27.333 -56 -30 -98z" />
    <glyph glyph-name="uni0204" unicode="&#x204;" horiz-adv-x="591" 
d="M83 0v705h462v-83h-361v-222h338v-84h-338v-232h361v-84h-462zM369 765l-123 173h96l85 -173h-58zM233 765l-129 173h95l92 -173h-58z" />
    <glyph glyph-name="uni0205" unicode="&#x205;" horiz-adv-x="546" 
d="M307 -9c-54.667 0 -101.501 10.333 -140.501 31s-69 50.5 -90 89.5s-31.5 85.5 -31.5 139.5c0 52.667 10.167 98.667 30.5 138s48.666 69.833 84.999 91.5s78.5 32.5 126.5 32.5c47.333 0 87 -10 119 -30s56.333 -48.167 73 -84.5s25 -79.166 25 -128.499v-32h-380v58
h311l-17 -13c0 50 -11.167 88.833 -33.5 116.5s-54.5 41.5 -96.5 41.5c-31.333 0 -57.833 -7.33301 -79.5 -22s-38.167 -35.5 -49.5 -62.5s-17 -59.5 -17 -97.5v-10c0 -59.333 14.5 -104 43.5 -134s70.167 -45 123.5 -45c29.333 0 56.833 4.16699 82.5 12.5
s50.167 22.166 73.5 41.499l33 -69c-23.333 -20.667 -51.666 -36.5 -84.999 -47.5s-68.666 -16.5 -105.999 -16.5zM328.999 553l-86 202h90l51 -202h-55zM191.999 553l-85 202h88l52 -202h-55z" />
    <glyph glyph-name="uni0206" unicode="&#x206;" horiz-adv-x="591" 
d="M83 0v705h462v-83h-361v-222h338v-84h-338v-232h361v-84h-462zM215 760l-60 8c4 52 21.833 93.167 53.5 123.5s72.167 45.5 121.5 45.5c32.667 0 61.834 -6.83301 87.501 -20.5s46 -33.167 61 -58.5s23.833 -55.333 26.5 -90l-60 -8c-2.66699 36 -14.334 64 -35.001 84
s-47.667 30 -81 30c-32.667 0 -59 -10 -79 -30s-31.667 -48 -35 -84z" />
    <glyph glyph-name="uni0207" unicode="&#x207;" horiz-adv-x="546" 
d="M307 -9c-54.667 0 -101.501 10.333 -140.501 31s-69 50.5 -90 89.5s-31.5 85.5 -31.5 139.5c0 52.667 10.167 98.667 30.5 138s48.666 69.833 84.999 91.5s78.5 32.5 126.5 32.5c47.333 0 87 -10 119 -30s56.333 -48.167 73 -84.5s25 -79.166 25 -128.499v-32h-380v58
h311l-17 -13c0 50 -11.167 88.833 -33.5 116.5s-54.5 41.5 -96.5 41.5c-31.333 0 -57.833 -7.33301 -79.5 -22s-38.167 -35.5 -49.5 -62.5s-17 -59.5 -17 -97.5v-10c0 -59.333 14.5 -104 43.5 -134s70.167 -45 123.5 -45c29.333 0 56.833 4.16699 82.5 12.5
s50.167 22.166 73.5 41.499l33 -69c-23.333 -20.667 -51.666 -36.5 -84.999 -47.5s-68.666 -16.5 -105.999 -16.5zM186.999 546l-60.001 5c2 40 9.5 74.333 22.5 103s31.333 50.667 55 66s51.167 23 82.5 23s58.833 -7.66699 82.5 -23s42.167 -37.333 55.5 -66
s20.666 -63 21.999 -103l-60 -5c-2.66699 42 -12.667 74.667 -30 98s-40.666 35 -69.999 35s-52.666 -11.667 -69.999 -35s-27.333 -56 -30 -98z" />
    <glyph glyph-name="uni0208" unicode="&#x208;" horiz-adv-x="270" 
d="M83 0v705h104v-705h-104zM174 765l-123 173h96l85 -173h-58zM38 765l-129 173h95l92 -173h-58z" />
    <glyph glyph-name="uni0209" unicode="&#x209;" horiz-adv-x="249" 
d="M74 0v504h101v-504h-101zM167 553l-86 202h90l51 -202h-55zM30 553l-85 202h88l52 -202h-55z" />
    <glyph glyph-name="uni020A" unicode="&#x20a;" horiz-adv-x="270" 
d="M83 0v705h104v-705h-104zM20 760l-60 8c4 52 21.833 93.167 53.5 123.5s72.167 45.5 121.5 45.5c32.667 0 61.834 -6.83301 87.501 -20.5s46 -33.167 61 -58.5s23.833 -55.333 26.5 -90l-60 -8c-2.66699 36 -14.334 64 -35.001 84s-47.667 30 -81 30
c-32.667 0 -59 -10 -79 -30s-31.667 -48 -35 -84z" />
    <glyph glyph-name="uni020B" unicode="&#x20b;" horiz-adv-x="249" 
d="M74 0v504h101v-504h-101zM25 546l-60.001 5c2 40 9.5 74.333 22.5 103s31.333 50.667 55 66s51.167 23 82.5 23s58.833 -7.66699 82.5 -23s42.167 -37.333 55.5 -66s20.666 -63 21.999 -103l-60 -5c-2.66699 42 -12.667 74.667 -30 98s-40.666 35 -69.999 35
s-52.666 -11.667 -69.999 -35s-27.333 -56 -30 -98z" />
    <glyph glyph-name="uni020C" unicode="&#x20c;" horiz-adv-x="779" 
d="M59 353c0 74 12.998 138.001 38.998 192.001s63.833 95.667 113.5 125s108.834 44 177.501 44c68 0 126.667 -14.667 176 -44s87.5 -71 114.5 -125s40.5 -117.667 40.5 -191c0 -74 -13.5 -138.167 -40.5 -192.5s-65.333 -96.333 -115 -126s-108.167 -44.5 -175.5 -44.5
c-68.667 0 -127.667 14.833 -177 44.5s-87.166 71.667 -113.499 126s-39.5 118.166 -39.5 191.499zM167.998 353.001c0 -56.667 8.16504 -105.5 24.498 -146.5s41 -72.167 74 -93.5s73.833 -32 122.5 -32c70.667 0 125.334 23.833 164.001 71.5s58 114.5 58 200.5
c0 57.333 -8.5 106.333 -25.5 147s-42.167 71.5 -75.5 92.5s-73.666 31.5 -120.999 31.5c-72.667 0 -127.667 -23.667 -165 -71s-56 -114 -56 -200zM427.996 765.001l-123 173h96l85 -173h-58zM291.996 765.001l-129 173h95l92 -173h-58z" />
    <glyph glyph-name="uni020D" unicode="&#x20d;" horiz-adv-x="581" 
d="M290 -9c-50 0 -93.333 10.5 -130 31.5s-65 51 -85 90s-30 85.5 -30 139.5s10 100.5 30 139.5s48.333 69 85 90s80 31.5 130 31.5s93.5 -10.5 130.5 -31.5s65.667 -51 86 -90s30.5 -85.5 30.5 -139.5s-10.167 -100.5 -30.5 -139.5s-49 -69 -86 -90
s-80.5 -31.5 -130.5 -31.5zM290 70c44 0 79 15.333 105 46s39 76 39 136s-13 105.167 -39 135.5s-61 45.5 -105 45.5c-43.333 0 -78 -15.167 -104 -45.5s-39 -75.5 -39 -135.5s13 -105.333 39 -136s60.667 -46 104 -46zM333 553l-86 202h90l51 -202h-55zM196 553l-85 202h88
l52 -202h-55z" />
    <glyph glyph-name="uni020E" unicode="&#x20e;" horiz-adv-x="779" 
d="M59 353c0 74 12.998 138.001 38.998 192.001s63.833 95.667 113.5 125s108.834 44 177.501 44c68 0 126.667 -14.667 176 -44s87.5 -71 114.5 -125s40.5 -117.667 40.5 -191c0 -74 -13.5 -138.167 -40.5 -192.5s-65.333 -96.333 -115 -126s-108.167 -44.5 -175.5 -44.5
c-68.667 0 -127.667 14.833 -177 44.5s-87.166 71.667 -113.499 126s-39.5 118.166 -39.5 191.499zM167.998 353.001c0 -56.667 8.16504 -105.5 24.498 -146.5s41 -72.167 74 -93.5s73.833 -32 122.5 -32c70.667 0 125.334 23.833 164.001 71.5s58 114.5 58 200.5
c0 57.333 -8.5 106.333 -25.5 147s-42.167 71.5 -75.5 92.5s-73.666 31.5 -120.999 31.5c-72.667 0 -127.667 -23.667 -165 -71s-56 -114 -56 -200zM273.996 760.001l-60 8c4 52 21.833 93.167 53.5 123.5s72.167 45.5 121.5 45.5c32.667 0 61.834 -6.83301 87.501 -20.5
s46 -33.167 61 -58.5s23.833 -55.333 26.5 -90l-60 -8c-2.66699 36 -14.334 64 -35.001 84s-47.667 30 -81 30c-32.667 0 -59 -10 -79 -30s-31.667 -48 -35 -84z" />
    <glyph glyph-name="uni020F" unicode="&#x20f;" horiz-adv-x="581" 
d="M290 -9c-50 0 -93.333 10.5 -130 31.5s-65 51 -85 90s-30 85.5 -30 139.5s10 100.5 30 139.5s48.333 69 85 90s80 31.5 130 31.5s93.5 -10.5 130.5 -31.5s65.667 -51 86 -90s30.5 -85.5 30.5 -139.5s-10.167 -100.5 -30.5 -139.5s-49 -69 -86 -90
s-80.5 -31.5 -130.5 -31.5zM290 70c44 0 79 15.333 105 46s39 76 39 136s-13 105.167 -39 135.5s-61 45.5 -105 45.5c-43.333 0 -78 -15.167 -104 -45.5s-39 -75.5 -39 -135.5s13 -105.333 39 -136s60.667 -46 104 -46zM191 546l-60.001 5c2 40 9.5 74.333 22.5 103
s31.333 50.667 55 66s51.167 23 82.5 23s58.833 -7.66699 82.5 -23s42.167 -37.333 55.5 -66s20.666 -63 21.999 -103l-60 -5c-2.66699 42 -12.667 74.667 -30 98s-40.666 35 -69.999 35s-52.666 -11.667 -69.999 -35s-27.333 -56 -30 -98z" />
    <glyph glyph-name="uni0210" unicode="&#x210;" horiz-adv-x="697" 
d="M83 0l0.000976562 705h298c75.333 0 133.666 -17.833 174.999 -53.5s62 -85.5 62 -149.5c0 -42 -9.33301 -78 -28 -108s-45 -52.833 -79 -68.5s-74 -23.5 -120 -23.5l16 16h27c27.333 0 51.833 -7 73.5 -21s39.5 -36.333 53.5 -67l101 -230h-114l-100 231
c-10 27.333 -25.5 45 -46.5 53s-46.833 12 -77.5 12h-137v-296h-104zM187.001 375l177 -0.000976562c50 0 87.833 10.667 113.5 32s38.5 52 38.5 92c0 40.667 -12.833 71.334 -38.5 92.001s-63.5 31 -113.5 31h-177v-247zM388.001 764.999l-123 173h96l85 -173h-58z
M252.001 764.999l-129 173h95l92 -173h-58z" />
    <glyph glyph-name="uni0211" unicode="&#x211;" horiz-adv-x="377" 
d="M72 0l0.000976562 379c0 20.667 -0.5 41.5 -1.5 62.5s-2.5 41.833 -4.5 62.5h98l11 -130h-16c6.66699 31.333 18 57.333 34 78s35.5 36 58.5 46s47.167 15 72.5 15c10.667 0 19.667 -0.5 27 -1.5s14.666 -2.5 21.999 -4.5l-1 -90
c-11.333 4.66699 -21.166 7.5 -29.499 8.5s-18.5 1.5 -30.5 1.5c-29.333 0 -54.333 -6.5 -75 -19.5s-36.334 -30.5 -47.001 -52.5s-16 -45.667 -16 -71v-284h-102zM272.001 553l-86 202h90l51 -202h-55zM135.001 553l-85 202h88l52 -202h-55z" />
    <glyph glyph-name="uni0212" unicode="&#x212;" horiz-adv-x="697" 
d="M83 0l0.000976562 705h298c75.333 0 133.666 -17.833 174.999 -53.5s62 -85.5 62 -149.5c0 -42 -9.33301 -78 -28 -108s-45 -52.833 -79 -68.5s-74 -23.5 -120 -23.5l16 16h27c27.333 0 51.833 -7 73.5 -21s39.5 -36.333 53.5 -67l101 -230h-114l-100 231
c-10 27.333 -25.5 45 -46.5 53s-46.833 12 -77.5 12h-137v-296h-104zM187.001 375l177 -0.000976562c50 0 87.833 10.667 113.5 32s38.5 52 38.5 92c0 40.667 -12.833 71.334 -38.5 92.001s-63.5 31 -113.5 31h-177v-247zM234.001 759.999l-60 8
c4 52 21.833 93.167 53.5 123.5s72.167 45.5 121.5 45.5c32.667 0 61.834 -6.83301 87.501 -20.5s46 -33.167 61 -58.5s23.833 -55.333 26.5 -90l-60 -8c-2.66699 36 -14.334 64 -35.001 84s-47.667 30 -81 30c-32.667 0 -59 -10 -79 -30s-31.667 -48 -35 -84z" />
    <glyph glyph-name="uni0213" unicode="&#x213;" horiz-adv-x="377" 
d="M72 0l0.000976562 379c0 20.667 -0.5 41.5 -1.5 62.5s-2.5 41.833 -4.5 62.5h98l11 -130h-16c6.66699 31.333 18 57.333 34 78s35.5 36 58.5 46s47.167 15 72.5 15c10.667 0 19.667 -0.5 27 -1.5s14.666 -2.5 21.999 -4.5l-1 -90
c-11.333 4.66699 -21.166 7.5 -29.499 8.5s-18.5 1.5 -30.5 1.5c-29.333 0 -54.333 -6.5 -75 -19.5s-36.334 -30.5 -47.001 -52.5s-16 -45.667 -16 -71v-284h-102zM130.001 546l-60.001 5c2 40 9.5 74.333 22.5 103s31.333 50.667 55 66s51.167 23 82.5 23
s58.833 -7.66699 82.5 -23s42.167 -37.333 55.5 -66s20.666 -63 21.999 -103l-60 -5c-2.66699 42 -12.667 74.667 -30 98s-40.666 35 -69.999 35s-52.666 -11.667 -69.999 -35s-27.333 -56 -30 -98z" />
    <glyph glyph-name="uni0214" unicode="&#x214;" horiz-adv-x="735" 
d="M369 -9c-65.333 0 -119.499 11 -162.499 33s-75 54.833 -96 98.5s-31.5 97.5 -31.5 161.5v421h104v-419c0 -68 14.833 -119.167 44.5 -153.5s76.834 -51.5 141.501 -51.5c61.333 0 107.666 17.167 138.999 51.5s47 85.5 47 153.5v419h102v-421
c0 -64 -10.833 -117.833 -32.5 -161.5s-53.834 -76.5 -96.501 -98.5s-95.667 -33 -159 -33zM408.001 765l-123 173h96l85 -173h-58zM272.001 765l-129 173h95l92 -173h-58z" />
    <glyph glyph-name="uni0215" unicode="&#x215;" horiz-adv-x="586" 
d="M253 -9c-60.667 0 -106.165 16.499 -136.498 49.499s-45.5 83.833 -45.5 152.5v311h101v-309c0 -42 8.66699 -73 26 -93s43.666 -30 78.999 -30c40 0 72.333 13.333 97 40s37 62 37 106v286h101v-504h-98v108h13c-14 -37.333 -36.333 -66.166 -67 -86.499
s-66.334 -30.5 -107.001 -30.5zM335.002 553.999l-86 202h90l51 -202h-55zM198.002 553.999l-85 202h88l52 -202h-55z" />
    <glyph glyph-name="uni0216" unicode="&#x216;" horiz-adv-x="735" 
d="M369 -9c-65.333 0 -119.499 11 -162.499 33s-75 54.833 -96 98.5s-31.5 97.5 -31.5 161.5v421h104v-419c0 -68 14.833 -119.167 44.5 -153.5s76.834 -51.5 141.501 -51.5c61.333 0 107.666 17.167 138.999 51.5s47 85.5 47 153.5v419h102v-421
c0 -64 -10.833 -117.833 -32.5 -161.5s-53.834 -76.5 -96.501 -98.5s-95.667 -33 -159 -33zM254.001 760l-60 8c4 52 21.833 93.167 53.5 123.5s72.167 45.5 121.5 45.5c32.667 0 61.834 -6.83301 87.501 -20.5s46 -33.167 61 -58.5s23.833 -55.333 26.5 -90l-60 -8
c-2.66699 36 -14.334 64 -35.001 84s-47.667 30 -81 30c-32.667 0 -59 -10 -79 -30s-31.667 -48 -35 -84z" />
    <glyph glyph-name="uni0217" unicode="&#x217;" horiz-adv-x="586" 
d="M253 -9c-60.667 0 -106.165 16.499 -136.498 49.499s-45.5 83.833 -45.5 152.5v311h101v-309c0 -42 8.66699 -73 26 -93s43.666 -30 78.999 -30c40 0 72.333 13.333 97 40s37 62 37 106v286h101v-504h-98v108h13c-14 -37.333 -36.333 -66.166 -67 -86.499
s-66.334 -30.5 -107.001 -30.5zM193.002 546.999l-60.001 5c2 40 9.5 74.333 22.5 103s31.333 50.667 55 66s51.167 23 82.5 23s58.833 -7.66699 82.5 -23s42.167 -37.333 55.5 -66s20.666 -63 21.999 -103l-60 -5c-2.66699 42 -12.667 74.667 -30 98s-40.666 35 -69.999 35
s-52.666 -11.667 -69.999 -35s-27.333 -56 -30 -98z" />
    <glyph glyph-name="uni0218" unicode="&#x218;" horiz-adv-x="633" 
d="M321 -9c-56.667 0 -108 7.16992 -154 21.5029s-86 34.833 -120 61.5l35 82c22.667 -17.333 46.167 -31.666 70.5 -42.999s50.333 -19.833 78 -25.5s57.834 -8.5 90.501 -8.5c56 0 97.167 10 123.5 30s39.5 46.333 39.5 79c0 28 -9.16699 49.667 -27.5 65
s-50.5 27.666 -96.5 36.999l-109 22c-64.667 13.333 -112.834 35.166 -144.501 65.499s-47.5 71.833 -47.5 124.5c0 42.667 11.333 80 34 112s54.167 56.667 94.5 74s87.5 26 141.5 26c50 0 96 -7.16699 138 -21.5s77.333 -35.5 106 -63.5l-34 -79
c-30 26 -62 45.167 -96 57.5s-72.667 18.5 -116 18.5c-51.333 0 -91.5 -10.667 -120.5 -32s-43.5 -50.333 -43.5 -87c0 -29.333 9.16699 -52.333 27.5 -69s48.833 -29.334 91.5 -38.001l109 -21c67.333 -14 117 -35.5 149 -64.5s48 -68.833 48 -119.5
c0 -40.667 -10.833 -76.334 -32.5 -107.001s-52.5 -54.5 -92.5 -71.5s-87.333 -25.5 -142 -25.5zM329 -272.997l-41.001 29c15.333 15.333 25.5 30 30.5 44s7.5 29 7.5 45l24 -13h-80v91h113v-63c0 -26 -4.16699 -50.167 -12.5 -72.5s-22.166 -42.5 -41.499 -60.5z" />
    <glyph glyph-name="uni0219" unicode="&#x219;" horiz-adv-x="498" 
d="M247 -9c-42 0 -80.667 5.33203 -116 15.999s-64.666 25.667 -87.999 45l31 69c24.667 -18.667 52 -32.667 82 -42s60.667 -14 92 -14c36.667 0 64.334 6.5 83.001 19.5s28 30.833 28 53.5c0 17.333 -5.83301 31.333 -17.5 42s-30.834 18.667 -57.501 24l-96 19
c-42.667 9.33301 -75 25.333 -97 48s-33 51.667 -33 87c0 30 8.16699 56.667 24.5 80s39.666 41.666 69.999 54.999s65.833 20 106.5 20c37.333 0 72 -5.33301 104 -16s58.667 -26 80 -46l-32 -67c-20.667 17.333 -44 30.833 -70 40.5s-52.333 14.5 -79 14.5
c-37.333 0 -65 -7 -83 -21s-27 -32.333 -27 -55c0 -17.333 5.5 -31.5 16.5 -42.5s28.5 -19.5 52.5 -25.5l96 -19c45.333 -9.33301 79.333 -24.666 102 -45.999s34 -50 34 -86c0 -31.333 -8.66699 -58.666 -26 -81.999s-41.333 -41 -72 -53s-66.667 -18 -108 -18z
M249 -273.001l-41.001 29c15.333 15.333 25.5 30 30.5 44s7.5 29 7.5 45l24 -13h-80v91h113v-63c0 -26 -4.16699 -50.167 -12.5 -72.5s-22.166 -42.5 -41.499 -60.5z" />
    <glyph glyph-name="uni021A" unicode="&#x21a;" horiz-adv-x="611" 
d="M252 0v618h-241v87h586v-87h-241v-618h-104zM308 -273l-41.001 29c15.333 15.333 25.5 30 30.5 44s7.5 29 7.5 45l24 -13h-80v91h113v-63c0 -26 -4.16699 -50.167 -12.5 -72.5s-22.166 -42.5 -41.499 -60.5z" />
    <glyph glyph-name="uni021B" unicode="&#x21b;" horiz-adv-x="363" 
d="M270 -9c-54.667 0 -96 14.834 -124 44.501s-42 74.167 -42 133.5v257h-98v78h98v133l101 27v-160h140v-78h-140v-248c0 -37.333 6.66699 -64 20 -80s32.666 -24 57.999 -24c12.667 0 23.834 1.16699 33.501 3.5s18.5 5.16602 26.5 8.49902v-82
c-10 -4 -21.667 -7.16699 -35 -9.5s-26 -3.5 -38 -3.5zM234 -272.999l-41.001 29c15.333 15.333 25.5 30 30.5 44s7.5 29 7.5 45l24 -13h-80v91h113v-63c0 -26 -4.16699 -50.167 -12.5 -72.5s-22.166 -42.5 -41.499 -60.5z" />
    <glyph glyph-name="uni021F" unicode="&#x21f;" horiz-adv-x="593" 
d="M74 0l-0.000976562 735.999h101v-339h-14c14.667 38 38.334 66.833 71.001 86.5s70.334 29.5 113.001 29.5c60 0 104.667 -16.5 134 -49.5s44 -82.833 44 -149.5v-314h-101v308c0 43.333 -8.5 74.833 -25.5 94.5s-43.833 29.5 -80.5 29.5
c-42.667 0 -76.834 -13.167 -102.501 -39.5s-38.5 -61.166 -38.5 -104.499v-288h-101zM255.999 775.999l-123 173h72l96 -112l96 112h72l-123 -173h-90z" />
    <glyph glyph-name="uni0226" unicode="&#x226;" horiz-adv-x="742" 
d="M10 0l314 705h89l319 -705h-107l-87 200l44 -28h-427l47 28l-87 -200h-105zM367 591l-152 -359l-24 23h355l-20 -23l-155 359h-4zM317 801v101h104v-101h-104z" />
    <glyph glyph-name="uni0227" unicode="&#x227;" horiz-adv-x="609" 
d="M267 -9c-44.667 0 -83.668 10.3311 -117.001 30.998s-59.166 50.667 -77.499 90s-27.5 86 -27.5 140c0 54.667 9.16699 101.334 27.5 140.001s44.166 68.5 77.499 89.5s72.333 31.5 117 31.5c44 0 82.333 -11 115 -33s54.334 -52 65.001 -90h-11l10 114h98
c-2 -20.667 -3.83301 -41.167 -5.5 -61.5s-2.5 -40.166 -2.5 -59.499v-383h-101v112h11c-10.667 -37.333 -32.5 -66.833 -65.5 -88.5s-70.833 -32.5 -113.5 -32.5zM291.999 69.998c43.333 0 78.166 15.333 104.499 46s39.5 76 39.5 136s-13.167 105.167 -39.5 135.5
s-61.166 45.5 -104.499 45.5c-44 0 -79.167 -15.167 -105.5 -45.5s-39.5 -75.5 -39.5 -135.5s13 -105.333 39 -136s61.333 -46 106 -46zM245.999 602.998v101h106v-101h-106z" />
    <glyph glyph-name="uni0228" unicode="&#x228;" horiz-adv-x="591" 
d="M83 0v705h462v-83h-361v-222h338v-84h-338v-232h361v-84h-462zM332 -194c-18.667 0 -36.167 1.83203 -52.5 5.49902s-30.833 8.83398 -43.5 15.501l16 49c12 -5.33301 23.667 -9.33301 35 -12s24 -4 38 -4c18 0 32.167 2.83301 42.5 8.5s15.5 13.834 15.5 24.501
c0 8 -3 14.333 -9 19s-15.667 7 -29 7c-6.66699 0 -13.5 -0.5 -20.5 -1.5s-15.167 -2.83301 -24.5 -5.5l-18 16l15 92h58l-13 -76l-28 9c8 2 16 3.66699 24 5s15.333 2 22 2c26 0 47 -6 63 -18s24 -29.333 24 -52c0 -24.667 -10.667 -44.834 -32 -60.501
s-49 -23.5 -83 -23.5z" />
    <glyph glyph-name="uni022A" unicode="&#x22a;" horiz-adv-x="779" 
d="M59 353c0 74 12.998 138.001 38.998 192.001s63.833 95.667 113.5 125s108.834 44 177.501 44c68 0 126.667 -14.667 176 -44s87.5 -71 114.5 -125s40.5 -117.667 40.5 -191c0 -74 -13.5 -138.167 -40.5 -192.5s-65.333 -96.333 -115 -126s-108.167 -44.5 -175.5 -44.5
c-68.667 0 -127.667 14.833 -177 44.5s-87.166 71.667 -113.499 126s-39.5 118.166 -39.5 191.499zM167.998 353.001c0 -56.667 8.16504 -105.5 24.498 -146.5s41 -72.167 74 -93.5s73.833 -32 122.5 -32c70.667 0 125.334 23.833 164.001 71.5s58 114.5 58 200.5
c0 57.333 -8.5 106.333 -25.5 147s-42.167 71.5 -75.5 92.5s-73.666 31.5 -120.999 31.5c-72.667 0 -127.667 -23.667 -165 -71s-56 -114 -56 -200zM235.996 925.001v63h306v-63h-306zM248.996 793.001v79h99v-79h-99zM429.996 793.001v79h99v-79h-99z" />
    <glyph glyph-name="uni022B" unicode="&#x22b;" horiz-adv-x="581" 
d="M290 -9c-50 0 -93.333 10.5 -130 31.5s-65 51 -85 90s-30 85.5 -30 139.5s10 100.5 30 139.5s48.333 69 85 90s80 31.5 130 31.5s93.5 -10.5 130.5 -31.5s65.667 -51 86 -90s30.5 -85.5 30.5 -139.5s-10.167 -100.5 -30.5 -139.5s-49 -69 -86 -90
s-80.5 -31.5 -130.5 -31.5zM290 70c44 0 79 15.333 105 46s39 76 39 136s-13 105.167 -39 135.5s-61 45.5 -105 45.5c-43.333 0 -78 -15.167 -104 -45.5s-39 -75.5 -39 -135.5s13 -105.333 39 -136s60.667 -46 104 -46zM138 707v64h306v-64h-306zM151 576v79h99v-79h-99z
M332 576v79h99v-79h-99z" />
    <glyph glyph-name="uni022C" unicode="&#x22c;" horiz-adv-x="779" 
d="M59 353c0 74 12.998 138.001 38.998 192.001s63.833 95.667 113.5 125s108.834 44 177.501 44c68 0 126.667 -14.667 176 -44s87.5 -71 114.5 -125s40.5 -117.667 40.5 -191c0 -74 -13.5 -138.167 -40.5 -192.5s-65.333 -96.333 -115 -126s-108.167 -44.5 -175.5 -44.5
c-68.667 0 -127.667 14.833 -177 44.5s-87.166 71.667 -113.499 126s-39.5 118.166 -39.5 191.499zM167.998 353.001c0 -56.667 8.16504 -105.5 24.498 -146.5s41 -72.167 74 -93.5s73.833 -32 122.5 -32c70.667 0 125.334 23.833 164.001 71.5s58 114.5 58 200.5
c0 57.333 -8.5 106.333 -25.5 147s-42.167 71.5 -75.5 92.5s-73.666 31.5 -120.999 31.5c-72.667 0 -127.667 -23.667 -165 -71s-56 -114 -56 -200zM235.996 925.001v63h306v-63h-306zM454.996 767.001c-12.667 0 -24.9971 2.33301 -36.9971 7s-25.333 11.667 -40 21
c-12.667 8.66699 -22.834 14.334 -30.501 17.001s-14.834 4 -21.501 4c-14.667 0 -26 -4 -34 -12s-13.667 -20.667 -17 -38l-50 3c2.66699 34.667 13 60.667 31 78s40.667 26 68 26c11.333 0 22.333 -1.83301 33 -5.5s23.667 -10.167 39 -19.5
c14 -9.33301 25.167 -15.5 33.5 -18.5s15.833 -4.5 22.5 -4.5c15.333 0 26.833 4 34.5 12s13.167 20.667 16.5 38l50 -3c-2.66699 -34.667 -12.834 -60.834 -30.501 -78.501s-40.167 -26.5 -67.5 -26.5z" />
    <glyph glyph-name="uni022D" unicode="&#x22d;" horiz-adv-x="581" 
d="M290 -9c-50 0 -93.333 10.5 -130 31.5s-65 51 -85 90s-30 85.5 -30 139.5s10 100.5 30 139.5s48.333 69 85 90s80 31.5 130 31.5s93.5 -10.5 130.5 -31.5s65.667 -51 86 -90s30.5 -85.5 30.5 -139.5s-10.167 -100.5 -30.5 -139.5s-49 -69 -86 -90
s-80.5 -31.5 -130.5 -31.5zM290 70c44 0 79 15.333 105 46s39 76 39 136s-13 105.167 -39 135.5s-61 45.5 -105 45.5c-43.333 0 -78 -15.167 -104 -45.5s-39 -75.5 -39 -135.5s13 -105.333 39 -136s60.667 -46 104 -46zM138 707v64h306v-64h-306zM177 549l-50.002 2
c2.66699 35.333 13 61.666 31 78.999s40.667 26 68 26c12 0 23.833 -2.16699 35.5 -6.5s24.167 -11.166 37.5 -20.499c12.667 -7.33301 23 -12.833 31 -16.5s16 -5.5 24 -5.5c15.333 0 26.833 4 34.5 12s13.167 20.667 16.5 38l50 -3
c-2.66699 -34.667 -12.834 -60.667 -30.501 -78s-40.167 -26 -67.5 -26c-12.667 0 -25.167 2.33301 -37.5 7s-25.166 11.334 -38.499 20.001c-11.333 7.33301 -21.166 12.666 -29.499 15.999s-16.166 5 -23.499 5c-14.667 0 -26 -4 -34 -12s-13.667 -20.333 -17 -37z" />
    <glyph glyph-name="uni0230" unicode="&#x230;" horiz-adv-x="779" 
d="M59 353c0 74 12.998 138.001 38.998 192.001s63.833 95.667 113.5 125s108.834 44 177.501 44c68 0 126.667 -14.667 176 -44s87.5 -71 114.5 -125s40.5 -117.667 40.5 -191c0 -74 -13.5 -138.167 -40.5 -192.5s-65.333 -96.333 -115 -126s-108.167 -44.5 -175.5 -44.5
c-68.667 0 -127.667 14.833 -177 44.5s-87.166 71.667 -113.499 126s-39.5 118.166 -39.5 191.499zM167.998 353.001c0 -56.667 8.16504 -105.5 24.498 -146.5s41 -72.167 74 -93.5s73.833 -32 122.5 -32c70.667 0 125.334 23.833 164.001 71.5s58 114.5 58 200.5
c0 57.333 -8.5 106.333 -25.5 147s-42.167 71.5 -75.5 92.5s-73.666 31.5 -120.999 31.5c-72.667 0 -127.667 -23.667 -165 -71s-56 -114 -56 -200zM235.996 925.001v63h306v-63h-306zM339.996 793.001v79h99v-79h-99z" />
    <glyph glyph-name="uni0231" unicode="&#x231;" horiz-adv-x="581" 
d="M290 -9c-50 0 -93.333 10.5 -130 31.5s-65 51 -85 90s-30 85.5 -30 139.5s10 100.5 30 139.5s48.333 69 85 90s80 31.5 130 31.5s93.5 -10.5 130.5 -31.5s65.667 -51 86 -90s30.5 -85.5 30.5 -139.5s-10.167 -100.5 -30.5 -139.5s-49 -69 -86 -90
s-80.5 -31.5 -130.5 -31.5zM290 70c44 0 79 15.333 105 46s39 76 39 136s-13 105.167 -39 135.5s-61 45.5 -105 45.5c-43.333 0 -78 -15.167 -104 -45.5s-39 -75.5 -39 -135.5s13 -105.333 39 -136s60.667 -46 104 -46zM138 707v64h306v-64h-306zM242 576v79h99v-79h-99z
" />
    <glyph glyph-name="uni0232" unicode="&#x232;" horiz-adv-x="617" 
d="M256 0v331l23 -66l-297 440h120l221 -337h-25l221 337h116l-296 -440l21 66v-331h-104zM141 811v63h336v-63h-336z" />
    </font>
</defs>
</svg>
